<svg width="28" height="26" viewBox="0 0 28 26" fill="none" xmlns="http://www.w3.org/2000/svg">
<path d="M20.6875 2.81658L15.5829 2.8166V1.65869C15.5829 1.21327 15.2221 0.852441 14.7767 0.852441C14.3312 0.852441 13.9704 1.21327 13.9704 1.65869V2.81627H9.02041V1.65869C9.02041 1.21327 8.65958 0.852441 8.21416 0.852441C7.76874 0.852441 7.40791 1.21327 7.40791 1.65869V2.81627H2.3125C1.50483 2.81627 0.85 3.4711 0.85 4.27877V20.685C0.85 21.4927 1.50483 22.1475 2.3125 22.1475H20.6875C21.4952 22.1475 22.15 21.4927 22.15 20.685V4.27877C22.15 3.47139 21.4951 2.81658 20.6875 2.81658ZM20.5375 20.535H2.4625V4.42877H7.40791V4.93995C7.40791 5.38534 7.76873 5.7462 8.21416 5.7462C8.65958 5.7462 9.02041 5.38534 9.02041 4.93995V4.4291H13.9704V4.94027C13.9704 5.38569 14.3312 5.74652 14.7767 5.74652C15.2221 5.74652 15.5829 5.38569 15.5829 4.94027V4.4291H20.5375V20.535ZM16.0938 11.6478H17.4062C17.8513 11.6478 18.2125 11.2867 18.2125 10.8416V9.52909C18.2125 9.08399 17.8513 8.72283 17.4062 8.72283H16.0938C15.6487 8.72283 15.2875 9.08399 15.2875 9.52909V10.8416C15.2875 11.2867 15.6487 11.6478 16.0938 11.6478ZM16.0938 16.8975H17.4062C17.8513 16.8975 18.2125 16.5367 18.2125 16.0913V14.7788C18.2125 14.3337 17.8513 13.9725 17.4062 13.9725H16.0938C15.6487 13.9725 15.2875 14.3337 15.2875 14.7788V16.0913C15.2875 16.5371 15.6488 16.8975 16.0938 16.8975ZM12.1562 13.9725H10.8438C10.3987 13.9725 10.0375 14.3337 10.0375 14.7788V16.0913C10.0375 16.5367 10.3987 16.8975 10.8438 16.8975H12.1562C12.6013 16.8975 12.9625 16.5367 12.9625 16.0913V14.7788C12.9625 14.334 12.6014 13.9725 12.1562 13.9725ZM12.1562 8.72283H10.8438C10.3987 8.72283 10.0375 9.08399 10.0375 9.52909V10.8416C10.0375 11.2867 10.3987 11.6478 10.8438 11.6478H12.1562C12.6013 11.6478 12.9625 11.2867 12.9625 10.8416V9.52909C12.9625 9.08362 12.6013 8.72283 12.1562 8.72283ZM6.90625 8.72283H5.59375C5.14866 8.72283 4.7875 9.08399 4.7875 9.52909V10.8416C4.7875 11.2867 5.14866 11.6478 5.59375 11.6478H6.90625C7.35134 11.6478 7.7125 11.2867 7.7125 10.8416V9.52909C7.7125 9.08362 7.35129 8.72283 6.90625 8.72283ZM6.90625 13.9725H5.59375C5.14866 13.9725 4.7875 14.3337 4.7875 14.7788V16.0913C4.7875 16.5367 5.14871 16.8975 5.59375 16.8975H6.90625C7.35129 16.8975 7.7125 16.5367 7.7125 16.0913V14.7788C7.7125 14.334 7.35139 13.9725 6.90625 13.9725Z" fill="black" stroke="black" stroke-width="0.3"/>
<circle cx="21" cy="19.0001" r="7" fill="black"/>
<path d="M24.1198 18.3543H21.8958V16.1303C21.8958 15.9206 21.7253 15.7501 21.5156 15.7501H20.7344C20.5247 15.7501 20.3542 15.9206 20.3542 16.1303V18.3543H18.1302C17.9205 18.3543 17.75 18.5248 17.75 18.7345V19.5157C17.75 19.7254 17.9205 19.896 18.1302 19.896H20.3542V22.1199C20.3542 22.3296 20.5247 22.5001 20.7344 22.5001H21.5156C21.7253 22.5001 21.8958 22.3296 21.8958 22.1199V19.896H24.1198C24.3295 19.896 24.5 19.7254 24.5 19.5157V18.7345C24.5 18.5248 24.3295 18.3543 24.1198 18.3543Z" fill="white" stroke="white" stroke-width="0.5"/>
</svg>
