<svg width="22" height="23" viewBox="0 0 22 23" fill="none" xmlns="http://www.w3.org/2000/svg">
<path d="M8.38015 19.9869C6.86401 19.5342 5.4909 18.6967 4.39448 17.5559C4.74725 17.1375 4.96715 16.6234 5.02606 16.0793C5.08496 15.5352 4.98019 14.9859 4.72514 14.5017C4.47009 14.0175 4.07637 13.6204 3.59436 13.3612C3.11235 13.102 2.56397 12.9926 2.0194 13.0468C1.89533 12.4391 1.83299 11.8204 1.83331 11.2002C1.83331 10.2423 1.97998 9.31827 2.25315 8.45019H2.29165C2.75904 8.45034 3.21875 8.33136 3.62738 8.10449C4.03602 7.87762 4.38009 7.55034 4.6271 7.15356C4.87411 6.75678 5.01592 6.30359 5.03914 5.83677C5.06235 5.36996 4.9662 4.90494 4.75977 4.48561C5.83438 3.48498 7.13397 2.75761 8.54882 2.3649C8.77907 2.817 9.12991 3.19659 9.56251 3.46167C9.99512 3.72675 10.4926 3.86698 11 3.86686C11.5073 3.86698 12.0048 3.72675 12.4374 3.46167C12.8701 3.19659 13.2209 2.817 13.4511 2.3649C14.866 2.75761 16.1656 3.48498 17.2402 4.48561C17.0323 4.90787 16.9362 5.37645 16.9612 5.84647C16.9862 6.31649 17.1314 6.77224 17.3829 7.17008C17.6344 7.56792 17.9839 7.89454 18.3978 8.11867C18.8117 8.34281 19.2762 8.45695 19.7468 8.45019C20.0259 9.34014 20.1675 10.2675 20.1666 11.2002C20.1666 11.8327 20.1025 12.4505 19.9806 13.0468C19.436 12.9926 18.8876 13.102 18.4056 13.3612C17.9236 13.6204 17.5299 14.0175 17.2748 14.5017C17.0198 14.9859 16.915 15.5352 16.9739 16.0793C17.0328 16.6234 17.2527 17.1375 17.6055 17.5559C16.5091 18.6967 15.136 19.5342 13.6198 19.9869C13.4418 19.432 13.0921 18.9479 12.6213 18.6045C12.1505 18.2611 11.5827 18.0761 11 18.0761C10.4172 18.0761 9.84949 18.2611 9.37866 18.6045C8.90782 18.9479 8.55819 19.432 8.38015 19.9869Z" stroke="black" stroke-width="2" stroke-linejoin="round"/>
<path d="M11 14.4085C11.4213 14.4085 11.8385 14.3255 12.2277 14.1643C12.617 14.0031 12.9707 13.7667 13.2686 13.4688C13.5665 13.1709 13.8028 12.8172 13.9641 12.428C14.1253 12.0387 14.2083 11.6215 14.2083 11.2002C14.2083 10.7789 14.1253 10.3617 13.9641 9.97241C13.8028 9.58316 13.5665 9.22947 13.2686 8.93155C12.9707 8.63363 12.617 8.39731 12.2277 8.23607C11.8385 8.07484 11.4213 7.99185 11 7.99185C10.1491 7.99185 9.333 8.32987 8.73133 8.93155C8.12965 9.53323 7.79163 10.3493 7.79163 11.2002C7.79163 12.0511 8.12965 12.8671 8.73133 13.4688C9.333 14.0705 10.1491 14.4085 11 14.4085V14.4085Z" stroke="black" stroke-width="2" stroke-linejoin="round"/>
</svg>
