<svg width="21" height="21" viewBox="0 0 21 21" fill="none" xmlns="http://www.w3.org/2000/svg">
<path d="M16.1579 3.42992H14.4571V2.57244C14.4571 2.34503 14.3675 2.12692 14.208 1.96612C14.0485 1.80531 13.8322 1.71497 13.6067 1.71497C13.3811 1.71497 13.1648 1.80531 13.0053 1.96612C12.8458 2.12692 12.7563 2.34503 12.7563 2.57244V3.42992H7.65375V2.57244C7.65375 2.34503 7.56415 2.12692 7.40467 1.96612C7.24519 1.80531 7.02888 1.71497 6.80334 1.71497C6.57779 1.71497 6.36148 1.80531 6.202 1.96612C6.04252 2.12692 5.95292 2.34503 5.95292 2.57244V3.42992H4.25209C3.57545 3.42992 2.92653 3.70094 2.44808 4.18337C1.96963 4.66579 1.70084 5.3201 1.70084 6.00235V16.2921C1.70084 16.9743 1.96963 17.6286 2.44808 18.1111C2.92653 18.5935 3.57545 18.8645 4.25209 18.8645H16.1579C16.8346 18.8645 17.4835 18.5935 17.9619 18.1111C18.4404 17.6286 18.7092 16.9743 18.7092 16.2921V6.00235C18.7092 5.3201 18.4404 4.66579 17.9619 4.18337C17.4835 3.70094 16.8346 3.42992 16.1579 3.42992ZM17.0083 16.2921C17.0083 16.5195 16.9187 16.7376 16.7593 16.8984C16.5998 17.0592 16.3835 17.1496 16.1579 17.1496H4.25209C4.02654 17.1496 3.81023 17.0592 3.65075 16.8984C3.49127 16.7376 3.40167 16.5195 3.40167 16.2921V10.2897H17.0083V16.2921ZM17.0083 8.57478H3.40167V6.00235C3.40167 5.77494 3.49127 5.55683 3.65075 5.39602C3.81023 5.23522 4.02654 5.14488 4.25209 5.14488H5.95292V6.00235C5.95292 6.22977 6.04252 6.44787 6.202 6.60868C6.36148 6.76949 6.57779 6.85983 6.80334 6.85983C7.02888 6.85983 7.24519 6.76949 7.40467 6.60868C7.56415 6.44787 7.65375 6.22977 7.65375 6.00235V5.14488H12.7563V6.00235C12.7563 6.22977 12.8458 6.44787 13.0053 6.60868C13.1648 6.76949 13.3811 6.85983 13.6067 6.85983C13.8322 6.85983 14.0485 6.76949 14.208 6.60868C14.3675 6.44787 14.4571 6.22977 14.4571 6.00235V5.14488H16.1579C16.3835 5.14488 16.5998 5.23522 16.7593 5.39602C16.9187 5.55683 17.0083 5.77494 17.0083 6.00235V8.57478Z" fill="white"/>
</svg>
