<svg width="38" height="38" viewBox="0 0 38 38" fill="none" xmlns="http://www.w3.org/2000/svg">
<circle cx="19" cy="19" r="19" fill="#B9B2B2" fill-opacity="0.12"/>
<path d="M24.8334 12.3333H23.1667V11.5C23.1667 11.279 23.0789 11.067 22.9226 10.9107C22.7663 10.7545 22.5544 10.6667 22.3334 10.6667C22.1123 10.6667 21.9004 10.7545 21.7441 10.9107C21.5878 11.067 21.5 11.279 21.5 11.5V12.3333H16.5V11.5C16.5 11.279 16.4122 11.067 16.2559 10.9107C16.0997 10.7545 15.8877 10.6667 15.6667 10.6667C15.4457 10.6667 15.2337 10.7545 15.0774 10.9107C14.9212 11.067 14.8334 11.279 14.8334 11.5V12.3333H13.1667C12.5036 12.3333 11.8678 12.5967 11.3989 13.0656C10.9301 13.5344 10.6667 14.1703 10.6667 14.8333V24.8333C10.6667 25.4964 10.9301 26.1323 11.3989 26.6011C11.8678 27.0699 12.5036 27.3333 13.1667 27.3333H24.8334C25.4964 27.3333 26.1323 27.0699 26.6011 26.6011C27.07 26.1323 27.3334 25.4964 27.3334 24.8333V14.8333C27.3334 14.1703 27.07 13.5344 26.6011 13.0656C26.1323 12.5967 25.4964 12.3333 24.8334 12.3333V12.3333ZM25.6667 24.8333C25.6667 25.0543 25.5789 25.2663 25.4226 25.4226C25.2663 25.5789 25.0544 25.6667 24.8334 25.6667H13.1667C12.9457 25.6667 12.7337 25.5789 12.5774 25.4226C12.4212 25.2663 12.3334 25.0543 12.3334 24.8333V19H25.6667V24.8333ZM25.6667 17.3333H12.3334V14.8333C12.3334 14.6123 12.4212 14.4003 12.5774 14.2441C12.7337 14.0878 12.9457 14 13.1667 14H14.8334V14.8333C14.8334 15.0543 14.9212 15.2663 15.0774 15.4226C15.2337 15.5789 15.4457 15.6667 15.6667 15.6667C15.8877 15.6667 16.0997 15.5789 16.2559 15.4226C16.4122 15.2663 16.5 15.0543 16.5 14.8333V14H21.5V14.8333C21.5 15.0543 21.5878 15.2663 21.7441 15.4226C21.9004 15.5789 22.1123 15.6667 22.3334 15.6667C22.5544 15.6667 22.7663 15.5789 22.9226 15.4226C23.0789 15.2663 23.1667 15.0543 23.1667 14.8333V14H24.8334C25.0544 14 25.2663 14.0878 25.4226 14.2441C25.5789 14.4003 25.6667 14.6123 25.6667 14.8333V17.3333Z" fill="black"/>
</svg>
