<svg width="28" height="29" viewBox="0 0 28 29" fill="none" xmlns="http://www.w3.org/2000/svg">
<path d="M22.1044 5.01816H19.8205V3.86672C19.8205 3.56133 19.7001 3.26846 19.486 3.05252C19.2718 2.83658 18.9814 2.71527 18.6785 2.71527C18.3756 2.71527 18.0852 2.83658 17.871 3.05252C17.6568 3.26846 17.5365 3.56133 17.5365 3.86672V5.01816H10.6847V3.86672C10.6847 3.56133 10.5644 3.26846 10.3503 3.05252C10.1361 2.83658 9.84565 2.71527 9.54278 2.71527C9.23991 2.71527 8.94945 2.83658 8.73529 3.05252C8.52113 3.26846 8.40082 3.56133 8.40082 3.86672V5.01816H6.11689C5.20828 5.01816 4.33689 5.3821 3.69442 6.02991C3.05194 6.67773 2.69099 7.55635 2.69099 8.4725V22.2898C2.69099 23.206 3.05194 24.0846 3.69442 24.7324C4.33689 25.3802 5.20828 25.7442 6.11689 25.7442H22.1044C23.013 25.7442 23.8844 25.3802 24.5269 24.7324C25.1693 24.0846 25.5303 23.206 25.5303 22.2898V8.4725C25.5303 7.55635 25.1693 6.67773 24.5269 6.02991C23.8844 5.3821 23.013 5.01816 22.1044 5.01816ZM23.2464 22.2898C23.2464 22.5952 23.126 22.8881 22.9119 23.104C22.6977 23.32 22.4073 23.4413 22.1044 23.4413H6.11689C5.81402 23.4413 5.52356 23.32 5.3094 23.104C5.09524 22.8881 4.97492 22.5952 4.97492 22.2898V14.2297H23.2464V22.2898ZM23.2464 11.9268H4.97492V8.4725C4.97492 8.16712 5.09524 7.87424 5.3094 7.6583C5.52356 7.44237 5.81402 7.32105 6.11689 7.32105H8.40082V8.4725C8.40082 8.77788 8.52113 9.07076 8.73529 9.28669C8.94945 9.50263 9.23991 9.62395 9.54278 9.62395C9.84565 9.62395 10.1361 9.50263 10.3503 9.28669C10.5644 9.07076 10.6847 8.77788 10.6847 8.4725V7.32105H17.5365V8.4725C17.5365 8.77788 17.6568 9.07076 17.871 9.28669C18.0852 9.50263 18.3756 9.62395 18.6785 9.62395C18.9814 9.62395 19.2718 9.50263 19.486 9.28669C19.7001 9.07076 19.8205 8.77788 19.8205 8.4725V7.32105H22.1044C22.4073 7.32105 22.6977 7.44237 22.9119 7.6583C23.126 7.87424 23.2464 8.16712 23.2464 8.4725V11.9268Z" fill="#D57C09"/>
</svg>
