<svg width="440" height="232" viewBox="0 0 440 232" fill="none" xmlns="http://www.w3.org/2000/svg">
<path d="M338.536 105.084C338.376 105.084 338.252 105.04 338.164 104.952C338.084 104.856 338.044 104.728 338.044 104.568V96.972C338.044 96.804 338.084 96.676 338.164 96.588C338.252 96.5 338.376 96.456 338.536 96.456C338.696 96.456 338.816 96.5 338.896 96.588C338.984 96.676 339.028 96.804 339.028 96.972V104.568C339.028 104.728 338.988 104.856 338.908 104.952C338.828 105.04 338.704 105.084 338.536 105.084ZM341.474 105.084C341.314 105.084 341.194 105.04 341.114 104.952C341.034 104.864 340.994 104.74 340.994 104.58V99.576C340.994 99.416 341.034 99.296 341.114 99.216C341.194 99.128 341.31 99.084 341.462 99.084C341.614 99.084 341.73 99.128 341.81 99.216C341.898 99.296 341.942 99.416 341.942 99.576V100.608L341.81 100.464C341.978 100 342.25 99.652 342.626 99.42C343.01 99.18 343.45 99.06 343.946 99.06C344.41 99.06 344.794 99.144 345.098 99.312C345.41 99.48 345.642 99.736 345.794 100.08C345.946 100.416 346.022 100.844 346.022 101.364V104.58C346.022 104.74 345.978 104.864 345.89 104.952C345.81 105.04 345.694 105.084 345.542 105.084C345.382 105.084 345.258 105.04 345.17 104.952C345.09 104.864 345.05 104.74 345.05 104.58V101.424C345.05 100.88 344.942 100.484 344.726 100.236C344.518 99.98 344.182 99.852 343.718 99.852C343.182 99.852 342.754 100.02 342.434 100.356C342.122 100.684 341.966 101.124 341.966 101.676V104.58C341.966 104.916 341.802 105.084 341.474 105.084ZM349.65 105.108C349.25 105.108 348.89 105.032 348.57 104.88C348.258 104.72 348.01 104.504 347.826 104.232C347.642 103.96 347.55 103.656 347.55 103.32C347.55 102.888 347.658 102.548 347.874 102.3C348.098 102.052 348.462 101.876 348.966 101.772C349.478 101.668 350.174 101.616 351.054 101.616H351.594V102.252H351.066C350.418 102.252 349.906 102.284 349.53 102.348C349.162 102.404 348.902 102.504 348.75 102.648C348.606 102.792 348.534 102.996 348.534 103.26C348.534 103.588 348.646 103.856 348.87 104.064C349.102 104.272 349.414 104.376 349.806 104.376C350.126 104.376 350.406 104.3 350.646 104.148C350.894 103.996 351.086 103.788 351.222 103.524C351.366 103.26 351.438 102.956 351.438 102.612V101.244C351.438 100.748 351.338 100.392 351.138 100.176C350.938 99.952 350.61 99.84 350.154 99.84C349.874 99.84 349.594 99.876 349.314 99.948C349.034 100.02 348.738 100.136 348.426 100.296C348.314 100.352 348.218 100.372 348.138 100.356C348.058 100.332 347.994 100.288 347.946 100.224C347.898 100.16 347.87 100.088 347.862 100.008C347.854 99.92 347.87 99.836 347.91 99.756C347.958 99.676 348.03 99.612 348.126 99.564C348.478 99.388 348.826 99.26 349.17 99.18C349.514 99.1 349.842 99.06 350.154 99.06C350.658 99.06 351.074 99.144 351.402 99.312C351.73 99.472 351.974 99.72 352.134 100.056C352.294 100.384 352.374 100.808 352.374 101.328V104.58C352.374 104.74 352.334 104.864 352.254 104.952C352.182 105.04 352.074 105.084 351.93 105.084C351.778 105.084 351.662 105.04 351.582 104.952C351.502 104.864 351.462 104.74 351.462 104.58V103.644H351.57C351.506 103.948 351.382 104.208 351.198 104.424C351.022 104.64 350.802 104.808 350.538 104.928C350.274 105.048 349.978 105.108 349.65 105.108ZM356.65 105.108C356.066 105.108 355.562 104.98 355.138 104.724C354.714 104.468 354.386 104.112 354.154 103.656C353.93 103.192 353.818 102.656 353.818 102.048C353.818 101.584 353.882 101.168 354.01 100.8C354.138 100.432 354.326 100.12 354.574 99.864C354.822 99.6 355.118 99.4 355.462 99.264C355.814 99.128 356.21 99.06 356.65 99.06C356.938 99.06 357.238 99.104 357.55 99.192C357.862 99.28 358.146 99.432 358.402 99.648C358.482 99.704 358.534 99.772 358.558 99.852C358.582 99.932 358.582 100.012 358.558 100.092C358.534 100.164 358.494 100.228 358.438 100.284C358.382 100.332 358.31 100.36 358.222 100.368C358.142 100.376 358.058 100.348 357.97 100.284C357.762 100.124 357.55 100.012 357.334 99.948C357.118 99.884 356.91 99.852 356.71 99.852C356.398 99.852 356.126 99.904 355.894 100.008C355.662 100.104 355.466 100.244 355.306 100.428C355.146 100.612 355.022 100.84 354.934 101.112C354.854 101.384 354.814 101.7 354.814 102.06C354.814 102.756 354.978 103.308 355.306 103.716C355.634 104.116 356.102 104.316 356.71 104.316C356.91 104.316 357.114 104.284 357.322 104.22C357.538 104.156 357.754 104.044 357.97 103.884C358.058 103.82 358.142 103.792 358.222 103.8C358.302 103.808 358.37 103.84 358.426 103.896C358.482 103.944 358.518 104.008 358.534 104.088C358.558 104.168 358.558 104.248 358.534 104.328C358.51 104.4 358.458 104.464 358.378 104.52C358.122 104.728 357.842 104.88 357.538 104.976C357.234 105.064 356.938 105.108 356.65 105.108ZM362.072 105.108C361.616 105.108 361.232 105.028 360.92 104.868C360.616 104.7 360.388 104.46 360.236 104.148C360.084 103.828 360.008 103.44 360.008 102.984V99.924H359.204C359.068 99.924 358.964 99.892 358.892 99.828C358.82 99.756 358.784 99.66 358.784 99.54C358.784 99.42 358.82 99.328 358.892 99.264C358.964 99.2 359.068 99.168 359.204 99.168H360.008V97.788C360.008 97.628 360.052 97.508 360.14 97.428C360.228 97.34 360.348 97.296 360.5 97.296C360.652 97.296 360.768 97.34 360.848 97.428C360.936 97.508 360.98 97.628 360.98 97.788V99.168H362.492C362.628 99.168 362.732 99.2 362.804 99.264C362.876 99.328 362.912 99.42 362.912 99.54C362.912 99.66 362.876 99.756 362.804 99.828C362.732 99.892 362.628 99.924 362.492 99.924H360.98V102.888C360.98 103.344 361.076 103.692 361.268 103.932C361.46 104.164 361.772 104.28 362.204 104.28C362.356 104.28 362.484 104.264 362.588 104.232C362.7 104.2 362.792 104.184 362.864 104.184C362.936 104.176 362.996 104.2 363.044 104.256C363.092 104.312 363.116 104.408 363.116 104.544C363.116 104.64 363.096 104.728 363.056 104.808C363.024 104.888 362.964 104.944 362.876 104.976C362.78 105.008 362.652 105.036 362.492 105.06C362.34 105.092 362.2 105.108 362.072 105.108ZM364.478 105.06C364.318 105.06 364.198 105.016 364.118 104.928C364.038 104.832 363.998 104.7 363.998 104.532V99.624C363.998 99.456 364.038 99.328 364.118 99.24C364.198 99.152 364.318 99.108 364.478 99.108C364.63 99.108 364.75 99.152 364.838 99.24C364.926 99.328 364.97 99.456 364.97 99.624V104.532C364.97 104.7 364.926 104.832 364.838 104.928C364.758 105.016 364.638 105.06 364.478 105.06ZM364.478 97.764C364.278 97.764 364.122 97.712 364.01 97.608C363.898 97.496 363.842 97.348 363.842 97.164C363.842 96.972 363.898 96.828 364.01 96.732C364.122 96.628 364.278 96.576 364.478 96.576C364.686 96.576 364.842 96.628 364.946 96.732C365.058 96.828 365.114 96.972 365.114 97.164C365.114 97.348 365.058 97.496 364.946 97.608C364.842 97.712 364.686 97.764 364.478 97.764ZM368.959 105.084C368.823 105.084 368.703 105.048 368.599 104.976C368.495 104.896 368.407 104.776 368.335 104.616L366.259 99.768C366.203 99.648 366.183 99.536 366.199 99.432C366.215 99.328 366.263 99.244 366.343 99.18C366.423 99.116 366.535 99.084 366.679 99.084C366.807 99.084 366.907 99.112 366.979 99.168C367.051 99.224 367.115 99.324 367.171 99.468L369.139 104.28H368.815L370.819 99.468C370.875 99.324 370.939 99.224 371.011 99.168C371.083 99.112 371.187 99.084 371.323 99.084C371.451 99.084 371.547 99.116 371.611 99.18C371.683 99.244 371.723 99.328 371.731 99.432C371.747 99.528 371.731 99.636 371.683 99.756L369.583 104.616C369.527 104.776 369.443 104.896 369.331 104.976C369.227 105.048 369.103 105.084 368.959 105.084ZM375.509 105.108C374.893 105.108 374.361 104.988 373.913 104.748C373.473 104.5 373.129 104.152 372.881 103.704C372.641 103.256 372.521 102.72 372.521 102.096C372.521 101.488 372.641 100.96 372.881 100.512C373.121 100.056 373.449 99.7 373.865 99.444C374.289 99.188 374.777 99.06 375.329 99.06C375.721 99.06 376.073 99.128 376.385 99.264C376.697 99.392 376.961 99.58 377.177 99.828C377.401 100.076 377.569 100.376 377.681 100.728C377.801 101.08 377.861 101.476 377.861 101.916C377.861 102.044 377.825 102.14 377.753 102.204C377.681 102.26 377.577 102.288 377.441 102.288H373.265V101.652H377.213L377.021 101.808C377.021 101.376 376.957 101.012 376.829 100.716C376.701 100.412 376.513 100.18 376.265 100.02C376.025 99.86 375.721 99.78 375.353 99.78C374.945 99.78 374.597 99.876 374.309 100.068C374.029 100.252 373.817 100.512 373.673 100.848C373.529 101.176 373.457 101.56 373.457 102V102.072C373.457 102.808 373.633 103.368 373.985 103.752C374.345 104.136 374.853 104.328 375.509 104.328C375.781 104.328 376.049 104.292 376.313 104.22C376.585 104.148 376.849 104.028 377.105 103.86C377.217 103.788 377.317 103.756 377.405 103.764C377.501 103.764 377.577 103.792 377.633 103.848C377.689 103.896 377.725 103.96 377.741 104.04C377.765 104.112 377.757 104.192 377.717 104.28C377.685 104.368 377.617 104.444 377.513 104.508C377.249 104.7 376.937 104.848 376.577 104.952C376.217 105.056 375.861 105.108 375.509 105.108ZM386.153 105.108C385.321 105.108 384.609 104.932 384.017 104.58C383.425 104.228 382.969 103.728 382.649 103.08C382.337 102.432 382.181 101.66 382.181 100.764C382.181 100.092 382.269 99.492 382.445 98.964C382.629 98.428 382.889 97.976 383.225 97.608C383.569 97.232 383.989 96.944 384.485 96.744C384.981 96.536 385.537 96.432 386.153 96.432C386.649 96.432 387.121 96.504 387.569 96.648C388.017 96.784 388.405 96.988 388.733 97.26C388.837 97.34 388.905 97.432 388.937 97.536C388.977 97.632 388.981 97.728 388.949 97.824C388.925 97.912 388.877 97.988 388.805 98.052C388.741 98.108 388.661 98.136 388.565 98.136C388.469 98.136 388.361 98.096 388.241 98.016C387.953 97.784 387.637 97.612 387.293 97.5C386.949 97.388 386.577 97.332 386.177 97.332C385.545 97.332 385.009 97.468 384.569 97.74C384.129 98.004 383.797 98.392 383.573 98.904C383.349 99.416 383.237 100.036 383.237 100.764C383.237 101.492 383.349 102.116 383.573 102.636C383.797 103.148 384.129 103.54 384.569 103.812C385.009 104.076 385.545 104.208 386.177 104.208C386.569 104.208 386.941 104.152 387.293 104.04C387.645 103.92 387.969 103.744 388.265 103.512C388.385 103.432 388.493 103.396 388.589 103.404C388.685 103.404 388.765 103.432 388.829 103.488C388.893 103.544 388.937 103.616 388.961 103.704C388.993 103.792 388.993 103.884 388.961 103.98C388.937 104.076 388.877 104.16 388.781 104.232C388.445 104.52 388.049 104.74 387.593 104.892C387.145 105.036 386.665 105.108 386.153 105.108ZM392.371 105.108C391.899 105.108 391.507 105.024 391.195 104.856C390.891 104.68 390.659 104.42 390.499 104.076C390.347 103.732 390.271 103.304 390.271 102.792V99.576C390.271 99.408 390.311 99.284 390.391 99.204C390.479 99.124 390.599 99.084 390.751 99.084C390.911 99.084 391.031 99.124 391.111 99.204C391.199 99.284 391.243 99.408 391.243 99.576V102.78C391.243 103.292 391.347 103.676 391.555 103.932C391.771 104.18 392.107 104.304 392.563 104.304C393.059 104.304 393.463 104.136 393.775 103.8C394.087 103.464 394.243 103.024 394.243 102.48V99.576C394.243 99.408 394.283 99.284 394.363 99.204C394.451 99.124 394.575 99.084 394.735 99.084C394.887 99.084 395.003 99.124 395.083 99.204C395.171 99.284 395.215 99.408 395.215 99.576V104.58C395.215 104.916 395.059 105.084 394.747 105.084C394.595 105.084 394.475 105.04 394.387 104.952C394.307 104.864 394.267 104.74 394.267 104.58V103.488L394.423 103.656C394.263 104.128 393.999 104.488 393.631 104.736C393.271 104.984 392.851 105.108 392.371 105.108ZM399.001 105.108C398.641 105.108 398.277 105.064 397.909 104.976C397.549 104.888 397.213 104.736 396.901 104.52C396.821 104.464 396.765 104.4 396.733 104.328C396.701 104.248 396.689 104.172 396.697 104.1C396.713 104.02 396.745 103.952 396.793 103.896C396.849 103.84 396.913 103.808 396.985 103.8C397.065 103.784 397.153 103.8 397.249 103.848C397.561 104.04 397.861 104.176 398.149 104.256C398.445 104.328 398.737 104.364 399.025 104.364C399.481 104.364 399.825 104.28 400.057 104.112C400.289 103.944 400.405 103.716 400.405 103.428C400.405 103.204 400.329 103.028 400.177 102.9C400.025 102.764 399.785 102.66 399.457 102.588L398.365 102.348C397.861 102.244 397.485 102.064 397.237 101.808C396.997 101.552 396.877 101.22 396.877 100.812C396.877 100.452 396.969 100.144 397.153 99.888C397.345 99.624 397.613 99.42 397.957 99.276C398.301 99.132 398.701 99.06 399.157 99.06C399.509 99.06 399.841 99.108 400.153 99.204C400.473 99.292 400.761 99.436 401.017 99.636C401.097 99.692 401.149 99.76 401.173 99.84C401.205 99.912 401.209 99.988 401.185 100.068C401.169 100.14 401.133 100.204 401.077 100.26C401.021 100.308 400.953 100.336 400.873 100.344C400.793 100.352 400.709 100.328 400.621 100.272C400.381 100.112 400.137 99.996 399.889 99.924C399.641 99.844 399.397 99.804 399.157 99.804C398.709 99.804 398.369 99.892 398.137 100.068C397.905 100.244 397.789 100.476 397.789 100.764C397.789 100.988 397.861 101.172 398.005 101.316C398.149 101.46 398.373 101.564 398.677 101.628L399.769 101.856C400.289 101.968 400.677 102.148 400.933 102.396C401.197 102.636 401.329 102.964 401.329 103.38C401.329 103.908 401.117 104.328 400.693 104.64C400.269 104.952 399.705 105.108 399.001 105.108ZM405.092 105.108C404.636 105.108 404.252 105.028 403.94 104.868C403.636 104.7 403.408 104.46 403.256 104.148C403.104 103.828 403.028 103.44 403.028 102.984V99.924H402.224C402.088 99.924 401.984 99.892 401.912 99.828C401.84 99.756 401.804 99.66 401.804 99.54C401.804 99.42 401.84 99.328 401.912 99.264C401.984 99.2 402.088 99.168 402.224 99.168H403.028V97.788C403.028 97.628 403.072 97.508 403.16 97.428C403.248 97.34 403.368 97.296 403.52 97.296C403.672 97.296 403.788 97.34 403.868 97.428C403.956 97.508 404 97.628 404 97.788V99.168H405.512C405.648 99.168 405.752 99.2 405.824 99.264C405.896 99.328 405.932 99.42 405.932 99.54C405.932 99.66 405.896 99.756 405.824 99.828C405.752 99.892 405.648 99.924 405.512 99.924H404V102.888C404 103.344 404.096 103.692 404.288 103.932C404.48 104.164 404.792 104.28 405.224 104.28C405.376 104.28 405.504 104.264 405.608 104.232C405.72 104.2 405.812 104.184 405.884 104.184C405.956 104.176 406.016 104.2 406.064 104.256C406.112 104.312 406.136 104.408 406.136 104.544C406.136 104.64 406.116 104.728 406.076 104.808C406.044 104.888 405.984 104.944 405.896 104.976C405.8 105.008 405.672 105.036 405.512 105.06C405.36 105.092 405.22 105.108 405.092 105.108ZM409.313 105.108C408.745 105.108 408.253 104.984 407.837 104.736C407.421 104.488 407.097 104.14 406.865 103.692C406.641 103.236 406.529 102.7 406.529 102.084C406.529 101.62 406.593 101.204 406.721 100.836C406.849 100.46 407.037 100.14 407.285 99.876C407.533 99.612 407.825 99.412 408.161 99.276C408.505 99.132 408.889 99.06 409.313 99.06C409.881 99.06 410.373 99.184 410.789 99.432C411.205 99.68 411.525 100.032 411.749 100.488C411.981 100.936 412.097 101.468 412.097 102.084C412.097 102.548 412.033 102.964 411.905 103.332C411.777 103.7 411.589 104.02 411.341 104.292C411.093 104.556 410.797 104.76 410.453 104.904C410.117 105.04 409.737 105.108 409.313 105.108ZM409.313 104.328C409.673 104.328 409.989 104.24 410.261 104.064C410.533 103.888 410.741 103.632 410.885 103.296C411.037 102.96 411.113 102.556 411.113 102.084C411.113 101.356 410.949 100.8 410.621 100.416C410.301 100.032 409.865 99.84 409.313 99.84C408.945 99.84 408.625 99.928 408.353 100.104C408.089 100.272 407.881 100.524 407.729 100.86C407.585 101.188 407.513 101.596 407.513 102.084C407.513 102.804 407.677 103.36 408.005 103.752C408.333 104.136 408.769 104.328 409.313 104.328ZM414.061 105.084C413.901 105.084 413.781 105.04 413.701 104.952C413.621 104.864 413.581 104.74 413.581 104.58V99.576C413.581 99.416 413.621 99.296 413.701 99.216C413.781 99.128 413.897 99.084 414.049 99.084C414.201 99.084 414.317 99.128 414.397 99.216C414.485 99.296 414.529 99.416 414.529 99.576V100.632L414.397 100.464C414.549 100.016 414.793 99.672 415.129 99.432C415.473 99.184 415.881 99.06 416.353 99.06C416.849 99.06 417.249 99.18 417.553 99.42C417.865 99.652 418.073 100.016 418.177 100.512H417.997C418.141 100.064 418.397 99.712 418.765 99.456C419.141 99.192 419.577 99.06 420.073 99.06C420.513 99.06 420.873 99.144 421.153 99.312C421.441 99.48 421.657 99.736 421.801 100.08C421.945 100.416 422.017 100.844 422.017 101.364V104.58C422.017 104.74 421.973 104.864 421.885 104.952C421.805 105.04 421.685 105.084 421.525 105.084C421.373 105.084 421.253 105.04 421.165 104.952C421.085 104.864 421.045 104.74 421.045 104.58V101.412C421.045 100.876 420.953 100.484 420.769 100.236C420.585 99.98 420.273 99.852 419.833 99.852C419.353 99.852 418.973 100.02 418.693 100.356C418.421 100.684 418.285 101.132 418.285 101.7V104.58C418.285 104.74 418.241 104.864 418.153 104.952C418.073 105.04 417.953 105.084 417.793 105.084C417.641 105.084 417.521 105.04 417.433 104.952C417.353 104.864 417.313 104.74 417.313 104.58V101.412C417.313 100.876 417.217 100.484 417.025 100.236C416.841 99.98 416.533 99.852 416.101 99.852C415.621 99.852 415.241 100.02 414.961 100.356C414.689 100.684 414.553 101.132 414.553 101.7V104.58C414.553 104.916 414.389 105.084 414.061 105.084ZM426.462 105.108C425.846 105.108 425.314 104.988 424.866 104.748C424.426 104.5 424.082 104.152 423.834 103.704C423.594 103.256 423.474 102.72 423.474 102.096C423.474 101.488 423.594 100.96 423.834 100.512C424.074 100.056 424.402 99.7 424.818 99.444C425.242 99.188 425.73 99.06 426.282 99.06C426.674 99.06 427.026 99.128 427.338 99.264C427.65 99.392 427.914 99.58 428.13 99.828C428.354 100.076 428.522 100.376 428.634 100.728C428.754 101.08 428.814 101.476 428.814 101.916C428.814 102.044 428.778 102.14 428.706 102.204C428.634 102.26 428.53 102.288 428.394 102.288H424.218V101.652H428.166L427.974 101.808C427.974 101.376 427.91 101.012 427.782 100.716C427.654 100.412 427.466 100.18 427.218 100.02C426.978 99.86 426.674 99.78 426.306 99.78C425.898 99.78 425.55 99.876 425.262 100.068C424.982 100.252 424.77 100.512 424.626 100.848C424.482 101.176 424.41 101.56 424.41 102V102.072C424.41 102.808 424.586 103.368 424.938 103.752C425.298 104.136 425.806 104.328 426.462 104.328C426.734 104.328 427.002 104.292 427.266 104.22C427.538 104.148 427.802 104.028 428.058 103.86C428.17 103.788 428.27 103.756 428.358 103.764C428.454 103.764 428.53 103.792 428.586 103.848C428.642 103.896 428.678 103.96 428.694 104.04C428.718 104.112 428.71 104.192 428.67 104.28C428.638 104.368 428.57 104.444 428.466 104.508C428.202 104.7 427.89 104.848 427.53 104.952C427.17 105.056 426.814 105.108 426.462 105.108ZM430.713 105.084C430.553 105.084 430.429 105.04 430.341 104.952C430.261 104.864 430.221 104.74 430.221 104.58V99.576C430.221 99.416 430.261 99.296 430.341 99.216C430.421 99.128 430.537 99.084 430.689 99.084C430.841 99.084 430.957 99.128 431.037 99.216C431.125 99.296 431.169 99.416 431.169 99.576V100.548H431.049C431.177 100.076 431.421 99.712 431.781 99.456C432.141 99.2 432.585 99.064 433.113 99.048C433.233 99.04 433.329 99.068 433.401 99.132C433.473 99.188 433.513 99.288 433.521 99.432C433.529 99.568 433.497 99.676 433.425 99.756C433.353 99.836 433.241 99.884 433.089 99.9L432.897 99.924C432.353 99.972 431.933 100.148 431.637 100.452C431.349 100.748 431.205 101.156 431.205 101.676V104.58C431.205 104.74 431.161 104.864 431.073 104.952C430.993 105.04 430.873 105.084 430.713 105.084ZM436.431 105.108C436.071 105.108 435.707 105.064 435.339 104.976C434.979 104.888 434.643 104.736 434.331 104.52C434.251 104.464 434.195 104.4 434.163 104.328C434.131 104.248 434.119 104.172 434.127 104.1C434.143 104.02 434.175 103.952 434.223 103.896C434.279 103.84 434.343 103.808 434.415 103.8C434.495 103.784 434.583 103.8 434.679 103.848C434.991 104.04 435.291 104.176 435.579 104.256C435.875 104.328 436.167 104.364 436.455 104.364C436.911 104.364 437.255 104.28 437.487 104.112C437.719 103.944 437.835 103.716 437.835 103.428C437.835 103.204 437.759 103.028 437.607 102.9C437.455 102.764 437.215 102.66 436.887 102.588L435.795 102.348C435.291 102.244 434.915 102.064 434.667 101.808C434.427 101.552 434.307 101.22 434.307 100.812C434.307 100.452 434.399 100.144 434.583 99.888C434.775 99.624 435.043 99.42 435.387 99.276C435.731 99.132 436.131 99.06 436.587 99.06C436.939 99.06 437.271 99.108 437.583 99.204C437.903 99.292 438.191 99.436 438.447 99.636C438.527 99.692 438.579 99.76 438.603 99.84C438.635 99.912 438.639 99.988 438.615 100.068C438.599 100.14 438.563 100.204 438.507 100.26C438.451 100.308 438.383 100.336 438.303 100.344C438.223 100.352 438.139 100.328 438.051 100.272C437.811 100.112 437.567 99.996 437.319 99.924C437.071 99.844 436.827 99.804 436.587 99.804C436.139 99.804 435.799 99.892 435.567 100.068C435.335 100.244 435.219 100.476 435.219 100.764C435.219 100.988 435.291 101.172 435.435 101.316C435.579 101.46 435.803 101.564 436.107 101.628L437.199 101.856C437.719 101.968 438.107 102.148 438.363 102.396C438.627 102.636 438.759 102.964 438.759 103.38C438.759 103.908 438.547 104.328 438.123 104.64C437.699 104.952 437.135 105.108 436.431 105.108Z" fill="black"/>
<rect x="313" y="91" width="15" height="15" fill="#B5B5B6"/>
<path d="M341.38 136.108C340.82 136.108 340.328 136.036 339.904 135.892C339.488 135.74 339.136 135.52 338.848 135.232C338.56 134.936 338.344 134.572 338.2 134.14C338.056 133.708 337.984 133.212 337.984 132.652V127.96C337.984 127.792 338.024 127.668 338.104 127.588C338.192 127.5 338.316 127.456 338.476 127.456C338.636 127.456 338.756 127.5 338.836 127.588C338.924 127.668 338.968 127.792 338.968 127.96V132.604C338.968 133.484 339.172 134.144 339.58 134.584C339.988 135.016 340.588 135.232 341.38 135.232C342.172 135.232 342.768 135.016 343.168 134.584C343.568 134.144 343.768 133.484 343.768 132.604V127.96C343.768 127.792 343.812 127.668 343.9 127.588C343.988 127.5 344.112 127.456 344.272 127.456C344.424 127.456 344.54 127.5 344.62 127.588C344.708 127.668 344.752 127.792 344.752 127.96V132.652C344.752 133.396 344.624 134.028 344.368 134.548C344.12 135.068 343.744 135.46 343.24 135.724C342.736 135.98 342.116 136.108 341.38 136.108ZM347.122 136.084C346.962 136.084 346.842 136.04 346.762 135.952C346.682 135.864 346.642 135.74 346.642 135.58V130.576C346.642 130.416 346.682 130.296 346.762 130.216C346.842 130.128 346.958 130.084 347.11 130.084C347.262 130.084 347.378 130.128 347.458 130.216C347.546 130.296 347.59 130.416 347.59 130.576V131.608L347.458 131.464C347.626 131 347.898 130.652 348.274 130.42C348.658 130.18 349.098 130.06 349.594 130.06C350.058 130.06 350.442 130.144 350.746 130.312C351.058 130.48 351.29 130.736 351.442 131.08C351.594 131.416 351.67 131.844 351.67 132.364V135.58C351.67 135.74 351.626 135.864 351.538 135.952C351.458 136.04 351.342 136.084 351.19 136.084C351.03 136.084 350.906 136.04 350.818 135.952C350.738 135.864 350.698 135.74 350.698 135.58V132.424C350.698 131.88 350.59 131.484 350.374 131.236C350.166 130.98 349.83 130.852 349.366 130.852C348.83 130.852 348.402 131.02 348.082 131.356C347.77 131.684 347.614 132.124 347.614 132.676V135.58C347.614 135.916 347.45 136.084 347.122 136.084ZM353.943 136.06C353.783 136.06 353.663 136.016 353.583 135.928C353.503 135.832 353.463 135.7 353.463 135.532V130.624C353.463 130.456 353.503 130.328 353.583 130.24C353.663 130.152 353.783 130.108 353.943 130.108C354.095 130.108 354.215 130.152 354.303 130.24C354.391 130.328 354.435 130.456 354.435 130.624V135.532C354.435 135.7 354.391 135.832 354.303 135.928C354.223 136.016 354.103 136.06 353.943 136.06ZM353.943 128.764C353.743 128.764 353.587 128.712 353.475 128.608C353.363 128.496 353.307 128.348 353.307 128.164C353.307 127.972 353.363 127.828 353.475 127.732C353.587 127.628 353.743 127.576 353.943 127.576C354.151 127.576 354.307 127.628 354.411 127.732C354.523 127.828 354.579 127.972 354.579 128.164C354.579 128.348 354.523 128.496 354.411 128.608C354.307 128.712 354.151 128.764 353.943 128.764ZM360.944 138.244C360.784 138.244 360.66 138.2 360.572 138.112C360.492 138.032 360.452 137.912 360.452 137.752V134.632H360.584C360.456 135.08 360.204 135.44 359.828 135.712C359.452 135.976 359 136.108 358.472 136.108C357.952 136.108 357.496 135.984 357.104 135.736C356.72 135.488 356.42 135.14 356.204 134.692C355.996 134.236 355.892 133.7 355.892 133.084C355.892 132.46 355.996 131.924 356.204 131.476C356.42 131.02 356.72 130.672 357.104 130.432C357.496 130.184 357.952 130.06 358.472 130.06C359 130.06 359.452 130.196 359.828 130.468C360.212 130.732 360.468 131.092 360.596 131.548L360.464 131.716V130.576C360.464 130.416 360.504 130.296 360.584 130.216C360.672 130.128 360.792 130.084 360.944 130.084C361.104 130.084 361.224 130.128 361.304 130.216C361.384 130.296 361.424 130.416 361.424 130.576V137.752C361.424 137.912 361.38 138.032 361.292 138.112C361.212 138.2 361.096 138.244 360.944 138.244ZM358.676 135.328C359.036 135.328 359.352 135.24 359.624 135.064C359.896 134.888 360.104 134.632 360.248 134.296C360.4 133.96 360.476 133.556 360.476 133.084C360.476 132.356 360.312 131.8 359.984 131.416C359.664 131.032 359.228 130.84 358.676 130.84C358.308 130.84 357.988 130.928 357.716 131.104C357.452 131.272 357.244 131.524 357.092 131.86C356.948 132.188 356.876 132.596 356.876 133.084C356.876 133.804 357.04 134.36 357.368 134.752C357.696 135.136 358.132 135.328 358.676 135.328ZM365.312 136.108C364.84 136.108 364.448 136.024 364.136 135.856C363.832 135.68 363.6 135.42 363.44 135.076C363.288 134.732 363.212 134.304 363.212 133.792V130.576C363.212 130.408 363.252 130.284 363.332 130.204C363.42 130.124 363.54 130.084 363.692 130.084C363.852 130.084 363.972 130.124 364.052 130.204C364.14 130.284 364.184 130.408 364.184 130.576V133.78C364.184 134.292 364.288 134.676 364.496 134.932C364.712 135.18 365.048 135.304 365.504 135.304C366 135.304 366.404 135.136 366.716 134.8C367.028 134.464 367.184 134.024 367.184 133.48V130.576C367.184 130.408 367.224 130.284 367.304 130.204C367.392 130.124 367.516 130.084 367.676 130.084C367.828 130.084 367.944 130.124 368.024 130.204C368.112 130.284 368.156 130.408 368.156 130.576V135.58C368.156 135.916 368 136.084 367.688 136.084C367.536 136.084 367.416 136.04 367.328 135.952C367.248 135.864 367.208 135.74 367.208 135.58V134.488L367.364 134.656C367.204 135.128 366.94 135.488 366.572 135.736C366.212 135.984 365.792 136.108 365.312 136.108ZM372.603 136.108C371.987 136.108 371.455 135.988 371.007 135.748C370.567 135.5 370.223 135.152 369.975 134.704C369.735 134.256 369.615 133.72 369.615 133.096C369.615 132.488 369.735 131.96 369.975 131.512C370.215 131.056 370.543 130.7 370.959 130.444C371.383 130.188 371.871 130.06 372.423 130.06C372.815 130.06 373.167 130.128 373.479 130.264C373.791 130.392 374.055 130.58 374.271 130.828C374.495 131.076 374.663 131.376 374.775 131.728C374.895 132.08 374.955 132.476 374.955 132.916C374.955 133.044 374.919 133.14 374.847 133.204C374.775 133.26 374.671 133.288 374.535 133.288H370.359V132.652H374.307L374.115 132.808C374.115 132.376 374.051 132.012 373.923 131.716C373.795 131.412 373.607 131.18 373.359 131.02C373.119 130.86 372.815 130.78 372.447 130.78C372.039 130.78 371.691 130.876 371.403 131.068C371.123 131.252 370.911 131.512 370.767 131.848C370.623 132.176 370.551 132.56 370.551 133V133.072C370.551 133.808 370.727 134.368 371.079 134.752C371.439 135.136 371.947 135.328 372.603 135.328C372.875 135.328 373.143 135.292 373.407 135.22C373.679 135.148 373.943 135.028 374.199 134.86C374.311 134.788 374.411 134.756 374.499 134.764C374.595 134.764 374.671 134.792 374.727 134.848C374.783 134.896 374.819 134.96 374.835 135.04C374.859 135.112 374.851 135.192 374.811 135.28C374.779 135.368 374.711 135.444 374.607 135.508C374.343 135.7 374.031 135.848 373.671 135.952C373.311 136.056 372.955 136.108 372.603 136.108ZM383.247 136.108C382.415 136.108 381.703 135.932 381.111 135.58C380.519 135.228 380.063 134.728 379.743 134.08C379.431 133.432 379.275 132.66 379.275 131.764C379.275 131.092 379.363 130.492 379.539 129.964C379.723 129.428 379.983 128.976 380.319 128.608C380.663 128.232 381.083 127.944 381.579 127.744C382.075 127.536 382.631 127.432 383.247 127.432C383.743 127.432 384.215 127.504 384.663 127.648C385.111 127.784 385.499 127.988 385.827 128.26C385.931 128.34 385.999 128.432 386.031 128.536C386.071 128.632 386.075 128.728 386.043 128.824C386.019 128.912 385.971 128.988 385.899 129.052C385.835 129.108 385.755 129.136 385.659 129.136C385.563 129.136 385.455 129.096 385.335 129.016C385.047 128.784 384.731 128.612 384.387 128.5C384.043 128.388 383.671 128.332 383.271 128.332C382.639 128.332 382.103 128.468 381.663 128.74C381.223 129.004 380.891 129.392 380.667 129.904C380.443 130.416 380.331 131.036 380.331 131.764C380.331 132.492 380.443 133.116 380.667 133.636C380.891 134.148 381.223 134.54 381.663 134.812C382.103 135.076 382.639 135.208 383.271 135.208C383.663 135.208 384.035 135.152 384.387 135.04C384.739 134.92 385.063 134.744 385.359 134.512C385.479 134.432 385.587 134.396 385.683 134.404C385.779 134.404 385.859 134.432 385.923 134.488C385.987 134.544 386.031 134.616 386.055 134.704C386.087 134.792 386.087 134.884 386.055 134.98C386.031 135.076 385.971 135.16 385.875 135.232C385.539 135.52 385.143 135.74 384.687 135.892C384.239 136.036 383.759 136.108 383.247 136.108ZM389.464 136.108C388.992 136.108 388.6 136.024 388.288 135.856C387.984 135.68 387.752 135.42 387.592 135.076C387.44 134.732 387.364 134.304 387.364 133.792V130.576C387.364 130.408 387.404 130.284 387.484 130.204C387.572 130.124 387.692 130.084 387.844 130.084C388.004 130.084 388.124 130.124 388.204 130.204C388.292 130.284 388.336 130.408 388.336 130.576V133.78C388.336 134.292 388.44 134.676 388.648 134.932C388.864 135.18 389.2 135.304 389.656 135.304C390.152 135.304 390.556 135.136 390.868 134.8C391.18 134.464 391.336 134.024 391.336 133.48V130.576C391.336 130.408 391.376 130.284 391.456 130.204C391.544 130.124 391.668 130.084 391.828 130.084C391.98 130.084 392.096 130.124 392.176 130.204C392.264 130.284 392.308 130.408 392.308 130.576V135.58C392.308 135.916 392.152 136.084 391.84 136.084C391.688 136.084 391.568 136.04 391.48 135.952C391.4 135.864 391.36 135.74 391.36 135.58V134.488L391.516 134.656C391.356 135.128 391.092 135.488 390.724 135.736C390.364 135.984 389.944 136.108 389.464 136.108ZM396.095 136.108C395.735 136.108 395.371 136.064 395.003 135.976C394.643 135.888 394.307 135.736 393.995 135.52C393.915 135.464 393.859 135.4 393.827 135.328C393.795 135.248 393.783 135.172 393.791 135.1C393.807 135.02 393.839 134.952 393.887 134.896C393.943 134.84 394.007 134.808 394.079 134.8C394.159 134.784 394.247 134.8 394.343 134.848C394.655 135.04 394.955 135.176 395.243 135.256C395.539 135.328 395.831 135.364 396.119 135.364C396.575 135.364 396.919 135.28 397.151 135.112C397.383 134.944 397.499 134.716 397.499 134.428C397.499 134.204 397.423 134.028 397.271 133.9C397.119 133.764 396.879 133.66 396.551 133.588L395.459 133.348C394.955 133.244 394.579 133.064 394.331 132.808C394.091 132.552 393.971 132.22 393.971 131.812C393.971 131.452 394.063 131.144 394.247 130.888C394.439 130.624 394.707 130.42 395.051 130.276C395.395 130.132 395.795 130.06 396.251 130.06C396.603 130.06 396.935 130.108 397.247 130.204C397.567 130.292 397.855 130.436 398.111 130.636C398.191 130.692 398.243 130.76 398.267 130.84C398.299 130.912 398.303 130.988 398.279 131.068C398.263 131.14 398.227 131.204 398.171 131.26C398.115 131.308 398.047 131.336 397.967 131.344C397.887 131.352 397.803 131.328 397.715 131.272C397.475 131.112 397.231 130.996 396.983 130.924C396.735 130.844 396.491 130.804 396.251 130.804C395.803 130.804 395.463 130.892 395.231 131.068C394.999 131.244 394.883 131.476 394.883 131.764C394.883 131.988 394.955 132.172 395.099 132.316C395.243 132.46 395.467 132.564 395.771 132.628L396.863 132.856C397.383 132.968 397.771 133.148 398.027 133.396C398.291 133.636 398.423 133.964 398.423 134.38C398.423 134.908 398.211 135.328 397.787 135.64C397.363 135.952 396.799 136.108 396.095 136.108ZM402.186 136.108C401.73 136.108 401.346 136.028 401.034 135.868C400.73 135.7 400.502 135.46 400.35 135.148C400.198 134.828 400.122 134.44 400.122 133.984V130.924H399.318C399.182 130.924 399.078 130.892 399.006 130.828C398.934 130.756 398.898 130.66 398.898 130.54C398.898 130.42 398.934 130.328 399.006 130.264C399.078 130.2 399.182 130.168 399.318 130.168H400.122V128.788C400.122 128.628 400.166 128.508 400.254 128.428C400.342 128.34 400.462 128.296 400.614 128.296C400.766 128.296 400.882 128.34 400.962 128.428C401.05 128.508 401.094 128.628 401.094 128.788V130.168H402.606C402.742 130.168 402.846 130.2 402.918 130.264C402.99 130.328 403.026 130.42 403.026 130.54C403.026 130.66 402.99 130.756 402.918 130.828C402.846 130.892 402.742 130.924 402.606 130.924H401.094V133.888C401.094 134.344 401.19 134.692 401.382 134.932C401.574 135.164 401.886 135.28 402.318 135.28C402.47 135.28 402.598 135.264 402.702 135.232C402.814 135.2 402.906 135.184 402.978 135.184C403.05 135.176 403.11 135.2 403.158 135.256C403.206 135.312 403.23 135.408 403.23 135.544C403.23 135.64 403.21 135.728 403.17 135.808C403.138 135.888 403.078 135.944 402.99 135.976C402.894 136.008 402.766 136.036 402.606 136.06C402.454 136.092 402.314 136.108 402.186 136.108ZM406.406 136.108C405.838 136.108 405.346 135.984 404.93 135.736C404.514 135.488 404.19 135.14 403.958 134.692C403.734 134.236 403.622 133.7 403.622 133.084C403.622 132.62 403.686 132.204 403.814 131.836C403.942 131.46 404.13 131.14 404.378 130.876C404.626 130.612 404.918 130.412 405.254 130.276C405.598 130.132 405.982 130.06 406.406 130.06C406.974 130.06 407.466 130.184 407.882 130.432C408.298 130.68 408.618 131.032 408.842 131.488C409.074 131.936 409.19 132.468 409.19 133.084C409.19 133.548 409.126 133.964 408.998 134.332C408.87 134.7 408.682 135.02 408.434 135.292C408.186 135.556 407.89 135.76 407.546 135.904C407.21 136.04 406.83 136.108 406.406 136.108ZM406.406 135.328C406.766 135.328 407.082 135.24 407.354 135.064C407.626 134.888 407.834 134.632 407.978 134.296C408.13 133.96 408.206 133.556 408.206 133.084C408.206 132.356 408.042 131.8 407.714 131.416C407.394 131.032 406.958 130.84 406.406 130.84C406.038 130.84 405.718 130.928 405.446 131.104C405.182 131.272 404.974 131.524 404.822 131.86C404.678 132.188 404.606 132.596 404.606 133.084C404.606 133.804 404.77 134.36 405.098 134.752C405.426 135.136 405.862 135.328 406.406 135.328ZM411.154 136.084C410.994 136.084 410.874 136.04 410.794 135.952C410.714 135.864 410.674 135.74 410.674 135.58V130.576C410.674 130.416 410.714 130.296 410.794 130.216C410.874 130.128 410.99 130.084 411.142 130.084C411.294 130.084 411.41 130.128 411.49 130.216C411.578 130.296 411.622 130.416 411.622 130.576V131.632L411.49 131.464C411.642 131.016 411.886 130.672 412.222 130.432C412.566 130.184 412.974 130.06 413.446 130.06C413.942 130.06 414.342 130.18 414.646 130.42C414.958 130.652 415.166 131.016 415.27 131.512H415.09C415.234 131.064 415.49 130.712 415.858 130.456C416.234 130.192 416.67 130.06 417.166 130.06C417.606 130.06 417.966 130.144 418.246 130.312C418.534 130.48 418.75 130.736 418.894 131.08C419.038 131.416 419.11 131.844 419.11 132.364V135.58C419.11 135.74 419.066 135.864 418.978 135.952C418.898 136.04 418.778 136.084 418.618 136.084C418.466 136.084 418.346 136.04 418.258 135.952C418.178 135.864 418.138 135.74 418.138 135.58V132.412C418.138 131.876 418.046 131.484 417.862 131.236C417.678 130.98 417.366 130.852 416.926 130.852C416.446 130.852 416.066 131.02 415.786 131.356C415.514 131.684 415.378 132.132 415.378 132.7V135.58C415.378 135.74 415.334 135.864 415.246 135.952C415.166 136.04 415.046 136.084 414.886 136.084C414.734 136.084 414.614 136.04 414.526 135.952C414.446 135.864 414.406 135.74 414.406 135.58V132.412C414.406 131.876 414.31 131.484 414.118 131.236C413.934 130.98 413.626 130.852 413.194 130.852C412.714 130.852 412.334 131.02 412.054 131.356C411.782 131.684 411.646 132.132 411.646 132.7V135.58C411.646 135.916 411.482 136.084 411.154 136.084ZM423.556 136.108C422.94 136.108 422.408 135.988 421.96 135.748C421.52 135.5 421.176 135.152 420.928 134.704C420.688 134.256 420.568 133.72 420.568 133.096C420.568 132.488 420.688 131.96 420.928 131.512C421.168 131.056 421.496 130.7 421.912 130.444C422.336 130.188 422.824 130.06 423.376 130.06C423.768 130.06 424.12 130.128 424.432 130.264C424.744 130.392 425.008 130.58 425.224 130.828C425.448 131.076 425.616 131.376 425.728 131.728C425.848 132.08 425.908 132.476 425.908 132.916C425.908 133.044 425.872 133.14 425.8 133.204C425.728 133.26 425.624 133.288 425.488 133.288H421.312V132.652H425.26L425.068 132.808C425.068 132.376 425.004 132.012 424.876 131.716C424.748 131.412 424.56 131.18 424.312 131.02C424.072 130.86 423.768 130.78 423.4 130.78C422.992 130.78 422.644 130.876 422.356 131.068C422.076 131.252 421.864 131.512 421.72 131.848C421.576 132.176 421.504 132.56 421.504 133V133.072C421.504 133.808 421.68 134.368 422.032 134.752C422.392 135.136 422.9 135.328 423.556 135.328C423.828 135.328 424.096 135.292 424.36 135.22C424.632 135.148 424.896 135.028 425.152 134.86C425.264 134.788 425.364 134.756 425.452 134.764C425.548 134.764 425.624 134.792 425.68 134.848C425.736 134.896 425.772 134.96 425.788 135.04C425.812 135.112 425.804 135.192 425.764 135.28C425.732 135.368 425.664 135.444 425.56 135.508C425.296 135.7 424.984 135.848 424.624 135.952C424.264 136.056 423.908 136.108 423.556 136.108ZM427.806 136.084C427.646 136.084 427.522 136.04 427.434 135.952C427.354 135.864 427.314 135.74 427.314 135.58V130.576C427.314 130.416 427.354 130.296 427.434 130.216C427.514 130.128 427.63 130.084 427.782 130.084C427.934 130.084 428.05 130.128 428.13 130.216C428.218 130.296 428.262 130.416 428.262 130.576V131.548H428.142C428.27 131.076 428.514 130.712 428.874 130.456C429.234 130.2 429.678 130.064 430.206 130.048C430.326 130.04 430.422 130.068 430.494 130.132C430.566 130.188 430.606 130.288 430.614 130.432C430.622 130.568 430.59 130.676 430.518 130.756C430.446 130.836 430.334 130.884 430.182 130.9L429.99 130.924C429.446 130.972 429.026 131.148 428.73 131.452C428.442 131.748 428.298 132.156 428.298 132.676V135.58C428.298 135.74 428.254 135.864 428.166 135.952C428.086 136.04 427.966 136.084 427.806 136.084ZM433.525 136.108C433.165 136.108 432.801 136.064 432.433 135.976C432.073 135.888 431.737 135.736 431.425 135.52C431.345 135.464 431.289 135.4 431.257 135.328C431.225 135.248 431.213 135.172 431.221 135.1C431.237 135.02 431.269 134.952 431.317 134.896C431.373 134.84 431.437 134.808 431.509 134.8C431.589 134.784 431.677 134.8 431.773 134.848C432.085 135.04 432.385 135.176 432.673 135.256C432.969 135.328 433.261 135.364 433.549 135.364C434.005 135.364 434.349 135.28 434.581 135.112C434.813 134.944 434.929 134.716 434.929 134.428C434.929 134.204 434.853 134.028 434.701 133.9C434.549 133.764 434.309 133.66 433.981 133.588L432.889 133.348C432.385 133.244 432.009 133.064 431.761 132.808C431.521 132.552 431.401 132.22 431.401 131.812C431.401 131.452 431.493 131.144 431.677 130.888C431.869 130.624 432.137 130.42 432.481 130.276C432.825 130.132 433.225 130.06 433.681 130.06C434.033 130.06 434.365 130.108 434.677 130.204C434.997 130.292 435.285 130.436 435.541 130.636C435.621 130.692 435.673 130.76 435.697 130.84C435.729 130.912 435.733 130.988 435.709 131.068C435.693 131.14 435.657 131.204 435.601 131.26C435.545 131.308 435.477 131.336 435.397 131.344C435.317 131.352 435.233 131.328 435.145 131.272C434.905 131.112 434.661 130.996 434.413 130.924C434.165 130.844 433.921 130.804 433.681 130.804C433.233 130.804 432.893 130.892 432.661 131.068C432.429 131.244 432.313 131.476 432.313 131.764C432.313 131.988 432.385 132.172 432.529 132.316C432.673 132.46 432.897 132.564 433.201 132.628L434.293 132.856C434.813 132.968 435.201 133.148 435.457 133.396C435.721 133.636 435.853 133.964 435.853 134.38C435.853 134.908 435.641 135.328 435.217 135.64C434.793 135.952 434.229 136.108 433.525 136.108Z" fill="black"/>
<rect x="313" y="122" width="15" height="15" fill="#7A64C6"/>
<path d="M338.536 166.084C338.376 166.084 338.252 166.04 338.164 165.952C338.084 165.856 338.044 165.728 338.044 165.568V158.044C338.044 157.876 338.088 157.752 338.176 157.672C338.264 157.584 338.388 157.54 338.548 157.54H341.392C342.296 157.54 342.992 157.752 343.48 158.176C343.968 158.6 344.212 159.204 344.212 159.988C344.212 160.484 344.1 160.916 343.876 161.284C343.66 161.644 343.34 161.92 342.916 162.112C342.492 162.296 341.984 162.388 341.392 162.388L341.512 162.232H341.752C342.064 162.232 342.336 162.312 342.568 162.472C342.8 162.632 343.012 162.888 343.204 163.24L344.356 165.388C344.42 165.5 344.448 165.612 344.44 165.724C344.44 165.828 344.404 165.916 344.332 165.988C344.26 166.052 344.156 166.084 344.02 166.084C343.884 166.084 343.772 166.052 343.684 165.988C343.596 165.924 343.52 165.832 343.456 165.712L342.148 163.288C341.964 162.944 341.752 162.716 341.512 162.604C341.272 162.484 340.956 162.424 340.564 162.424H339.028V165.568C339.028 165.728 338.988 165.856 338.908 165.952C338.828 166.04 338.704 166.084 338.536 166.084ZM339.028 161.644H341.248C341.904 161.644 342.4 161.508 342.736 161.236C343.072 160.956 343.24 160.54 343.24 159.988C343.24 159.452 343.072 159.048 342.736 158.776C342.4 158.496 341.904 158.356 341.248 158.356H339.028V161.644ZM348.438 166.108C347.822 166.108 347.29 165.988 346.842 165.748C346.402 165.5 346.058 165.152 345.81 164.704C345.57 164.256 345.45 163.72 345.45 163.096C345.45 162.488 345.57 161.96 345.81 161.512C346.05 161.056 346.378 160.7 346.794 160.444C347.218 160.188 347.706 160.06 348.258 160.06C348.65 160.06 349.002 160.128 349.314 160.264C349.626 160.392 349.89 160.58 350.106 160.828C350.33 161.076 350.498 161.376 350.61 161.728C350.73 162.08 350.79 162.476 350.79 162.916C350.79 163.044 350.754 163.14 350.682 163.204C350.61 163.26 350.506 163.288 350.37 163.288H346.194V162.652H350.142L349.95 162.808C349.95 162.376 349.886 162.012 349.758 161.716C349.63 161.412 349.442 161.18 349.194 161.02C348.954 160.86 348.65 160.78 348.282 160.78C347.874 160.78 347.526 160.876 347.238 161.068C346.958 161.252 346.746 161.512 346.602 161.848C346.458 162.176 346.386 162.56 346.386 163V163.072C346.386 163.808 346.562 164.368 346.914 164.752C347.274 165.136 347.782 165.328 348.438 165.328C348.71 165.328 348.978 165.292 349.242 165.22C349.514 165.148 349.778 165.028 350.034 164.86C350.146 164.788 350.246 164.756 350.334 164.764C350.43 164.764 350.506 164.792 350.562 164.848C350.618 164.896 350.654 164.96 350.67 165.04C350.694 165.112 350.686 165.192 350.646 165.28C350.614 165.368 350.546 165.444 350.442 165.508C350.178 165.7 349.866 165.848 349.506 165.952C349.146 166.056 348.79 166.108 348.438 166.108ZM352.677 168.244C352.517 168.244 352.397 168.2 352.317 168.112C352.237 168.032 352.197 167.912 352.197 167.752V160.576C352.197 160.416 352.237 160.296 352.317 160.216C352.397 160.128 352.513 160.084 352.665 160.084C352.825 160.084 352.945 160.128 353.025 160.216C353.113 160.296 353.157 160.416 353.157 160.576V161.716L353.025 161.548C353.153 161.092 353.405 160.732 353.781 160.468C354.165 160.196 354.621 160.06 355.149 160.06C355.669 160.06 356.121 160.184 356.505 160.432C356.897 160.672 357.197 161.02 357.405 161.476C357.621 161.924 357.729 162.46 357.729 163.084C357.729 163.7 357.621 164.236 357.405 164.692C357.197 165.14 356.901 165.488 356.517 165.736C356.133 165.984 355.677 166.108 355.149 166.108C354.621 166.108 354.169 165.976 353.793 165.712C353.417 165.44 353.161 165.08 353.025 164.632H353.169V167.752C353.169 167.912 353.125 168.032 353.037 168.112C352.949 168.2 352.829 168.244 352.677 168.244ZM354.945 165.328C355.313 165.328 355.629 165.24 355.893 165.064C356.165 164.888 356.373 164.632 356.517 164.296C356.669 163.96 356.745 163.556 356.745 163.084C356.745 162.356 356.581 161.8 356.253 161.416C355.933 161.032 355.497 160.84 354.945 160.84C354.585 160.84 354.269 160.928 353.997 161.104C353.725 161.272 353.513 161.524 353.361 161.86C353.217 162.188 353.145 162.596 353.145 163.084C353.145 163.804 353.309 164.36 353.637 164.752C353.965 165.136 354.401 165.328 354.945 165.328ZM361.821 166.108C361.205 166.108 360.673 165.988 360.225 165.748C359.785 165.5 359.441 165.152 359.193 164.704C358.953 164.256 358.833 163.72 358.833 163.096C358.833 162.488 358.953 161.96 359.193 161.512C359.433 161.056 359.761 160.7 360.177 160.444C360.601 160.188 361.089 160.06 361.641 160.06C362.033 160.06 362.385 160.128 362.697 160.264C363.009 160.392 363.273 160.58 363.489 160.828C363.713 161.076 363.881 161.376 363.993 161.728C364.113 162.08 364.173 162.476 364.173 162.916C364.173 163.044 364.137 163.14 364.065 163.204C363.993 163.26 363.889 163.288 363.753 163.288H359.577V162.652H363.525L363.333 162.808C363.333 162.376 363.269 162.012 363.141 161.716C363.013 161.412 362.825 161.18 362.577 161.02C362.337 160.86 362.033 160.78 361.665 160.78C361.257 160.78 360.909 160.876 360.621 161.068C360.341 161.252 360.129 161.512 359.985 161.848C359.841 162.176 359.769 162.56 359.769 163V163.072C359.769 163.808 359.945 164.368 360.297 164.752C360.657 165.136 361.165 165.328 361.821 165.328C362.093 165.328 362.361 165.292 362.625 165.22C362.897 165.148 363.161 165.028 363.417 164.86C363.529 164.788 363.629 164.756 363.717 164.764C363.813 164.764 363.889 164.792 363.945 164.848C364.001 164.896 364.037 164.96 364.053 165.04C364.077 165.112 364.069 165.192 364.029 165.28C363.997 165.368 363.929 165.444 363.825 165.508C363.561 165.7 363.249 165.848 362.889 165.952C362.529 166.056 362.173 166.108 361.821 166.108ZM367.416 166.108C367.016 166.108 366.656 166.032 366.336 165.88C366.024 165.72 365.776 165.504 365.592 165.232C365.408 164.96 365.316 164.656 365.316 164.32C365.316 163.888 365.424 163.548 365.64 163.3C365.864 163.052 366.228 162.876 366.732 162.772C367.244 162.668 367.94 162.616 368.82 162.616H369.36V163.252H368.832C368.184 163.252 367.672 163.284 367.296 163.348C366.928 163.404 366.668 163.504 366.516 163.648C366.372 163.792 366.3 163.996 366.3 164.26C366.3 164.588 366.412 164.856 366.636 165.064C366.868 165.272 367.18 165.376 367.572 165.376C367.892 165.376 368.172 165.3 368.412 165.148C368.66 164.996 368.852 164.788 368.988 164.524C369.132 164.26 369.204 163.956 369.204 163.612V162.244C369.204 161.748 369.104 161.392 368.904 161.176C368.704 160.952 368.376 160.84 367.92 160.84C367.64 160.84 367.36 160.876 367.08 160.948C366.8 161.02 366.504 161.136 366.192 161.296C366.08 161.352 365.984 161.372 365.904 161.356C365.824 161.332 365.76 161.288 365.712 161.224C365.664 161.16 365.636 161.088 365.628 161.008C365.62 160.92 365.636 160.836 365.676 160.756C365.724 160.676 365.796 160.612 365.892 160.564C366.244 160.388 366.592 160.26 366.936 160.18C367.28 160.1 367.608 160.06 367.92 160.06C368.424 160.06 368.84 160.144 369.168 160.312C369.496 160.472 369.74 160.72 369.9 161.056C370.06 161.384 370.14 161.808 370.14 162.328V165.58C370.14 165.74 370.1 165.864 370.02 165.952C369.948 166.04 369.84 166.084 369.696 166.084C369.544 166.084 369.428 166.04 369.348 165.952C369.268 165.864 369.228 165.74 369.228 165.58V164.644H369.336C369.272 164.948 369.148 165.208 368.964 165.424C368.788 165.64 368.568 165.808 368.304 165.928C368.04 166.048 367.744 166.108 367.416 166.108ZM374.283 166.108C373.827 166.108 373.443 166.028 373.131 165.868C372.827 165.7 372.599 165.46 372.447 165.148C372.295 164.828 372.219 164.44 372.219 163.984V160.924H371.415C371.279 160.924 371.175 160.892 371.103 160.828C371.031 160.756 370.995 160.66 370.995 160.54C370.995 160.42 371.031 160.328 371.103 160.264C371.175 160.2 371.279 160.168 371.415 160.168H372.219V158.788C372.219 158.628 372.263 158.508 372.351 158.428C372.439 158.34 372.559 158.296 372.711 158.296C372.863 158.296 372.979 158.34 373.059 158.428C373.147 158.508 373.191 158.628 373.191 158.788V160.168H374.703C374.839 160.168 374.943 160.2 375.015 160.264C375.087 160.328 375.123 160.42 375.123 160.54C375.123 160.66 375.087 160.756 375.015 160.828C374.943 160.892 374.839 160.924 374.703 160.924H373.191V163.888C373.191 164.344 373.287 164.692 373.479 164.932C373.671 165.164 373.983 165.28 374.415 165.28C374.567 165.28 374.695 165.264 374.799 165.232C374.911 165.2 375.003 165.184 375.075 165.184C375.147 165.176 375.207 165.2 375.255 165.256C375.303 165.312 375.327 165.408 375.327 165.544C375.327 165.64 375.307 165.728 375.267 165.808C375.235 165.888 375.175 165.944 375.087 165.976C374.991 166.008 374.863 166.036 374.703 166.06C374.551 166.092 374.411 166.108 374.283 166.108ZM383.024 166.108C382.192 166.108 381.48 165.932 380.888 165.58C380.296 165.228 379.84 164.728 379.52 164.08C379.208 163.432 379.052 162.66 379.052 161.764C379.052 161.092 379.14 160.492 379.316 159.964C379.5 159.428 379.76 158.976 380.096 158.608C380.44 158.232 380.86 157.944 381.356 157.744C381.852 157.536 382.408 157.432 383.024 157.432C383.52 157.432 383.992 157.504 384.44 157.648C384.888 157.784 385.276 157.988 385.604 158.26C385.708 158.34 385.776 158.432 385.808 158.536C385.848 158.632 385.852 158.728 385.82 158.824C385.796 158.912 385.748 158.988 385.676 159.052C385.612 159.108 385.532 159.136 385.436 159.136C385.34 159.136 385.232 159.096 385.112 159.016C384.824 158.784 384.508 158.612 384.164 158.5C383.82 158.388 383.448 158.332 383.048 158.332C382.416 158.332 381.88 158.468 381.44 158.74C381 159.004 380.668 159.392 380.444 159.904C380.22 160.416 380.108 161.036 380.108 161.764C380.108 162.492 380.22 163.116 380.444 163.636C380.668 164.148 381 164.54 381.44 164.812C381.88 165.076 382.416 165.208 383.048 165.208C383.44 165.208 383.812 165.152 384.164 165.04C384.516 164.92 384.84 164.744 385.136 164.512C385.256 164.432 385.364 164.396 385.46 164.404C385.556 164.404 385.636 164.432 385.7 164.488C385.764 164.544 385.808 164.616 385.832 164.704C385.864 164.792 385.864 164.884 385.832 164.98C385.808 165.076 385.748 165.16 385.652 165.232C385.316 165.52 384.92 165.74 384.464 165.892C384.016 166.036 383.536 166.108 383.024 166.108ZM389.242 166.108C388.77 166.108 388.378 166.024 388.066 165.856C387.762 165.68 387.53 165.42 387.37 165.076C387.218 164.732 387.142 164.304 387.142 163.792V160.576C387.142 160.408 387.182 160.284 387.262 160.204C387.35 160.124 387.47 160.084 387.622 160.084C387.782 160.084 387.902 160.124 387.982 160.204C388.07 160.284 388.114 160.408 388.114 160.576V163.78C388.114 164.292 388.218 164.676 388.426 164.932C388.642 165.18 388.978 165.304 389.434 165.304C389.93 165.304 390.334 165.136 390.646 164.8C390.958 164.464 391.114 164.024 391.114 163.48V160.576C391.114 160.408 391.154 160.284 391.234 160.204C391.322 160.124 391.446 160.084 391.606 160.084C391.758 160.084 391.874 160.124 391.954 160.204C392.042 160.284 392.086 160.408 392.086 160.576V165.58C392.086 165.916 391.93 166.084 391.618 166.084C391.466 166.084 391.346 166.04 391.258 165.952C391.178 165.864 391.138 165.74 391.138 165.58V164.488L391.294 164.656C391.134 165.128 390.87 165.488 390.502 165.736C390.142 165.984 389.722 166.108 389.242 166.108ZM395.872 166.108C395.512 166.108 395.148 166.064 394.78 165.976C394.42 165.888 394.084 165.736 393.772 165.52C393.692 165.464 393.636 165.4 393.604 165.328C393.572 165.248 393.56 165.172 393.568 165.1C393.584 165.02 393.616 164.952 393.664 164.896C393.72 164.84 393.784 164.808 393.856 164.8C393.936 164.784 394.024 164.8 394.12 164.848C394.432 165.04 394.732 165.176 395.02 165.256C395.316 165.328 395.608 165.364 395.896 165.364C396.352 165.364 396.696 165.28 396.928 165.112C397.16 164.944 397.276 164.716 397.276 164.428C397.276 164.204 397.2 164.028 397.048 163.9C396.896 163.764 396.656 163.66 396.328 163.588L395.236 163.348C394.732 163.244 394.356 163.064 394.108 162.808C393.868 162.552 393.748 162.22 393.748 161.812C393.748 161.452 393.84 161.144 394.024 160.888C394.216 160.624 394.484 160.42 394.828 160.276C395.172 160.132 395.572 160.06 396.028 160.06C396.38 160.06 396.712 160.108 397.024 160.204C397.344 160.292 397.632 160.436 397.888 160.636C397.968 160.692 398.02 160.76 398.044 160.84C398.076 160.912 398.08 160.988 398.056 161.068C398.04 161.14 398.004 161.204 397.948 161.26C397.892 161.308 397.824 161.336 397.744 161.344C397.664 161.352 397.58 161.328 397.492 161.272C397.252 161.112 397.008 160.996 396.76 160.924C396.512 160.844 396.268 160.804 396.028 160.804C395.58 160.804 395.24 160.892 395.008 161.068C394.776 161.244 394.66 161.476 394.66 161.764C394.66 161.988 394.732 162.172 394.876 162.316C395.02 162.46 395.244 162.564 395.548 162.628L396.64 162.856C397.16 162.968 397.548 163.148 397.804 163.396C398.068 163.636 398.2 163.964 398.2 164.38C398.2 164.908 397.988 165.328 397.564 165.64C397.14 165.952 396.576 166.108 395.872 166.108ZM401.963 166.108C401.507 166.108 401.123 166.028 400.811 165.868C400.507 165.7 400.279 165.46 400.127 165.148C399.975 164.828 399.899 164.44 399.899 163.984V160.924H399.095C398.959 160.924 398.855 160.892 398.783 160.828C398.711 160.756 398.675 160.66 398.675 160.54C398.675 160.42 398.711 160.328 398.783 160.264C398.855 160.2 398.959 160.168 399.095 160.168H399.899V158.788C399.899 158.628 399.943 158.508 400.031 158.428C400.119 158.34 400.239 158.296 400.391 158.296C400.543 158.296 400.659 158.34 400.739 158.428C400.827 158.508 400.871 158.628 400.871 158.788V160.168H402.383C402.519 160.168 402.623 160.2 402.695 160.264C402.767 160.328 402.803 160.42 402.803 160.54C402.803 160.66 402.767 160.756 402.695 160.828C402.623 160.892 402.519 160.924 402.383 160.924H400.871V163.888C400.871 164.344 400.967 164.692 401.159 164.932C401.351 165.164 401.663 165.28 402.095 165.28C402.247 165.28 402.375 165.264 402.479 165.232C402.591 165.2 402.683 165.184 402.755 165.184C402.827 165.176 402.887 165.2 402.935 165.256C402.983 165.312 403.007 165.408 403.007 165.544C403.007 165.64 402.987 165.728 402.947 165.808C402.915 165.888 402.855 165.944 402.767 165.976C402.671 166.008 402.543 166.036 402.383 166.06C402.231 166.092 402.091 166.108 401.963 166.108ZM406.184 166.108C405.616 166.108 405.124 165.984 404.708 165.736C404.292 165.488 403.968 165.14 403.736 164.692C403.512 164.236 403.4 163.7 403.4 163.084C403.4 162.62 403.464 162.204 403.592 161.836C403.72 161.46 403.908 161.14 404.156 160.876C404.404 160.612 404.696 160.412 405.032 160.276C405.376 160.132 405.76 160.06 406.184 160.06C406.752 160.06 407.244 160.184 407.66 160.432C408.076 160.68 408.396 161.032 408.62 161.488C408.852 161.936 408.968 162.468 408.968 163.084C408.968 163.548 408.904 163.964 408.776 164.332C408.648 164.7 408.46 165.02 408.212 165.292C407.964 165.556 407.668 165.76 407.324 165.904C406.988 166.04 406.608 166.108 406.184 166.108ZM406.184 165.328C406.544 165.328 406.86 165.24 407.132 165.064C407.404 164.888 407.612 164.632 407.756 164.296C407.908 163.96 407.984 163.556 407.984 163.084C407.984 162.356 407.82 161.8 407.492 161.416C407.172 161.032 406.736 160.84 406.184 160.84C405.816 160.84 405.496 160.928 405.224 161.104C404.96 161.272 404.752 161.524 404.6 161.86C404.456 162.188 404.384 162.596 404.384 163.084C404.384 163.804 404.548 164.36 404.876 164.752C405.204 165.136 405.64 165.328 406.184 165.328ZM410.932 166.084C410.772 166.084 410.652 166.04 410.572 165.952C410.492 165.864 410.452 165.74 410.452 165.58V160.576C410.452 160.416 410.492 160.296 410.572 160.216C410.652 160.128 410.768 160.084 410.92 160.084C411.072 160.084 411.188 160.128 411.268 160.216C411.356 160.296 411.4 160.416 411.4 160.576V161.632L411.268 161.464C411.42 161.016 411.664 160.672 412 160.432C412.344 160.184 412.752 160.06 413.224 160.06C413.72 160.06 414.12 160.18 414.424 160.42C414.736 160.652 414.944 161.016 415.048 161.512H414.868C415.012 161.064 415.268 160.712 415.636 160.456C416.012 160.192 416.448 160.06 416.944 160.06C417.384 160.06 417.744 160.144 418.024 160.312C418.312 160.48 418.528 160.736 418.672 161.08C418.816 161.416 418.888 161.844 418.888 162.364V165.58C418.888 165.74 418.844 165.864 418.756 165.952C418.676 166.04 418.556 166.084 418.396 166.084C418.244 166.084 418.124 166.04 418.036 165.952C417.956 165.864 417.916 165.74 417.916 165.58V162.412C417.916 161.876 417.824 161.484 417.64 161.236C417.456 160.98 417.144 160.852 416.704 160.852C416.224 160.852 415.844 161.02 415.564 161.356C415.292 161.684 415.156 162.132 415.156 162.7V165.58C415.156 165.74 415.112 165.864 415.024 165.952C414.944 166.04 414.824 166.084 414.664 166.084C414.512 166.084 414.392 166.04 414.304 165.952C414.224 165.864 414.184 165.74 414.184 165.58V162.412C414.184 161.876 414.088 161.484 413.896 161.236C413.712 160.98 413.404 160.852 412.972 160.852C412.492 160.852 412.112 161.02 411.832 161.356C411.56 161.684 411.424 162.132 411.424 162.7V165.58C411.424 165.916 411.26 166.084 410.932 166.084ZM423.333 166.108C422.717 166.108 422.185 165.988 421.737 165.748C421.297 165.5 420.953 165.152 420.705 164.704C420.465 164.256 420.345 163.72 420.345 163.096C420.345 162.488 420.465 161.96 420.705 161.512C420.945 161.056 421.273 160.7 421.689 160.444C422.113 160.188 422.601 160.06 423.153 160.06C423.545 160.06 423.897 160.128 424.209 160.264C424.521 160.392 424.785 160.58 425.001 160.828C425.225 161.076 425.393 161.376 425.505 161.728C425.625 162.08 425.685 162.476 425.685 162.916C425.685 163.044 425.649 163.14 425.577 163.204C425.505 163.26 425.401 163.288 425.265 163.288H421.089V162.652H425.037L424.845 162.808C424.845 162.376 424.781 162.012 424.653 161.716C424.525 161.412 424.337 161.18 424.089 161.02C423.849 160.86 423.545 160.78 423.177 160.78C422.769 160.78 422.421 160.876 422.133 161.068C421.853 161.252 421.641 161.512 421.497 161.848C421.353 162.176 421.281 162.56 421.281 163V163.072C421.281 163.808 421.457 164.368 421.809 164.752C422.169 165.136 422.677 165.328 423.333 165.328C423.605 165.328 423.873 165.292 424.137 165.22C424.409 165.148 424.673 165.028 424.929 164.86C425.041 164.788 425.141 164.756 425.229 164.764C425.325 164.764 425.401 164.792 425.457 164.848C425.513 164.896 425.549 164.96 425.565 165.04C425.589 165.112 425.581 165.192 425.541 165.28C425.509 165.368 425.441 165.444 425.337 165.508C425.073 165.7 424.761 165.848 424.401 165.952C424.041 166.056 423.685 166.108 423.333 166.108ZM427.584 166.084C427.424 166.084 427.3 166.04 427.212 165.952C427.132 165.864 427.092 165.74 427.092 165.58V160.576C427.092 160.416 427.132 160.296 427.212 160.216C427.292 160.128 427.408 160.084 427.56 160.084C427.712 160.084 427.828 160.128 427.908 160.216C427.996 160.296 428.04 160.416 428.04 160.576V161.548H427.92C428.048 161.076 428.292 160.712 428.652 160.456C429.012 160.2 429.456 160.064 429.984 160.048C430.104 160.04 430.2 160.068 430.272 160.132C430.344 160.188 430.384 160.288 430.392 160.432C430.4 160.568 430.368 160.676 430.296 160.756C430.224 160.836 430.112 160.884 429.96 160.9L429.768 160.924C429.224 160.972 428.804 161.148 428.508 161.452C428.22 161.748 428.076 162.156 428.076 162.676V165.58C428.076 165.74 428.032 165.864 427.944 165.952C427.864 166.04 427.744 166.084 427.584 166.084ZM433.302 166.108C432.942 166.108 432.578 166.064 432.21 165.976C431.85 165.888 431.514 165.736 431.202 165.52C431.122 165.464 431.066 165.4 431.034 165.328C431.002 165.248 430.99 165.172 430.998 165.1C431.014 165.02 431.046 164.952 431.094 164.896C431.15 164.84 431.214 164.808 431.286 164.8C431.366 164.784 431.454 164.8 431.55 164.848C431.862 165.04 432.162 165.176 432.45 165.256C432.746 165.328 433.038 165.364 433.326 165.364C433.782 165.364 434.126 165.28 434.358 165.112C434.59 164.944 434.706 164.716 434.706 164.428C434.706 164.204 434.63 164.028 434.478 163.9C434.326 163.764 434.086 163.66 433.758 163.588L432.666 163.348C432.162 163.244 431.786 163.064 431.538 162.808C431.298 162.552 431.178 162.22 431.178 161.812C431.178 161.452 431.27 161.144 431.454 160.888C431.646 160.624 431.914 160.42 432.258 160.276C432.602 160.132 433.002 160.06 433.458 160.06C433.81 160.06 434.142 160.108 434.454 160.204C434.774 160.292 435.062 160.436 435.318 160.636C435.398 160.692 435.45 160.76 435.474 160.84C435.506 160.912 435.51 160.988 435.486 161.068C435.47 161.14 435.434 161.204 435.378 161.26C435.322 161.308 435.254 161.336 435.174 161.344C435.094 161.352 435.01 161.328 434.922 161.272C434.682 161.112 434.438 160.996 434.19 160.924C433.942 160.844 433.698 160.804 433.458 160.804C433.01 160.804 432.67 160.892 432.438 161.068C432.206 161.244 432.09 161.476 432.09 161.764C432.09 161.988 432.162 162.172 432.306 162.316C432.45 162.46 432.674 162.564 432.978 162.628L434.07 162.856C434.59 162.968 434.978 163.148 435.234 163.396C435.498 163.636 435.63 163.964 435.63 164.38C435.63 164.908 435.418 165.328 434.994 165.64C434.57 165.952 434.006 166.108 433.302 166.108Z" fill="black"/>
<rect x="313" y="152" width="15" height="15" fill="#F59E0B"/>
<path d="M226.619 129.914C226.619 108.636 219.893 87.9032 207.401 70.6785C194.909 53.4537 177.291 40.6191 157.066 34.0093C136.841 27.3995 115.044 27.3529 94.7907 33.8761C74.5375 40.3993 56.865 53.1584 44.2994 70.3296L95.6317 107.894C100.275 101.548 106.807 96.8325 114.291 94.4218C121.776 92.011 129.832 92.0283 137.306 94.471C144.781 96.9138 151.292 101.657 155.908 108.023C160.525 114.388 163.011 122.051 163.011 129.914H226.619Z" fill="#B5B5B6" stroke="white"/>
<path d="M44.473 71C31.4861 88.7469 24.6529 110.251 25.0136 132.239C25.3742 154.227 32.9089 175.496 46.4708 192.807C60.0327 210.119 78.8791 222.525 100.142 228.139C121.404 233.752 143.919 232.265 164.259 223.904L140.074 165.072C132.557 168.162 124.236 168.712 116.378 166.637C108.521 164.563 101.556 159.978 96.5435 153.58C91.5315 147.182 88.747 139.322 88.6137 131.196C88.4804 123.07 91.0057 115.123 95.8052 108.564L44.473 71Z" fill="#7A64C6" stroke="white"/>
<path d="M164.259 223.904C182.758 216.299 198.579 203.367 209.714 186.752C220.848 170.136 226.793 150.586 226.793 130.584H163.184C163.184 137.976 160.987 145.201 156.872 151.342C152.758 157.483 146.91 162.262 140.074 165.072L164.259 223.904Z" fill="#D57C09" stroke="white"/>
<path d="M157.066 34.0093L163.88 13.1604" stroke="#38A837"/>
<path d="M169.968 8.69141C169.968 9.21094 169.846 9.65234 169.604 10.0156C169.366 10.375 169.042 10.6484 168.632 10.8359C168.225 11.0234 167.766 11.1172 167.255 11.1172C166.743 11.1172 166.282 11.0234 165.872 10.8359C165.462 10.6484 165.137 10.375 164.899 10.0156C164.661 9.65234 164.542 9.21094 164.542 8.69141C164.542 8.35156 164.606 8.04102 164.735 7.75977C164.868 7.47461 165.053 7.22656 165.292 7.01562C165.534 6.80469 165.819 6.64258 166.147 6.5293C166.479 6.41211 166.844 6.35352 167.243 6.35352C167.766 6.35352 168.233 6.45508 168.643 6.6582C169.053 6.85742 169.376 7.13281 169.61 7.48438C169.848 7.83594 169.968 8.23828 169.968 8.69141ZM168.878 8.66797C168.878 8.35156 168.809 8.07227 168.673 7.83008C168.536 7.58398 168.344 7.39258 168.098 7.25586C167.852 7.11914 167.567 7.05078 167.243 7.05078C166.911 7.05078 166.624 7.11914 166.382 7.25586C166.143 7.39258 165.958 7.58398 165.825 7.83008C165.692 8.07227 165.626 8.35156 165.626 8.66797C165.626 8.99609 165.69 9.27734 165.819 9.51172C165.952 9.74219 166.139 9.91992 166.382 10.0449C166.628 10.166 166.919 10.2266 167.255 10.2266C167.591 10.2266 167.88 10.166 168.122 10.0449C168.364 9.91992 168.55 9.74219 168.678 9.51172C168.811 9.27734 168.878 8.99609 168.878 8.66797ZM169.768 4.68945C169.768 5.10352 169.659 5.47656 169.44 5.80859C169.221 6.14062 168.923 6.40234 168.544 6.59375C168.165 6.78516 167.735 6.88086 167.255 6.88086C166.766 6.88086 166.331 6.78516 165.948 6.59375C165.569 6.40234 165.272 6.14062 165.057 5.80859C164.843 5.47656 164.735 5.10352 164.735 4.68945C164.735 4.19336 164.843 3.77148 165.057 3.42383C165.276 3.07617 165.575 2.81055 165.954 2.62695C166.333 2.44336 166.764 2.35156 167.249 2.35156C167.737 2.35156 168.171 2.44336 168.55 2.62695C168.928 2.81055 169.225 3.07617 169.44 3.42383C169.659 3.77148 169.768 4.19336 169.768 4.68945ZM168.684 4.70703C168.684 4.42188 168.624 4.16992 168.503 3.95117C168.382 3.73242 168.214 3.56055 167.999 3.43555C167.784 3.30664 167.534 3.24219 167.249 3.24219C166.964 3.24219 166.714 3.30273 166.499 3.42383C166.288 3.54102 166.122 3.70898 166.001 3.92773C165.884 4.14648 165.825 4.40625 165.825 4.70703C165.825 5 165.884 5.25586 166.001 5.47461C166.122 5.69336 166.29 5.86328 166.505 5.98438C166.719 6.10547 166.969 6.16602 167.255 6.16602C167.54 6.16602 167.788 6.10547 167.999 5.98438C168.214 5.86328 168.382 5.69336 168.503 5.47461C168.624 5.25586 168.684 5 168.684 4.70703ZM176.718 8.69141C176.718 9.21094 176.596 9.65234 176.354 10.0156C176.116 10.375 175.792 10.6484 175.382 10.8359C174.975 11.0234 174.516 11.1172 174.005 11.1172C173.493 11.1172 173.032 11.0234 172.622 10.8359C172.212 10.6484 171.887 10.375 171.649 10.0156C171.411 9.65234 171.292 9.21094 171.292 8.69141C171.292 8.35156 171.356 8.04102 171.485 7.75977C171.618 7.47461 171.803 7.22656 172.042 7.01562C172.284 6.80469 172.569 6.64258 172.897 6.5293C173.229 6.41211 173.594 6.35352 173.993 6.35352C174.516 6.35352 174.983 6.45508 175.393 6.6582C175.803 6.85742 176.126 7.13281 176.36 7.48438C176.598 7.83594 176.718 8.23828 176.718 8.69141ZM175.628 8.66797C175.628 8.35156 175.559 8.07227 175.423 7.83008C175.286 7.58398 175.094 7.39258 174.848 7.25586C174.602 7.11914 174.317 7.05078 173.993 7.05078C173.661 7.05078 173.374 7.11914 173.132 7.25586C172.893 7.39258 172.708 7.58398 172.575 7.83008C172.442 8.07227 172.376 8.35156 172.376 8.66797C172.376 8.99609 172.44 9.27734 172.569 9.51172C172.702 9.74219 172.889 9.91992 173.132 10.0449C173.378 10.166 173.669 10.2266 174.005 10.2266C174.341 10.2266 174.63 10.166 174.872 10.0449C175.114 9.91992 175.3 9.74219 175.428 9.51172C175.561 9.27734 175.628 8.99609 175.628 8.66797ZM176.518 4.68945C176.518 5.10352 176.409 5.47656 176.19 5.80859C175.971 6.14062 175.673 6.40234 175.294 6.59375C174.915 6.78516 174.485 6.88086 174.005 6.88086C173.516 6.88086 173.081 6.78516 172.698 6.59375C172.319 6.40234 172.022 6.14062 171.807 5.80859C171.593 5.47656 171.485 5.10352 171.485 4.68945C171.485 4.19336 171.593 3.77148 171.807 3.42383C172.026 3.07617 172.325 2.81055 172.704 2.62695C173.083 2.44336 173.514 2.35156 173.999 2.35156C174.487 2.35156 174.921 2.44336 175.3 2.62695C175.678 2.81055 175.975 3.07617 176.19 3.42383C176.409 3.77148 176.518 4.19336 176.518 4.68945ZM175.434 4.70703C175.434 4.42188 175.374 4.16992 175.253 3.95117C175.132 3.73242 174.964 3.56055 174.749 3.43555C174.534 3.30664 174.284 3.24219 173.999 3.24219C173.714 3.24219 173.464 3.30273 173.249 3.42383C173.038 3.54102 172.872 3.70898 172.751 3.92773C172.634 4.14648 172.575 4.40625 172.575 4.70703C172.575 5 172.634 5.25586 172.751 5.47461C172.872 5.69336 173.04 5.86328 173.255 5.98438C173.469 6.10547 173.719 6.16602 174.005 6.16602C174.29 6.16602 174.538 6.10547 174.749 5.98438C174.964 5.86328 175.132 5.69336 175.253 5.47461C175.374 5.25586 175.434 5 175.434 4.70703ZM183.444 6.05469V7.35547C183.444 8.05469 183.382 8.64453 183.257 9.125C183.132 9.60547 182.952 9.99219 182.718 10.2852C182.483 10.5781 182.2 10.791 181.868 10.9238C181.54 11.0527 181.169 11.1172 180.755 11.1172C180.427 11.1172 180.124 11.0762 179.846 10.9941C179.569 10.9121 179.319 10.7812 179.096 10.6016C178.878 10.418 178.69 10.1797 178.534 9.88672C178.378 9.59375 178.259 9.23828 178.177 8.82031C178.094 8.40234 178.053 7.91406 178.053 7.35547V6.05469C178.053 5.35547 178.116 4.76953 178.241 4.29688C178.37 3.82422 178.552 3.44531 178.786 3.16016C179.02 2.87109 179.302 2.66406 179.63 2.53906C179.962 2.41406 180.333 2.35156 180.743 2.35156C181.075 2.35156 181.38 2.39258 181.657 2.47461C181.938 2.55273 182.188 2.67969 182.407 2.85547C182.626 3.02734 182.811 3.25781 182.964 3.54688C183.12 3.83203 183.239 4.18164 183.321 4.5957C183.403 5.00977 183.444 5.49609 183.444 6.05469ZM182.354 7.53125V5.87305C182.354 5.49023 182.331 5.1543 182.284 4.86523C182.241 4.57227 182.177 4.32227 182.091 4.11523C182.005 3.9082 181.895 3.74023 181.762 3.61133C181.634 3.48242 181.483 3.38867 181.311 3.33008C181.143 3.26758 180.954 3.23633 180.743 3.23633C180.485 3.23633 180.257 3.28516 180.057 3.38281C179.858 3.47656 179.69 3.62695 179.553 3.83398C179.421 4.04102 179.319 4.3125 179.249 4.64844C179.178 4.98438 179.143 5.39258 179.143 5.87305V7.53125C179.143 7.91406 179.165 8.25195 179.208 8.54492C179.255 8.83789 179.323 9.0918 179.413 9.30664C179.503 9.51758 179.612 9.69141 179.741 9.82812C179.87 9.96484 180.018 10.0664 180.186 10.1328C180.358 10.1953 180.548 10.2266 180.755 10.2266C181.02 10.2266 181.253 10.1758 181.452 10.0742C181.651 9.97266 181.817 9.81445 181.95 9.59961C182.087 9.38086 182.188 9.10156 182.255 8.76172C182.321 8.41797 182.354 8.00781 182.354 7.53125Z" fill="#38A837"/>
<path d="M46.2972 192.137L29.0308 205.663" stroke="#38A837"/>
<path d="M10.5678 202.595H10.6792C11.3042 202.595 11.812 202.507 12.2026 202.331C12.5932 202.155 12.894 201.919 13.1049 201.622C13.3159 201.325 13.4604 200.991 13.5385 200.62C13.6167 200.245 13.6557 199.86 13.6557 199.466V198.159C13.6557 197.772 13.6108 197.429 13.521 197.128C13.435 196.827 13.3139 196.575 13.1577 196.372C13.0053 196.169 12.8315 196.015 12.6362 195.909C12.4409 195.804 12.2339 195.751 12.0151 195.751C11.7651 195.751 11.5405 195.802 11.3413 195.903C11.146 196.001 10.9799 196.14 10.8432 196.319C10.7104 196.499 10.6089 196.71 10.5385 196.952C10.4682 197.194 10.4331 197.458 10.4331 197.743C10.4331 197.997 10.4643 198.243 10.5268 198.481C10.5893 198.72 10.685 198.935 10.8139 199.126C10.9428 199.317 11.103 199.47 11.2944 199.583C11.4897 199.692 11.7182 199.747 11.9799 199.747C12.2221 199.747 12.4487 199.7 12.6596 199.606C12.8745 199.509 13.0639 199.378 13.228 199.214C13.396 199.046 13.5288 198.856 13.6264 198.646C13.728 198.435 13.7866 198.214 13.8022 197.983H14.3178C14.3178 198.308 14.2534 198.628 14.1245 198.944C13.9995 199.257 13.8237 199.542 13.5971 199.8C13.3706 200.058 13.1049 200.265 12.8003 200.421C12.4956 200.573 12.1635 200.649 11.8042 200.649C11.3823 200.649 11.0171 200.567 10.7085 200.403C10.3999 200.239 10.146 200.021 9.94674 199.747C9.75143 199.474 9.60495 199.169 9.50729 198.833C9.41354 198.493 9.36666 198.149 9.36666 197.802C9.36666 197.396 9.42331 197.015 9.53659 196.659C9.64987 196.304 9.81784 195.991 10.0405 195.722C10.2631 195.448 10.5385 195.235 10.8667 195.083C11.1987 194.931 11.5815 194.854 12.0151 194.854C12.5034 194.854 12.9194 194.952 13.2631 195.147C13.6069 195.343 13.8862 195.604 14.101 195.933C14.3198 196.261 14.4799 196.63 14.5815 197.04C14.6831 197.45 14.7339 197.872 14.7339 198.306V198.698C14.7339 199.14 14.7046 199.589 14.646 200.046C14.5913 200.499 14.4839 200.933 14.3237 201.347C14.1674 201.761 13.9389 202.132 13.6381 202.46C13.3374 202.784 12.9448 203.042 12.4604 203.233C11.9799 203.421 11.3862 203.515 10.6792 203.515H10.5678V202.595ZM21.5952 198.558V199.858C21.5952 200.558 21.5327 201.147 21.4077 201.628C21.2827 202.108 21.103 202.495 20.8686 202.788C20.6342 203.081 20.351 203.294 20.019 203.427C19.6909 203.556 19.3198 203.62 18.9057 203.62C18.5776 203.62 18.2749 203.579 17.9975 203.497C17.7202 203.415 17.4702 203.284 17.2475 203.104C17.0288 202.921 16.8413 202.683 16.685 202.39C16.5288 202.097 16.4096 201.741 16.3276 201.323C16.2456 200.905 16.2046 200.417 16.2046 199.858V198.558C16.2046 197.858 16.2671 197.272 16.3921 196.8C16.521 196.327 16.7026 195.948 16.937 195.663C17.1714 195.374 17.4526 195.167 17.7807 195.042C18.1128 194.917 18.4839 194.854 18.894 194.854C19.226 194.854 19.5307 194.896 19.8081 194.978C20.0893 195.056 20.3393 195.183 20.5581 195.358C20.7768 195.53 20.9624 195.761 21.1147 196.05C21.271 196.335 21.3901 196.685 21.4721 197.099C21.5542 197.513 21.5952 197.999 21.5952 198.558ZM20.5053 200.034V198.376C20.5053 197.993 20.4819 197.657 20.435 197.368C20.3921 197.075 20.3276 196.825 20.2417 196.618C20.1557 196.411 20.0464 196.243 19.9135 196.114C19.7846 195.985 19.6342 195.892 19.4624 195.833C19.2944 195.771 19.1049 195.739 18.894 195.739C18.6362 195.739 18.4077 195.788 18.2085 195.886C18.0092 195.979 17.8413 196.13 17.7046 196.337C17.5717 196.544 17.4702 196.815 17.3999 197.151C17.3296 197.487 17.2944 197.896 17.2944 198.376V200.034C17.2944 200.417 17.3159 200.755 17.3589 201.048C17.4057 201.341 17.4741 201.595 17.5639 201.81C17.6538 202.021 17.7631 202.194 17.8921 202.331C18.021 202.468 18.1694 202.569 18.3374 202.636C18.5092 202.698 18.6987 202.729 18.9057 202.729C19.1714 202.729 19.4038 202.679 19.603 202.577C19.8022 202.476 19.9682 202.317 20.101 202.103C20.2378 201.884 20.3393 201.604 20.4057 201.265C20.4721 200.921 20.5053 200.511 20.5053 200.034ZM24.0678 202.595H24.1792C24.8042 202.595 25.312 202.507 25.7026 202.331C26.0932 202.155 26.394 201.919 26.6049 201.622C26.8159 201.325 26.9604 200.991 27.0385 200.62C27.1167 200.245 27.1557 199.86 27.1557 199.466V198.159C27.1557 197.772 27.1108 197.429 27.021 197.128C26.935 196.827 26.8139 196.575 26.6577 196.372C26.5053 196.169 26.3315 196.015 26.1362 195.909C25.9409 195.804 25.7339 195.751 25.5151 195.751C25.2651 195.751 25.0405 195.802 24.8413 195.903C24.646 196.001 24.4799 196.14 24.3432 196.319C24.2104 196.499 24.1089 196.71 24.0385 196.952C23.9682 197.194 23.9331 197.458 23.9331 197.743C23.9331 197.997 23.9643 198.243 24.0268 198.481C24.0893 198.72 24.185 198.935 24.3139 199.126C24.4428 199.317 24.603 199.47 24.7944 199.583C24.9897 199.692 25.2182 199.747 25.4799 199.747C25.7221 199.747 25.9487 199.7 26.1596 199.606C26.3745 199.509 26.5639 199.378 26.728 199.214C26.896 199.046 27.0288 198.856 27.1264 198.646C27.228 198.435 27.2866 198.214 27.3022 197.983H27.8178C27.8178 198.308 27.7534 198.628 27.6245 198.944C27.4995 199.257 27.3237 199.542 27.0971 199.8C26.8706 200.058 26.6049 200.265 26.3003 200.421C25.9956 200.573 25.6635 200.649 25.3042 200.649C24.8823 200.649 24.5171 200.567 24.2085 200.403C23.8999 200.239 23.646 200.021 23.4467 199.747C23.2514 199.474 23.1049 199.169 23.0073 198.833C22.9135 198.493 22.8667 198.149 22.8667 197.802C22.8667 197.396 22.9233 197.015 23.0366 196.659C23.1499 196.304 23.3178 195.991 23.5405 195.722C23.7631 195.448 24.0385 195.235 24.3667 195.083C24.6987 194.931 25.0815 194.854 25.5151 194.854C26.0034 194.854 26.4194 194.952 26.7631 195.147C27.1069 195.343 27.3862 195.604 27.601 195.933C27.8198 196.261 27.9799 196.63 28.0815 197.04C28.1831 197.45 28.2339 197.872 28.2339 198.306V198.698C28.2339 199.14 28.2046 199.589 28.146 200.046C28.0913 200.499 27.9839 200.933 27.8237 201.347C27.6674 201.761 27.4389 202.132 27.1381 202.46C26.8374 202.784 26.4448 203.042 25.9604 203.233C25.4799 203.421 24.8862 203.515 24.1792 203.515H24.0678V202.595Z" fill="#38A837"/>
<path d="M209.541 186.081L227.762 198.292" stroke="#38A837"/>
<path d="M234.236 193.26V194.151H228.072V193.512L231.893 187.6H232.777L231.828 189.311L229.303 193.26H234.236ZM233.047 187.6V196.131H231.963V187.6H233.047ZM238.783 187.553V196.131H237.699V188.906L235.514 189.703V188.725L238.613 187.553H238.783ZM247.736 193.26V194.151H241.572V193.512L245.393 187.6H246.277L245.328 189.311L242.803 193.26H247.736ZM246.547 187.6V196.131H245.463V187.6H246.547Z" fill="#38A837"/>
</svg>
