<svg width="575" height="318" viewBox="0 0 575 318" fill="none" xmlns="http://www.w3.org/2000/svg">
<path d="M5.32266 58.69C5.65599 58.69 5.95599 58.7383 6.22266 58.835C6.49266 58.9283 6.72266 59.06 6.91266 59.23C7.10266 59.3967 7.24766 59.5933 7.34766 59.82C7.45099 60.0467 7.50266 60.2917 7.50266 60.555C7.50266 60.785 7.47599 60.9883 7.42266 61.165C7.37266 61.3383 7.29766 61.49 7.19766 61.62C7.10099 61.75 6.98099 61.86 6.83766 61.95C6.69766 62.04 6.53766 62.115 6.35766 62.175C6.79099 62.3117 7.11432 62.52 7.32766 62.8C7.54099 63.08 7.64766 63.4317 7.64766 63.855C7.64766 64.215 7.58099 64.5333 7.44766 64.81C7.31432 65.0867 7.13432 65.32 6.90766 65.51C6.68099 65.6967 6.41766 65.8383 6.11766 65.935C5.82099 66.0317 5.50599 66.08 5.17266 66.08C4.80932 66.08 4.49266 66.0383 4.22266 65.955C3.95266 65.8717 3.71766 65.7483 3.51766 65.585C3.31766 65.4217 3.14766 65.2217 3.00766 64.985C2.86766 64.7483 2.74766 64.475 2.64766 64.165L3.19266 63.94C3.28599 63.9 3.38099 63.88 3.47766 63.88C3.56432 63.88 3.64099 63.8983 3.70766 63.935C3.77766 63.9717 3.83099 64.025 3.86766 64.095C3.92766 64.2117 3.99266 64.3267 4.06266 64.44C4.13599 64.5533 4.22266 64.655 4.32266 64.745C4.42266 64.8317 4.53932 64.9033 4.67266 64.96C4.80932 65.0133 4.97099 65.04 5.15766 65.04C5.36766 65.04 5.55099 65.0067 5.70766 64.94C5.86432 64.87 5.99432 64.78 6.09766 64.67C6.20432 64.56 6.28266 64.4383 6.33266 64.305C6.38599 64.1683 6.41266 64.0317 6.41266 63.895C6.41266 63.7217 6.39432 63.565 6.35766 63.425C6.32099 63.2817 6.24432 63.16 6.12766 63.06C6.01099 62.96 5.84266 62.8817 5.62266 62.825C5.40599 62.7683 5.11432 62.74 4.74766 62.74V61.86C5.05099 61.8567 5.30266 61.8283 5.50266 61.775C5.70266 61.7217 5.86099 61.6483 5.97766 61.555C6.09766 61.4583 6.18099 61.3433 6.22766 61.21C6.27432 61.0767 6.29766 60.93 6.29766 60.77C6.29766 60.4267 6.20432 60.1683 6.01766 59.995C5.83099 59.8183 5.57599 59.73 5.25266 59.73C4.95932 59.73 4.71599 59.8083 4.52266 59.965C4.32932 60.1183 4.19432 60.3167 4.11766 60.56C4.07766 60.6867 4.02266 60.7783 3.95266 60.835C3.88266 60.8883 3.79099 60.915 3.67766 60.915C3.62432 60.915 3.56766 60.91 3.50766 60.9L2.85766 60.785C2.90766 60.4383 3.00432 60.135 3.14766 59.875C3.29099 59.6117 3.46932 59.3933 3.68266 59.22C3.89932 59.0433 4.14599 58.9117 4.42266 58.825C4.70266 58.735 5.00266 58.69 5.32266 58.69ZM13.7484 62.385C13.7484 63.015 13.6801 63.5633 13.5434 64.03C13.4101 64.4933 13.2234 64.8767 12.9834 65.18C12.7468 65.4833 12.4651 65.71 12.1384 65.86C11.8151 66.0067 11.4651 66.08 11.0884 66.08C10.7118 66.08 10.3618 66.0067 10.0384 65.86C9.71844 65.71 9.4401 65.4833 9.20344 65.18C8.96677 64.8767 8.78177 64.4933 8.64844 64.03C8.5151 63.5633 8.44844 63.015 8.44844 62.385C8.44844 61.7517 8.5151 61.2033 8.64844 60.74C8.78177 60.2767 8.96677 59.8933 9.20344 59.59C9.4401 59.2867 9.71844 59.0617 10.0384 58.915C10.3618 58.765 10.7118 58.69 11.0884 58.69C11.4651 58.69 11.8151 58.765 12.1384 58.915C12.4651 59.0617 12.7468 59.2867 12.9834 59.59C13.2234 59.8933 13.4101 60.2767 13.5434 60.74C13.6801 61.2033 13.7484 61.7517 13.7484 62.385ZM12.4734 62.385C12.4734 61.8617 12.4351 61.4283 12.3584 61.085C12.2818 60.7417 12.1784 60.4683 12.0484 60.265C11.9218 60.0617 11.7751 59.92 11.6084 59.84C11.4418 59.7567 11.2684 59.715 11.0884 59.715C10.9118 59.715 10.7401 59.7567 10.5734 59.84C10.4101 59.92 10.2651 60.0617 10.1384 60.265C10.0118 60.4683 9.9101 60.7417 9.83344 61.085C9.7601 61.4283 9.72344 61.8617 9.72344 62.385C9.72344 62.9083 9.7601 63.3417 9.83344 63.685C9.9101 64.0283 10.0118 64.3017 10.1384 64.505C10.2651 64.7083 10.4101 64.8517 10.5734 64.935C10.7401 65.015 10.9118 65.055 11.0884 65.055C11.2684 65.055 11.4418 65.015 11.6084 64.935C11.7751 64.8517 11.9218 64.7083 12.0484 64.505C12.1784 64.3017 12.2818 64.0283 12.3584 63.685C12.4351 63.3417 12.4734 62.9083 12.4734 62.385ZM19.7492 62.385C19.7492 63.015 19.6809 63.5633 19.5442 64.03C19.4109 64.4933 19.2242 64.8767 18.9842 65.18C18.7476 65.4833 18.4659 65.71 18.1392 65.86C17.8159 66.0067 17.4659 66.08 17.0892 66.08C16.7126 66.08 16.3626 66.0067 16.0392 65.86C15.7192 65.71 15.4409 65.4833 15.2042 65.18C14.9676 64.8767 14.7826 64.4933 14.6492 64.03C14.5159 63.5633 14.4492 63.015 14.4492 62.385C14.4492 61.7517 14.5159 61.2033 14.6492 60.74C14.7826 60.2767 14.9676 59.8933 15.2042 59.59C15.4409 59.2867 15.7192 59.0617 16.0392 58.915C16.3626 58.765 16.7126 58.69 17.0892 58.69C17.4659 58.69 17.8159 58.765 18.1392 58.915C18.4659 59.0617 18.7476 59.2867 18.9842 59.59C19.2242 59.8933 19.4109 60.2767 19.5442 60.74C19.6809 61.2033 19.7492 61.7517 19.7492 62.385ZM18.4742 62.385C18.4742 61.8617 18.4359 61.4283 18.3592 61.085C18.2826 60.7417 18.1792 60.4683 18.0492 60.265C17.9226 60.0617 17.7759 59.92 17.6092 59.84C17.4426 59.7567 17.2692 59.715 17.0892 59.715C16.9126 59.715 16.7409 59.7567 16.5742 59.84C16.4109 59.92 16.2659 60.0617 16.1392 60.265C16.0126 60.4683 15.9109 60.7417 15.8342 61.085C15.7609 61.4283 15.7242 61.8617 15.7242 62.385C15.7242 62.9083 15.7609 63.3417 15.8342 63.685C15.9109 64.0283 16.0126 64.3017 16.1392 64.505C16.2659 64.7083 16.4109 64.8517 16.5742 64.935C16.7409 65.015 16.9126 65.055 17.0892 65.055C17.2692 65.055 17.4426 65.015 17.6092 64.935C17.7759 64.8517 17.9226 64.7083 18.0492 64.505C18.1792 64.3017 18.2826 64.0283 18.3592 63.685C18.4359 63.3417 18.4742 62.9083 18.4742 62.385Z" fill="#CACCCF"/>
<path d="M5.20766 98.69C5.54099 98.69 5.84599 98.74 6.12266 98.84C6.39932 98.9367 6.63599 99.075 6.83266 99.255C7.02932 99.435 7.18266 99.6517 7.29266 99.905C7.40266 100.158 7.45766 100.44 7.45766 100.75C7.45766 101.017 7.41766 101.263 7.33766 101.49C7.26099 101.717 7.15599 101.933 7.02266 102.14C6.89266 102.347 6.73932 102.547 6.56266 102.74C6.38599 102.933 6.20099 103.13 6.00766 103.33L4.37766 104.995C4.53766 104.948 4.69432 104.913 4.84766 104.89C5.00099 104.863 5.14766 104.85 5.28766 104.85H7.14266C7.27599 104.85 7.38099 104.888 7.45766 104.965C7.53766 105.038 7.57766 105.137 7.57766 105.26V106H2.61766V105.59C2.61766 105.507 2.63432 105.42 2.66766 105.33C2.70432 105.24 2.76099 105.157 2.83766 105.08L5.03266 102.88C5.21599 102.693 5.37932 102.515 5.52266 102.345C5.66932 102.175 5.79099 102.007 5.88766 101.84C5.98766 101.673 6.06266 101.505 6.11266 101.335C6.16599 101.162 6.19266 100.98 6.19266 100.79C6.19266 100.617 6.16766 100.465 6.11766 100.335C6.06766 100.202 5.99599 100.09 5.90266 100C5.80932 99.91 5.69766 99.8433 5.56766 99.8C5.44099 99.7533 5.29766 99.73 5.13766 99.73C4.84099 99.73 4.59599 99.805 4.40266 99.955C4.21266 100.105 4.07932 100.307 4.00266 100.56C3.96599 100.687 3.91099 100.778 3.83766 100.835C3.76432 100.888 3.67099 100.915 3.55766 100.915C3.50766 100.915 3.45266 100.91 3.39266 100.9L2.74266 100.785C2.79266 100.438 2.88932 100.135 3.03266 99.875C3.17599 99.6117 3.35432 99.3933 3.56766 99.22C3.78432 99.0433 4.03099 98.9117 4.30766 98.825C4.58766 98.735 4.88766 98.69 5.20766 98.69ZM13.1434 99.295C13.1434 99.4717 13.0868 99.615 12.9734 99.725C12.8634 99.835 12.6784 99.89 12.4184 99.89H10.4284L10.1684 101.4C10.4951 101.333 10.7934 101.3 11.0634 101.3C11.4434 101.3 11.7768 101.357 12.0634 101.47C12.3534 101.583 12.5968 101.74 12.7934 101.94C12.9901 102.14 13.1384 102.375 13.2384 102.645C13.3384 102.912 13.3884 103.2 13.3884 103.51C13.3884 103.893 13.3201 104.243 13.1834 104.56C13.0501 104.877 12.8634 105.148 12.6234 105.375C12.3834 105.598 12.0984 105.772 11.7684 105.895C11.4418 106.018 11.0851 106.08 10.6984 106.08C10.4718 106.08 10.2568 106.057 10.0534 106.01C9.8501 105.963 9.65844 105.902 9.47844 105.825C9.30177 105.745 9.13677 105.655 8.98344 105.555C8.83344 105.452 8.69844 105.343 8.57844 105.23L8.95844 104.705C9.03844 104.592 9.1451 104.535 9.27844 104.535C9.36177 104.535 9.4451 104.562 9.52844 104.615C9.6151 104.668 9.7151 104.727 9.82844 104.79C9.94177 104.853 10.0734 104.912 10.2234 104.965C10.3734 105.018 10.5551 105.045 10.7684 105.045C10.9951 105.045 11.1951 105.008 11.3684 104.935C11.5418 104.862 11.6851 104.76 11.7984 104.63C11.9151 104.497 12.0018 104.34 12.0584 104.16C12.1184 103.977 12.1484 103.778 12.1484 103.565C12.1484 103.172 12.0334 102.865 11.8034 102.645C11.5768 102.422 11.2418 102.31 10.7984 102.31C10.4484 102.31 10.0968 102.373 9.74344 102.5L8.97344 102.28L9.57344 98.77H13.1434V99.295ZM19.7492 102.385C19.7492 103.015 19.6809 103.563 19.5442 104.03C19.4109 104.493 19.2242 104.877 18.9842 105.18C18.7476 105.483 18.4659 105.71 18.1392 105.86C17.8159 106.007 17.4659 106.08 17.0892 106.08C16.7126 106.08 16.3626 106.007 16.0392 105.86C15.7192 105.71 15.4409 105.483 15.2042 105.18C14.9676 104.877 14.7826 104.493 14.6492 104.03C14.5159 103.563 14.4492 103.015 14.4492 102.385C14.4492 101.752 14.5159 101.203 14.6492 100.74C14.7826 100.277 14.9676 99.8933 15.2042 99.59C15.4409 99.2867 15.7192 99.0617 16.0392 98.915C16.3626 98.765 16.7126 98.69 17.0892 98.69C17.4659 98.69 17.8159 98.765 18.1392 98.915C18.4659 99.0617 18.7476 99.2867 18.9842 99.59C19.2242 99.8933 19.4109 100.277 19.5442 100.74C19.6809 101.203 19.7492 101.752 19.7492 102.385ZM18.4742 102.385C18.4742 101.862 18.4359 101.428 18.3592 101.085C18.2826 100.742 18.1792 100.468 18.0492 100.265C17.9226 100.062 17.7759 99.92 17.6092 99.84C17.4426 99.7567 17.2692 99.715 17.0892 99.715C16.9126 99.715 16.7409 99.7567 16.5742 99.84C16.4109 99.92 16.2659 100.062 16.1392 100.265C16.0126 100.468 15.9109 100.742 15.8342 101.085C15.7609 101.428 15.7242 101.862 15.7242 102.385C15.7242 102.908 15.7609 103.342 15.8342 103.685C15.9109 104.028 16.0126 104.302 16.1392 104.505C16.2659 104.708 16.4109 104.852 16.5742 104.935C16.7409 105.015 16.9126 105.055 17.0892 105.055C17.2692 105.055 17.4426 105.015 17.6092 104.935C17.7759 104.852 17.9226 104.708 18.0492 104.505C18.1792 104.302 18.2826 104.028 18.3592 103.685C18.4359 103.342 18.4742 102.908 18.4742 102.385Z" fill="#CACCCF"/>
<path d="M5.20766 138.69C5.54099 138.69 5.84599 138.74 6.12266 138.84C6.39932 138.937 6.63599 139.075 6.83266 139.255C7.02932 139.435 7.18266 139.652 7.29266 139.905C7.40266 140.158 7.45766 140.44 7.45766 140.75C7.45766 141.017 7.41766 141.263 7.33766 141.49C7.26099 141.717 7.15599 141.933 7.02266 142.14C6.89266 142.347 6.73932 142.547 6.56266 142.74C6.38599 142.933 6.20099 143.13 6.00766 143.33L4.37766 144.995C4.53766 144.948 4.69432 144.913 4.84766 144.89C5.00099 144.863 5.14766 144.85 5.28766 144.85H7.14266C7.27599 144.85 7.38099 144.888 7.45766 144.965C7.53766 145.038 7.57766 145.137 7.57766 145.26V146H2.61766V145.59C2.61766 145.507 2.63432 145.42 2.66766 145.33C2.70432 145.24 2.76099 145.157 2.83766 145.08L5.03266 142.88C5.21599 142.693 5.37932 142.515 5.52266 142.345C5.66932 142.175 5.79099 142.007 5.88766 141.84C5.98766 141.673 6.06266 141.505 6.11266 141.335C6.16599 141.162 6.19266 140.98 6.19266 140.79C6.19266 140.617 6.16766 140.465 6.11766 140.335C6.06766 140.202 5.99599 140.09 5.90266 140C5.80932 139.91 5.69766 139.843 5.56766 139.8C5.44099 139.753 5.29766 139.73 5.13766 139.73C4.84099 139.73 4.59599 139.805 4.40266 139.955C4.21266 140.105 4.07932 140.307 4.00266 140.56C3.96599 140.687 3.91099 140.778 3.83766 140.835C3.76432 140.888 3.67099 140.915 3.55766 140.915C3.50766 140.915 3.45266 140.91 3.39266 140.9L2.74266 140.785C2.79266 140.438 2.88932 140.135 3.03266 139.875C3.17599 139.612 3.35432 139.393 3.56766 139.22C3.78432 139.043 4.03099 138.912 4.30766 138.825C4.58766 138.735 4.88766 138.69 5.20766 138.69ZM13.7484 142.385C13.7484 143.015 13.6801 143.563 13.5434 144.03C13.4101 144.493 13.2234 144.877 12.9834 145.18C12.7468 145.483 12.4651 145.71 12.1384 145.86C11.8151 146.007 11.4651 146.08 11.0884 146.08C10.7118 146.08 10.3618 146.007 10.0384 145.86C9.71844 145.71 9.4401 145.483 9.20344 145.18C8.96677 144.877 8.78177 144.493 8.64844 144.03C8.5151 143.563 8.44844 143.015 8.44844 142.385C8.44844 141.752 8.5151 141.203 8.64844 140.74C8.78177 140.277 8.96677 139.893 9.20344 139.59C9.4401 139.287 9.71844 139.062 10.0384 138.915C10.3618 138.765 10.7118 138.69 11.0884 138.69C11.4651 138.69 11.8151 138.765 12.1384 138.915C12.4651 139.062 12.7468 139.287 12.9834 139.59C13.2234 139.893 13.4101 140.277 13.5434 140.74C13.6801 141.203 13.7484 141.752 13.7484 142.385ZM12.4734 142.385C12.4734 141.862 12.4351 141.428 12.3584 141.085C12.2818 140.742 12.1784 140.468 12.0484 140.265C11.9218 140.062 11.7751 139.92 11.6084 139.84C11.4418 139.757 11.2684 139.715 11.0884 139.715C10.9118 139.715 10.7401 139.757 10.5734 139.84C10.4101 139.92 10.2651 140.062 10.1384 140.265C10.0118 140.468 9.9101 140.742 9.83344 141.085C9.7601 141.428 9.72344 141.862 9.72344 142.385C9.72344 142.908 9.7601 143.342 9.83344 143.685C9.9101 144.028 10.0118 144.302 10.1384 144.505C10.2651 144.708 10.4101 144.852 10.5734 144.935C10.7401 145.015 10.9118 145.055 11.0884 145.055C11.2684 145.055 11.4418 145.015 11.6084 144.935C11.7751 144.852 11.9218 144.708 12.0484 144.505C12.1784 144.302 12.2818 144.028 12.3584 143.685C12.4351 143.342 12.4734 142.908 12.4734 142.385ZM19.7492 142.385C19.7492 143.015 19.6809 143.563 19.5442 144.03C19.4109 144.493 19.2242 144.877 18.9842 145.18C18.7476 145.483 18.4659 145.71 18.1392 145.86C17.8159 146.007 17.4659 146.08 17.0892 146.08C16.7126 146.08 16.3626 146.007 16.0392 145.86C15.7192 145.71 15.4409 145.483 15.2042 145.18C14.9676 144.877 14.7826 144.493 14.6492 144.03C14.5159 143.563 14.4492 143.015 14.4492 142.385C14.4492 141.752 14.5159 141.203 14.6492 140.74C14.7826 140.277 14.9676 139.893 15.2042 139.59C15.4409 139.287 15.7192 139.062 16.0392 138.915C16.3626 138.765 16.7126 138.69 17.0892 138.69C17.4659 138.69 17.8159 138.765 18.1392 138.915C18.4659 139.062 18.7476 139.287 18.9842 139.59C19.2242 139.893 19.4109 140.277 19.5442 140.74C19.6809 141.203 19.7492 141.752 19.7492 142.385ZM18.4742 142.385C18.4742 141.862 18.4359 141.428 18.3592 141.085C18.2826 140.742 18.1792 140.468 18.0492 140.265C17.9226 140.062 17.7759 139.92 17.6092 139.84C17.4426 139.757 17.2692 139.715 17.0892 139.715C16.9126 139.715 16.7409 139.757 16.5742 139.84C16.4109 139.92 16.2659 140.062 16.1392 140.265C16.0126 140.468 15.9109 140.742 15.8342 141.085C15.7609 141.428 15.7242 141.862 15.7242 142.385C15.7242 142.908 15.7609 143.342 15.8342 143.685C15.9109 144.028 16.0126 144.302 16.1392 144.505C16.2659 144.708 16.4109 144.852 16.5742 144.935C16.7409 145.015 16.9126 145.055 17.0892 145.055C17.2692 145.055 17.4426 145.015 17.6092 144.935C17.7759 144.852 17.9226 144.708 18.0492 144.505C18.1792 144.302 18.2826 144.028 18.3592 143.685C18.4359 143.342 18.4742 142.908 18.4742 142.385Z" fill="#CACCCF"/>
<path d="M3.54266 185.075H5.00766V180.86C5.00766 180.697 5.01266 180.525 5.02266 180.345L3.98266 181.215C3.93932 181.252 3.89432 181.277 3.84766 181.29C3.80432 181.303 3.76099 181.31 3.71766 181.31C3.65099 181.31 3.58932 181.297 3.53266 181.27C3.47932 181.24 3.43932 181.207 3.41266 181.17L3.02266 180.635L5.22766 178.76H6.24266V185.075H7.54266V186H3.54266V185.075ZM13.1434 179.295C13.1434 179.472 13.0868 179.615 12.9734 179.725C12.8634 179.835 12.6784 179.89 12.4184 179.89H10.4284L10.1684 181.4C10.4951 181.333 10.7934 181.3 11.0634 181.3C11.4434 181.3 11.7768 181.357 12.0634 181.47C12.3534 181.583 12.5968 181.74 12.7934 181.94C12.9901 182.14 13.1384 182.375 13.2384 182.645C13.3384 182.912 13.3884 183.2 13.3884 183.51C13.3884 183.893 13.3201 184.243 13.1834 184.56C13.0501 184.877 12.8634 185.148 12.6234 185.375C12.3834 185.598 12.0984 185.772 11.7684 185.895C11.4418 186.018 11.0851 186.08 10.6984 186.08C10.4718 186.08 10.2568 186.057 10.0534 186.01C9.8501 185.963 9.65844 185.902 9.47844 185.825C9.30177 185.745 9.13677 185.655 8.98344 185.555C8.83344 185.452 8.69844 185.343 8.57844 185.23L8.95844 184.705C9.03844 184.592 9.1451 184.535 9.27844 184.535C9.36177 184.535 9.4451 184.562 9.52844 184.615C9.6151 184.668 9.7151 184.727 9.82844 184.79C9.94177 184.853 10.0734 184.912 10.2234 184.965C10.3734 185.018 10.5551 185.045 10.7684 185.045C10.9951 185.045 11.1951 185.008 11.3684 184.935C11.5418 184.862 11.6851 184.76 11.7984 184.63C11.9151 184.497 12.0018 184.34 12.0584 184.16C12.1184 183.977 12.1484 183.778 12.1484 183.565C12.1484 183.172 12.0334 182.865 11.8034 182.645C11.5768 182.422 11.2418 182.31 10.7984 182.31C10.4484 182.31 10.0968 182.373 9.74344 182.5L8.97344 182.28L9.57344 178.77H13.1434V179.295ZM19.7492 182.385C19.7492 183.015 19.6809 183.563 19.5442 184.03C19.4109 184.493 19.2242 184.877 18.9842 185.18C18.7476 185.483 18.4659 185.71 18.1392 185.86C17.8159 186.007 17.4659 186.08 17.0892 186.08C16.7126 186.08 16.3626 186.007 16.0392 185.86C15.7192 185.71 15.4409 185.483 15.2042 185.18C14.9676 184.877 14.7826 184.493 14.6492 184.03C14.5159 183.563 14.4492 183.015 14.4492 182.385C14.4492 181.752 14.5159 181.203 14.6492 180.74C14.7826 180.277 14.9676 179.893 15.2042 179.59C15.4409 179.287 15.7192 179.062 16.0392 178.915C16.3626 178.765 16.7126 178.69 17.0892 178.69C17.4659 178.69 17.8159 178.765 18.1392 178.915C18.4659 179.062 18.7476 179.287 18.9842 179.59C19.2242 179.893 19.4109 180.277 19.5442 180.74C19.6809 181.203 19.7492 181.752 19.7492 182.385ZM18.4742 182.385C18.4742 181.862 18.4359 181.428 18.3592 181.085C18.2826 180.742 18.1792 180.468 18.0492 180.265C17.9226 180.062 17.7759 179.92 17.6092 179.84C17.4426 179.757 17.2692 179.715 17.0892 179.715C16.9126 179.715 16.7409 179.757 16.5742 179.84C16.4109 179.92 16.2659 180.062 16.1392 180.265C16.0126 180.468 15.9109 180.742 15.8342 181.085C15.7609 181.428 15.7242 181.862 15.7242 182.385C15.7242 182.908 15.7609 183.342 15.8342 183.685C15.9109 184.028 16.0126 184.302 16.1392 184.505C16.2659 184.708 16.4109 184.852 16.5742 184.935C16.7409 185.015 16.9126 185.055 17.0892 185.055C17.2692 185.055 17.4426 185.015 17.6092 184.935C17.7759 184.852 17.9226 184.708 18.0492 184.505C18.1792 184.302 18.2826 184.028 18.3592 183.685C18.4359 183.342 18.4742 182.908 18.4742 182.385Z" fill="#CACCCF"/>
<path d="M3.54266 225.075H5.00766V220.86C5.00766 220.697 5.01266 220.525 5.02266 220.345L3.98266 221.215C3.93932 221.252 3.89432 221.277 3.84766 221.29C3.80432 221.303 3.76099 221.31 3.71766 221.31C3.65099 221.31 3.58932 221.297 3.53266 221.27C3.47932 221.24 3.43932 221.207 3.41266 221.17L3.02266 220.635L5.22766 218.76H6.24266V225.075H7.54266V226H3.54266V225.075ZM13.7484 222.385C13.7484 223.015 13.6801 223.563 13.5434 224.03C13.4101 224.493 13.2234 224.877 12.9834 225.18C12.7468 225.483 12.4651 225.71 12.1384 225.86C11.8151 226.007 11.4651 226.08 11.0884 226.08C10.7118 226.08 10.3618 226.007 10.0384 225.86C9.71844 225.71 9.4401 225.483 9.20344 225.18C8.96677 224.877 8.78177 224.493 8.64844 224.03C8.5151 223.563 8.44844 223.015 8.44844 222.385C8.44844 221.752 8.5151 221.203 8.64844 220.74C8.78177 220.277 8.96677 219.893 9.20344 219.59C9.4401 219.287 9.71844 219.062 10.0384 218.915C10.3618 218.765 10.7118 218.69 11.0884 218.69C11.4651 218.69 11.8151 218.765 12.1384 218.915C12.4651 219.062 12.7468 219.287 12.9834 219.59C13.2234 219.893 13.4101 220.277 13.5434 220.74C13.6801 221.203 13.7484 221.752 13.7484 222.385ZM12.4734 222.385C12.4734 221.862 12.4351 221.428 12.3584 221.085C12.2818 220.742 12.1784 220.468 12.0484 220.265C11.9218 220.062 11.7751 219.92 11.6084 219.84C11.4418 219.757 11.2684 219.715 11.0884 219.715C10.9118 219.715 10.7401 219.757 10.5734 219.84C10.4101 219.92 10.2651 220.062 10.1384 220.265C10.0118 220.468 9.9101 220.742 9.83344 221.085C9.7601 221.428 9.72344 221.862 9.72344 222.385C9.72344 222.908 9.7601 223.342 9.83344 223.685C9.9101 224.028 10.0118 224.302 10.1384 224.505C10.2651 224.708 10.4101 224.852 10.5734 224.935C10.7401 225.015 10.9118 225.055 11.0884 225.055C11.2684 225.055 11.4418 225.015 11.6084 224.935C11.7751 224.852 11.9218 224.708 12.0484 224.505C12.1784 224.302 12.2818 224.028 12.3584 223.685C12.4351 223.342 12.4734 222.908 12.4734 222.385ZM19.7492 222.385C19.7492 223.015 19.6809 223.563 19.5442 224.03C19.4109 224.493 19.2242 224.877 18.9842 225.18C18.7476 225.483 18.4659 225.71 18.1392 225.86C17.8159 226.007 17.4659 226.08 17.0892 226.08C16.7126 226.08 16.3626 226.007 16.0392 225.86C15.7192 225.71 15.4409 225.483 15.2042 225.18C14.9676 224.877 14.7826 224.493 14.6492 224.03C14.5159 223.563 14.4492 223.015 14.4492 222.385C14.4492 221.752 14.5159 221.203 14.6492 220.74C14.7826 220.277 14.9676 219.893 15.2042 219.59C15.4409 219.287 15.7192 219.062 16.0392 218.915C16.3626 218.765 16.7126 218.69 17.0892 218.69C17.4659 218.69 17.8159 218.765 18.1392 218.915C18.4659 219.062 18.7476 219.287 18.9842 219.59C19.2242 219.893 19.4109 220.277 19.5442 220.74C19.6809 221.203 19.7492 221.752 19.7492 222.385ZM18.4742 222.385C18.4742 221.862 18.4359 221.428 18.3592 221.085C18.2826 220.742 18.1792 220.468 18.0492 220.265C17.9226 220.062 17.7759 219.92 17.6092 219.84C17.4426 219.757 17.2692 219.715 17.0892 219.715C16.9126 219.715 16.7409 219.757 16.5742 219.84C16.4109 219.92 16.2659 220.062 16.1392 220.265C16.0126 220.468 15.9109 220.742 15.8342 221.085C15.7609 221.428 15.7242 221.862 15.7242 222.385C15.7242 222.908 15.7609 223.342 15.8342 223.685C15.9109 224.028 16.0126 224.302 16.1392 224.505C16.2659 224.708 16.4109 224.852 16.5742 224.935C16.7409 225.015 16.9126 225.055 17.0892 225.055C17.2692 225.055 17.4426 225.015 17.6092 224.935C17.7759 224.852 17.9226 224.708 18.0492 224.505C18.1792 224.302 18.2826 224.028 18.3592 223.685C18.4359 223.342 18.4742 222.908 18.4742 222.385Z" fill="#CACCCF"/>
<path d="M13.1434 259.295C13.1434 259.472 13.0868 259.615 12.9734 259.725C12.8634 259.835 12.6784 259.89 12.4184 259.89H10.4284L10.1684 261.4C10.4951 261.333 10.7934 261.3 11.0634 261.3C11.4434 261.3 11.7768 261.357 12.0634 261.47C12.3534 261.583 12.5968 261.74 12.7934 261.94C12.9901 262.14 13.1384 262.375 13.2384 262.645C13.3384 262.912 13.3884 263.2 13.3884 263.51C13.3884 263.893 13.3201 264.243 13.1834 264.56C13.0501 264.877 12.8634 265.148 12.6234 265.375C12.3834 265.598 12.0984 265.772 11.7684 265.895C11.4418 266.018 11.0851 266.08 10.6984 266.08C10.4718 266.08 10.2568 266.057 10.0534 266.01C9.8501 265.963 9.65844 265.902 9.47844 265.825C9.30177 265.745 9.13677 265.655 8.98344 265.555C8.83344 265.452 8.69844 265.343 8.57844 265.23L8.95844 264.705C9.03844 264.592 9.1451 264.535 9.27844 264.535C9.36177 264.535 9.4451 264.562 9.52844 264.615C9.6151 264.668 9.7151 264.727 9.82844 264.79C9.94177 264.853 10.0734 264.912 10.2234 264.965C10.3734 265.018 10.5551 265.045 10.7684 265.045C10.9951 265.045 11.1951 265.008 11.3684 264.935C11.5418 264.862 11.6851 264.76 11.7984 264.63C11.9151 264.497 12.0018 264.34 12.0584 264.16C12.1184 263.977 12.1484 263.778 12.1484 263.565C12.1484 263.172 12.0334 262.865 11.8034 262.645C11.5768 262.422 11.2418 262.31 10.7984 262.31C10.4484 262.31 10.0968 262.373 9.74344 262.5L8.97344 262.28L9.57344 258.77H13.1434V259.295ZM19.7492 262.385C19.7492 263.015 19.6809 263.563 19.5442 264.03C19.4109 264.493 19.2242 264.877 18.9842 265.18C18.7476 265.483 18.4659 265.71 18.1392 265.86C17.8159 266.007 17.4659 266.08 17.0892 266.08C16.7126 266.08 16.3626 266.007 16.0392 265.86C15.7192 265.71 15.4409 265.483 15.2042 265.18C14.9676 264.877 14.7826 264.493 14.6492 264.03C14.5159 263.563 14.4492 263.015 14.4492 262.385C14.4492 261.752 14.5159 261.203 14.6492 260.74C14.7826 260.277 14.9676 259.893 15.2042 259.59C15.4409 259.287 15.7192 259.062 16.0392 258.915C16.3626 258.765 16.7126 258.69 17.0892 258.69C17.4659 258.69 17.8159 258.765 18.1392 258.915C18.4659 259.062 18.7476 259.287 18.9842 259.59C19.2242 259.893 19.4109 260.277 19.5442 260.74C19.6809 261.203 19.7492 261.752 19.7492 262.385ZM18.4742 262.385C18.4742 261.862 18.4359 261.428 18.3592 261.085C18.2826 260.742 18.1792 260.468 18.0492 260.265C17.9226 260.062 17.7759 259.92 17.6092 259.84C17.4426 259.757 17.2692 259.715 17.0892 259.715C16.9126 259.715 16.7409 259.757 16.5742 259.84C16.4109 259.92 16.2659 260.062 16.1392 260.265C16.0126 260.468 15.9109 260.742 15.8342 261.085C15.7609 261.428 15.7242 261.862 15.7242 262.385C15.7242 262.908 15.7609 263.342 15.8342 263.685C15.9109 264.028 16.0126 264.302 16.1392 264.505C16.2659 264.708 16.4109 264.852 16.5742 264.935C16.7409 265.015 16.9126 265.055 17.0892 265.055C17.2692 265.055 17.4426 265.015 17.6092 264.935C17.7759 264.852 17.9226 264.708 18.0492 264.505C18.1792 264.302 18.2826 264.028 18.3592 263.685C18.4359 263.342 18.4742 262.908 18.4742 262.385Z" fill="#CACCCF"/>
<path d="M19.7492 302.385C19.7492 303.015 19.6809 303.563 19.5442 304.03C19.4109 304.493 19.2242 304.877 18.9842 305.18C18.7476 305.483 18.4659 305.71 18.1392 305.86C17.8159 306.007 17.4659 306.08 17.0892 306.08C16.7126 306.08 16.3626 306.007 16.0392 305.86C15.7192 305.71 15.4409 305.483 15.2042 305.18C14.9676 304.877 14.7826 304.493 14.6492 304.03C14.5159 303.563 14.4492 303.015 14.4492 302.385C14.4492 301.752 14.5159 301.203 14.6492 300.74C14.7826 300.277 14.9676 299.893 15.2042 299.59C15.4409 299.287 15.7192 299.062 16.0392 298.915C16.3626 298.765 16.7126 298.69 17.0892 298.69C17.4659 298.69 17.8159 298.765 18.1392 298.915C18.4659 299.062 18.7476 299.287 18.9842 299.59C19.2242 299.893 19.4109 300.277 19.5442 300.74C19.6809 301.203 19.7492 301.752 19.7492 302.385ZM18.4742 302.385C18.4742 301.862 18.4359 301.428 18.3592 301.085C18.2826 300.742 18.1792 300.468 18.0492 300.265C17.9226 300.062 17.7759 299.92 17.6092 299.84C17.4426 299.757 17.2692 299.715 17.0892 299.715C16.9126 299.715 16.7409 299.757 16.5742 299.84C16.4109 299.92 16.2659 300.062 16.1392 300.265C16.0126 300.468 15.9109 300.742 15.8342 301.085C15.7609 301.428 15.7242 301.862 15.7242 302.385C15.7242 302.908 15.7609 303.342 15.8342 303.685C15.9109 304.028 16.0126 304.302 16.1392 304.505C16.2659 304.708 16.4109 304.852 16.5742 304.935C16.7409 305.015 16.9126 305.055 17.0892 305.055C17.2692 305.055 17.4426 305.015 17.6092 304.935C17.7759 304.852 17.9226 304.708 18.0492 304.505C18.1792 304.302 18.2826 304.028 18.3592 303.685C18.4359 303.342 18.4742 302.908 18.4742 302.385Z" fill="#CACCCF"/>
<path d="M554 154C524.672 154 506.725 228.327 480.323 228.327C453.921 228.327 433.368 158.301 418.449 158.301C403.531 158.301 398.048 198.797 378.497 198.797C358.945 198.797 359.467 176.31 345.606 176.31C331.745 176.31 313.279 215.811 280.935 215.811C248.591 215.811 236.933 171.634 216.768 171.634C196.604 171.634 173.628 233.261 154.476 233.261C135.324 233.261 127.712 206.657 109.622 206.657C91.5321 206.657 87.2619 234.17 53.1231 253.422C47.9375 256.171 41.0842 260.59 28.0005 262" stroke="#E55C9B" stroke-width="2" stroke-linecap="round"/>
<path d="M41.554 209.44C35.4984 204.388 28 190.592 28 190.592V301.5H554V106C528.189 117.5 520.582 158.289 503.775 158.289C486.968 158.289 483.088 128.542 458.941 128.542C434.795 128.542 417.881 197.45 396.678 197.45C375.475 197.45 370.335 148.054 332.541 148.054C294.747 148.054 283.121 192.221 267.9 192.221C252.679 192.221 252.691 167.078 235.025 167.078C217.358 167.078 211.122 212.358 195.09 212.358C179.058 212.358 159.5 134.06 133.245 134.06C106.99 134.06 86.4143 217.083 62.283 217.083C52.8743 216.952 47.0186 214 41.554 209.44Z" fill="url(#paint0_linear_74_1689)"/>
<path d="M28.8786 190.114C28.6149 189.629 28.0077 189.449 27.5225 189.713C27.0372 189.977 26.8577 190.584 27.1214 191.069L28.8786 190.114ZM41.554 209.44L40.9133 210.208L41.554 209.44ZM62.283 217.083L62.2691 218.083H62.283V217.083ZM554.407 106.913C554.911 106.689 555.138 106.097 554.913 105.593C554.689 105.089 554.097 104.862 553.593 105.087L554.407 106.913ZM28 190.592C27.1214 191.069 27.1215 191.069 27.1216 191.069C27.1216 191.07 27.1218 191.07 27.1219 191.07C27.1222 191.071 27.1226 191.071 27.1231 191.072C27.1241 191.074 27.1256 191.077 27.1275 191.08C27.1314 191.087 27.1371 191.098 27.1445 191.111C27.1594 191.139 27.1813 191.179 27.21 191.231C27.2674 191.335 27.352 191.487 27.4616 191.683C27.6807 192.074 27.9999 192.637 28.4017 193.329C29.2048 194.711 30.3395 196.607 31.6657 198.663C34.2952 202.741 37.7554 207.573 40.9133 210.208L42.1947 208.673C39.297 206.255 35.9802 201.663 33.3465 197.579C32.0412 195.555 30.9229 193.686 30.1308 192.324C29.735 191.643 29.421 191.089 29.2065 190.705C29.0992 190.514 29.0168 190.365 28.9614 190.265C28.9337 190.215 28.9128 190.177 28.8989 190.151C28.8919 190.138 28.8868 190.129 28.8834 190.123C28.8817 190.12 28.8804 190.117 28.8796 190.116C28.8792 190.115 28.879 190.115 28.8788 190.114C28.8787 190.114 28.8787 190.114 28.8786 190.114C28.8786 190.114 28.8786 190.114 28 190.592ZM40.9133 210.208C46.5264 214.892 52.5975 217.948 62.2691 218.083L62.2969 216.083C53.1512 215.956 47.5108 213.108 42.1947 208.673L40.9133 210.208ZM62.283 218.083C65.5976 218.083 68.7696 216.657 71.7969 214.306C74.8232 211.956 77.7719 208.631 80.6643 204.704C86.4449 196.855 92.1348 186.409 97.8433 176.054C103.573 165.66 109.324 155.354 115.266 147.642C121.257 139.869 127.201 135.06 133.245 135.06V133.06C126.162 133.06 119.688 138.628 113.682 146.422C107.629 154.277 101.804 164.727 96.0918 175.089C90.3581 185.489 84.7386 195.799 79.0539 203.518C76.2135 207.374 73.3907 210.536 70.5703 212.726C67.751 214.915 65.0013 216.083 62.283 216.083V218.083ZM133.245 135.06C139.309 135.06 145.193 139.603 150.944 146.912C156.656 154.171 162.026 163.881 167.114 173.67C172.181 183.418 176.98 193.266 181.503 200.647C183.766 204.339 185.995 207.475 188.196 209.698C190.374 211.897 192.679 213.358 195.09 213.358V211.358C193.494 211.358 191.68 210.373 189.617 208.29C187.578 206.231 185.444 203.25 183.208 199.602C178.734 192.301 173.997 182.575 168.889 172.748C163.802 162.962 158.357 153.098 152.516 145.675C146.715 138.303 140.308 133.06 133.245 133.06V135.06ZM195.09 213.358C199.606 213.358 203.263 210.17 206.415 205.875C209.589 201.549 212.464 195.803 215.335 190.172C218.23 184.494 221.124 178.925 224.374 174.769C227.633 170.601 231.078 168.078 235.025 168.078V166.078C230.138 166.078 226.178 169.215 222.798 173.537C219.409 177.872 216.43 183.622 213.553 189.264C210.653 194.953 207.859 200.527 204.803 204.692C201.724 208.886 198.59 211.358 195.09 211.358V213.358ZM235.025 168.078C243.259 168.078 247.403 173.864 251.542 180.197C253.571 183.302 255.615 186.557 258.128 189.009C260.68 191.5 263.772 193.221 267.9 193.221V191.221C264.417 191.221 261.802 189.8 259.524 187.577C257.206 185.315 255.295 182.284 253.216 179.103C249.139 172.864 244.457 166.078 235.025 166.078V168.078ZM267.9 193.221C272.179 193.221 276.025 190.134 279.842 185.998C281.778 183.9 283.768 181.46 285.855 178.875C287.948 176.281 290.143 173.536 292.513 170.791C301.996 159.808 314.096 149.054 332.541 149.054V147.054C313.192 147.054 300.583 158.384 290.999 169.484C288.602 172.26 286.383 175.036 284.298 177.618C282.208 180.209 280.257 182.6 278.372 184.642C274.546 188.788 271.231 191.221 267.9 191.221V193.221ZM332.541 149.054C350.902 149.054 361.373 161.006 370.012 173.326C374.29 179.427 378.173 185.706 382.274 190.391C386.392 195.095 390.941 198.45 396.678 198.45V196.45C391.813 196.45 387.769 193.631 383.779 189.073C379.772 184.496 376.031 178.426 371.65 172.178C362.97 159.8 351.974 147.054 332.541 147.054V149.054ZM396.678 198.45C399.611 198.45 402.399 197.257 405.047 195.293C407.691 193.33 410.25 190.558 412.75 187.291C417.745 180.766 422.639 172.082 427.573 163.495C432.53 154.867 437.53 146.329 442.78 139.944C448.063 133.52 453.388 129.542 458.941 129.542V127.542C452.422 127.542 446.577 132.178 441.235 138.674C435.86 145.21 430.779 153.899 425.839 162.498C420.875 171.137 416.057 179.681 411.162 186.076C408.718 189.27 406.288 191.88 403.855 193.686C401.424 195.49 399.046 196.45 396.678 196.45V198.45ZM458.941 129.542C470.516 129.542 477.258 136.626 483.337 144.049C486.341 147.719 489.228 151.53 492.407 154.385C495.618 157.27 499.24 159.289 503.775 159.289V157.289C499.907 157.289 496.741 155.59 493.743 152.897C490.713 150.175 487.969 146.549 484.884 142.782C478.784 135.332 471.513 127.542 458.941 127.542V129.542ZM503.775 159.289C508.418 159.289 512.298 156.465 515.838 152.392C519.383 148.314 522.764 142.773 526.36 136.985C533.622 125.297 541.829 112.518 554.407 106.913L553.593 105.087C540.36 110.982 531.858 124.347 524.661 135.929C521.029 141.776 517.743 147.151 514.328 151.08C510.909 155.015 507.535 157.289 503.775 157.289V159.289Z" fill="#8478FF"/>
<path d="M56.0062 312.859C56.0062 313.265 55.9562 313.632 55.8562 313.959C55.7562 314.285 55.6062 314.564 55.4062 314.794C55.2095 315.024 54.9629 315.2 54.6662 315.324C54.3695 315.447 54.0245 315.509 53.6312 315.509C53.4512 315.509 53.2745 315.497 53.1012 315.474C52.9279 315.454 52.7462 315.42 52.5562 315.374L52.6262 314.574C52.6329 314.5 52.6595 314.442 52.7062 314.399C52.7562 314.352 52.8279 314.329 52.9212 314.329C52.9779 314.329 53.0512 314.34 53.1412 314.364C53.2345 314.387 53.3512 314.399 53.4912 314.399C53.6812 314.399 53.8495 314.372 53.9962 314.319C54.1429 314.262 54.2645 314.174 54.3612 314.054C54.4612 313.934 54.5362 313.779 54.5862 313.589C54.6362 313.395 54.6612 313.162 54.6612 312.889V308.199H56.0062V312.859ZM61.6114 315.429H61.0564C60.9398 315.429 60.8481 315.412 60.7814 315.379C60.7148 315.342 60.6648 315.27 60.6314 315.164L60.5214 314.799C60.3914 314.915 60.2631 315.019 60.1364 315.109C60.0131 315.195 59.8848 315.269 59.7514 315.329C59.6181 315.389 59.4764 315.434 59.3264 315.464C59.1764 315.494 59.0098 315.509 58.8264 315.509C58.6098 315.509 58.4098 315.48 58.2264 315.424C58.0431 315.364 57.8848 315.275 57.7514 315.159C57.6214 315.042 57.5198 314.897 57.4464 314.724C57.3731 314.55 57.3364 314.349 57.3364 314.119C57.3364 313.925 57.3864 313.735 57.4864 313.549C57.5898 313.359 57.7598 313.189 57.9964 313.039C58.2331 312.885 58.5481 312.759 58.9414 312.659C59.3348 312.559 59.8231 312.502 60.4064 312.489V312.189C60.4064 311.845 60.3331 311.592 60.1864 311.429C60.0431 311.262 59.8331 311.179 59.5564 311.179C59.3564 311.179 59.1898 311.202 59.0564 311.249C58.9231 311.295 58.8064 311.349 58.7064 311.409C58.6098 311.465 58.5198 311.517 58.4364 311.564C58.3531 311.61 58.2614 311.634 58.1614 311.634C58.0781 311.634 58.0064 311.612 57.9464 311.569C57.8864 311.525 57.8381 311.472 57.8014 311.409L57.5764 311.014C58.1664 310.474 58.8781 310.204 59.7114 310.204C60.0114 310.204 60.2781 310.254 60.5114 310.354C60.7481 310.45 60.9481 310.587 61.1114 310.764C61.2748 310.937 61.3981 311.145 61.4814 311.389C61.5681 311.632 61.6114 311.899 61.6114 312.189V315.429ZM59.2114 314.659C59.3381 314.659 59.4548 314.647 59.5614 314.624C59.6681 314.6 59.7681 314.565 59.8614 314.519C59.9581 314.472 60.0498 314.415 60.1364 314.349C60.2264 314.279 60.3164 314.197 60.4064 314.104V313.239C60.0464 313.255 59.7448 313.287 59.5014 313.334C59.2614 313.377 59.0681 313.434 58.9214 313.504C58.7748 313.574 58.6698 313.655 58.6064 313.749C58.5464 313.842 58.5164 313.944 58.5164 314.054C58.5164 314.27 58.5798 314.425 58.7064 314.519C58.8364 314.612 59.0048 314.659 59.2114 314.659ZM63.0258 315.429V310.299H63.7808C63.9408 310.299 64.0458 310.374 64.0958 310.524L64.1808 310.929C64.2842 310.822 64.3925 310.725 64.5058 310.639C64.6225 310.552 64.7442 310.477 64.8708 310.414C65.0008 310.35 65.1392 310.302 65.2858 310.269C65.4325 310.235 65.5925 310.219 65.7658 310.219C66.0458 310.219 66.2942 310.267 66.5108 310.364C66.7275 310.457 66.9075 310.59 67.0508 310.764C67.1975 310.934 67.3075 311.139 67.3808 311.379C67.4575 311.615 67.4958 311.877 67.4958 312.164V315.429H66.2608V312.164C66.2608 311.85 66.1875 311.609 66.0408 311.439C65.8975 311.265 65.6808 311.179 65.3908 311.179C65.1775 311.179 64.9775 311.227 64.7908 311.324C64.6042 311.42 64.4275 311.552 64.2608 311.719V315.429H63.0258ZM99.1425 308.199V309.269H95.9375V311.409H98.6425V312.484H95.9375V315.429H94.5825V308.199H99.1425ZM102.126 310.219C102.449 310.219 102.746 310.27 103.016 310.374C103.289 310.477 103.524 310.629 103.721 310.829C103.917 311.025 104.071 311.269 104.181 311.559C104.291 311.845 104.346 312.174 104.346 312.544C104.346 312.637 104.341 312.715 104.331 312.779C104.324 312.839 104.309 312.887 104.286 312.924C104.266 312.957 104.237 312.982 104.201 312.999C104.164 313.012 104.117 313.019 104.061 313.019H100.891C100.927 313.545 101.069 313.932 101.316 314.179C101.562 314.425 101.889 314.549 102.296 314.549C102.496 314.549 102.667 314.525 102.811 314.479C102.957 314.432 103.084 314.38 103.191 314.324C103.301 314.267 103.396 314.215 103.476 314.169C103.559 314.122 103.639 314.099 103.716 314.099C103.766 314.099 103.809 314.109 103.846 314.129C103.882 314.149 103.914 314.177 103.941 314.214L104.301 314.664C104.164 314.824 104.011 314.959 103.841 315.069C103.671 315.175 103.492 315.262 103.306 315.329C103.122 315.392 102.934 315.437 102.741 315.464C102.551 315.49 102.366 315.504 102.186 315.504C101.829 315.504 101.497 315.445 101.191 315.329C100.884 315.209 100.617 315.034 100.391 314.804C100.164 314.57 99.9855 314.284 99.8555 313.944C99.7255 313.6 99.6605 313.204 99.6605 312.754C99.6605 312.404 99.7172 312.075 99.8305 311.769C99.9438 311.459 100.106 311.19 100.316 310.964C100.529 310.734 100.787 310.552 101.091 310.419C101.397 310.285 101.742 310.219 102.126 310.219ZM102.151 311.104C101.791 311.104 101.509 311.205 101.306 311.409C101.102 311.612 100.972 311.9 100.916 312.274H103.236C103.236 312.114 103.214 311.964 103.171 311.824C103.127 311.68 103.061 311.555 102.971 311.449C102.881 311.342 102.767 311.259 102.631 311.199C102.494 311.135 102.334 311.104 102.151 311.104ZM105.562 315.429V307.999H106.797V310.929C107.001 310.712 107.231 310.54 107.487 310.414C107.744 310.284 108.044 310.219 108.387 310.219C108.667 310.219 108.922 310.277 109.152 310.394C109.386 310.507 109.586 310.674 109.752 310.894C109.922 311.114 110.052 311.385 110.142 311.709C110.236 312.032 110.282 312.404 110.282 312.824C110.282 313.207 110.231 313.562 110.127 313.889C110.024 314.215 109.876 314.499 109.682 314.739C109.492 314.979 109.261 315.167 108.987 315.304C108.717 315.437 108.414 315.504 108.077 315.504C107.921 315.504 107.777 315.487 107.647 315.454C107.517 315.424 107.399 315.38 107.292 315.324C107.186 315.267 107.086 315.199 106.992 315.119C106.902 315.035 106.816 314.944 106.732 314.844L106.677 315.189C106.657 315.275 106.622 315.337 106.572 315.374C106.526 315.41 106.461 315.429 106.377 315.429H105.562ZM107.962 311.179C107.706 311.179 107.486 311.234 107.302 311.344C107.122 311.45 106.954 311.602 106.797 311.799V314.099C106.937 314.272 107.089 314.394 107.252 314.464C107.419 314.53 107.599 314.564 107.792 314.564C107.979 314.564 108.147 314.529 108.297 314.459C108.447 314.389 108.574 314.282 108.677 314.139C108.784 313.995 108.866 313.815 108.922 313.599C108.979 313.379 109.007 313.12 109.007 312.824C109.007 312.524 108.982 312.27 108.932 312.064C108.886 311.854 108.817 311.684 108.727 311.554C108.637 311.424 108.527 311.329 108.397 311.269C108.271 311.209 108.126 311.179 107.962 311.179ZM140.754 312.429C140.81 312.535 140.862 312.647 140.909 312.764C140.959 312.877 141.007 312.992 141.054 313.109C141.1 312.989 141.149 312.87 141.199 312.754C141.249 312.637 141.302 312.525 141.359 312.419L143.499 308.414C143.525 308.364 143.552 308.324 143.579 308.294C143.609 308.264 143.64 308.242 143.674 308.229C143.71 308.215 143.75 308.207 143.794 308.204C143.837 308.2 143.889 308.199 143.949 308.199H144.964V315.429H143.779V310.759C143.779 310.672 143.78 310.577 143.784 310.474C143.79 310.37 143.799 310.265 143.809 310.159L141.624 314.259C141.574 314.352 141.509 314.425 141.429 314.479C141.349 314.529 141.255 314.554 141.149 314.554H140.964C140.857 314.554 140.764 314.529 140.684 314.479C140.604 314.425 140.539 314.352 140.489 314.259L138.274 310.144C138.287 310.254 138.295 310.362 138.299 310.469C138.305 310.572 138.309 310.669 138.309 310.759V315.429H137.124V308.199H138.139C138.199 308.199 138.25 308.2 138.294 308.204C138.337 308.207 138.375 308.215 138.409 308.229C138.445 308.242 138.479 308.264 138.509 308.294C138.539 308.324 138.567 308.364 138.594 308.414L140.754 312.429ZM150.57 315.429H150.015C149.899 315.429 149.807 315.412 149.74 315.379C149.674 315.342 149.624 315.27 149.59 315.164L149.48 314.799C149.35 314.915 149.222 315.019 149.095 315.109C148.972 315.195 148.844 315.269 148.71 315.329C148.577 315.389 148.435 315.434 148.285 315.464C148.135 315.494 147.969 315.509 147.785 315.509C147.569 315.509 147.369 315.48 147.185 315.424C147.002 315.364 146.844 315.275 146.71 315.159C146.58 315.042 146.479 314.897 146.405 314.724C146.332 314.55 146.295 314.349 146.295 314.119C146.295 313.925 146.345 313.735 146.445 313.549C146.549 313.359 146.719 313.189 146.955 313.039C147.192 312.885 147.507 312.759 147.9 312.659C148.294 312.559 148.782 312.502 149.365 312.489V312.189C149.365 311.845 149.292 311.592 149.145 311.429C149.002 311.262 148.792 311.179 148.515 311.179C148.315 311.179 148.149 311.202 148.015 311.249C147.882 311.295 147.765 311.349 147.665 311.409C147.569 311.465 147.479 311.517 147.395 311.564C147.312 311.61 147.22 311.634 147.12 311.634C147.037 311.634 146.965 311.612 146.905 311.569C146.845 311.525 146.797 311.472 146.76 311.409L146.535 311.014C147.125 310.474 147.837 310.204 148.67 310.204C148.97 310.204 149.237 310.254 149.47 310.354C149.707 310.45 149.907 310.587 150.07 310.764C150.234 310.937 150.357 311.145 150.44 311.389C150.527 311.632 150.57 311.899 150.57 312.189V315.429ZM148.17 314.659C148.297 314.659 148.414 314.647 148.52 314.624C148.627 314.6 148.727 314.565 148.82 314.519C148.917 314.472 149.009 314.415 149.095 314.349C149.185 314.279 149.275 314.197 149.365 314.104V313.239C149.005 313.255 148.704 313.287 148.46 313.334C148.22 313.377 148.027 313.434 147.88 313.504C147.734 313.574 147.629 313.655 147.565 313.749C147.505 313.842 147.475 313.944 147.475 314.054C147.475 314.27 147.539 314.425 147.665 314.519C147.795 314.612 147.964 314.659 148.17 314.659ZM151.985 315.429V310.299H152.71C152.836 310.299 152.925 310.322 152.975 310.369C153.025 310.415 153.058 310.495 153.075 310.609L153.15 311.229C153.333 310.912 153.548 310.662 153.795 310.479C154.041 310.295 154.318 310.204 154.625 310.204C154.878 310.204 155.088 310.262 155.255 310.379L155.095 311.304C155.085 311.364 155.063 311.407 155.03 311.434C154.996 311.457 154.951 311.469 154.895 311.469C154.845 311.469 154.776 311.457 154.69 311.434C154.603 311.41 154.488 311.399 154.345 311.399C154.088 311.399 153.868 311.47 153.685 311.614C153.501 311.754 153.346 311.96 153.22 312.234V315.429H151.985ZM186.161 315.429H185.121C185.005 315.429 184.908 315.4 184.831 315.344C184.758 315.284 184.705 315.21 184.671 315.124L184.131 313.649H181.136L180.596 315.124C180.57 315.2 180.516 315.27 180.436 315.334C180.36 315.397 180.265 315.429 180.151 315.429H179.106L181.946 308.199H183.321L186.161 315.429ZM181.481 312.699H183.786L182.906 310.294C182.866 310.187 182.821 310.062 182.771 309.919C182.725 309.772 182.678 309.614 182.631 309.444C182.585 309.614 182.538 309.772 182.491 309.919C182.448 310.065 182.405 310.194 182.361 310.304L181.481 312.699ZM187.036 317.104V310.299H187.791C187.871 310.299 187.939 310.317 187.996 310.354C188.053 310.39 188.089 310.447 188.106 310.524L188.206 310.999C188.413 310.762 188.649 310.57 188.916 310.424C189.186 310.277 189.501 310.204 189.861 310.204C190.141 310.204 190.396 310.262 190.626 310.379C190.859 310.495 191.059 310.665 191.226 310.889C191.396 311.109 191.526 311.382 191.616 311.709C191.709 312.032 191.756 312.404 191.756 312.824C191.756 313.207 191.704 313.562 191.601 313.889C191.498 314.215 191.349 314.499 191.156 314.739C190.966 314.979 190.734 315.167 190.461 315.304C190.191 315.437 189.888 315.504 189.551 315.504C189.261 315.504 189.014 315.46 188.811 315.374C188.611 315.284 188.431 315.16 188.271 315.004V317.104H187.036ZM189.436 311.179C189.179 311.179 188.959 311.234 188.776 311.344C188.596 311.45 188.428 311.602 188.271 311.799V314.099C188.411 314.272 188.563 314.394 188.726 314.464C188.893 314.53 189.071 314.564 189.261 314.564C189.448 314.564 189.616 314.529 189.766 314.459C189.919 314.389 190.048 314.282 190.151 314.139C190.258 313.995 190.339 313.815 190.396 313.599C190.453 313.379 190.481 313.12 190.481 312.824C190.481 312.524 190.456 312.27 190.406 312.064C190.359 311.854 190.291 311.684 190.201 311.554C190.111 311.424 190.001 311.329 189.871 311.269C189.744 311.209 189.599 311.179 189.436 311.179ZM192.89 315.429V310.299H193.615C193.742 310.299 193.83 310.322 193.88 310.369C193.93 310.415 193.964 310.495 193.98 310.609L194.055 311.229C194.239 310.912 194.454 310.662 194.7 310.479C194.947 310.295 195.224 310.204 195.53 310.204C195.784 310.204 195.994 310.262 196.16 310.379L196 311.304C195.99 311.364 195.969 311.407 195.935 311.434C195.902 311.457 195.857 311.469 195.8 311.469C195.75 311.469 195.682 311.457 195.595 311.434C195.509 311.41 195.394 311.399 195.25 311.399C194.994 311.399 194.774 311.47 194.59 311.614C194.407 311.754 194.252 311.96 194.125 312.234V315.429H192.89ZM224.342 312.429C224.399 312.535 224.45 312.647 224.497 312.764C224.547 312.877 224.595 312.992 224.642 313.109C224.689 312.989 224.737 312.87 224.787 312.754C224.837 312.637 224.89 312.525 224.947 312.419L227.087 308.414C227.114 308.364 227.14 308.324 227.167 308.294C227.197 308.264 227.229 308.242 227.262 308.229C227.299 308.215 227.339 308.207 227.382 308.204C227.425 308.2 227.477 308.199 227.537 308.199H228.552V315.429H227.367V310.759C227.367 310.672 227.369 310.577 227.372 310.474C227.379 310.37 227.387 310.265 227.397 310.159L225.212 314.259C225.162 314.352 225.097 314.425 225.017 314.479C224.937 314.529 224.844 314.554 224.737 314.554H224.552C224.445 314.554 224.352 314.529 224.272 314.479C224.192 314.425 224.127 314.352 224.077 314.259L221.862 310.144C221.875 310.254 221.884 310.362 221.887 310.469C221.894 310.572 221.897 310.669 221.897 310.759V315.429H220.712V308.199H221.727C221.787 308.199 221.839 308.2 221.882 308.204C221.925 308.207 221.964 308.215 221.997 308.229C222.034 308.242 222.067 308.264 222.097 308.294C222.127 308.324 222.155 308.364 222.182 308.414L224.342 312.429ZM234.159 315.429H233.604C233.487 315.429 233.395 315.412 233.329 315.379C233.262 315.342 233.212 315.27 233.179 315.164L233.069 314.799C232.939 314.915 232.81 315.019 232.684 315.109C232.56 315.195 232.432 315.269 232.299 315.329C232.165 315.389 232.024 315.434 231.874 315.464C231.724 315.494 231.557 315.509 231.374 315.509C231.157 315.509 230.957 315.48 230.774 315.424C230.59 315.364 230.432 315.275 230.299 315.159C230.169 315.042 230.067 314.897 229.994 314.724C229.92 314.55 229.884 314.349 229.884 314.119C229.884 313.925 229.934 313.735 230.034 313.549C230.137 313.359 230.307 313.189 230.544 313.039C230.78 312.885 231.095 312.759 231.489 312.659C231.882 312.559 232.37 312.502 232.954 312.489V312.189C232.954 311.845 232.88 311.592 232.734 311.429C232.59 311.262 232.38 311.179 232.104 311.179C231.904 311.179 231.737 311.202 231.604 311.249C231.47 311.295 231.354 311.349 231.254 311.409C231.157 311.465 231.067 311.517 230.984 311.564C230.9 311.61 230.809 311.634 230.709 311.634C230.625 311.634 230.554 311.612 230.494 311.569C230.434 311.525 230.385 311.472 230.349 311.409L230.124 311.014C230.714 310.474 231.425 310.204 232.259 310.204C232.559 310.204 232.825 310.254 233.059 310.354C233.295 310.45 233.495 310.587 233.659 310.764C233.822 310.937 233.945 311.145 234.029 311.389C234.115 311.632 234.159 311.899 234.159 312.189V315.429ZM231.759 314.659C231.885 314.659 232.002 314.647 232.109 314.624C232.215 314.6 232.315 314.565 232.409 314.519C232.505 314.472 232.597 314.415 232.684 314.349C232.774 314.279 232.864 314.197 232.954 314.104V313.239C232.594 313.255 232.292 313.287 232.049 313.334C231.809 313.377 231.615 313.434 231.469 313.504C231.322 313.574 231.217 313.655 231.154 313.749C231.094 313.842 231.064 313.944 231.064 314.054C231.064 314.27 231.127 314.425 231.254 314.519C231.384 314.612 231.552 314.659 231.759 314.659ZM237.217 316.839C237.181 316.925 237.132 316.99 237.072 317.034C237.016 317.08 236.927 317.104 236.807 317.104H235.887L236.847 315.049L234.772 310.299H235.852C235.952 310.299 236.029 310.322 236.082 310.369C236.136 310.415 236.176 310.469 236.202 310.529L237.297 313.189C237.334 313.275 237.366 313.365 237.392 313.459C237.419 313.552 237.442 313.645 237.462 313.739C237.489 313.642 237.517 313.549 237.547 313.459C237.581 313.369 237.616 313.277 237.652 313.184L238.682 310.529C238.709 310.462 238.752 310.407 238.812 310.364C238.876 310.32 238.946 310.299 239.022 310.299H240.012L237.217 316.839ZM265.245 312.859C265.245 313.265 265.195 313.632 265.095 313.959C264.995 314.285 264.845 314.564 264.645 314.794C264.449 315.024 264.202 315.2 263.905 315.324C263.609 315.447 263.264 315.509 262.87 315.509C262.69 315.509 262.514 315.497 262.34 315.474C262.167 315.454 261.985 315.42 261.795 315.374L261.865 314.574C261.872 314.5 261.899 314.442 261.945 314.399C261.995 314.352 262.067 314.329 262.16 314.329C262.217 314.329 262.29 314.34 262.38 314.364C262.474 314.387 262.59 314.399 262.73 314.399C262.92 314.399 263.089 314.372 263.235 314.319C263.382 314.262 263.504 314.174 263.6 314.054C263.7 313.934 263.775 313.779 263.825 313.589C263.875 313.395 263.9 313.162 263.9 312.889V308.199H265.245V312.859ZM267.961 310.299V313.559C267.961 313.872 268.032 314.115 268.176 314.289C268.322 314.459 268.541 314.544 268.831 314.544C269.044 314.544 269.244 314.497 269.431 314.404C269.617 314.307 269.794 314.175 269.961 314.009V310.299H271.196V315.429H270.441C270.281 315.429 270.176 315.354 270.126 315.204L270.041 314.794C269.934 314.9 269.824 314.999 269.711 315.089C269.597 315.175 269.476 315.25 269.346 315.314C269.219 315.374 269.081 315.42 268.931 315.454C268.784 315.49 268.626 315.509 268.456 315.509C268.176 315.509 267.927 315.462 267.711 315.369C267.497 315.272 267.317 315.137 267.171 314.964C267.024 314.79 266.912 314.585 266.836 314.349C266.762 314.109 266.726 313.845 266.726 313.559V310.299H267.961ZM272.714 315.429V310.299H273.469C273.629 310.299 273.734 310.374 273.784 310.524L273.869 310.929C273.972 310.822 274.081 310.725 274.194 310.639C274.311 310.552 274.432 310.477 274.559 310.414C274.689 310.35 274.827 310.302 274.974 310.269C275.121 310.235 275.281 310.219 275.454 310.219C275.734 310.219 275.982 310.267 276.199 310.364C276.416 310.457 276.596 310.59 276.739 310.764C276.886 310.934 276.996 311.139 277.069 311.379C277.146 311.615 277.184 311.877 277.184 312.164V315.429H275.949V312.164C275.949 311.85 275.876 311.609 275.729 311.439C275.586 311.265 275.369 311.179 275.079 311.179C274.866 311.179 274.666 311.227 274.479 311.324C274.292 311.42 274.116 311.552 273.949 311.719V315.429H272.714ZM302.914 312.859C302.914 313.265 302.864 313.632 302.764 313.959C302.664 314.285 302.514 314.564 302.314 314.794C302.117 315.024 301.87 315.2 301.574 315.324C301.277 315.447 300.932 315.509 300.539 315.509C300.359 315.509 300.182 315.497 300.009 315.474C299.835 315.454 299.654 315.42 299.464 315.374L299.534 314.574C299.54 314.5 299.567 314.442 299.614 314.399C299.664 314.352 299.735 314.329 299.829 314.329C299.885 314.329 299.959 314.34 300.049 314.364C300.142 314.387 300.259 314.399 300.399 314.399C300.589 314.399 300.757 314.372 300.904 314.319C301.05 314.262 301.172 314.174 301.269 314.054C301.369 313.934 301.444 313.779 301.494 313.589C301.544 313.395 301.569 313.162 301.569 312.889V308.199H302.914V312.859ZM305.629 310.299V313.559C305.629 313.872 305.701 314.115 305.844 314.289C305.991 314.459 306.209 314.544 306.499 314.544C306.712 314.544 306.912 314.497 307.099 314.404C307.286 314.307 307.462 314.175 307.629 314.009V310.299H308.864V315.429H308.109C307.949 315.429 307.844 315.354 307.794 315.204L307.709 314.794C307.602 314.9 307.492 314.999 307.379 315.089C307.266 315.175 307.144 315.25 307.014 315.314C306.887 315.374 306.749 315.42 306.599 315.454C306.452 315.49 306.294 315.509 306.124 315.509C305.844 315.509 305.596 315.462 305.379 315.369C305.166 315.272 304.986 315.137 304.839 314.964C304.692 314.79 304.581 314.585 304.504 314.349C304.431 314.109 304.394 313.845 304.394 313.559V310.299H305.629ZM311.697 307.999V315.429H310.462V307.999H311.697ZM341.058 315.429H340.018C339.902 315.429 339.805 315.4 339.728 315.344C339.655 315.284 339.602 315.21 339.568 315.124L339.028 313.649H336.033L335.493 315.124C335.467 315.2 335.413 315.27 335.333 315.334C335.257 315.397 335.162 315.429 335.048 315.429H334.003L336.843 308.199H338.218L341.058 315.429ZM336.378 312.699H338.683L337.803 310.294C337.763 310.187 337.718 310.062 337.668 309.919C337.622 309.772 337.575 309.614 337.528 309.444C337.482 309.614 337.435 309.772 337.388 309.919C337.345 310.065 337.302 310.194 337.258 310.304L336.378 312.699ZM343.063 310.299V313.559C343.063 313.872 343.135 314.115 343.278 314.289C343.425 314.459 343.643 314.544 343.933 314.544C344.146 314.544 344.346 314.497 344.533 314.404C344.72 314.307 344.896 314.175 345.063 314.009V310.299H346.298V315.429H345.543C345.383 315.429 345.278 315.354 345.228 315.204L345.143 314.794C345.036 314.9 344.926 314.999 344.813 315.089C344.7 315.175 344.578 315.25 344.448 315.314C344.321 315.374 344.183 315.42 344.033 315.454C343.886 315.49 343.728 315.509 343.558 315.509C343.278 315.509 343.03 315.462 342.813 315.369C342.6 315.272 342.42 315.137 342.273 314.964C342.126 314.79 342.015 314.585 341.938 314.349C341.865 314.109 341.828 313.845 341.828 313.559V310.299H343.063ZM349.591 310.209C349.811 310.209 350.018 310.232 350.211 310.279C350.405 310.322 350.581 310.387 350.741 310.474H352.216V310.934C352.216 311.01 352.196 311.07 352.156 311.114C352.116 311.157 352.048 311.187 351.951 311.204L351.491 311.289C351.525 311.375 351.55 311.467 351.566 311.564C351.586 311.66 351.596 311.762 351.596 311.869C351.596 312.122 351.545 312.352 351.441 312.559C351.341 312.762 351.201 312.935 351.021 313.079C350.845 313.222 350.633 313.334 350.386 313.414C350.143 313.49 349.878 313.529 349.591 313.529C349.398 313.529 349.21 313.51 349.026 313.474C348.866 313.57 348.786 313.679 348.786 313.799C348.786 313.902 348.833 313.979 348.926 314.029C349.023 314.075 349.148 314.109 349.301 314.129C349.458 314.149 349.635 314.162 349.831 314.169C350.028 314.172 350.23 314.182 350.436 314.199C350.643 314.215 350.845 314.245 351.041 314.289C351.238 314.329 351.413 314.394 351.566 314.484C351.723 314.574 351.848 314.697 351.941 314.854C352.038 315.007 352.086 315.205 352.086 315.449C352.086 315.675 352.03 315.895 351.916 316.109C351.806 316.322 351.645 316.512 351.431 316.679C351.221 316.845 350.963 316.979 350.656 317.079C350.35 317.182 350 317.234 349.606 317.234C349.216 317.234 348.878 317.195 348.591 317.119C348.305 317.045 348.066 316.945 347.876 316.819C347.69 316.695 347.55 316.552 347.456 316.389C347.363 316.225 347.316 316.055 347.316 315.879C347.316 315.639 347.39 315.437 347.536 315.274C347.683 315.11 347.886 314.98 348.146 314.884C348.02 314.814 347.918 314.72 347.841 314.604C347.765 314.487 347.726 314.335 347.726 314.149C347.726 314.072 347.74 313.994 347.766 313.914C347.793 313.83 347.833 313.749 347.886 313.669C347.943 313.589 348.013 313.514 348.096 313.444C348.18 313.37 348.278 313.305 348.391 313.249C348.131 313.109 347.926 312.922 347.776 312.689C347.63 312.455 347.556 312.182 347.556 311.869C347.556 311.615 347.606 311.387 347.706 311.184C347.81 310.977 347.951 310.802 348.131 310.659C348.315 310.512 348.53 310.4 348.776 310.324C349.026 310.247 349.298 310.209 349.591 310.209ZM350.946 315.659C350.946 315.559 350.916 315.477 350.856 315.414C350.796 315.35 350.715 315.302 350.611 315.269C350.508 315.232 350.386 315.205 350.246 315.189C350.11 315.172 349.963 315.16 349.806 315.154C349.653 315.144 349.493 315.135 349.326 315.129C349.163 315.119 349.005 315.104 348.851 315.084C348.711 315.16 348.598 315.252 348.511 315.359C348.428 315.462 348.386 315.582 348.386 315.719C348.386 315.809 348.408 315.892 348.451 315.969C348.498 316.049 348.57 316.117 348.666 316.174C348.766 316.23 348.895 316.274 349.051 316.304C349.208 316.337 349.4 316.354 349.626 316.354C349.856 316.354 350.055 316.335 350.221 316.299C350.388 316.265 350.525 316.217 350.631 316.154C350.741 316.094 350.821 316.02 350.871 315.934C350.921 315.85 350.946 315.759 350.946 315.659ZM349.591 312.739C349.745 312.739 349.878 312.719 349.991 312.679C350.105 312.635 350.198 312.577 350.271 312.504C350.348 312.43 350.405 312.342 350.441 312.239C350.481 312.135 350.501 312.022 350.501 311.899C350.501 311.645 350.425 311.445 350.271 311.299C350.121 311.149 349.895 311.074 349.591 311.074C349.288 311.074 349.06 311.149 348.906 311.299C348.756 311.445 348.681 311.645 348.681 311.899C348.681 312.019 348.7 312.13 348.736 312.234C348.776 312.337 348.833 312.427 348.906 312.504C348.983 312.577 349.078 312.635 349.191 312.679C349.308 312.719 349.441 312.739 349.591 312.739ZM378.473 309.514C378.436 309.587 378.393 309.639 378.343 309.669C378.296 309.699 378.24 309.714 378.173 309.714C378.106 309.714 378.031 309.689 377.948 309.639C377.865 309.585 377.766 309.527 377.653 309.464C377.54 309.4 377.406 309.344 377.253 309.294C377.103 309.24 376.925 309.214 376.718 309.214C376.531 309.214 376.368 309.237 376.228 309.284C376.091 309.327 375.975 309.389 375.878 309.469C375.785 309.549 375.715 309.645 375.668 309.759C375.621 309.869 375.598 309.99 375.598 310.124C375.598 310.294 375.645 310.435 375.738 310.549C375.835 310.662 375.961 310.759 376.118 310.839C376.275 310.919 376.453 310.99 376.653 311.054C376.853 311.117 377.056 311.185 377.263 311.259C377.473 311.329 377.678 311.412 377.878 311.509C378.078 311.602 378.256 311.722 378.413 311.869C378.57 312.012 378.695 312.189 378.788 312.399C378.885 312.609 378.933 312.864 378.933 313.164C378.933 313.49 378.876 313.797 378.763 314.084C378.653 314.367 378.49 314.615 378.273 314.829C378.06 315.039 377.798 315.205 377.488 315.329C377.178 315.449 376.823 315.509 376.423 315.509C376.193 315.509 375.966 315.485 375.743 315.439C375.52 315.395 375.305 315.332 375.098 315.249C374.895 315.165 374.703 315.065 374.523 314.949C374.346 314.832 374.188 314.702 374.048 314.559L374.438 313.914C374.475 313.867 374.518 313.829 374.568 313.799C374.621 313.765 374.68 313.749 374.743 313.749C374.826 313.749 374.916 313.784 375.013 313.854C375.11 313.92 375.223 313.995 375.353 314.079C375.486 314.162 375.641 314.239 375.818 314.309C375.998 314.375 376.213 314.409 376.463 314.409C376.846 314.409 377.143 314.319 377.353 314.139C377.563 313.955 377.668 313.694 377.668 313.354C377.668 313.164 377.62 313.009 377.523 312.889C377.43 312.769 377.305 312.669 377.148 312.589C376.991 312.505 376.813 312.435 376.613 312.379C376.413 312.322 376.21 312.26 376.003 312.194C375.796 312.127 375.593 312.047 375.393 311.954C375.193 311.86 375.015 311.739 374.858 311.589C374.701 311.439 374.575 311.252 374.478 311.029C374.385 310.802 374.338 310.524 374.338 310.194C374.338 309.93 374.39 309.674 374.493 309.424C374.6 309.174 374.753 308.952 374.953 308.759C375.156 308.565 375.405 308.41 375.698 308.294C375.991 308.177 376.326 308.119 376.703 308.119C377.13 308.119 377.523 308.185 377.883 308.319C378.243 308.452 378.55 308.639 378.803 308.879L378.473 309.514ZM382.21 310.219C382.533 310.219 382.83 310.27 383.1 310.374C383.373 310.477 383.608 310.629 383.805 310.829C384.001 311.025 384.155 311.269 384.265 311.559C384.375 311.845 384.43 312.174 384.43 312.544C384.43 312.637 384.425 312.715 384.415 312.779C384.408 312.839 384.393 312.887 384.37 312.924C384.35 312.957 384.321 312.982 384.285 312.999C384.248 313.012 384.201 313.019 384.145 313.019H380.975C381.011 313.545 381.153 313.932 381.4 314.179C381.646 314.425 381.973 314.549 382.38 314.549C382.58 314.549 382.751 314.525 382.895 314.479C383.041 314.432 383.168 314.38 383.275 314.324C383.385 314.267 383.48 314.215 383.56 314.169C383.643 314.122 383.723 314.099 383.8 314.099C383.85 314.099 383.893 314.109 383.93 314.129C383.966 314.149 383.998 314.177 384.025 314.214L384.385 314.664C384.248 314.824 384.095 314.959 383.925 315.069C383.755 315.175 383.576 315.262 383.39 315.329C383.206 315.392 383.018 315.437 382.825 315.464C382.635 315.49 382.45 315.504 382.27 315.504C381.913 315.504 381.581 315.445 381.275 315.329C380.968 315.209 380.701 315.034 380.475 314.804C380.248 314.57 380.07 314.284 379.94 313.944C379.81 313.6 379.745 313.204 379.745 312.754C379.745 312.404 379.801 312.075 379.915 311.769C380.028 311.459 380.19 311.19 380.4 310.964C380.613 310.734 380.871 310.552 381.175 310.419C381.481 310.285 381.826 310.219 382.21 310.219ZM382.235 311.104C381.875 311.104 381.593 311.205 381.39 311.409C381.186 311.612 381.056 311.9 381 312.274H383.32C383.32 312.114 383.298 311.964 383.255 311.824C383.211 311.68 383.145 311.555 383.055 311.449C382.965 311.342 382.851 311.259 382.715 311.199C382.578 311.135 382.418 311.104 382.235 311.104ZM385.631 317.104V310.299H386.386C386.466 310.299 386.535 310.317 386.591 310.354C386.648 310.39 386.685 310.447 386.701 310.524L386.801 310.999C387.008 310.762 387.245 310.57 387.511 310.424C387.781 310.277 388.096 310.204 388.456 310.204C388.736 310.204 388.991 310.262 389.221 310.379C389.455 310.495 389.655 310.665 389.821 310.889C389.991 311.109 390.121 311.382 390.211 311.709C390.305 312.032 390.351 312.404 390.351 312.824C390.351 313.207 390.3 313.562 390.196 313.889C390.093 314.215 389.945 314.499 389.751 314.739C389.561 314.979 389.33 315.167 389.056 315.304C388.786 315.437 388.483 315.504 388.146 315.504C387.856 315.504 387.61 315.46 387.406 315.374C387.206 315.284 387.026 315.16 386.866 315.004V317.104H385.631ZM388.031 311.179C387.775 311.179 387.555 311.234 387.371 311.344C387.191 311.45 387.023 311.602 386.866 311.799V314.099C387.006 314.272 387.158 314.394 387.321 314.464C387.488 314.53 387.666 314.564 387.856 314.564C388.043 314.564 388.211 314.529 388.361 314.459C388.515 314.389 388.643 314.282 388.746 314.139C388.853 313.995 388.935 313.815 388.991 313.599C389.048 313.379 389.076 313.12 389.076 312.824C389.076 312.524 389.051 312.27 389.001 312.064C388.955 311.854 388.886 311.684 388.796 311.554C388.706 311.424 388.596 311.329 388.466 311.269C388.34 311.209 388.195 311.179 388.031 311.179ZM417.693 311.814C417.693 312.344 417.605 312.835 417.428 313.289C417.251 313.739 417.003 314.129 416.683 314.459C416.363 314.789 415.978 315.047 415.528 315.234C415.078 315.417 414.58 315.509 414.033 315.509C413.486 315.509 412.986 315.417 412.533 315.234C412.083 315.047 411.696 314.789 411.373 314.459C411.053 314.129 410.805 313.739 410.628 313.289C410.451 312.835 410.363 312.344 410.363 311.814C410.363 311.284 410.451 310.794 410.628 310.344C410.805 309.89 411.053 309.499 411.373 309.169C411.696 308.839 412.083 308.582 412.533 308.399C412.986 308.212 413.486 308.119 414.033 308.119C414.58 308.119 415.078 308.212 415.528 308.399C415.978 308.585 416.363 308.844 416.683 309.174C417.003 309.5 417.251 309.89 417.428 310.344C417.605 310.794 417.693 311.284 417.693 311.814ZM416.313 311.814C416.313 311.417 416.26 311.062 416.153 310.749C416.05 310.432 415.9 310.164 415.703 309.944C415.506 309.724 415.266 309.555 414.983 309.439C414.703 309.322 414.386 309.264 414.033 309.264C413.68 309.264 413.361 309.322 413.078 309.439C412.795 309.555 412.553 309.724 412.353 309.944C412.156 310.164 412.005 310.432 411.898 310.749C411.791 311.062 411.738 311.417 411.738 311.814C411.738 312.21 411.791 312.567 411.898 312.884C412.005 313.197 412.156 313.464 412.353 313.684C412.553 313.9 412.795 314.067 413.078 314.184C413.361 314.3 413.68 314.359 414.033 314.359C414.386 314.359 414.703 314.3 414.983 314.184C415.266 314.067 415.506 313.9 415.703 313.684C415.9 313.464 416.05 313.197 416.153 312.884C416.26 312.567 416.313 312.21 416.313 311.814ZM422.491 311.384C422.454 311.43 422.418 311.467 422.381 311.494C422.348 311.52 422.298 311.534 422.231 311.534C422.168 311.534 422.106 311.515 422.046 311.479C421.986 311.439 421.914 311.395 421.831 311.349C421.748 311.299 421.648 311.255 421.531 311.219C421.418 311.179 421.276 311.159 421.106 311.159C420.889 311.159 420.699 311.199 420.536 311.279C420.373 311.355 420.236 311.467 420.126 311.614C420.019 311.76 419.939 311.939 419.886 312.149C419.833 312.355 419.806 312.59 419.806 312.854C419.806 313.127 419.834 313.37 419.891 313.584C419.951 313.797 420.036 313.977 420.146 314.124C420.256 314.267 420.389 314.377 420.546 314.454C420.703 314.527 420.879 314.564 421.076 314.564C421.273 314.564 421.431 314.54 421.551 314.494C421.674 314.444 421.778 314.39 421.861 314.334C421.944 314.274 422.016 314.22 422.076 314.174C422.139 314.124 422.209 314.099 422.286 314.099C422.386 314.099 422.461 314.137 422.511 314.214L422.866 314.664C422.729 314.824 422.581 314.959 422.421 315.069C422.261 315.175 422.094 315.262 421.921 315.329C421.751 315.392 421.574 315.437 421.391 315.464C421.208 315.49 421.026 315.504 420.846 315.504C420.529 315.504 420.231 315.445 419.951 315.329C419.671 315.209 419.426 315.035 419.216 314.809C419.009 314.582 418.844 314.305 418.721 313.979C418.601 313.649 418.541 313.274 418.541 312.854C418.541 312.477 418.594 312.129 418.701 311.809C418.811 311.485 418.971 311.207 419.181 310.974C419.391 310.737 419.651 310.552 419.961 310.419C420.271 310.285 420.628 310.219 421.031 310.219C421.414 310.219 421.749 310.28 422.036 310.404C422.326 310.527 422.586 310.704 422.816 310.934L422.491 311.384ZM425.537 315.509C425.093 315.509 424.752 315.384 424.512 315.134C424.272 314.88 424.152 314.532 424.152 314.089V311.224H423.632C423.565 311.224 423.507 311.202 423.457 311.159C423.41 311.115 423.387 311.05 423.387 310.964V310.474L424.212 310.339L424.472 308.939C424.485 308.872 424.515 308.82 424.562 308.784C424.612 308.747 424.673 308.729 424.747 308.729H425.387V310.344H426.737V311.224H425.387V314.004C425.387 314.164 425.427 314.289 425.507 314.379C425.587 314.469 425.693 314.514 425.827 314.514C425.903 314.514 425.967 314.505 426.017 314.489C426.07 314.469 426.115 314.449 426.152 314.429C426.192 314.409 426.227 314.39 426.257 314.374C426.287 314.354 426.317 314.344 426.347 314.344C426.383 314.344 426.413 314.354 426.437 314.374C426.46 314.39 426.485 314.417 426.512 314.454L426.882 315.054C426.702 315.204 426.495 315.317 426.262 315.394C426.028 315.47 425.787 315.509 425.537 315.509ZM452.163 308.199C452.223 308.199 452.273 308.202 452.313 308.209C452.353 308.212 452.388 308.222 452.418 308.239C452.452 308.252 452.483 308.274 452.513 308.304C452.543 308.33 452.577 308.367 452.613 308.414L456.408 313.249C456.395 313.132 456.385 313.019 456.378 312.909C456.375 312.795 456.373 312.69 456.373 312.594V308.199H457.558V315.429H456.863C456.757 315.429 456.668 315.412 456.598 315.379C456.528 315.345 456.46 315.285 456.393 315.199L452.613 310.384C452.623 310.49 452.63 310.597 452.633 310.704C452.64 310.807 452.643 310.902 452.643 310.989V315.429H451.458V308.199H452.163ZM461.337 310.219C461.72 310.219 462.067 310.28 462.377 310.404C462.69 310.527 462.957 310.702 463.177 310.929C463.397 311.155 463.567 311.432 463.687 311.759C463.807 312.085 463.867 312.45 463.867 312.854C463.867 313.26 463.807 313.627 463.687 313.954C463.567 314.28 463.397 314.559 463.177 314.789C462.957 315.019 462.69 315.195 462.377 315.319C462.067 315.442 461.72 315.504 461.337 315.504C460.954 315.504 460.605 315.442 460.292 315.319C459.979 315.195 459.71 315.019 459.487 314.789C459.267 314.559 459.095 314.28 458.972 313.954C458.852 313.627 458.792 313.26 458.792 312.854C458.792 312.45 458.852 312.085 458.972 311.759C459.095 311.432 459.267 311.155 459.487 310.929C459.71 310.702 459.979 310.527 460.292 310.404C460.605 310.28 460.954 310.219 461.337 310.219ZM461.337 314.554C461.764 314.554 462.079 314.41 462.282 314.124C462.489 313.837 462.592 313.417 462.592 312.864C462.592 312.31 462.489 311.889 462.282 311.599C462.079 311.309 461.764 311.164 461.337 311.164C460.904 311.164 460.584 311.31 460.377 311.604C460.17 311.894 460.067 312.314 460.067 312.864C460.067 313.414 460.17 313.834 460.377 314.124C460.584 314.41 460.904 314.554 461.337 314.554ZM467.434 315.429H466.314L464.274 310.299H465.299C465.389 310.299 465.464 310.32 465.524 310.364C465.588 310.407 465.631 310.462 465.654 310.529L466.644 313.269C466.701 313.429 466.748 313.585 466.784 313.739C466.824 313.892 466.859 314.045 466.889 314.199C466.919 314.045 466.953 313.892 466.989 313.739C467.029 313.585 467.079 313.429 467.139 313.269L468.154 310.529C468.178 310.462 468.219 310.407 468.279 310.364C468.339 310.32 468.411 310.299 468.494 310.299H469.469L467.434 315.429ZM498.222 311.814C498.222 312.344 498.134 312.83 497.957 313.274C497.781 313.717 497.532 314.099 497.212 314.419C496.892 314.739 496.507 314.987 496.057 315.164C495.607 315.34 495.109 315.429 494.562 315.429H491.802V308.199H494.562C495.109 308.199 495.607 308.289 496.057 308.469C496.507 308.645 496.892 308.894 497.212 309.214C497.532 309.53 497.781 309.91 497.957 310.354C498.134 310.797 498.222 311.284 498.222 311.814ZM496.847 311.814C496.847 311.417 496.794 311.062 496.687 310.749C496.581 310.432 496.429 310.165 496.232 309.949C496.036 309.729 495.796 309.56 495.512 309.444C495.232 309.327 494.916 309.269 494.562 309.269H493.157V314.359H494.562C494.916 314.359 495.232 314.3 495.512 314.184C495.796 314.067 496.036 313.9 496.232 313.684C496.429 313.464 496.581 313.197 496.687 312.884C496.794 312.567 496.847 312.21 496.847 311.814ZM501.523 310.219C501.846 310.219 502.143 310.27 502.413 310.374C502.686 310.477 502.921 310.629 503.118 310.829C503.315 311.025 503.468 311.269 503.578 311.559C503.688 311.845 503.743 312.174 503.743 312.544C503.743 312.637 503.738 312.715 503.728 312.779C503.721 312.839 503.706 312.887 503.683 312.924C503.663 312.957 503.635 312.982 503.598 312.999C503.561 313.012 503.515 313.019 503.458 313.019H500.288C500.325 313.545 500.466 313.932 500.713 314.179C500.96 314.425 501.286 314.549 501.693 314.549C501.893 314.549 502.065 314.525 502.208 314.479C502.355 314.432 502.481 314.38 502.588 314.324C502.698 314.267 502.793 314.215 502.873 314.169C502.956 314.122 503.036 314.099 503.113 314.099C503.163 314.099 503.206 314.109 503.243 314.129C503.28 314.149 503.311 314.177 503.338 314.214L503.698 314.664C503.561 314.824 503.408 314.959 503.238 315.069C503.068 315.175 502.89 315.262 502.703 315.329C502.52 315.392 502.331 315.437 502.138 315.464C501.948 315.49 501.763 315.504 501.583 315.504C501.226 315.504 500.895 315.445 500.588 315.329C500.281 315.209 500.015 315.034 499.788 314.804C499.561 314.57 499.383 314.284 499.253 313.944C499.123 313.6 499.058 313.204 499.058 312.754C499.058 312.404 499.115 312.075 499.228 311.769C499.341 311.459 499.503 311.19 499.713 310.964C499.926 310.734 500.185 310.552 500.488 310.419C500.795 310.285 501.14 310.219 501.523 310.219ZM501.548 311.104C501.188 311.104 500.906 311.205 500.703 311.409C500.5 311.612 500.37 311.9 500.313 312.274H502.633C502.633 312.114 502.611 311.964 502.568 311.824C502.525 311.68 502.458 311.555 502.368 311.449C502.278 311.342 502.165 311.259 502.028 311.199C501.891 311.135 501.731 311.104 501.548 311.104ZM508.55 311.384C508.513 311.43 508.477 311.467 508.44 311.494C508.407 311.52 508.357 311.534 508.29 311.534C508.227 311.534 508.165 311.515 508.105 311.479C508.045 311.439 507.973 311.395 507.89 311.349C507.807 311.299 507.707 311.255 507.59 311.219C507.477 311.179 507.335 311.159 507.165 311.159C506.948 311.159 506.758 311.199 506.595 311.279C506.432 311.355 506.295 311.467 506.185 311.614C506.078 311.76 505.998 311.939 505.945 312.149C505.892 312.355 505.865 312.59 505.865 312.854C505.865 313.127 505.893 313.37 505.95 313.584C506.01 313.797 506.095 313.977 506.205 314.124C506.315 314.267 506.448 314.377 506.605 314.454C506.762 314.527 506.938 314.564 507.135 314.564C507.332 314.564 507.49 314.54 507.61 314.494C507.733 314.444 507.837 314.39 507.92 314.334C508.003 314.274 508.075 314.22 508.135 314.174C508.198 314.124 508.268 314.099 508.345 314.099C508.445 314.099 508.52 314.137 508.57 314.214L508.925 314.664C508.788 314.824 508.64 314.959 508.48 315.069C508.32 315.175 508.153 315.262 507.98 315.329C507.81 315.392 507.633 315.437 507.45 315.464C507.267 315.49 507.085 315.504 506.905 315.504C506.588 315.504 506.29 315.445 506.01 315.329C505.73 315.209 505.485 315.035 505.275 314.809C505.068 314.582 504.903 314.305 504.78 313.979C504.66 313.649 504.6 313.274 504.6 312.854C504.6 312.477 504.653 312.129 504.76 311.809C504.87 311.485 505.03 311.207 505.24 310.974C505.45 310.737 505.71 310.552 506.02 310.419C506.33 310.285 506.687 310.219 507.09 310.219C507.473 310.219 507.808 310.28 508.095 310.404C508.385 310.527 508.645 310.704 508.875 310.934L508.55 311.384Z" fill="#CACCCF"/>
<g filter="url(#filter0_d_74_1689)">
<circle cx="294.057" cy="154.804" r="4" fill="white"/>
<circle cx="294.057" cy="154.804" r="3.25" stroke="#336CFB" stroke-width="1.5"/>
</g>
<g filter="url(#filter1_d_74_1689)">
<path fill-rule="evenodd" clip-rule="evenodd" d="M266.057 110.804H322.057C324.266 110.804 326.057 112.595 326.057 114.804V134.804C326.057 137.013 324.266 138.804 322.057 138.804H299.057L294.556 142.404C294.264 142.638 293.849 142.638 293.557 142.404L289.057 138.804H266.057C263.848 138.804 262.057 137.013 262.057 134.804V114.804C262.057 112.595 263.848 110.804 266.057 110.804Z" fill="white"/>
</g>
<path d="M285.079 128.694H286.837V123.636C286.837 123.44 286.843 123.234 286.855 123.018L285.607 124.062C285.555 124.106 285.501 124.136 285.445 124.152C285.393 124.168 285.341 124.176 285.289 124.176C285.209 124.176 285.135 124.16 285.067 124.128C285.003 124.092 284.955 124.052 284.923 124.008L284.455 123.366L287.101 121.116H288.319V128.694H289.879V129.804H285.079V128.694ZM294.006 129.9C293.558 129.9 293.148 129.84 292.776 129.72C292.408 129.6 292.092 129.43 291.828 129.21C291.564 128.99 291.358 128.724 291.21 128.412C291.066 128.1 290.994 127.752 290.994 127.368C290.994 126.856 291.12 126.424 291.372 126.072C291.624 125.716 292.016 125.452 292.548 125.28C292.124 125.104 291.806 124.854 291.594 124.53C291.386 124.206 291.282 123.816 291.282 123.36C291.282 123.032 291.348 122.726 291.48 122.442C291.616 122.158 291.804 121.912 292.044 121.704C292.284 121.492 292.57 121.328 292.902 121.212C293.238 121.092 293.606 121.032 294.006 121.032C294.406 121.032 294.772 121.092 295.104 121.212C295.44 121.328 295.728 121.492 295.968 121.704C296.208 121.912 296.394 122.158 296.526 122.442C296.662 122.726 296.73 123.032 296.73 123.36C296.73 123.816 296.624 124.206 296.412 124.53C296.2 124.854 295.884 125.104 295.464 125.28C295.996 125.452 296.388 125.716 296.64 126.072C296.892 126.424 297.018 126.856 297.018 127.368C297.018 127.752 296.944 128.1 296.796 128.412C296.652 128.724 296.448 128.99 296.184 129.21C295.92 129.43 295.602 129.6 295.23 129.72C294.862 129.84 294.454 129.9 294.006 129.9ZM294.006 128.742C294.25 128.742 294.464 128.708 294.648 128.64C294.832 128.568 294.986 128.47 295.11 128.346C295.238 128.222 295.334 128.074 295.398 127.902C295.462 127.73 295.494 127.544 295.494 127.344C295.494 126.868 295.362 126.508 295.098 126.264C294.834 126.02 294.47 125.898 294.006 125.898C293.542 125.898 293.178 126.02 292.914 126.264C292.65 126.508 292.518 126.868 292.518 127.344C292.518 127.544 292.55 127.73 292.614 127.902C292.678 128.074 292.772 128.222 292.896 128.346C293.024 128.47 293.18 128.568 293.364 128.64C293.548 128.708 293.762 128.742 294.006 128.742ZM294.006 124.734C294.246 124.734 294.448 124.696 294.612 124.62C294.776 124.544 294.908 124.444 295.008 124.32C295.108 124.192 295.178 124.048 295.218 123.888C295.262 123.724 295.284 123.556 295.284 123.384C295.284 123.22 295.258 123.064 295.206 122.916C295.154 122.768 295.076 122.638 294.972 122.526C294.868 122.41 294.736 122.318 294.576 122.25C294.416 122.182 294.226 122.148 294.006 122.148C293.786 122.148 293.596 122.182 293.436 122.25C293.276 122.318 293.142 122.41 293.034 122.526C292.93 122.638 292.852 122.768 292.8 122.916C292.752 123.064 292.728 123.22 292.728 123.384C292.728 123.556 292.748 123.724 292.788 123.888C292.832 124.048 292.904 124.192 293.004 124.32C293.104 124.444 293.236 124.544 293.4 124.62C293.564 124.696 293.766 124.734 294.006 124.734ZM304.247 125.466C304.247 126.222 304.165 126.88 304.001 127.44C303.841 127.996 303.617 128.456 303.329 128.82C303.045 129.184 302.707 129.456 302.315 129.636C301.927 129.812 301.507 129.9 301.055 129.9C300.603 129.9 300.183 129.812 299.795 129.636C299.411 129.456 299.077 129.184 298.793 128.82C298.509 128.456 298.287 127.996 298.127 127.44C297.967 126.88 297.887 126.222 297.887 125.466C297.887 124.706 297.967 124.048 298.127 123.492C298.287 122.936 298.509 122.476 298.793 122.112C299.077 121.748 299.411 121.478 299.795 121.302C300.183 121.122 300.603 121.032 301.055 121.032C301.507 121.032 301.927 121.122 302.315 121.302C302.707 121.478 303.045 121.748 303.329 122.112C303.617 122.476 303.841 122.936 304.001 123.492C304.165 124.048 304.247 124.706 304.247 125.466ZM302.717 125.466C302.717 124.838 302.671 124.318 302.579 123.906C302.487 123.494 302.363 123.166 302.207 122.922C302.055 122.678 301.879 122.508 301.679 122.412C301.479 122.312 301.271 122.262 301.055 122.262C300.843 122.262 300.637 122.312 300.437 122.412C300.241 122.508 300.067 122.678 299.915 122.922C299.763 123.166 299.641 123.494 299.549 123.906C299.461 124.318 299.417 124.838 299.417 125.466C299.417 126.094 299.461 126.614 299.549 127.026C299.641 127.438 299.763 127.766 299.915 128.01C300.067 128.254 300.241 128.426 300.437 128.526C300.637 128.622 300.843 128.67 301.055 128.67C301.271 128.67 301.479 128.622 301.679 128.526C301.879 128.426 302.055 128.254 302.207 128.01C302.363 127.766 302.487 127.438 302.579 127.026C302.671 126.614 302.717 126.094 302.717 125.466Z" fill="#336CFB"/>
<path d="M39.38 16.108C38.268 16.108 37.424 15.816 36.848 15.232C36.272 14.64 35.984 13.78 35.984 12.652V7.96C35.984 7.624 36.148 7.456 36.476 7.456C36.804 7.456 36.968 7.624 36.968 7.96V12.604C36.968 14.356 37.772 15.232 39.38 15.232C40.972 15.232 41.768 14.356 41.768 12.604V7.96C41.768 7.624 41.936 7.456 42.272 7.456C42.592 7.456 42.752 7.624 42.752 7.96V12.652C42.752 13.78 42.464 14.64 41.888 15.232C41.32 15.816 40.484 16.108 39.38 16.108ZM45.1225 16.084C44.8025 16.084 44.6425 15.916 44.6425 15.58V10.576C44.6425 10.248 44.7985 10.084 45.1105 10.084C45.4305 10.084 45.5905 10.248 45.5905 10.576V11.164C45.7825 10.796 46.0545 10.52 46.4065 10.336C46.7585 10.152 47.1545 10.06 47.5945 10.06C48.9785 10.06 49.6705 10.828 49.6705 12.364V15.58C49.6705 15.916 49.5105 16.084 49.1905 16.084C48.8625 16.084 48.6985 15.916 48.6985 15.58V12.424C48.6985 11.88 48.5905 11.484 48.3745 11.236C48.1665 10.98 47.8305 10.852 47.3665 10.852C46.8305 10.852 46.4025 11.02 46.0825 11.356C45.7705 11.684 45.6145 12.124 45.6145 12.676V15.58C45.6145 15.916 45.4505 16.084 45.1225 16.084ZM51.9428 8.764C51.5188 8.764 51.3068 8.564 51.3068 8.164C51.3068 7.772 51.5188 7.576 51.9428 7.576C52.3668 7.576 52.5788 7.772 52.5788 8.164C52.5788 8.564 52.3668 8.764 51.9428 8.764ZM51.9428 16.06C51.6228 16.06 51.4628 15.884 51.4628 15.532V10.624C51.4628 10.28 51.6228 10.108 51.9428 10.108C52.2708 10.108 52.4348 10.28 52.4348 10.624V15.532C52.4348 15.884 52.2708 16.06 51.9428 16.06ZM58.9438 18.244C58.6158 18.244 58.4518 18.08 58.4518 17.752V14.98C58.2838 15.324 58.0238 15.6 57.6718 15.808C57.3278 16.008 56.9278 16.108 56.4718 16.108C55.9518 16.108 55.4958 15.984 55.1038 15.736C54.7198 15.488 54.4198 15.14 54.2038 14.692C53.9958 14.236 53.8918 13.7 53.8918 13.084C53.8918 12.46 53.9958 11.924 54.2038 11.476C54.4198 11.02 54.7198 10.672 55.1038 10.432C55.4958 10.184 55.9518 10.06 56.4718 10.06C56.9278 10.06 57.3278 10.164 57.6718 10.372C58.0238 10.572 58.2878 10.848 58.4638 11.2V10.576C58.4638 10.248 58.6238 10.084 58.9438 10.084C59.2638 10.084 59.4238 10.248 59.4238 10.576V17.752C59.4238 18.08 59.2638 18.244 58.9438 18.244ZM56.6758 15.328C57.2198 15.328 57.6558 15.136 57.9838 14.752C58.3118 14.36 58.4758 13.804 58.4758 13.084C58.4758 12.356 58.3118 11.8 57.9838 11.416C57.6558 11.032 57.2198 10.84 56.6758 10.84C56.1238 10.84 55.6838 11.032 55.3558 11.416C55.0358 11.8 54.8758 12.356 54.8758 13.084C54.8758 13.804 55.0358 14.36 55.3558 14.752C55.6838 15.136 56.1238 15.328 56.6758 15.328ZM63.3119 16.108C61.9119 16.108 61.2119 15.336 61.2119 13.792V10.576C61.2119 10.248 61.3719 10.084 61.6919 10.084C62.0199 10.084 62.1839 10.248 62.1839 10.576V13.78C62.1839 14.3 62.2879 14.684 62.4959 14.932C62.7119 15.18 63.0479 15.304 63.5039 15.304C63.9999 15.304 64.4039 15.14 64.7159 14.812C65.0279 14.476 65.1839 14.032 65.1839 13.48V10.576C65.1839 10.248 65.3479 10.084 65.6759 10.084C65.9959 10.084 66.1559 10.248 66.1559 10.576V15.58C66.1559 15.916 65.9999 16.084 65.6879 16.084C65.3679 16.084 65.2079 15.916 65.2079 15.58V15.016C65.0239 15.368 64.7639 15.64 64.4279 15.832C64.0999 16.016 63.7279 16.108 63.3119 16.108ZM70.6025 16.108C69.6825 16.108 68.9545 15.84 68.4185 15.304C67.8825 14.76 67.6145 14.024 67.6145 13.096C67.6145 12.496 67.7345 11.968 67.9745 11.512C68.2145 11.048 68.5425 10.692 68.9585 10.444C69.3825 10.188 69.8705 10.06 70.4225 10.06C71.2145 10.06 71.8345 10.316 72.2825 10.828C72.7305 11.332 72.9545 12.028 72.9545 12.916C72.9545 13.164 72.8145 13.288 72.5345 13.288H68.5625C68.5945 13.952 68.7865 14.46 69.1385 14.812C69.4905 15.156 69.9785 15.328 70.6025 15.328C70.8665 15.328 71.1345 15.296 71.4065 15.232C71.6785 15.16 71.9425 15.036 72.1985 14.86C72.3825 14.74 72.5345 14.716 72.6545 14.788C72.7825 14.86 72.8465 14.972 72.8465 15.124C72.8545 15.268 72.7745 15.396 72.6065 15.508C72.3425 15.7 72.0265 15.848 71.6585 15.952C71.2985 16.056 70.9465 16.108 70.6025 16.108ZM70.4465 10.78C69.8945 10.78 69.4585 10.952 69.1385 11.296C68.8185 11.64 68.6305 12.092 68.5745 12.652H72.1145C72.0905 12.06 71.9345 11.6 71.6465 11.272C71.3665 10.944 70.9665 10.78 70.4465 10.78ZM36.872 35C36.432 35 36.212 34.784 36.212 34.352C36.212 33.936 36.432 33.728 36.872 33.728H38.216V28.292L37.196 28.904C37.004 29.016 36.828 29.044 36.668 28.988C36.516 28.932 36.4 28.832 36.32 28.688C36.24 28.544 36.216 28.388 36.248 28.22C36.28 28.044 36.392 27.9 36.584 27.788L38.24 26.792C38.4 26.696 38.56 26.616 38.72 26.552C38.88 26.48 39.028 26.444 39.164 26.444C39.332 26.444 39.472 26.492 39.584 26.588C39.696 26.676 39.752 26.824 39.752 27.032V33.728H40.976C41.416 33.728 41.636 33.936 41.636 34.352C41.636 34.784 41.416 35 40.976 35H36.872ZM43.7913 35C43.5353 35 43.3473 34.944 43.2273 34.832C43.1153 34.712 43.0593 34.54 43.0593 34.316C43.0593 34.18 43.0953 34.048 43.1673 33.92C43.2393 33.792 43.3433 33.656 43.4793 33.512L45.8913 30.944C46.2593 30.56 46.5233 30.212 46.6833 29.9C46.8433 29.58 46.9233 29.26 46.9233 28.94C46.9233 28.124 46.4313 27.716 45.4473 27.716C45.1753 27.716 44.9033 27.756 44.6313 27.836C44.3593 27.908 44.0833 28.036 43.8033 28.22C43.6273 28.34 43.4633 28.376 43.3113 28.328C43.1593 28.28 43.0433 28.184 42.9633 28.04C42.8833 27.888 42.8553 27.728 42.8793 27.56C42.9113 27.392 43.0153 27.248 43.1913 27.128C43.5353 26.896 43.9193 26.72 44.3433 26.6C44.7753 26.48 45.2073 26.42 45.6393 26.42C46.5433 26.42 47.2353 26.624 47.7153 27.032C48.2033 27.44 48.4473 28.024 48.4473 28.784C48.4473 29.296 48.3233 29.788 48.0753 30.26C47.8353 30.732 47.4553 31.24 46.9353 31.784L45.0753 33.728H48.2073C48.6473 33.728 48.8673 33.936 48.8673 34.352C48.8673 34.784 48.6473 35 48.2073 35H43.7913ZM52.9906 35.12C51.9906 35.12 51.2266 34.744 50.6986 33.992C50.1706 33.232 49.9066 32.152 49.9066 30.752C49.9066 29.336 50.1706 28.26 50.6986 27.524C51.2266 26.788 51.9906 26.42 52.9906 26.42C53.9986 26.42 54.7626 26.788 55.2826 27.524C55.8106 28.26 56.0746 29.332 56.0746 30.74C56.0746 32.148 55.8106 33.232 55.2826 33.992C54.7546 34.744 53.9906 35.12 52.9906 35.12ZM52.9906 33.86C53.5346 33.86 53.9346 33.608 54.1906 33.104C54.4546 32.6 54.5866 31.812 54.5866 30.74C54.5866 29.668 54.4546 28.892 54.1906 28.412C53.9346 27.924 53.5346 27.68 52.9906 27.68C52.4546 27.68 52.0546 27.924 51.7906 28.412C51.5266 28.892 51.3946 29.668 51.3946 30.74C51.3946 31.812 51.5266 32.6 51.7906 33.104C52.0546 33.608 52.4546 33.86 52.9906 33.86ZM60.1859 35.12C59.1859 35.12 58.4219 34.744 57.8939 33.992C57.3659 33.232 57.1019 32.152 57.1019 30.752C57.1019 29.336 57.3659 28.26 57.8939 27.524C58.4219 26.788 59.1859 26.42 60.1859 26.42C61.1939 26.42 61.9579 26.788 62.4779 27.524C63.0059 28.26 63.2699 29.332 63.2699 30.74C63.2699 32.148 63.0059 33.232 62.4779 33.992C61.9499 34.744 61.1859 35.12 60.1859 35.12ZM60.1859 33.86C60.7299 33.86 61.1299 33.608 61.3859 33.104C61.6499 32.6 61.7819 31.812 61.7819 30.74C61.7819 29.668 61.6499 28.892 61.3859 28.412C61.1299 27.924 60.7299 27.68 60.1859 27.68C59.6499 27.68 59.2499 27.924 58.9859 28.412C58.7219 28.892 58.5899 29.668 58.5899 30.74C58.5899 31.812 58.7219 32.6 58.9859 33.104C59.2499 33.608 59.6499 33.86 60.1859 33.86Z" fill="black"/>
<rect x="10" y="7" width="15" height="15" fill="#7A64C6"/>
<path d="M208.536 13.084C208.208 13.084 208.044 12.912 208.044 12.568V5.044C208.044 4.708 208.212 4.54 208.548 4.54H211.392C212.304 4.54 213 4.752 213.48 5.176C213.968 5.6 214.212 6.204 214.212 6.988C214.212 7.612 214.04 8.124 213.696 8.524C213.36 8.924 212.88 9.184 212.256 9.304C212.624 9.432 212.94 9.744 213.204 10.24L214.356 12.388C214.444 12.556 214.46 12.716 214.404 12.868C214.348 13.012 214.22 13.084 214.02 13.084C213.884 13.084 213.772 13.056 213.684 13C213.596 12.936 213.52 12.84 213.456 12.712L212.148 10.288C211.964 9.944 211.752 9.716 211.512 9.604C211.272 9.484 210.956 9.424 210.564 9.424H209.028V12.568C209.028 12.912 208.864 13.084 208.536 13.084ZM209.028 8.644H211.248C212.576 8.644 213.24 8.092 213.24 6.988C213.24 5.9 212.576 5.356 211.248 5.356H209.028V8.644ZM218.438 13.108C217.518 13.108 216.79 12.84 216.254 12.304C215.718 11.76 215.45 11.024 215.45 10.096C215.45 9.496 215.57 8.968 215.81 8.512C216.05 8.048 216.378 7.692 216.794 7.444C217.218 7.188 217.706 7.06 218.258 7.06C219.05 7.06 219.67 7.316 220.118 7.828C220.566 8.332 220.79 9.028 220.79 9.916C220.79 10.164 220.65 10.288 220.37 10.288H216.398C216.43 10.952 216.622 11.46 216.974 11.812C217.326 12.156 217.814 12.328 218.438 12.328C218.702 12.328 218.97 12.296 219.242 12.232C219.514 12.16 219.778 12.036 220.034 11.86C220.218 11.74 220.37 11.716 220.49 11.788C220.618 11.86 220.682 11.972 220.682 12.124C220.69 12.268 220.61 12.396 220.442 12.508C220.178 12.7 219.862 12.848 219.494 12.952C219.134 13.056 218.782 13.108 218.438 13.108ZM218.282 7.78C217.73 7.78 217.294 7.952 216.974 8.296C216.654 8.64 216.466 9.092 216.41 9.652H219.95C219.926 9.06 219.77 8.6 219.482 8.272C219.202 7.944 218.802 7.78 218.282 7.78ZM222.677 15.244C222.357 15.244 222.197 15.08 222.197 14.752V7.576C222.197 7.248 222.353 7.084 222.665 7.084C222.993 7.084 223.157 7.248 223.157 7.576V8.2C223.325 7.848 223.585 7.572 223.937 7.372C224.289 7.164 224.693 7.06 225.149 7.06C225.669 7.06 226.121 7.184 226.505 7.432C226.897 7.672 227.197 8.02 227.405 8.476C227.621 8.924 227.729 9.46 227.729 10.084C227.729 10.7 227.621 11.236 227.405 11.692C227.197 12.14 226.897 12.488 226.505 12.736C226.121 12.984 225.669 13.108 225.149 13.108C224.701 13.108 224.301 13.008 223.949 12.808C223.597 12.608 223.337 12.332 223.169 11.98V14.752C223.169 15.08 223.005 15.244 222.677 15.244ZM224.945 12.328C225.489 12.328 225.925 12.136 226.253 11.752C226.581 11.36 226.745 10.804 226.745 10.084C226.745 9.356 226.581 8.8 226.253 8.416C225.925 8.032 225.489 7.84 224.945 7.84C224.401 7.84 223.965 8.032 223.637 8.416C223.309 8.8 223.145 9.356 223.145 10.084C223.145 10.804 223.309 11.36 223.637 11.752C223.965 12.136 224.401 12.328 224.945 12.328ZM231.821 13.108C230.901 13.108 230.173 12.84 229.637 12.304C229.101 11.76 228.833 11.024 228.833 10.096C228.833 9.496 228.953 8.968 229.193 8.512C229.433 8.048 229.761 7.692 230.177 7.444C230.601 7.188 231.089 7.06 231.641 7.06C232.433 7.06 233.053 7.316 233.501 7.828C233.949 8.332 234.173 9.028 234.173 9.916C234.173 10.164 234.033 10.288 233.753 10.288H229.781C229.813 10.952 230.005 11.46 230.357 11.812C230.709 12.156 231.197 12.328 231.821 12.328C232.085 12.328 232.353 12.296 232.625 12.232C232.897 12.16 233.161 12.036 233.417 11.86C233.601 11.74 233.753 11.716 233.873 11.788C234.001 11.86 234.065 11.972 234.065 12.124C234.073 12.268 233.993 12.396 233.825 12.508C233.561 12.7 233.245 12.848 232.877 12.952C232.517 13.056 232.165 13.108 231.821 13.108ZM231.665 7.78C231.113 7.78 230.677 7.952 230.357 8.296C230.037 8.64 229.849 9.092 229.793 9.652H233.333C233.309 9.06 233.153 8.6 232.865 8.272C232.585 7.944 232.185 7.78 231.665 7.78ZM237.416 13.108C237.016 13.108 236.656 13.032 236.336 12.88C236.024 12.72 235.776 12.504 235.592 12.232C235.408 11.96 235.316 11.656 235.316 11.32C235.316 10.896 235.424 10.56 235.64 10.312C235.864 10.064 236.228 9.888 236.732 9.784C237.244 9.672 237.94 9.616 238.82 9.616H239.204V9.244C239.204 8.748 239.1 8.392 238.892 8.176C238.692 7.952 238.368 7.84 237.92 7.84C237.64 7.84 237.356 7.876 237.068 7.948C236.788 8.02 236.496 8.136 236.192 8.296C236.056 8.368 235.94 8.384 235.844 8.344C235.756 8.296 235.692 8.224 235.652 8.128C235.62 8.024 235.62 7.92 235.652 7.816C235.692 7.704 235.772 7.62 235.892 7.564C236.236 7.388 236.58 7.26 236.924 7.18C237.276 7.1 237.608 7.06 237.92 7.06C238.672 7.06 239.228 7.244 239.588 7.612C239.956 7.98 240.14 8.552 240.14 9.328V12.58C240.14 12.916 239.992 13.084 239.696 13.084C239.384 13.084 239.228 12.916 239.228 12.58V11.992C239.076 12.336 238.84 12.608 238.52 12.808C238.208 13.008 237.84 13.108 237.416 13.108ZM237.572 12.376C238.052 12.376 238.444 12.212 238.748 11.884C239.052 11.548 239.204 11.124 239.204 10.612V10.252H238.832C238.184 10.252 237.672 10.284 237.296 10.348C236.928 10.404 236.668 10.508 236.516 10.66C236.372 10.804 236.3 11.004 236.3 11.26C236.3 11.588 236.412 11.856 236.636 12.064C236.868 12.272 237.18 12.376 237.572 12.376ZM244.283 13.108C243.595 13.108 243.079 12.928 242.735 12.568C242.391 12.2 242.219 11.672 242.219 10.984V7.924H241.415C241.135 7.924 240.995 7.796 240.995 7.54C240.995 7.292 241.135 7.168 241.415 7.168H242.219V5.788C242.219 5.46 242.383 5.296 242.711 5.296C243.031 5.296 243.191 5.46 243.191 5.788V7.168H244.703C244.983 7.168 245.123 7.292 245.123 7.54C245.123 7.796 244.983 7.924 244.703 7.924H243.191V10.888C243.191 11.344 243.287 11.692 243.479 11.932C243.671 12.164 243.983 12.28 244.415 12.28C244.567 12.28 244.695 12.264 244.799 12.232C244.903 12.2 244.995 12.184 245.075 12.184C245.147 12.176 245.207 12.2 245.255 12.256C245.303 12.312 245.327 12.408 245.327 12.544C245.327 12.64 245.307 12.728 245.267 12.808C245.235 12.888 245.175 12.944 245.087 12.976C244.991 13.008 244.863 13.036 244.703 13.06C244.551 13.092 244.411 13.108 244.283 13.108ZM208.872 32C208.432 32 208.212 31.784 208.212 31.352C208.212 30.936 208.432 30.728 208.872 30.728H210.216V25.292L209.196 25.904C209.004 26.016 208.828 26.044 208.668 25.988C208.516 25.932 208.4 25.832 208.32 25.688C208.24 25.544 208.216 25.388 208.248 25.22C208.28 25.044 208.392 24.9 208.584 24.788L210.24 23.792C210.4 23.696 210.56 23.616 210.72 23.552C210.88 23.48 211.028 23.444 211.164 23.444C211.332 23.444 211.472 23.492 211.584 23.588C211.696 23.676 211.752 23.824 211.752 24.032V30.728H212.976C213.416 30.728 213.636 30.936 213.636 31.352C213.636 31.784 213.416 32 212.976 32H208.872ZM217.627 32.12C217.195 32.12 216.747 32.064 216.283 31.952C215.819 31.84 215.415 31.672 215.071 31.448C214.871 31.312 214.751 31.16 214.711 30.992C214.671 30.816 214.691 30.66 214.771 30.524C214.851 30.38 214.971 30.284 215.131 30.236C215.299 30.188 215.487 30.22 215.695 30.332C216.023 30.508 216.339 30.636 216.643 30.716C216.947 30.788 217.259 30.824 217.579 30.824C218.659 30.824 219.199 30.4 219.199 29.552C219.199 29.152 219.063 28.856 218.791 28.664C218.527 28.464 218.139 28.364 217.627 28.364H216.859C216.635 28.364 216.463 28.308 216.343 28.196C216.231 28.084 216.175 27.928 216.175 27.728C216.175 27.528 216.231 27.372 216.343 27.26C216.463 27.148 216.635 27.092 216.859 27.092H217.483C217.931 27.092 218.287 26.984 218.551 26.768C218.815 26.544 218.947 26.236 218.947 25.844C218.947 25.476 218.823 25.196 218.575 25.004C218.335 24.812 217.983 24.716 217.519 24.716C217.223 24.716 216.943 24.752 216.679 24.824C216.423 24.888 216.139 25.012 215.827 25.196C215.643 25.308 215.475 25.34 215.323 25.292C215.171 25.236 215.051 25.14 214.963 25.004C214.883 24.86 214.859 24.704 214.891 24.536C214.923 24.368 215.035 24.224 215.227 24.104C215.931 23.648 216.739 23.42 217.651 23.42C218.531 23.42 219.215 23.62 219.703 24.02C220.191 24.412 220.435 24.96 220.435 25.664C220.435 26.12 220.319 26.52 220.087 26.864C219.855 27.208 219.539 27.456 219.139 27.608C219.627 27.744 220.007 27.996 220.279 28.364C220.551 28.724 220.687 29.164 220.687 29.684C220.687 30.436 220.415 31.032 219.871 31.472C219.327 31.904 218.579 32.12 217.627 32.12ZM224.991 32.12C223.991 32.12 223.227 31.744 222.699 30.992C222.171 30.232 221.907 29.152 221.907 27.752C221.907 26.336 222.171 25.26 222.699 24.524C223.227 23.788 223.991 23.42 224.991 23.42C225.999 23.42 226.763 23.788 227.283 24.524C227.811 25.26 228.075 26.332 228.075 27.74C228.075 29.148 227.811 30.232 227.283 30.992C226.755 31.744 225.991 32.12 224.991 32.12ZM224.991 30.86C225.535 30.86 225.935 30.608 226.191 30.104C226.455 29.6 226.587 28.812 226.587 27.74C226.587 26.668 226.455 25.892 226.191 25.412C225.935 24.924 225.535 24.68 224.991 24.68C224.455 24.68 224.055 24.924 223.791 25.412C223.527 25.892 223.395 26.668 223.395 27.74C223.395 28.812 223.527 29.6 223.791 30.104C224.055 30.608 224.455 30.86 224.991 30.86ZM232.186 32.12C231.186 32.12 230.422 31.744 229.894 30.992C229.366 30.232 229.102 29.152 229.102 27.752C229.102 26.336 229.366 25.26 229.894 24.524C230.422 23.788 231.186 23.42 232.186 23.42C233.194 23.42 233.958 23.788 234.478 24.524C235.006 25.26 235.27 26.332 235.27 27.74C235.27 29.148 235.006 30.232 234.478 30.992C233.95 31.744 233.186 32.12 232.186 32.12ZM232.186 30.86C232.73 30.86 233.13 30.608 233.386 30.104C233.65 29.6 233.782 28.812 233.782 27.74C233.782 26.668 233.65 25.892 233.386 25.412C233.13 24.924 232.73 24.68 232.186 24.68C231.65 24.68 231.25 24.924 230.986 25.412C230.722 25.892 230.59 26.668 230.59 27.74C230.59 28.812 230.722 29.6 230.986 30.104C231.25 30.608 231.65 30.86 232.186 30.86ZM239.381 32.12C238.381 32.12 237.617 31.744 237.089 30.992C236.561 30.232 236.297 29.152 236.297 27.752C236.297 26.336 236.561 25.26 237.089 24.524C237.617 23.788 238.381 23.42 239.381 23.42C240.389 23.42 241.153 23.788 241.673 24.524C242.201 25.26 242.465 26.332 242.465 27.74C242.465 29.148 242.201 30.232 241.673 30.992C241.145 31.744 240.381 32.12 239.381 32.12ZM239.381 30.86C239.925 30.86 240.325 30.608 240.581 30.104C240.845 29.6 240.977 28.812 240.977 27.74C240.977 26.668 240.845 25.892 240.581 25.412C240.325 24.924 239.925 24.68 239.381 24.68C238.845 24.68 238.445 24.924 238.181 25.412C237.917 25.892 237.785 26.668 237.785 27.74C237.785 28.812 237.917 29.6 238.181 30.104C238.445 30.608 238.845 30.86 239.381 30.86Z" fill="black"/>
<rect x="182" y="7" width="15" height="15" fill="#D57C09"/>
<defs>
<filter id="filter0_d_74_1689" x="288.057" y="149.804" width="12" height="12" filterUnits="userSpaceOnUse" color-interpolation-filters="sRGB">
<feFlood flood-opacity="0" result="BackgroundImageFix"/>
<feColorMatrix in="SourceAlpha" type="matrix" values="0 0 0 0 0 0 0 0 0 0 0 0 0 0 0 0 0 0 127 0" result="hardAlpha"/>
<feOffset dy="1"/>
<feGaussianBlur stdDeviation="1"/>
<feColorMatrix type="matrix" values="0 0 0 0 0.0627451 0 0 0 0 0.117647 0 0 0 0 0.45098 0 0 0 0.2 0"/>
<feBlend mode="normal" in2="BackgroundImageFix" result="effect1_dropShadow_74_1689"/>
<feBlend mode="normal" in="SourceGraphic" in2="effect1_dropShadow_74_1689" result="shape"/>
</filter>
<filter id="filter1_d_74_1689" x="254.057" y="102.804" width="80" height="47.7754" filterUnits="userSpaceOnUse" color-interpolation-filters="sRGB">
<feFlood flood-opacity="0" result="BackgroundImageFix"/>
<feColorMatrix in="SourceAlpha" type="matrix" values="0 0 0 0 0 0 0 0 0 0 0 0 0 0 0 0 0 0 127 0" result="hardAlpha"/>
<feOffset/>
<feGaussianBlur stdDeviation="4"/>
<feColorMatrix type="matrix" values="0 0 0 0 0.0627451 0 0 0 0 0.117647 0 0 0 0 0.45098 0 0 0 0.12 0"/>
<feBlend mode="normal" in2="BackgroundImageFix" result="effect1_dropShadow_74_1689"/>
<feBlend mode="normal" in="SourceGraphic" in2="effect1_dropShadow_74_1689" result="shape"/>
</filter>
<linearGradient id="paint0_linear_74_1689" x1="291" y1="106" x2="291" y2="301.5" gradientUnits="userSpaceOnUse">
<stop stop-color="#336CFB" stop-opacity="0.2"/>
<stop offset="1" stop-color="#336CFB" stop-opacity="0.02"/>
</linearGradient>
</defs>
</svg>
