<svg width="36" height="36" viewBox="0 0 36 36" fill="none" xmlns="http://www.w3.org/2000/svg">
<path d="M18 36C27.9411 36 36 27.9411 36 18C36 8.05887 27.9411 0 18 0C8.05887 0 0 8.05887 0 18C0 27.9411 8.05887 36 18 36Z" fill="#FDC6C6"/>
<path d="M15.3281 12.2344H15.1875C15.2648 12.2344 15.3281 12.1711 15.3281 12.0938V12.2344H20.6719V12.0938C20.6719 12.1711 20.7352 12.2344 20.8125 12.2344H20.6719V13.5H21.9375V12.0938C21.9375 11.4732 21.433 10.9688 20.8125 10.9688H15.1875C14.567 10.9688 14.0625 11.4732 14.0625 12.0938V13.5H15.3281V12.2344ZM24.1875 13.5H11.8125C11.5014 13.5 11.25 13.7514 11.25 14.0625V14.625C11.25 14.7023 11.3133 14.7656 11.3906 14.7656H12.4523L12.8865 23.959C12.9146 24.5584 13.4104 25.0312 14.0098 25.0312H21.9902C22.5914 25.0312 23.0854 24.5602 23.1135 23.959L23.5477 14.7656H24.6094C24.6867 14.7656 24.75 14.7023 24.75 14.625V14.0625C24.75 13.7514 24.4986 13.5 24.1875 13.5ZM21.8549 23.7656H14.1451L13.7197 14.7656H22.2803L21.8549 23.7656Z" fill="#EA5455"/>
</svg>
