<svg width="21" height="21" viewBox="0 0 21 21" fill="none" xmlns="http://www.w3.org/2000/svg">
<path d="M7.875 14.875H10.5M3.5 3.5V17.5C3.5 17.9641 3.68437 18.4093 4.01256 18.7374C4.34075 19.0656 4.78587 19.25 5.25 19.25H15.75C16.2141 19.25 16.6592 19.0656 16.9874 18.7374C17.3156 18.4093 17.5 17.9641 17.5 17.5V7.29925C17.5 7.06612 17.4534 6.83534 17.3629 6.62047C17.2724 6.40559 17.14 6.21096 16.9732 6.048L13.0882 2.24875C12.7613 1.92908 12.3222 1.75006 11.865 1.75H5.25C4.78587 1.75 4.34075 1.93437 4.01256 2.26256C3.68437 2.59075 3.5 3.03587 3.5 3.5V3.5ZM7.875 11.375H13.125H7.875Z" stroke="#EA5455" stroke-width="2" stroke-linecap="round" stroke-linejoin="round"/>
<path d="M12.25 1.75V5.25C12.25 5.71413 12.4344 6.15925 12.7626 6.48744C13.0908 6.81563 13.5359 7 14 7H17.5" stroke="#EA5455" stroke-width="2" stroke-linejoin="round"/>
</svg>
