<svg width="26" height="24" viewBox="0 0 26 24" fill="none" xmlns="http://www.w3.org/2000/svg">
<path d="M17.3737 7.3125V6.1875C17.3737 6.08437 17.2853 6 17.1772 6H7.74357C7.63548 6 7.54704 6.08437 7.54704 6.1875V7.3125C7.54704 7.41563 7.63548 7.5 7.74357 7.5H17.1772C17.2853 7.5 17.3737 7.41563 17.3737 7.3125ZM7.74357 9.375C7.63548 9.375 7.54704 9.45937 7.54704 9.5625V10.6875C7.54704 10.7906 7.63548 10.875 7.74357 10.875H12.2638C12.3719 10.875 12.4604 10.7906 12.4604 10.6875V9.5625C12.4604 9.45937 12.3719 9.375 12.2638 9.375H7.74357ZM16.9807 12.0938C14.0498 12.0938 11.6742 14.3602 11.6742 17.1562C11.6742 19.9523 14.0498 22.2188 16.9807 22.2188C19.9115 22.2188 22.2871 19.9523 22.2871 17.1562C22.2871 14.3602 19.9115 12.0938 16.9807 12.0938ZM19.6216 19.6758C18.9165 20.3484 17.9781 20.7188 16.9807 20.7188C15.9832 20.7188 15.0448 20.3484 14.3397 19.6758C13.6347 19.0031 13.2465 18.1078 13.2465 17.1562C13.2465 16.2047 13.6347 15.3094 14.3397 14.6367C15.0448 13.9641 15.9832 13.5938 16.9807 13.5938C17.9781 13.5938 18.9165 13.9641 19.6216 14.6367C20.3266 15.3094 20.7148 16.2047 20.7148 17.1562C20.7148 18.1078 20.3266 19.0031 19.6216 19.6758ZM19.1671 15.375H18.0788C18.0149 15.375 17.956 15.4031 17.9191 15.4523L16.3591 17.5102L15.7916 16.7625C15.7734 16.7383 15.7495 16.7187 15.7217 16.7053C15.6939 16.6918 15.6631 16.6849 15.6319 16.6852H14.5486C14.3889 16.6852 14.2955 16.8586 14.3889 16.9828L16.2019 19.3758C16.2805 19.4789 16.4402 19.4789 16.5188 19.3758L19.3243 15.6727C19.4201 15.5484 19.3268 15.375 19.1671 15.375ZM11.2812 19.9688H5.5817V3.46875H19.3391V11.5312C19.3391 11.6344 19.4275 11.7188 19.5356 11.7188H20.9113C21.0194 11.7188 21.1079 11.6344 21.1079 11.5312V2.53125C21.1079 2.11641 20.7566 1.78125 20.3217 1.78125H4.59903C4.1642 1.78125 3.8129 2.11641 3.8129 2.53125V20.9062C3.8129 21.3211 4.1642 21.6562 4.59903 21.6562H11.2812C11.3893 21.6562 11.4777 21.5719 11.4777 21.4688V20.1562C11.4777 20.0531 11.3893 19.9688 11.2812 19.9688Z" fill="#888585"/>
</svg>
