<svg width="21" height="27" viewBox="0 0 21 27" fill="none" xmlns="http://www.w3.org/2000/svg">
<path d="M16.581 12.6111C16.7123 12.4814 16.7849 12.3077 16.7833 12.1275C16.7816 11.9472 16.7058 11.7748 16.5722 11.6473C16.4386 11.5198 16.2579 11.4475 16.0689 11.446C15.88 11.4444 15.698 11.5137 15.5621 11.6389L10.3065 16.6529L7.93353 14.3889C7.79762 14.2637 7.61559 14.1944 7.42664 14.196C7.2377 14.1975 7.05696 14.2699 6.92335 14.3973C6.78974 14.5248 6.71395 14.6972 6.71231 14.8775C6.71067 15.0577 6.7833 15.2314 6.91457 15.3611L10.3065 18.5971L16.581 12.6111Z" fill="white"/>
<path fill-rule="evenodd" clip-rule="evenodd" d="M20.3953 7.3125V21.75C20.3953 22.297 20.1675 22.8216 19.7621 23.2084C19.3567 23.5952 18.8068 23.8125 18.2334 23.8125H5.26218C4.68882 23.8125 4.13894 23.5952 3.73351 23.2084C3.32808 22.8216 3.10031 22.297 3.10031 21.75V2.5C3.10031 1.95299 3.32808 1.42839 3.73351 1.04159C4.13894 0.654799 4.68882 0.4375 5.26218 0.4375H13.1891L20.3953 7.3125ZM13.1891 8C12.9979 8 12.8146 7.92757 12.6795 7.79864C12.5444 7.66971 12.4684 7.49484 12.4684 7.3125V1.8125H5.26218C5.07106 1.8125 4.88777 1.88493 4.75263 2.01386C4.61748 2.1428 4.54156 2.31766 4.54156 2.5V21.75C4.54156 21.9323 4.61748 22.1072 4.75263 22.2361C4.88777 22.3651 5.07106 22.4375 5.26218 22.4375H18.2334C18.4245 22.4375 18.6078 22.3651 18.743 22.2361C18.8781 22.1072 18.954 21.9323 18.954 21.75V8H13.1891ZM13.9097 3.06925L17.6367 6.625H13.9097V3.06925Z" fill="white"/>
<path d="M1.65905 4.5625V23.125C1.65905 23.672 1.88682 24.1966 2.29225 24.5834C2.69768 24.9702 3.24756 25.1875 3.82092 25.1875H17.5128V26.5625H3.82092C2.86532 26.5625 1.94885 26.2003 1.27313 25.5557C0.597417 24.911 0.217804 24.0367 0.217804 23.125V4.5625H1.65905Z" fill="white"/>
</svg>
