<svg width="1320" height="421" viewBox="0 0 1320 421" fill="none" xmlns="http://www.w3.org/2000/svg">
<path d="M29.3227 82.69C29.656 82.69 29.956 82.7383 30.2227 82.835C30.4927 82.9283 30.7227 83.06 30.9127 83.23C31.1027 83.3967 31.2477 83.5933 31.3477 83.82C31.451 84.0467 31.5027 84.2917 31.5027 84.555C31.5027 84.785 31.476 84.9883 31.4227 85.165C31.3727 85.3383 31.2977 85.49 31.1977 85.62C31.101 85.75 30.981 85.86 30.8377 85.95C30.6977 86.04 30.5377 86.115 30.3577 86.175C30.791 86.3117 31.1143 86.52 31.3277 86.8C31.541 87.08 31.6477 87.4317 31.6477 87.855C31.6477 88.215 31.581 88.5333 31.4477 88.81C31.3143 89.0867 31.1343 89.32 30.9077 89.51C30.681 89.6967 30.4177 89.8383 30.1177 89.935C29.821 90.0317 29.506 90.08 29.1727 90.08C28.8093 90.08 28.4927 90.0383 28.2227 89.955C27.9527 89.8717 27.7177 89.7483 27.5177 89.585C27.3177 89.4217 27.1477 89.2217 27.0077 88.985C26.8677 88.7483 26.7477 88.475 26.6477 88.165L27.1927 87.94C27.286 87.9 27.381 87.88 27.4777 87.88C27.5643 87.88 27.641 87.8983 27.7077 87.935C27.7777 87.9717 27.831 88.025 27.8677 88.095C27.9277 88.2117 27.9927 88.3267 28.0627 88.44C28.136 88.5533 28.2227 88.655 28.3227 88.745C28.4227 88.8317 28.5393 88.9033 28.6727 88.96C28.8093 89.0133 28.971 89.04 29.1577 89.04C29.3677 89.04 29.551 89.0067 29.7077 88.94C29.8643 88.87 29.9943 88.78 30.0977 88.67C30.2043 88.56 30.2827 88.4383 30.3327 88.305C30.386 88.1683 30.4127 88.0317 30.4127 87.895C30.4127 87.7217 30.3943 87.565 30.3577 87.425C30.321 87.2817 30.2443 87.16 30.1277 87.06C30.011 86.96 29.8427 86.8817 29.6227 86.825C29.406 86.7683 29.1143 86.74 28.7477 86.74V85.86C29.051 85.8567 29.3027 85.8283 29.5027 85.775C29.7027 85.7217 29.861 85.6483 29.9777 85.555C30.0977 85.4583 30.181 85.3433 30.2277 85.21C30.2743 85.0767 30.2977 84.93 30.2977 84.77C30.2977 84.4267 30.2043 84.1683 30.0177 83.995C29.831 83.8183 29.576 83.73 29.2527 83.73C28.9593 83.73 28.716 83.8083 28.5227 83.965C28.3293 84.1183 28.1943 84.3167 28.1177 84.56C28.0777 84.6867 28.0227 84.7783 27.9527 84.835C27.8827 84.8883 27.791 84.915 27.6777 84.915C27.6243 84.915 27.5677 84.91 27.5077 84.9L26.8577 84.785C26.9077 84.4383 27.0043 84.135 27.1477 83.875C27.291 83.6117 27.4693 83.3933 27.6827 83.22C27.8993 83.0433 28.146 82.9117 28.4227 82.825C28.7027 82.735 29.0027 82.69 29.3227 82.69ZM37.7484 86.385C37.7484 87.015 37.6801 87.5633 37.5434 88.03C37.4101 88.4933 37.2234 88.8767 36.9834 89.18C36.7468 89.4833 36.4651 89.71 36.1384 89.86C35.8151 90.0067 35.4651 90.08 35.0884 90.08C34.7118 90.08 34.3618 90.0067 34.0384 89.86C33.7184 89.71 33.4401 89.4833 33.2034 89.18C32.9668 88.8767 32.7818 88.4933 32.6484 88.03C32.5151 87.5633 32.4484 87.015 32.4484 86.385C32.4484 85.7517 32.5151 85.2033 32.6484 84.74C32.7818 84.2767 32.9668 83.8933 33.2034 83.59C33.4401 83.2867 33.7184 83.0617 34.0384 82.915C34.3618 82.765 34.7118 82.69 35.0884 82.69C35.4651 82.69 35.8151 82.765 36.1384 82.915C36.4651 83.0617 36.7468 83.2867 36.9834 83.59C37.2234 83.8933 37.4101 84.2767 37.5434 84.74C37.6801 85.2033 37.7484 85.7517 37.7484 86.385ZM36.4734 86.385C36.4734 85.8617 36.4351 85.4283 36.3584 85.085C36.2818 84.7417 36.1784 84.4683 36.0484 84.265C35.9218 84.0617 35.7751 83.92 35.6084 83.84C35.4418 83.7567 35.2684 83.715 35.0884 83.715C34.9118 83.715 34.7401 83.7567 34.5734 83.84C34.4101 83.92 34.2651 84.0617 34.1384 84.265C34.0118 84.4683 33.9101 84.7417 33.8334 85.085C33.7601 85.4283 33.7234 85.8617 33.7234 86.385C33.7234 86.9083 33.7601 87.3417 33.8334 87.685C33.9101 88.0283 34.0118 88.3017 34.1384 88.505C34.2651 88.7083 34.4101 88.8517 34.5734 88.935C34.7401 89.015 34.9118 89.055 35.0884 89.055C35.2684 89.055 35.4418 89.015 35.6084 88.935C35.7751 88.8517 35.9218 88.7083 36.0484 88.505C36.1784 88.3017 36.2818 88.0283 36.3584 87.685C36.4351 87.3417 36.4734 86.9083 36.4734 86.385ZM43.7492 86.385C43.7492 87.015 43.6809 87.5633 43.5442 88.03C43.4109 88.4933 43.2242 88.8767 42.9842 89.18C42.7476 89.4833 42.4659 89.71 42.1392 89.86C41.8159 90.0067 41.4659 90.08 41.0892 90.08C40.7126 90.08 40.3626 90.0067 40.0392 89.86C39.7192 89.71 39.4409 89.4833 39.2042 89.18C38.9676 88.8767 38.7826 88.4933 38.6492 88.03C38.5159 87.5633 38.4492 87.015 38.4492 86.385C38.4492 85.7517 38.5159 85.2033 38.6492 84.74C38.7826 84.2767 38.9676 83.8933 39.2042 83.59C39.4409 83.2867 39.7192 83.0617 40.0392 82.915C40.3626 82.765 40.7126 82.69 41.0892 82.69C41.4659 82.69 41.8159 82.765 42.1392 82.915C42.4659 83.0617 42.7476 83.2867 42.9842 83.59C43.2242 83.8933 43.4109 84.2767 43.5442 84.74C43.6809 85.2033 43.7492 85.7517 43.7492 86.385ZM42.4742 86.385C42.4742 85.8617 42.4359 85.4283 42.3592 85.085C42.2826 84.7417 42.1792 84.4683 42.0492 84.265C41.9226 84.0617 41.7759 83.92 41.6092 83.84C41.4426 83.7567 41.2692 83.715 41.0892 83.715C40.9126 83.715 40.7409 83.7567 40.5742 83.84C40.4109 83.92 40.2659 84.0617 40.1392 84.265C40.0126 84.4683 39.9109 84.7417 39.8342 85.085C39.7609 85.4283 39.7242 85.8617 39.7242 86.385C39.7242 86.9083 39.7609 87.3417 39.8342 87.685C39.9109 88.0283 40.0126 88.3017 40.1392 88.505C40.2659 88.7083 40.4109 88.8517 40.5742 88.935C40.7409 89.015 40.9126 89.055 41.0892 89.055C41.2692 89.055 41.4426 89.015 41.6092 88.935C41.7759 88.8517 41.9226 88.7083 42.0492 88.505C42.1792 88.3017 42.2826 88.0283 42.3592 87.685C42.4359 87.3417 42.4742 86.9083 42.4742 86.385Z" fill="#CACCCF"/>
<path d="M29.2077 122.69C29.541 122.69 29.846 122.74 30.1227 122.84C30.3993 122.937 30.636 123.075 30.8327 123.255C31.0293 123.435 31.1827 123.652 31.2927 123.905C31.4027 124.158 31.4577 124.44 31.4577 124.75C31.4577 125.017 31.4177 125.263 31.3377 125.49C31.261 125.717 31.156 125.933 31.0227 126.14C30.8927 126.347 30.7393 126.547 30.5627 126.74C30.386 126.933 30.201 127.13 30.0077 127.33L28.3777 128.995C28.5377 128.948 28.6943 128.913 28.8477 128.89C29.001 128.863 29.1477 128.85 29.2877 128.85H31.1427C31.276 128.85 31.381 128.888 31.4577 128.965C31.5377 129.038 31.5777 129.137 31.5777 129.26V130H26.6177V129.59C26.6177 129.507 26.6343 129.42 26.6677 129.33C26.7043 129.24 26.761 129.157 26.8377 129.08L29.0327 126.88C29.216 126.693 29.3793 126.515 29.5227 126.345C29.6693 126.175 29.791 126.007 29.8877 125.84C29.9877 125.673 30.0627 125.505 30.1127 125.335C30.166 125.162 30.1927 124.98 30.1927 124.79C30.1927 124.617 30.1677 124.465 30.1177 124.335C30.0677 124.202 29.996 124.09 29.9027 124C29.8093 123.91 29.6977 123.843 29.5677 123.8C29.441 123.753 29.2977 123.73 29.1377 123.73C28.841 123.73 28.596 123.805 28.4027 123.955C28.2127 124.105 28.0793 124.307 28.0027 124.56C27.966 124.687 27.911 124.778 27.8377 124.835C27.7643 124.888 27.671 124.915 27.5577 124.915C27.5077 124.915 27.4527 124.91 27.3927 124.9L26.7427 124.785C26.7927 124.438 26.8893 124.135 27.0327 123.875C27.176 123.612 27.3543 123.393 27.5677 123.22C27.7843 123.043 28.031 122.912 28.3077 122.825C28.5877 122.735 28.8877 122.69 29.2077 122.69ZM37.1434 123.295C37.1434 123.472 37.0868 123.615 36.9734 123.725C36.8634 123.835 36.6784 123.89 36.4184 123.89H34.4284L34.1684 125.4C34.4951 125.333 34.7934 125.3 35.0634 125.3C35.4434 125.3 35.7768 125.357 36.0634 125.47C36.3534 125.583 36.5968 125.74 36.7934 125.94C36.9901 126.14 37.1384 126.375 37.2384 126.645C37.3384 126.912 37.3884 127.2 37.3884 127.51C37.3884 127.893 37.3201 128.243 37.1834 128.56C37.0501 128.877 36.8634 129.148 36.6234 129.375C36.3834 129.598 36.0984 129.772 35.7684 129.895C35.4418 130.018 35.0851 130.08 34.6984 130.08C34.4718 130.08 34.2568 130.057 34.0534 130.01C33.8501 129.963 33.6584 129.902 33.4784 129.825C33.3018 129.745 33.1368 129.655 32.9834 129.555C32.8334 129.452 32.6984 129.343 32.5784 129.23L32.9584 128.705C33.0384 128.592 33.1451 128.535 33.2784 128.535C33.3618 128.535 33.4451 128.562 33.5284 128.615C33.6151 128.668 33.7151 128.727 33.8284 128.79C33.9418 128.853 34.0734 128.912 34.2234 128.965C34.3734 129.018 34.5551 129.045 34.7684 129.045C34.9951 129.045 35.1951 129.008 35.3684 128.935C35.5418 128.862 35.6851 128.76 35.7984 128.63C35.9151 128.497 36.0018 128.34 36.0584 128.16C36.1184 127.977 36.1484 127.778 36.1484 127.565C36.1484 127.172 36.0334 126.865 35.8034 126.645C35.5768 126.422 35.2418 126.31 34.7984 126.31C34.4484 126.31 34.0968 126.373 33.7434 126.5L32.9734 126.28L33.5734 122.77H37.1434V123.295ZM43.7492 126.385C43.7492 127.015 43.6809 127.563 43.5442 128.03C43.4109 128.493 43.2242 128.877 42.9842 129.18C42.7476 129.483 42.4659 129.71 42.1392 129.86C41.8159 130.007 41.4659 130.08 41.0892 130.08C40.7126 130.08 40.3626 130.007 40.0392 129.86C39.7192 129.71 39.4409 129.483 39.2042 129.18C38.9676 128.877 38.7826 128.493 38.6492 128.03C38.5159 127.563 38.4492 127.015 38.4492 126.385C38.4492 125.752 38.5159 125.203 38.6492 124.74C38.7826 124.277 38.9676 123.893 39.2042 123.59C39.4409 123.287 39.7192 123.062 40.0392 122.915C40.3626 122.765 40.7126 122.69 41.0892 122.69C41.4659 122.69 41.8159 122.765 42.1392 122.915C42.4659 123.062 42.7476 123.287 42.9842 123.59C43.2242 123.893 43.4109 124.277 43.5442 124.74C43.6809 125.203 43.7492 125.752 43.7492 126.385ZM42.4742 126.385C42.4742 125.862 42.4359 125.428 42.3592 125.085C42.2826 124.742 42.1792 124.468 42.0492 124.265C41.9226 124.062 41.7759 123.92 41.6092 123.84C41.4426 123.757 41.2692 123.715 41.0892 123.715C40.9126 123.715 40.7409 123.757 40.5742 123.84C40.4109 123.92 40.2659 124.062 40.1392 124.265C40.0126 124.468 39.9109 124.742 39.8342 125.085C39.7609 125.428 39.7242 125.862 39.7242 126.385C39.7242 126.908 39.7609 127.342 39.8342 127.685C39.9109 128.028 40.0126 128.302 40.1392 128.505C40.2659 128.708 40.4109 128.852 40.5742 128.935C40.7409 129.015 40.9126 129.055 41.0892 129.055C41.2692 129.055 41.4426 129.015 41.6092 128.935C41.7759 128.852 41.9226 128.708 42.0492 128.505C42.1792 128.302 42.2826 128.028 42.3592 127.685C42.4359 127.342 42.4742 126.908 42.4742 126.385Z" fill="#CACCCF"/>
<path d="M29.2077 162.69C29.541 162.69 29.846 162.74 30.1227 162.84C30.3993 162.937 30.636 163.075 30.8327 163.255C31.0293 163.435 31.1827 163.652 31.2927 163.905C31.4027 164.158 31.4577 164.44 31.4577 164.75C31.4577 165.017 31.4177 165.263 31.3377 165.49C31.261 165.717 31.156 165.933 31.0227 166.14C30.8927 166.347 30.7393 166.547 30.5627 166.74C30.386 166.933 30.201 167.13 30.0077 167.33L28.3777 168.995C28.5377 168.948 28.6943 168.913 28.8477 168.89C29.001 168.863 29.1477 168.85 29.2877 168.85H31.1427C31.276 168.85 31.381 168.888 31.4577 168.965C31.5377 169.038 31.5777 169.137 31.5777 169.26V170H26.6177V169.59C26.6177 169.507 26.6343 169.42 26.6677 169.33C26.7043 169.24 26.761 169.157 26.8377 169.08L29.0327 166.88C29.216 166.693 29.3793 166.515 29.5227 166.345C29.6693 166.175 29.791 166.007 29.8877 165.84C29.9877 165.673 30.0627 165.505 30.1127 165.335C30.166 165.162 30.1927 164.98 30.1927 164.79C30.1927 164.617 30.1677 164.465 30.1177 164.335C30.0677 164.202 29.996 164.09 29.9027 164C29.8093 163.91 29.6977 163.843 29.5677 163.8C29.441 163.753 29.2977 163.73 29.1377 163.73C28.841 163.73 28.596 163.805 28.4027 163.955C28.2127 164.105 28.0793 164.307 28.0027 164.56C27.966 164.687 27.911 164.778 27.8377 164.835C27.7643 164.888 27.671 164.915 27.5577 164.915C27.5077 164.915 27.4527 164.91 27.3927 164.9L26.7427 164.785C26.7927 164.438 26.8893 164.135 27.0327 163.875C27.176 163.612 27.3543 163.393 27.5677 163.22C27.7843 163.043 28.031 162.912 28.3077 162.825C28.5877 162.735 28.8877 162.69 29.2077 162.69ZM37.7484 166.385C37.7484 167.015 37.6801 167.563 37.5434 168.03C37.4101 168.493 37.2234 168.877 36.9834 169.18C36.7468 169.483 36.4651 169.71 36.1384 169.86C35.8151 170.007 35.4651 170.08 35.0884 170.08C34.7118 170.08 34.3618 170.007 34.0384 169.86C33.7184 169.71 33.4401 169.483 33.2034 169.18C32.9668 168.877 32.7818 168.493 32.6484 168.03C32.5151 167.563 32.4484 167.015 32.4484 166.385C32.4484 165.752 32.5151 165.203 32.6484 164.74C32.7818 164.277 32.9668 163.893 33.2034 163.59C33.4401 163.287 33.7184 163.062 34.0384 162.915C34.3618 162.765 34.7118 162.69 35.0884 162.69C35.4651 162.69 35.8151 162.765 36.1384 162.915C36.4651 163.062 36.7468 163.287 36.9834 163.59C37.2234 163.893 37.4101 164.277 37.5434 164.74C37.6801 165.203 37.7484 165.752 37.7484 166.385ZM36.4734 166.385C36.4734 165.862 36.4351 165.428 36.3584 165.085C36.2818 164.742 36.1784 164.468 36.0484 164.265C35.9218 164.062 35.7751 163.92 35.6084 163.84C35.4418 163.757 35.2684 163.715 35.0884 163.715C34.9118 163.715 34.7401 163.757 34.5734 163.84C34.4101 163.92 34.2651 164.062 34.1384 164.265C34.0118 164.468 33.9101 164.742 33.8334 165.085C33.7601 165.428 33.7234 165.862 33.7234 166.385C33.7234 166.908 33.7601 167.342 33.8334 167.685C33.9101 168.028 34.0118 168.302 34.1384 168.505C34.2651 168.708 34.4101 168.852 34.5734 168.935C34.7401 169.015 34.9118 169.055 35.0884 169.055C35.2684 169.055 35.4418 169.015 35.6084 168.935C35.7751 168.852 35.9218 168.708 36.0484 168.505C36.1784 168.302 36.2818 168.028 36.3584 167.685C36.4351 167.342 36.4734 166.908 36.4734 166.385ZM43.7492 166.385C43.7492 167.015 43.6809 167.563 43.5442 168.03C43.4109 168.493 43.2242 168.877 42.9842 169.18C42.7476 169.483 42.4659 169.71 42.1392 169.86C41.8159 170.007 41.4659 170.08 41.0892 170.08C40.7126 170.08 40.3626 170.007 40.0392 169.86C39.7192 169.71 39.4409 169.483 39.2042 169.18C38.9676 168.877 38.7826 168.493 38.6492 168.03C38.5159 167.563 38.4492 167.015 38.4492 166.385C38.4492 165.752 38.5159 165.203 38.6492 164.74C38.7826 164.277 38.9676 163.893 39.2042 163.59C39.4409 163.287 39.7192 163.062 40.0392 162.915C40.3626 162.765 40.7126 162.69 41.0892 162.69C41.4659 162.69 41.8159 162.765 42.1392 162.915C42.4659 163.062 42.7476 163.287 42.9842 163.59C43.2242 163.893 43.4109 164.277 43.5442 164.74C43.6809 165.203 43.7492 165.752 43.7492 166.385ZM42.4742 166.385C42.4742 165.862 42.4359 165.428 42.3592 165.085C42.2826 164.742 42.1792 164.468 42.0492 164.265C41.9226 164.062 41.7759 163.92 41.6092 163.84C41.4426 163.757 41.2692 163.715 41.0892 163.715C40.9126 163.715 40.7409 163.757 40.5742 163.84C40.4109 163.92 40.2659 164.062 40.1392 164.265C40.0126 164.468 39.9109 164.742 39.8342 165.085C39.7609 165.428 39.7242 165.862 39.7242 166.385C39.7242 166.908 39.7609 167.342 39.8342 167.685C39.9109 168.028 40.0126 168.302 40.1392 168.505C40.2659 168.708 40.4109 168.852 40.5742 168.935C40.7409 169.015 40.9126 169.055 41.0892 169.055C41.2692 169.055 41.4426 169.015 41.6092 168.935C41.7759 168.852 41.9226 168.708 42.0492 168.505C42.1792 168.302 42.2826 168.028 42.3592 167.685C42.4359 167.342 42.4742 166.908 42.4742 166.385Z" fill="#CACCCF"/>
<path d="M27.5427 209.075H29.0077V204.86C29.0077 204.697 29.0127 204.525 29.0227 204.345L27.9827 205.215C27.9393 205.252 27.8943 205.277 27.8477 205.29C27.8043 205.303 27.761 205.31 27.7177 205.31C27.651 205.31 27.5893 205.297 27.5327 205.27C27.4793 205.24 27.4393 205.207 27.4127 205.17L27.0227 204.635L29.2277 202.76H30.2427V209.075H31.5427V210H27.5427V209.075ZM37.1434 203.295C37.1434 203.472 37.0868 203.615 36.9734 203.725C36.8634 203.835 36.6784 203.89 36.4184 203.89H34.4284L34.1684 205.4C34.4951 205.333 34.7934 205.3 35.0634 205.3C35.4434 205.3 35.7768 205.357 36.0634 205.47C36.3534 205.583 36.5968 205.74 36.7934 205.94C36.9901 206.14 37.1384 206.375 37.2384 206.645C37.3384 206.912 37.3884 207.2 37.3884 207.51C37.3884 207.893 37.3201 208.243 37.1834 208.56C37.0501 208.877 36.8634 209.148 36.6234 209.375C36.3834 209.598 36.0984 209.772 35.7684 209.895C35.4418 210.018 35.0851 210.08 34.6984 210.08C34.4718 210.08 34.2568 210.057 34.0534 210.01C33.8501 209.963 33.6584 209.902 33.4784 209.825C33.3018 209.745 33.1368 209.655 32.9834 209.555C32.8334 209.452 32.6984 209.343 32.5784 209.23L32.9584 208.705C33.0384 208.592 33.1451 208.535 33.2784 208.535C33.3618 208.535 33.4451 208.562 33.5284 208.615C33.6151 208.668 33.7151 208.727 33.8284 208.79C33.9418 208.853 34.0734 208.912 34.2234 208.965C34.3734 209.018 34.5551 209.045 34.7684 209.045C34.9951 209.045 35.1951 209.008 35.3684 208.935C35.5418 208.862 35.6851 208.76 35.7984 208.63C35.9151 208.497 36.0018 208.34 36.0584 208.16C36.1184 207.977 36.1484 207.778 36.1484 207.565C36.1484 207.172 36.0334 206.865 35.8034 206.645C35.5768 206.422 35.2418 206.31 34.7984 206.31C34.4484 206.31 34.0968 206.373 33.7434 206.5L32.9734 206.28L33.5734 202.77H37.1434V203.295ZM43.7492 206.385C43.7492 207.015 43.6809 207.563 43.5442 208.03C43.4109 208.493 43.2242 208.877 42.9842 209.18C42.7476 209.483 42.4659 209.71 42.1392 209.86C41.8159 210.007 41.4659 210.08 41.0892 210.08C40.7126 210.08 40.3626 210.007 40.0392 209.86C39.7192 209.71 39.4409 209.483 39.2042 209.18C38.9676 208.877 38.7826 208.493 38.6492 208.03C38.5159 207.563 38.4492 207.015 38.4492 206.385C38.4492 205.752 38.5159 205.203 38.6492 204.74C38.7826 204.277 38.9676 203.893 39.2042 203.59C39.4409 203.287 39.7192 203.062 40.0392 202.915C40.3626 202.765 40.7126 202.69 41.0892 202.69C41.4659 202.69 41.8159 202.765 42.1392 202.915C42.4659 203.062 42.7476 203.287 42.9842 203.59C43.2242 203.893 43.4109 204.277 43.5442 204.74C43.6809 205.203 43.7492 205.752 43.7492 206.385ZM42.4742 206.385C42.4742 205.862 42.4359 205.428 42.3592 205.085C42.2826 204.742 42.1792 204.468 42.0492 204.265C41.9226 204.062 41.7759 203.92 41.6092 203.84C41.4426 203.757 41.2692 203.715 41.0892 203.715C40.9126 203.715 40.7409 203.757 40.5742 203.84C40.4109 203.92 40.2659 204.062 40.1392 204.265C40.0126 204.468 39.9109 204.742 39.8342 205.085C39.7609 205.428 39.7242 205.862 39.7242 206.385C39.7242 206.908 39.7609 207.342 39.8342 207.685C39.9109 208.028 40.0126 208.302 40.1392 208.505C40.2659 208.708 40.4109 208.852 40.5742 208.935C40.7409 209.015 40.9126 209.055 41.0892 209.055C41.2692 209.055 41.4426 209.015 41.6092 208.935C41.7759 208.852 41.9226 208.708 42.0492 208.505C42.1792 208.302 42.2826 208.028 42.3592 207.685C42.4359 207.342 42.4742 206.908 42.4742 206.385Z" fill="#CACCCF"/>
<path d="M27.5427 249.075H29.0077V244.86C29.0077 244.697 29.0127 244.525 29.0227 244.345L27.9827 245.215C27.9393 245.252 27.8943 245.277 27.8477 245.29C27.8043 245.303 27.761 245.31 27.7177 245.31C27.651 245.31 27.5893 245.297 27.5327 245.27C27.4793 245.24 27.4393 245.207 27.4127 245.17L27.0227 244.635L29.2277 242.76H30.2427V249.075H31.5427V250H27.5427V249.075ZM37.7484 246.385C37.7484 247.015 37.6801 247.563 37.5434 248.03C37.4101 248.493 37.2234 248.877 36.9834 249.18C36.7468 249.483 36.4651 249.71 36.1384 249.86C35.8151 250.007 35.4651 250.08 35.0884 250.08C34.7118 250.08 34.3618 250.007 34.0384 249.86C33.7184 249.71 33.4401 249.483 33.2034 249.18C32.9668 248.877 32.7818 248.493 32.6484 248.03C32.5151 247.563 32.4484 247.015 32.4484 246.385C32.4484 245.752 32.5151 245.203 32.6484 244.74C32.7818 244.277 32.9668 243.893 33.2034 243.59C33.4401 243.287 33.7184 243.062 34.0384 242.915C34.3618 242.765 34.7118 242.69 35.0884 242.69C35.4651 242.69 35.8151 242.765 36.1384 242.915C36.4651 243.062 36.7468 243.287 36.9834 243.59C37.2234 243.893 37.4101 244.277 37.5434 244.74C37.6801 245.203 37.7484 245.752 37.7484 246.385ZM36.4734 246.385C36.4734 245.862 36.4351 245.428 36.3584 245.085C36.2818 244.742 36.1784 244.468 36.0484 244.265C35.9218 244.062 35.7751 243.92 35.6084 243.84C35.4418 243.757 35.2684 243.715 35.0884 243.715C34.9118 243.715 34.7401 243.757 34.5734 243.84C34.4101 243.92 34.2651 244.062 34.1384 244.265C34.0118 244.468 33.9101 244.742 33.8334 245.085C33.7601 245.428 33.7234 245.862 33.7234 246.385C33.7234 246.908 33.7601 247.342 33.8334 247.685C33.9101 248.028 34.0118 248.302 34.1384 248.505C34.2651 248.708 34.4101 248.852 34.5734 248.935C34.7401 249.015 34.9118 249.055 35.0884 249.055C35.2684 249.055 35.4418 249.015 35.6084 248.935C35.7751 248.852 35.9218 248.708 36.0484 248.505C36.1784 248.302 36.2818 248.028 36.3584 247.685C36.4351 247.342 36.4734 246.908 36.4734 246.385ZM43.7492 246.385C43.7492 247.015 43.6809 247.563 43.5442 248.03C43.4109 248.493 43.2242 248.877 42.9842 249.18C42.7476 249.483 42.4659 249.71 42.1392 249.86C41.8159 250.007 41.4659 250.08 41.0892 250.08C40.7126 250.08 40.3626 250.007 40.0392 249.86C39.7192 249.71 39.4409 249.483 39.2042 249.18C38.9676 248.877 38.7826 248.493 38.6492 248.03C38.5159 247.563 38.4492 247.015 38.4492 246.385C38.4492 245.752 38.5159 245.203 38.6492 244.74C38.7826 244.277 38.9676 243.893 39.2042 243.59C39.4409 243.287 39.7192 243.062 40.0392 242.915C40.3626 242.765 40.7126 242.69 41.0892 242.69C41.4659 242.69 41.8159 242.765 42.1392 242.915C42.4659 243.062 42.7476 243.287 42.9842 243.59C43.2242 243.893 43.4109 244.277 43.5442 244.74C43.6809 245.203 43.7492 245.752 43.7492 246.385ZM42.4742 246.385C42.4742 245.862 42.4359 245.428 42.3592 245.085C42.2826 244.742 42.1792 244.468 42.0492 244.265C41.9226 244.062 41.7759 243.92 41.6092 243.84C41.4426 243.757 41.2692 243.715 41.0892 243.715C40.9126 243.715 40.7409 243.757 40.5742 243.84C40.4109 243.92 40.2659 244.062 40.1392 244.265C40.0126 244.468 39.9109 244.742 39.8342 245.085C39.7609 245.428 39.7242 245.862 39.7242 246.385C39.7242 246.908 39.7609 247.342 39.8342 247.685C39.9109 248.028 40.0126 248.302 40.1392 248.505C40.2659 248.708 40.4109 248.852 40.5742 248.935C40.7409 249.015 40.9126 249.055 41.0892 249.055C41.2692 249.055 41.4426 249.015 41.6092 248.935C41.7759 248.852 41.9226 248.708 42.0492 248.505C42.1792 248.302 42.2826 248.028 42.3592 247.685C42.4359 247.342 42.4742 246.908 42.4742 246.385Z" fill="#CACCCF"/>
<path d="M37.1434 283.295C37.1434 283.472 37.0868 283.615 36.9734 283.725C36.8634 283.835 36.6784 283.89 36.4184 283.89H34.4284L34.1684 285.4C34.4951 285.333 34.7934 285.3 35.0634 285.3C35.4434 285.3 35.7768 285.357 36.0634 285.47C36.3534 285.583 36.5968 285.74 36.7934 285.94C36.9901 286.14 37.1384 286.375 37.2384 286.645C37.3384 286.912 37.3884 287.2 37.3884 287.51C37.3884 287.893 37.3201 288.243 37.1834 288.56C37.0501 288.877 36.8634 289.148 36.6234 289.375C36.3834 289.598 36.0984 289.772 35.7684 289.895C35.4418 290.018 35.0851 290.08 34.6984 290.08C34.4718 290.08 34.2568 290.057 34.0534 290.01C33.8501 289.963 33.6584 289.902 33.4784 289.825C33.3018 289.745 33.1368 289.655 32.9834 289.555C32.8334 289.452 32.6984 289.343 32.5784 289.23L32.9584 288.705C33.0384 288.592 33.1451 288.535 33.2784 288.535C33.3618 288.535 33.4451 288.562 33.5284 288.615C33.6151 288.668 33.7151 288.727 33.8284 288.79C33.9418 288.853 34.0734 288.912 34.2234 288.965C34.3734 289.018 34.5551 289.045 34.7684 289.045C34.9951 289.045 35.1951 289.008 35.3684 288.935C35.5418 288.862 35.6851 288.76 35.7984 288.63C35.9151 288.497 36.0018 288.34 36.0584 288.16C36.1184 287.977 36.1484 287.778 36.1484 287.565C36.1484 287.172 36.0334 286.865 35.8034 286.645C35.5768 286.422 35.2418 286.31 34.7984 286.31C34.4484 286.31 34.0968 286.373 33.7434 286.5L32.9734 286.28L33.5734 282.77H37.1434V283.295ZM43.7492 286.385C43.7492 287.015 43.6809 287.563 43.5442 288.03C43.4109 288.493 43.2242 288.877 42.9842 289.18C42.7476 289.483 42.4659 289.71 42.1392 289.86C41.8159 290.007 41.4659 290.08 41.0892 290.08C40.7126 290.08 40.3626 290.007 40.0392 289.86C39.7192 289.71 39.4409 289.483 39.2042 289.18C38.9676 288.877 38.7826 288.493 38.6492 288.03C38.5159 287.563 38.4492 287.015 38.4492 286.385C38.4492 285.752 38.5159 285.203 38.6492 284.74C38.7826 284.277 38.9676 283.893 39.2042 283.59C39.4409 283.287 39.7192 283.062 40.0392 282.915C40.3626 282.765 40.7126 282.69 41.0892 282.69C41.4659 282.69 41.8159 282.765 42.1392 282.915C42.4659 283.062 42.7476 283.287 42.9842 283.59C43.2242 283.893 43.4109 284.277 43.5442 284.74C43.6809 285.203 43.7492 285.752 43.7492 286.385ZM42.4742 286.385C42.4742 285.862 42.4359 285.428 42.3592 285.085C42.2826 284.742 42.1792 284.468 42.0492 284.265C41.9226 284.062 41.7759 283.92 41.6092 283.84C41.4426 283.757 41.2692 283.715 41.0892 283.715C40.9126 283.715 40.7409 283.757 40.5742 283.84C40.4109 283.92 40.2659 284.062 40.1392 284.265C40.0126 284.468 39.9109 284.742 39.8342 285.085C39.7609 285.428 39.7242 285.862 39.7242 286.385C39.7242 286.908 39.7609 287.342 39.8342 287.685C39.9109 288.028 40.0126 288.302 40.1392 288.505C40.2659 288.708 40.4109 288.852 40.5742 288.935C40.7409 289.015 40.9126 289.055 41.0892 289.055C41.2692 289.055 41.4426 289.015 41.6092 288.935C41.7759 288.852 41.9226 288.708 42.0492 288.505C42.1792 288.302 42.2826 288.028 42.3592 287.685C42.4359 287.342 42.4742 286.908 42.4742 286.385Z" fill="#CACCCF"/>
<path d="M43.7492 326.385C43.7492 327.015 43.6809 327.563 43.5442 328.03C43.4109 328.493 43.2242 328.877 42.9842 329.18C42.7476 329.483 42.4659 329.71 42.1392 329.86C41.8159 330.007 41.4659 330.08 41.0892 330.08C40.7126 330.08 40.3626 330.007 40.0392 329.86C39.7192 329.71 39.4409 329.483 39.2042 329.18C38.9676 328.877 38.7826 328.493 38.6492 328.03C38.5159 327.563 38.4492 327.015 38.4492 326.385C38.4492 325.752 38.5159 325.203 38.6492 324.74C38.7826 324.277 38.9676 323.893 39.2042 323.59C39.4409 323.287 39.7192 323.062 40.0392 322.915C40.3626 322.765 40.7126 322.69 41.0892 322.69C41.4659 322.69 41.8159 322.765 42.1392 322.915C42.4659 323.062 42.7476 323.287 42.9842 323.59C43.2242 323.893 43.4109 324.277 43.5442 324.74C43.6809 325.203 43.7492 325.752 43.7492 326.385ZM42.4742 326.385C42.4742 325.862 42.4359 325.428 42.3592 325.085C42.2826 324.742 42.1792 324.468 42.0492 324.265C41.9226 324.062 41.7759 323.92 41.6092 323.84C41.4426 323.757 41.2692 323.715 41.0892 323.715C40.9126 323.715 40.7409 323.757 40.5742 323.84C40.4109 323.92 40.2659 324.062 40.1392 324.265C40.0126 324.468 39.9109 324.742 39.8342 325.085C39.7609 325.428 39.7242 325.862 39.7242 326.385C39.7242 326.908 39.7609 327.342 39.8342 327.685C39.9109 328.028 40.0126 328.302 40.1392 328.505C40.2659 328.708 40.4109 328.852 40.5742 328.935C40.7409 329.015 40.9126 329.055 41.0892 329.055C41.2692 329.055 41.4426 329.015 41.6092 328.935C41.7759 328.852 41.9226 328.708 42.0492 328.505C42.1792 328.302 42.2826 328.028 42.3592 327.685C42.4359 327.342 42.4742 326.908 42.4742 326.385Z" fill="#CACCCF"/>
<path d="M1290 130.468C1220.97 130.468 1178.73 228.747 1116.59 228.747C1054.45 228.747 1006.08 136.155 970.966 136.155C935.854 136.155 922.948 189.701 876.933 189.701C830.917 189.701 832.145 159.967 799.521 159.967C766.898 159.967 723.436 212.198 647.311 212.198C571.185 212.198 543.747 153.784 496.287 153.784C448.827 153.784 394.752 235.271 349.676 235.271C304.599 235.271 286.683 200.094 244.106 200.094C201.53 200.094 191.479 236.473 111.13 261.929C98.9246 265.563 82.7945 271.407 52.0005 273.271" stroke="#E55C9B" stroke-width="2" stroke-linecap="round"/>
<path d="M83.9009 203.774C69.6482 197.093 52 178.851 52 178.851V325.5H1290V67C1229.25 82.2059 1211.35 136.139 1171.79 136.139C1132.23 136.139 1123.1 96.8066 1066.27 96.8066C1009.44 96.8066 969.629 187.92 919.725 187.92C869.821 187.92 857.723 122.606 768.772 122.606C679.82 122.606 652.456 181.006 616.631 181.006C580.807 181.006 580.836 147.761 539.255 147.761C497.675 147.761 482.998 207.632 445.265 207.632C407.533 207.632 361.5 104.102 299.706 104.102C237.912 104.102 189.485 213.88 132.689 213.88C110.545 213.707 96.7624 209.803 83.9009 203.774Z" fill="url(#paint0_linear_4_56)"/>
<path d="M52.7187 178.156C52.3347 177.759 51.7016 177.749 51.3047 178.133C50.9078 178.517 50.8973 179.15 51.2813 179.547L52.7187 178.156ZM83.9009 203.774L83.4764 204.68L83.9009 203.774ZM132.689 213.88L132.681 214.88H132.689V213.88ZM1290.24 67.9701C1290.78 67.836 1291.1 67.2929 1290.97 66.7572C1290.84 66.2214 1290.29 65.8958 1289.76 66.0299L1290.24 67.9701ZM52 178.851C51.2813 179.547 51.2814 179.547 51.2816 179.547C51.2818 179.547 51.2821 179.547 51.2824 179.548C51.283 179.548 51.2839 179.549 51.2851 179.551C51.2875 179.553 51.2909 179.556 51.2954 179.561C51.3043 179.57 51.3175 179.584 51.3348 179.602C51.3695 179.637 51.4208 179.69 51.488 179.758C51.6225 179.895 51.8209 180.096 52.0781 180.354C52.5923 180.87 53.3418 181.613 54.2852 182.525C56.1717 184.348 58.8361 186.85 61.9488 189.561C68.1537 194.967 76.2165 201.277 83.4764 204.68L84.3253 202.869C77.3326 199.591 69.445 193.439 63.2626 188.053C60.1817 185.369 57.5432 182.893 55.6752 181.087C54.7415 180.184 54.0008 179.45 53.4943 178.942C53.241 178.688 53.0463 178.491 52.9154 178.357C52.8499 178.291 52.8003 178.24 52.7673 178.206C52.7508 178.189 52.7385 178.176 52.7303 178.168C52.7263 178.164 52.7233 178.161 52.7213 178.159C52.7204 178.158 52.7196 178.157 52.7192 178.156C52.719 178.156 52.7189 178.156 52.7188 178.156C52.7187 178.156 52.7187 178.156 52 178.851ZM83.4764 204.68C96.4719 210.771 110.396 214.706 132.681 214.88L132.697 212.88C110.693 212.708 97.0529 208.835 84.3253 202.869L83.4764 204.68ZM132.689 214.88C147.212 214.88 161.104 207.865 174.663 197.522C188.225 187.177 201.589 173.396 215.037 159.691C228.512 145.959 242.077 132.298 256.116 122.063C270.154 111.829 284.56 105.102 299.706 105.102V103.102C283.955 103.102 269.135 110.097 254.938 120.447C240.743 130.795 227.065 144.578 213.609 158.29C200.127 172.03 186.873 185.693 173.45 195.932C160.024 206.173 146.564 212.88 132.689 212.88V214.88ZM299.706 105.102C314.867 105.102 329.128 111.452 342.632 121.092C356.137 130.734 368.805 143.61 380.775 156.546C392.714 169.45 403.99 182.45 414.617 192.193C425.208 201.902 435.414 208.632 445.265 208.632V206.632C436.25 206.632 426.552 200.421 415.969 190.719C405.422 181.05 394.252 168.167 382.243 155.188C370.263 142.241 357.478 129.234 343.794 119.465C330.107 109.693 315.442 103.102 299.706 103.102V105.102ZM445.265 208.632C454.988 208.632 463.189 204.768 470.63 199.072C478.05 193.392 484.787 185.83 491.558 178.369C505.199 163.337 518.976 148.761 539.255 148.761V146.761C517.954 146.761 503.603 162.12 490.077 177.025C483.265 184.531 476.659 191.937 469.415 197.483C462.192 203.012 454.409 206.632 445.265 206.632V208.632ZM539.255 148.761C549.507 148.761 557.151 150.807 563.412 153.854C569.689 156.91 574.619 160.989 579.45 165.142C589.111 173.447 598.313 182.006 616.631 182.006V180.006C599.124 180.006 590.429 171.943 580.754 163.625C575.916 159.467 570.818 155.235 564.287 152.056C557.739 148.87 549.794 146.761 539.255 146.761V148.761ZM616.631 182.006C625.864 182.006 634.483 178.242 643.528 172.735C648.054 169.98 652.715 166.77 657.63 163.349C662.551 159.923 667.731 156.284 673.324 152.644C695.661 138.11 724.551 123.606 768.772 123.606V121.606C724.04 121.606 694.773 136.302 672.233 150.968C666.608 154.628 661.398 158.289 656.487 161.707C651.569 165.13 646.955 168.308 642.488 171.027C633.546 176.471 625.311 180.006 616.631 180.006V182.006ZM768.772 123.606C812.938 123.606 837.985 139.796 858.266 156.043C868.387 164.152 877.454 172.396 887.054 178.557C896.706 184.75 907.005 188.92 919.725 188.92V186.92C907.494 186.92 897.566 182.926 888.134 176.873C878.651 170.788 869.777 162.703 859.517 154.483C839.034 138.073 813.557 121.606 768.772 121.606V123.606ZM919.725 188.92C932.511 188.92 944.566 183.085 956.276 174.49C967.984 165.897 979.471 154.448 991.098 143.078C1002.75 131.682 1014.56 120.354 1026.98 111.869C1039.39 103.389 1052.34 97.8066 1066.27 97.8066V95.8066C1051.78 95.8066 1038.44 101.614 1025.85 110.217C1013.26 118.816 1001.34 130.267 989.7 141.648C978.033 153.057 966.66 164.387 955.092 172.878C943.527 181.366 931.892 186.92 919.725 186.92V188.92ZM1066.27 97.8066C1094.4 97.8066 1110.69 107.516 1124.94 117.298C1139.2 127.079 1151.64 137.139 1171.79 137.139V135.139C1152.38 135.139 1140.48 125.534 1126.07 115.648C1111.67 105.763 1094.97 95.8066 1066.27 95.8066V97.8066ZM1171.79 137.139C1192.03 137.139 1206.7 123.315 1223.62 108.014C1240.63 92.6345 1260.13 75.5074 1290.24 67.9701L1289.76 66.0299C1259.12 73.6985 1239.3 91.141 1222.28 106.53C1205.17 121.997 1191.11 135.139 1171.79 135.139V137.139Z" fill="#8478FF"/>
<path d="M74.4533 342.43C74.4533 342.837 74.4033 343.203 74.3033 343.53C74.2033 343.857 74.0533 344.135 73.8533 344.365C73.6566 344.595 73.41 344.772 73.1133 344.895C72.8166 345.018 72.4716 345.08 72.0783 345.08C71.8983 345.08 71.7216 345.068 71.5483 345.045C71.375 345.025 71.1933 344.992 71.0033 344.945L71.0733 344.145C71.08 344.072 71.1066 344.013 71.1533 343.97C71.2033 343.923 71.275 343.9 71.3683 343.9C71.425 343.9 71.4983 343.912 71.5883 343.935C71.6816 343.958 71.7983 343.97 71.9383 343.97C72.1283 343.97 72.2966 343.943 72.4433 343.89C72.59 343.833 72.7116 343.745 72.8083 343.625C72.9083 343.505 72.9833 343.35 73.0333 343.16C73.0833 342.967 73.1083 342.733 73.1083 342.46V337.77H74.4533V342.43ZM80.0585 345H79.5035C79.3869 345 79.2952 344.983 79.2285 344.95C79.1619 344.913 79.1119 344.842 79.0785 344.735L78.9685 344.37C78.8385 344.487 78.7102 344.59 78.5835 344.68C78.4602 344.767 78.3319 344.84 78.1985 344.9C78.0652 344.96 77.9235 345.005 77.7735 345.035C77.6235 345.065 77.4569 345.08 77.2735 345.08C77.0569 345.08 76.8569 345.052 76.6735 344.995C76.4902 344.935 76.3319 344.847 76.1985 344.73C76.0685 344.613 75.9669 344.468 75.8935 344.295C75.8202 344.122 75.7835 343.92 75.7835 343.69C75.7835 343.497 75.8335 343.307 75.9335 343.12C76.0369 342.93 76.2069 342.76 76.4435 342.61C76.6802 342.457 76.9952 342.33 77.3885 342.23C77.7819 342.13 78.2702 342.073 78.8535 342.06V341.76C78.8535 341.417 78.7802 341.163 78.6335 341C78.4902 340.833 78.2802 340.75 78.0035 340.75C77.8035 340.75 77.6369 340.773 77.5035 340.82C77.3702 340.867 77.2535 340.92 77.1535 340.98C77.0569 341.037 76.9669 341.088 76.8835 341.135C76.8002 341.182 76.7085 341.205 76.6085 341.205C76.5252 341.205 76.4535 341.183 76.3935 341.14C76.3335 341.097 76.2852 341.043 76.2485 340.98L76.0235 340.585C76.6135 340.045 77.3252 339.775 78.1585 339.775C78.4585 339.775 78.7252 339.825 78.9585 339.925C79.1952 340.022 79.3952 340.158 79.5585 340.335C79.7219 340.508 79.8452 340.717 79.9285 340.96C80.0152 341.203 80.0585 341.47 80.0585 341.76V345ZM77.6585 344.23C77.7852 344.23 77.9019 344.218 78.0085 344.195C78.1152 344.172 78.2152 344.137 78.3085 344.09C78.4052 344.043 78.4969 343.987 78.5835 343.92C78.6735 343.85 78.7635 343.768 78.8535 343.675V342.81C78.4935 342.827 78.1919 342.858 77.9485 342.905C77.7085 342.948 77.5152 343.005 77.3685 343.075C77.2219 343.145 77.1169 343.227 77.0535 343.32C76.9935 343.413 76.9635 343.515 76.9635 343.625C76.9635 343.842 77.0269 343.997 77.1535 344.09C77.2835 344.183 77.4519 344.23 77.6585 344.23ZM81.4729 345V339.87H82.2279C82.3879 339.87 82.4929 339.945 82.5429 340.095L82.6279 340.5C82.7312 340.393 82.8396 340.297 82.9529 340.21C83.0696 340.123 83.1912 340.048 83.3179 339.985C83.4479 339.922 83.5862 339.873 83.7329 339.84C83.8796 339.807 84.0396 339.79 84.2129 339.79C84.4929 339.79 84.7412 339.838 84.9579 339.935C85.1746 340.028 85.3546 340.162 85.4979 340.335C85.6446 340.505 85.7546 340.71 85.8279 340.95C85.9046 341.187 85.9429 341.448 85.9429 341.735V345H84.7079V341.735C84.7079 341.422 84.6346 341.18 84.4879 341.01C84.3446 340.837 84.1279 340.75 83.8379 340.75C83.6246 340.75 83.4246 340.798 83.2379 340.895C83.0512 340.992 82.8746 341.123 82.7079 341.29V345H81.4729ZM183.731 337.77V338.84H180.526V340.98H183.231V342.055H180.526V345H179.171V337.77H183.731ZM186.714 339.79C187.037 339.79 187.334 339.842 187.604 339.945C187.877 340.048 188.112 340.2 188.309 340.4C188.506 340.597 188.659 340.84 188.769 341.13C188.879 341.417 188.934 341.745 188.934 342.115C188.934 342.208 188.929 342.287 188.919 342.35C188.912 342.41 188.897 342.458 188.874 342.495C188.854 342.528 188.826 342.553 188.789 342.57C188.752 342.583 188.706 342.59 188.649 342.59H185.479C185.516 343.117 185.657 343.503 185.904 343.75C186.151 343.997 186.477 344.12 186.884 344.12C187.084 344.12 187.256 344.097 187.399 344.05C187.546 344.003 187.672 343.952 187.779 343.895C187.889 343.838 187.984 343.787 188.064 343.74C188.147 343.693 188.227 343.67 188.304 343.67C188.354 343.67 188.397 343.68 188.434 343.7C188.471 343.72 188.502 343.748 188.529 343.785L188.889 344.235C188.752 344.395 188.599 344.53 188.429 344.64C188.259 344.747 188.081 344.833 187.894 344.9C187.711 344.963 187.522 345.008 187.329 345.035C187.139 345.062 186.954 345.075 186.774 345.075C186.417 345.075 186.086 345.017 185.779 344.9C185.472 344.78 185.206 344.605 184.979 344.375C184.752 344.142 184.574 343.855 184.444 343.515C184.314 343.172 184.249 342.775 184.249 342.325C184.249 341.975 184.306 341.647 184.419 341.34C184.532 341.03 184.694 340.762 184.904 340.535C185.117 340.305 185.376 340.123 185.679 339.99C185.986 339.857 186.331 339.79 186.714 339.79ZM186.739 340.675C186.379 340.675 186.097 340.777 185.894 340.98C185.691 341.183 185.561 341.472 185.504 341.845H187.824C187.824 341.685 187.802 341.535 187.759 341.395C187.716 341.252 187.649 341.127 187.559 341.02C187.469 340.913 187.356 340.83 187.219 340.77C187.082 340.707 186.922 340.675 186.739 340.675ZM190.151 345V337.57H191.386V340.5C191.589 340.283 191.819 340.112 192.076 339.985C192.332 339.855 192.632 339.79 192.976 339.79C193.256 339.79 193.511 339.848 193.741 339.965C193.974 340.078 194.174 340.245 194.341 340.465C194.511 340.685 194.641 340.957 194.731 341.28C194.824 341.603 194.871 341.975 194.871 342.395C194.871 342.778 194.819 343.133 194.716 343.46C194.612 343.787 194.464 344.07 194.271 344.31C194.081 344.55 193.849 344.738 193.576 344.875C193.306 345.008 193.002 345.075 192.666 345.075C192.509 345.075 192.366 345.058 192.236 345.025C192.106 344.995 191.987 344.952 191.881 344.895C191.774 344.838 191.674 344.77 191.581 344.69C191.491 344.607 191.404 344.515 191.321 344.415L191.266 344.76C191.246 344.847 191.211 344.908 191.161 344.945C191.114 344.982 191.049 345 190.966 345H190.151ZM192.551 340.75C192.294 340.75 192.074 340.805 191.891 340.915C191.711 341.022 191.542 341.173 191.386 341.37V343.67C191.526 343.843 191.677 343.965 191.841 344.035C192.007 344.102 192.187 344.135 192.381 344.135C192.567 344.135 192.736 344.1 192.886 344.03C193.036 343.96 193.162 343.853 193.266 343.71C193.372 343.567 193.454 343.387 193.511 343.17C193.567 342.95 193.596 342.692 193.596 342.395C193.596 342.095 193.571 341.842 193.521 341.635C193.474 341.425 193.406 341.255 193.316 341.125C193.226 340.995 193.116 340.9 192.986 340.84C192.859 340.78 192.714 340.75 192.551 340.75ZM285.083 342C285.139 342.107 285.191 342.218 285.238 342.335C285.288 342.448 285.336 342.563 285.383 342.68C285.429 342.56 285.478 342.442 285.528 342.325C285.578 342.208 285.631 342.097 285.688 341.99L287.828 337.985C287.854 337.935 287.881 337.895 287.908 337.865C287.938 337.835 287.969 337.813 288.003 337.8C288.039 337.787 288.079 337.778 288.123 337.775C288.166 337.772 288.218 337.77 288.278 337.77H289.293V345H288.108V340.33C288.108 340.243 288.109 340.148 288.113 340.045C288.119 339.942 288.128 339.837 288.138 339.73L285.953 343.83C285.903 343.923 285.838 343.997 285.758 344.05C285.678 344.1 285.584 344.125 285.478 344.125H285.293C285.186 344.125 285.093 344.1 285.013 344.05C284.933 343.997 284.868 343.923 284.818 343.83L282.603 339.715C282.616 339.825 282.624 339.933 282.628 340.04C282.634 340.143 282.638 340.24 282.638 340.33V345H281.453V337.77H282.468C282.528 337.77 282.579 337.772 282.623 337.775C282.666 337.778 282.704 337.787 282.738 337.8C282.774 337.813 282.808 337.835 282.838 337.865C282.868 337.895 282.896 337.935 282.923 337.985L285.083 342ZM294.9 345H294.345C294.228 345 294.136 344.983 294.07 344.95C294.003 344.913 293.953 344.842 293.92 344.735L293.81 344.37C293.68 344.487 293.551 344.59 293.425 344.68C293.301 344.767 293.173 344.84 293.04 344.9C292.906 344.96 292.765 345.005 292.615 345.035C292.465 345.065 292.298 345.08 292.115 345.08C291.898 345.08 291.698 345.052 291.515 344.995C291.331 344.935 291.173 344.847 291.04 344.73C290.91 344.613 290.808 344.468 290.735 344.295C290.661 344.122 290.625 343.92 290.625 343.69C290.625 343.497 290.675 343.307 290.775 343.12C290.878 342.93 291.048 342.76 291.285 342.61C291.521 342.457 291.836 342.33 292.23 342.23C292.623 342.13 293.111 342.073 293.695 342.06V341.76C293.695 341.417 293.621 341.163 293.475 341C293.331 340.833 293.121 340.75 292.845 340.75C292.645 340.75 292.478 340.773 292.345 340.82C292.211 340.867 292.095 340.92 291.995 340.98C291.898 341.037 291.808 341.088 291.725 341.135C291.641 341.182 291.55 341.205 291.45 341.205C291.366 341.205 291.295 341.183 291.235 341.14C291.175 341.097 291.126 341.043 291.09 340.98L290.865 340.585C291.455 340.045 292.166 339.775 293 339.775C293.3 339.775 293.566 339.825 293.8 339.925C294.036 340.022 294.236 340.158 294.4 340.335C294.563 340.508 294.686 340.717 294.77 340.96C294.856 341.203 294.9 341.47 294.9 341.76V345ZM292.5 344.23C292.626 344.23 292.743 344.218 292.85 344.195C292.956 344.172 293.056 344.137 293.15 344.09C293.246 344.043 293.338 343.987 293.425 343.92C293.515 343.85 293.605 343.768 293.695 343.675V342.81C293.335 342.827 293.033 342.858 292.79 342.905C292.55 342.948 292.356 343.005 292.21 343.075C292.063 343.145 291.958 343.227 291.895 343.32C291.835 343.413 291.805 343.515 291.805 343.625C291.805 343.842 291.868 343.997 291.995 344.09C292.125 344.183 292.293 344.23 292.5 344.23ZM296.314 345V339.87H297.039C297.166 339.87 297.254 339.893 297.304 339.94C297.354 339.987 297.387 340.067 297.404 340.18L297.479 340.8C297.662 340.483 297.877 340.233 298.124 340.05C298.371 339.867 298.647 339.775 298.954 339.775C299.207 339.775 299.417 339.833 299.584 339.95L299.424 340.875C299.414 340.935 299.392 340.978 299.359 341.005C299.326 341.028 299.281 341.04 299.224 341.04C299.174 341.04 299.106 341.028 299.019 341.005C298.932 340.982 298.817 340.97 298.674 340.97C298.417 340.97 298.197 341.042 298.014 341.185C297.831 341.325 297.676 341.532 297.549 341.805V345H296.314ZM411.567 345H410.527C410.41 345 410.314 344.972 410.237 344.915C410.164 344.855 410.11 344.782 410.077 344.695L409.537 343.22H406.542L406.002 344.695C405.975 344.772 405.922 344.842 405.842 344.905C405.765 344.968 405.67 345 405.557 345H404.512L407.352 337.77H408.727L411.567 345ZM406.887 342.27H409.192L408.312 339.865C408.272 339.758 408.227 339.633 408.177 339.49C408.13 339.343 408.084 339.185 408.037 339.015C407.99 339.185 407.944 339.343 407.897 339.49C407.854 339.637 407.81 339.765 407.767 339.875L406.887 342.27ZM412.442 346.675V339.87H413.197C413.277 339.87 413.345 339.888 413.402 339.925C413.458 339.962 413.495 340.018 413.512 340.095L413.612 340.57C413.818 340.333 414.055 340.142 414.322 339.995C414.592 339.848 414.907 339.775 415.267 339.775C415.547 339.775 415.802 339.833 416.032 339.95C416.265 340.067 416.465 340.237 416.632 340.46C416.802 340.68 416.932 340.953 417.022 341.28C417.115 341.603 417.162 341.975 417.162 342.395C417.162 342.778 417.11 343.133 417.007 343.46C416.903 343.787 416.755 344.07 416.562 344.31C416.372 344.55 416.14 344.738 415.867 344.875C415.597 345.008 415.293 345.075 414.957 345.075C414.667 345.075 414.42 345.032 414.217 344.945C414.017 344.855 413.837 344.732 413.677 344.575V346.675H412.442ZM414.842 340.75C414.585 340.75 414.365 340.805 414.182 340.915C414.002 341.022 413.833 341.173 413.677 341.37V343.67C413.817 343.843 413.968 343.965 414.132 344.035C414.298 344.102 414.477 344.135 414.667 344.135C414.853 344.135 415.022 344.1 415.172 344.03C415.325 343.96 415.453 343.853 415.557 343.71C415.663 343.567 415.745 343.387 415.802 343.17C415.858 342.95 415.887 342.692 415.887 342.395C415.887 342.095 415.862 341.842 415.812 341.635C415.765 341.425 415.697 341.255 415.607 341.125C415.517 340.995 415.407 340.9 415.277 340.84C415.15 340.78 415.005 340.75 414.842 340.75ZM418.296 345V339.87H419.021C419.148 339.87 419.236 339.893 419.286 339.94C419.336 339.987 419.369 340.067 419.386 340.18L419.461 340.8C419.644 340.483 419.859 340.233 420.106 340.05C420.353 339.867 420.629 339.775 420.936 339.775C421.189 339.775 421.399 339.833 421.566 339.95L421.406 340.875C421.396 340.935 421.374 340.978 421.341 341.005C421.308 341.028 421.263 341.04 421.206 341.04C421.156 341.04 421.088 341.028 421.001 341.005C420.914 340.982 420.799 340.97 420.656 340.97C420.399 340.97 420.179 341.042 419.996 341.185C419.813 341.325 419.658 341.532 419.531 341.805V345H418.296ZM498.82 342C498.877 342.107 498.929 342.218 498.975 342.335C499.025 342.448 499.074 342.563 499.12 342.68C499.167 342.56 499.215 342.442 499.265 342.325C499.315 342.208 499.369 342.097 499.425 341.99L501.565 337.985C501.592 337.935 501.619 337.895 501.645 337.865C501.675 337.835 501.707 337.813 501.74 337.8C501.777 337.787 501.817 337.778 501.86 337.775C501.904 337.772 501.955 337.77 502.015 337.77H503.03V345H501.845V340.33C501.845 340.243 501.847 340.148 501.85 340.045C501.857 339.942 501.865 339.837 501.875 339.73L499.69 343.83C499.64 343.923 499.575 343.997 499.495 344.05C499.415 344.1 499.322 344.125 499.215 344.125H499.03C498.924 344.125 498.83 344.1 498.75 344.05C498.67 343.997 498.605 343.923 498.555 343.83L496.34 339.715C496.354 339.825 496.362 339.933 496.365 340.04C496.372 340.143 496.375 340.24 496.375 340.33V345H495.19V337.77H496.205C496.265 337.77 496.317 337.772 496.36 337.775C496.404 337.778 496.442 337.787 496.475 337.8C496.512 337.813 496.545 337.835 496.575 337.865C496.605 337.895 496.634 337.935 496.66 337.985L498.82 342ZM508.637 345H508.082C507.965 345 507.874 344.983 507.807 344.95C507.74 344.913 507.69 344.842 507.657 344.735L507.547 344.37C507.417 344.487 507.289 344.59 507.162 344.68C507.039 344.767 506.91 344.84 506.777 344.9C506.644 344.96 506.502 345.005 506.352 345.035C506.202 345.065 506.035 345.08 505.852 345.08C505.635 345.08 505.435 345.052 505.252 344.995C505.069 344.935 504.91 344.847 504.777 344.73C504.647 344.613 504.545 344.468 504.472 344.295C504.399 344.122 504.362 343.92 504.362 343.69C504.362 343.497 504.412 343.307 504.512 343.12C504.615 342.93 504.785 342.76 505.022 342.61C505.259 342.457 505.574 342.33 505.967 342.23C506.36 342.13 506.849 342.073 507.432 342.06V341.76C507.432 341.417 507.359 341.163 507.212 341C507.069 340.833 506.859 340.75 506.582 340.75C506.382 340.75 506.215 340.773 506.082 340.82C505.949 340.867 505.832 340.92 505.732 340.98C505.635 341.037 505.545 341.088 505.462 341.135C505.379 341.182 505.287 341.205 505.187 341.205C505.104 341.205 505.032 341.183 504.972 341.14C504.912 341.097 504.864 341.043 504.827 340.98L504.602 340.585C505.192 340.045 505.904 339.775 506.737 339.775C507.037 339.775 507.304 339.825 507.537 339.925C507.774 340.022 507.974 340.158 508.137 340.335C508.3 340.508 508.424 340.717 508.507 340.96C508.594 341.203 508.637 341.47 508.637 341.76V345ZM506.237 344.23C506.364 344.23 506.48 344.218 506.587 344.195C506.694 344.172 506.794 344.137 506.887 344.09C506.984 344.043 507.075 343.987 507.162 343.92C507.252 343.85 507.342 343.768 507.432 343.675V342.81C507.072 342.827 506.77 342.858 506.527 342.905C506.287 342.948 506.094 343.005 505.947 343.075C505.8 343.145 505.695 343.227 505.632 343.32C505.572 343.413 505.542 343.515 505.542 343.625C505.542 343.842 505.605 343.997 505.732 344.09C505.862 344.183 506.03 344.23 506.237 344.23ZM511.696 346.41C511.659 346.497 511.611 346.562 511.551 346.605C511.494 346.652 511.406 346.675 511.286 346.675H510.366L511.326 344.62L509.251 339.87H510.331C510.431 339.87 510.507 339.893 510.561 339.94C510.614 339.987 510.654 340.04 510.681 340.1L511.776 342.76C511.812 342.847 511.844 342.937 511.871 343.03C511.897 343.123 511.921 343.217 511.941 343.31C511.967 343.213 511.996 343.12 512.026 343.03C512.059 342.94 512.094 342.848 512.131 342.755L513.161 340.1C513.187 340.033 513.231 339.978 513.291 339.935C513.354 339.892 513.424 339.87 513.501 339.87H514.491L511.696 346.41ZM603.731 342.43C603.731 342.837 603.681 343.203 603.581 343.53C603.481 343.857 603.331 344.135 603.131 344.365C602.935 344.595 602.688 344.772 602.391 344.895C602.095 345.018 601.75 345.08 601.356 345.08C601.176 345.08 601 345.068 600.826 345.045C600.653 345.025 600.471 344.992 600.281 344.945L600.351 344.145C600.358 344.072 600.385 344.013 600.431 343.97C600.481 343.923 600.553 343.9 600.646 343.9C600.703 343.9 600.776 343.912 600.866 343.935C600.96 343.958 601.076 343.97 601.216 343.97C601.406 343.97 601.575 343.943 601.721 343.89C601.868 343.833 601.99 343.745 602.086 343.625C602.186 343.505 602.261 343.35 602.311 343.16C602.361 342.967 602.386 342.733 602.386 342.46V337.77H603.731V342.43ZM606.447 339.87V343.13C606.447 343.443 606.518 343.687 606.662 343.86C606.808 344.03 607.027 344.115 607.317 344.115C607.53 344.115 607.73 344.068 607.917 343.975C608.103 343.878 608.28 343.747 608.447 343.58V339.87H609.682V345H608.927C608.767 345 608.662 344.925 608.612 344.775L608.527 344.365C608.42 344.472 608.31 344.57 608.197 344.66C608.083 344.747 607.962 344.822 607.832 344.885C607.705 344.945 607.567 344.992 607.417 345.025C607.27 345.062 607.112 345.08 606.942 345.08C606.662 345.08 606.413 345.033 606.197 344.94C605.983 344.843 605.803 344.708 605.657 344.535C605.51 344.362 605.398 344.157 605.322 343.92C605.248 343.68 605.212 343.417 605.212 343.13V339.87H606.447ZM611.2 345V339.87H611.955C612.115 339.87 612.22 339.945 612.27 340.095L612.355 340.5C612.459 340.393 612.567 340.297 612.68 340.21C612.797 340.123 612.919 340.048 613.045 339.985C613.175 339.922 613.314 339.873 613.46 339.84C613.607 339.807 613.767 339.79 613.94 339.79C614.22 339.79 614.469 339.838 614.685 339.935C614.902 340.028 615.082 340.162 615.225 340.335C615.372 340.505 615.482 340.71 615.555 340.95C615.632 341.187 615.67 341.448 615.67 341.735V345H614.435V341.735C614.435 341.422 614.362 341.18 614.215 341.01C614.072 340.837 613.855 340.75 613.565 340.75C613.352 340.75 613.152 340.798 612.965 340.895C612.779 340.992 612.602 341.123 612.435 341.29V345H611.2ZM705.408 342.43C705.408 342.837 705.358 343.203 705.258 343.53C705.158 343.857 705.008 344.135 704.808 344.365C704.611 344.595 704.364 344.772 704.068 344.895C703.771 345.018 703.426 345.08 703.033 345.08C702.853 345.08 702.676 345.068 702.503 345.045C702.329 345.025 702.148 344.992 701.958 344.945L702.028 344.145C702.034 344.072 702.061 344.013 702.108 343.97C702.158 343.923 702.229 343.9 702.323 343.9C702.379 343.9 702.453 343.912 702.543 343.935C702.636 343.958 702.753 343.97 702.893 343.97C703.083 343.97 703.251 343.943 703.398 343.89C703.544 343.833 703.666 343.745 703.763 343.625C703.863 343.505 703.938 343.35 703.988 343.16C704.038 342.967 704.063 342.733 704.063 342.46V337.77H705.408V342.43ZM708.123 339.87V343.13C708.123 343.443 708.194 343.687 708.338 343.86C708.484 344.03 708.703 344.115 708.993 344.115C709.206 344.115 709.406 344.068 709.593 343.975C709.779 343.878 709.956 343.747 710.123 343.58V339.87H711.358V345H710.603C710.443 345 710.338 344.925 710.288 344.775L710.203 344.365C710.096 344.472 709.986 344.57 709.873 344.66C709.759 344.747 709.638 344.822 709.508 344.885C709.381 344.945 709.243 344.992 709.093 345.025C708.946 345.062 708.788 345.08 708.618 345.08C708.338 345.08 708.089 345.033 707.873 344.94C707.659 344.843 707.479 344.708 707.333 344.535C707.186 344.362 707.074 344.157 706.998 343.92C706.924 343.68 706.888 343.417 706.888 343.13V339.87H708.123ZM714.191 337.57V345H712.956V337.57H714.191ZM822.495 345H821.455C821.338 345 821.242 344.972 821.165 344.915C821.092 344.855 821.038 344.782 821.005 344.695L820.465 343.22H817.47L816.93 344.695C816.903 344.772 816.85 344.842 816.77 344.905C816.693 344.968 816.598 345 816.485 345H815.44L818.28 337.77H819.655L822.495 345ZM817.815 342.27H820.12L819.24 339.865C819.2 339.758 819.155 339.633 819.105 339.49C819.058 339.343 819.012 339.185 818.965 339.015C818.918 339.185 818.872 339.343 818.825 339.49C818.782 339.637 818.738 339.765 818.695 339.875L817.815 342.27ZM824.5 339.87V343.13C824.5 343.443 824.571 343.687 824.715 343.86C824.861 344.03 825.08 344.115 825.37 344.115C825.583 344.115 825.783 344.068 825.97 343.975C826.156 343.878 826.333 343.747 826.5 343.58V339.87H827.735V345H826.98C826.82 345 826.715 344.925 826.665 344.775L826.58 344.365C826.473 344.472 826.363 344.57 826.25 344.66C826.136 344.747 826.015 344.822 825.885 344.885C825.758 344.945 825.62 344.992 825.47 345.025C825.323 345.062 825.165 345.08 824.995 345.08C824.715 345.08 824.466 345.033 824.25 344.94C824.036 344.843 823.856 344.708 823.71 344.535C823.563 344.362 823.451 344.157 823.375 343.92C823.301 343.68 823.265 343.417 823.265 343.13V339.87H824.5ZM831.028 339.78C831.248 339.78 831.455 339.803 831.648 339.85C831.842 339.893 832.018 339.958 832.178 340.045H833.653V340.505C833.653 340.582 833.633 340.642 833.593 340.685C833.553 340.728 833.485 340.758 833.388 340.775L832.928 340.86C832.962 340.947 832.987 341.038 833.003 341.135C833.023 341.232 833.033 341.333 833.033 341.44C833.033 341.693 832.982 341.923 832.878 342.13C832.778 342.333 832.638 342.507 832.458 342.65C832.282 342.793 832.07 342.905 831.823 342.985C831.58 343.062 831.315 343.1 831.028 343.1C830.835 343.1 830.647 343.082 830.463 343.045C830.303 343.142 830.223 343.25 830.223 343.37C830.223 343.473 830.27 343.55 830.363 343.6C830.46 343.647 830.585 343.68 830.738 343.7C830.895 343.72 831.072 343.733 831.268 343.74C831.465 343.743 831.667 343.753 831.873 343.77C832.08 343.787 832.282 343.817 832.478 343.86C832.675 343.9 832.85 343.965 833.003 344.055C833.16 344.145 833.285 344.268 833.378 344.425C833.475 344.578 833.523 344.777 833.523 345.02C833.523 345.247 833.467 345.467 833.353 345.68C833.243 345.893 833.082 346.083 832.868 346.25C832.658 346.417 832.4 346.55 832.093 346.65C831.787 346.753 831.437 346.805 831.043 346.805C830.653 346.805 830.315 346.767 830.028 346.69C829.742 346.617 829.503 346.517 829.313 346.39C829.127 346.267 828.987 346.123 828.893 345.96C828.8 345.797 828.753 345.627 828.753 345.45C828.753 345.21 828.827 345.008 828.973 344.845C829.12 344.682 829.323 344.552 829.583 344.455C829.457 344.385 829.355 344.292 829.278 344.175C829.202 344.058 829.163 343.907 829.163 343.72C829.163 343.643 829.177 343.565 829.203 343.485C829.23 343.402 829.27 343.32 829.323 343.24C829.38 343.16 829.45 343.085 829.533 343.015C829.617 342.942 829.715 342.877 829.828 342.82C829.568 342.68 829.363 342.493 829.213 342.26C829.067 342.027 828.993 341.753 828.993 341.44C828.993 341.187 829.043 340.958 829.143 340.755C829.247 340.548 829.388 340.373 829.568 340.23C829.752 340.083 829.967 339.972 830.213 339.895C830.463 339.818 830.735 339.78 831.028 339.78ZM832.383 345.23C832.383 345.13 832.353 345.048 832.293 344.985C832.233 344.922 832.152 344.873 832.048 344.84C831.945 344.803 831.823 344.777 831.683 344.76C831.547 344.743 831.4 344.732 831.243 344.725C831.09 344.715 830.93 344.707 830.763 344.7C830.6 344.69 830.442 344.675 830.288 344.655C830.148 344.732 830.035 344.823 829.948 344.93C829.865 345.033 829.823 345.153 829.823 345.29C829.823 345.38 829.845 345.463 829.888 345.54C829.935 345.62 830.007 345.688 830.103 345.745C830.203 345.802 830.332 345.845 830.488 345.875C830.645 345.908 830.837 345.925 831.063 345.925C831.293 345.925 831.492 345.907 831.658 345.87C831.825 345.837 831.962 345.788 832.068 345.725C832.178 345.665 832.258 345.592 832.308 345.505C832.358 345.422 832.383 345.33 832.383 345.23ZM831.028 342.31C831.182 342.31 831.315 342.29 831.428 342.25C831.542 342.207 831.635 342.148 831.708 342.075C831.785 342.002 831.842 341.913 831.878 341.81C831.918 341.707 831.938 341.593 831.938 341.47C831.938 341.217 831.862 341.017 831.708 340.87C831.558 340.72 831.332 340.645 831.028 340.645C830.725 340.645 830.497 340.72 830.343 340.87C830.193 341.017 830.118 341.217 830.118 341.47C830.118 341.59 830.137 341.702 830.173 341.805C830.213 341.908 830.27 341.998 830.343 342.075C830.42 342.148 830.515 342.207 830.628 342.25C830.745 342.29 830.878 342.31 831.028 342.31ZM928.185 339.085C928.148 339.158 928.105 339.21 928.055 339.24C928.008 339.27 927.952 339.285 927.885 339.285C927.818 339.285 927.743 339.26 927.66 339.21C927.577 339.157 927.478 339.098 927.365 339.035C927.252 338.972 927.118 338.915 926.965 338.865C926.815 338.812 926.637 338.785 926.43 338.785C926.243 338.785 926.08 338.808 925.94 338.855C925.803 338.898 925.687 338.96 925.59 339.04C925.497 339.12 925.427 339.217 925.38 339.33C925.333 339.44 925.31 339.562 925.31 339.695C925.31 339.865 925.357 340.007 925.45 340.12C925.547 340.233 925.673 340.33 925.83 340.41C925.987 340.49 926.165 340.562 926.365 340.625C926.565 340.688 926.768 340.757 926.975 340.83C927.185 340.9 927.39 340.983 927.59 341.08C927.79 341.173 927.968 341.293 928.125 341.44C928.282 341.583 928.407 341.76 928.5 341.97C928.597 342.18 928.645 342.435 928.645 342.735C928.645 343.062 928.588 343.368 928.475 343.655C928.365 343.938 928.202 344.187 927.985 344.4C927.772 344.61 927.51 344.777 927.2 344.9C926.89 345.02 926.535 345.08 926.135 345.08C925.905 345.08 925.678 345.057 925.455 345.01C925.232 344.967 925.017 344.903 924.81 344.82C924.607 344.737 924.415 344.637 924.235 344.52C924.058 344.403 923.9 344.273 923.76 344.13L924.15 343.485C924.187 343.438 924.23 343.4 924.28 343.37C924.333 343.337 924.392 343.32 924.455 343.32C924.538 343.32 924.628 343.355 924.725 343.425C924.822 343.492 924.935 343.567 925.065 343.65C925.198 343.733 925.353 343.81 925.53 343.88C925.71 343.947 925.925 343.98 926.175 343.98C926.558 343.98 926.855 343.89 927.065 343.71C927.275 343.527 927.38 343.265 927.38 342.925C927.38 342.735 927.332 342.58 927.235 342.46C927.142 342.34 927.017 342.24 926.86 342.16C926.703 342.077 926.525 342.007 926.325 341.95C926.125 341.893 925.922 341.832 925.715 341.765C925.508 341.698 925.305 341.618 925.105 341.525C924.905 341.432 924.727 341.31 924.57 341.16C924.413 341.01 924.287 340.823 924.19 340.6C924.097 340.373 924.05 340.095 924.05 339.765C924.05 339.502 924.102 339.245 924.205 338.995C924.312 338.745 924.465 338.523 924.665 338.33C924.868 338.137 925.117 337.982 925.41 337.865C925.703 337.748 926.038 337.69 926.415 337.69C926.842 337.69 927.235 337.757 927.595 337.89C927.955 338.023 928.262 338.21 928.515 338.45L928.185 339.085ZM931.921 339.79C932.245 339.79 932.541 339.842 932.811 339.945C933.085 340.048 933.32 340.2 933.516 340.4C933.713 340.597 933.866 340.84 933.976 341.13C934.086 341.417 934.141 341.745 934.141 342.115C934.141 342.208 934.136 342.287 934.126 342.35C934.12 342.41 934.105 342.458 934.081 342.495C934.061 342.528 934.033 342.553 933.996 342.57C933.96 342.583 933.913 342.59 933.856 342.59H930.686C930.723 343.117 930.865 343.503 931.111 343.75C931.358 343.997 931.685 344.12 932.091 344.12C932.291 344.12 932.463 344.097 932.606 344.05C932.753 344.003 932.88 343.952 932.986 343.895C933.096 343.838 933.191 343.787 933.271 343.74C933.355 343.693 933.435 343.67 933.511 343.67C933.561 343.67 933.605 343.68 933.641 343.7C933.678 343.72 933.71 343.748 933.736 343.785L934.096 344.235C933.96 344.395 933.806 344.53 933.636 344.64C933.466 344.747 933.288 344.833 933.101 344.9C932.918 344.963 932.73 345.008 932.536 345.035C932.346 345.062 932.161 345.075 931.981 345.075C931.625 345.075 931.293 345.017 930.986 344.9C930.68 344.78 930.413 344.605 930.186 344.375C929.96 344.142 929.781 343.855 929.651 343.515C929.521 343.172 929.456 342.775 929.456 342.325C929.456 341.975 929.513 341.647 929.626 341.34C929.74 341.03 929.901 340.762 930.111 340.535C930.325 340.305 930.583 340.123 930.886 339.99C931.193 339.857 931.538 339.79 931.921 339.79ZM931.946 340.675C931.586 340.675 931.305 340.777 931.101 340.98C930.898 341.183 930.768 341.472 930.711 341.845H933.031C933.031 341.685 933.01 341.535 932.966 341.395C932.923 341.252 932.856 341.127 932.766 341.02C932.676 340.913 932.563 340.83 932.426 340.77C932.29 340.707 932.13 340.675 931.946 340.675ZM935.343 346.675V339.87H936.098C936.178 339.87 936.247 339.888 936.303 339.925C936.36 339.962 936.397 340.018 936.413 340.095L936.513 340.57C936.72 340.333 936.957 340.142 937.223 339.995C937.493 339.848 937.808 339.775 938.168 339.775C938.448 339.775 938.703 339.833 938.933 339.95C939.167 340.067 939.367 340.237 939.533 340.46C939.703 340.68 939.833 340.953 939.923 341.28C940.017 341.603 940.063 341.975 940.063 342.395C940.063 342.778 940.012 343.133 939.908 343.46C939.805 343.787 939.657 344.07 939.463 344.31C939.273 344.55 939.042 344.738 938.768 344.875C938.498 345.008 938.195 345.075 937.858 345.075C937.568 345.075 937.322 345.032 937.118 344.945C936.918 344.855 936.738 344.732 936.578 344.575V346.675H935.343ZM937.743 340.75C937.487 340.75 937.267 340.805 937.083 340.915C936.903 341.022 936.735 341.173 936.578 341.37V343.67C936.718 343.843 936.87 343.965 937.033 344.035C937.2 344.102 937.378 344.135 937.568 344.135C937.755 344.135 937.923 344.1 938.073 344.03C938.227 343.96 938.355 343.853 938.458 343.71C938.565 343.567 938.647 343.387 938.703 343.17C938.76 342.95 938.788 342.692 938.788 342.395C938.788 342.095 938.763 341.842 938.713 341.635C938.667 341.425 938.598 341.255 938.508 341.125C938.418 340.995 938.308 340.9 938.178 340.84C938.052 340.78 937.907 340.75 937.743 340.75ZM1035.68 341.385C1035.68 341.915 1035.59 342.407 1035.41 342.86C1035.24 343.31 1034.99 343.7 1034.67 344.03C1034.35 344.36 1033.96 344.618 1033.51 344.805C1033.06 344.988 1032.57 345.08 1032.02 345.08C1031.47 345.08 1030.97 344.988 1030.52 344.805C1030.07 344.618 1029.68 344.36 1029.36 344.03C1029.04 343.7 1028.79 343.31 1028.61 342.86C1028.44 342.407 1028.35 341.915 1028.35 341.385C1028.35 340.855 1028.44 340.365 1028.61 339.915C1028.79 339.462 1029.04 339.07 1029.36 338.74C1029.68 338.41 1030.07 338.153 1030.52 337.97C1030.97 337.783 1031.47 337.69 1032.02 337.69C1032.57 337.69 1033.06 337.783 1033.51 337.97C1033.96 338.157 1034.35 338.415 1034.67 338.745C1034.99 339.072 1035.24 339.462 1035.41 339.915C1035.59 340.365 1035.68 340.855 1035.68 341.385ZM1034.3 341.385C1034.3 340.988 1034.25 340.633 1034.14 340.32C1034.04 340.003 1033.89 339.735 1033.69 339.515C1033.49 339.295 1033.25 339.127 1032.97 339.01C1032.69 338.893 1032.37 338.835 1032.02 338.835C1031.67 338.835 1031.35 338.893 1031.06 339.01C1030.78 339.127 1030.54 339.295 1030.34 339.515C1030.14 339.735 1029.99 340.003 1029.88 340.32C1029.78 340.633 1029.72 340.988 1029.72 341.385C1029.72 341.782 1029.78 342.138 1029.88 342.455C1029.99 342.768 1030.14 343.035 1030.34 343.255C1030.54 343.472 1030.78 343.638 1031.06 343.755C1031.35 343.872 1031.67 343.93 1032.02 343.93C1032.37 343.93 1032.69 343.872 1032.97 343.755C1033.25 343.638 1033.49 343.472 1033.69 343.255C1033.89 343.035 1034.04 342.768 1034.14 342.455C1034.25 342.138 1034.3 341.782 1034.3 341.385ZM1040.48 340.955C1040.44 341.002 1040.4 341.038 1040.37 341.065C1040.33 341.092 1040.28 341.105 1040.22 341.105C1040.15 341.105 1040.09 341.087 1040.03 341.05C1039.97 341.01 1039.9 340.967 1039.82 340.92C1039.73 340.87 1039.63 340.827 1039.52 340.79C1039.4 340.75 1039.26 340.73 1039.09 340.73C1038.88 340.73 1038.69 340.77 1038.52 340.85C1038.36 340.927 1038.22 341.038 1038.11 341.185C1038.01 341.332 1037.93 341.51 1037.87 341.72C1037.82 341.927 1037.79 342.162 1037.79 342.425C1037.79 342.698 1037.82 342.942 1037.88 343.155C1037.94 343.368 1038.02 343.548 1038.13 343.695C1038.24 343.838 1038.38 343.948 1038.53 344.025C1038.69 344.098 1038.87 344.135 1039.06 344.135C1039.26 344.135 1039.42 344.112 1039.54 344.065C1039.66 344.015 1039.76 343.962 1039.85 343.905C1039.93 343.845 1040 343.792 1040.06 343.745C1040.13 343.695 1040.2 343.67 1040.27 343.67C1040.37 343.67 1040.45 343.708 1040.5 343.785L1040.85 344.235C1040.72 344.395 1040.57 344.53 1040.41 344.64C1040.25 344.747 1040.08 344.833 1039.91 344.9C1039.74 344.963 1039.56 345.008 1039.38 345.035C1039.19 345.062 1039.01 345.075 1038.83 345.075C1038.52 345.075 1038.22 345.017 1037.94 344.9C1037.66 344.78 1037.41 344.607 1037.2 344.38C1037 344.153 1036.83 343.877 1036.71 343.55C1036.59 343.22 1036.53 342.845 1036.53 342.425C1036.53 342.048 1036.58 341.7 1036.69 341.38C1036.8 341.057 1036.96 340.778 1037.17 340.545C1037.38 340.308 1037.64 340.123 1037.95 339.99C1038.26 339.857 1038.61 339.79 1039.02 339.79C1039.4 339.79 1039.74 339.852 1040.02 339.975C1040.31 340.098 1040.57 340.275 1040.8 340.505L1040.48 340.955ZM1043.52 345.08C1043.08 345.08 1042.74 344.955 1042.5 344.705C1042.26 344.452 1042.14 344.103 1042.14 343.66V340.795H1041.62C1041.55 340.795 1041.49 340.773 1041.44 340.73C1041.4 340.687 1041.37 340.622 1041.37 340.535V340.045L1042.2 339.91L1042.46 338.51C1042.47 338.443 1042.5 338.392 1042.55 338.355C1042.6 338.318 1042.66 338.3 1042.73 338.3H1043.37V339.915H1044.72V340.795H1043.37V343.575C1043.37 343.735 1043.41 343.86 1043.49 343.95C1043.57 344.04 1043.68 344.085 1043.81 344.085C1043.89 344.085 1043.95 344.077 1044 344.06C1044.06 344.04 1044.1 344.02 1044.14 344C1044.18 343.98 1044.21 343.962 1044.24 343.945C1044.27 343.925 1044.3 343.915 1044.33 343.915C1044.37 343.915 1044.4 343.925 1044.42 343.945C1044.45 343.962 1044.47 343.988 1044.5 344.025L1044.87 344.625C1044.69 344.775 1044.48 344.888 1044.25 344.965C1044.02 345.042 1043.77 345.08 1043.52 345.08ZM1142.69 337.77C1142.75 337.77 1142.8 337.773 1142.84 337.78C1142.88 337.783 1142.92 337.793 1142.95 337.81C1142.98 337.823 1143.01 337.845 1143.04 337.875C1143.07 337.902 1143.11 337.938 1143.14 337.985L1146.94 342.82C1146.92 342.703 1146.91 342.59 1146.91 342.48C1146.9 342.367 1146.9 342.262 1146.9 342.165V337.77H1148.09V345H1147.39C1147.29 345 1147.2 344.983 1147.13 344.95C1147.06 344.917 1146.99 344.857 1146.92 344.77L1143.14 339.955C1143.15 340.062 1143.16 340.168 1143.16 340.275C1143.17 340.378 1143.17 340.473 1143.17 340.56V345H1141.99V337.77H1142.69ZM1151.87 339.79C1152.25 339.79 1152.6 339.852 1152.91 339.975C1153.22 340.098 1153.49 340.273 1153.71 340.5C1153.93 340.727 1154.1 341.003 1154.22 341.33C1154.34 341.657 1154.4 342.022 1154.4 342.425C1154.4 342.832 1154.34 343.198 1154.22 343.525C1154.1 343.852 1153.93 344.13 1153.71 344.36C1153.49 344.59 1153.22 344.767 1152.91 344.89C1152.6 345.013 1152.25 345.075 1151.87 345.075C1151.48 345.075 1151.13 345.013 1150.82 344.89C1150.51 344.767 1150.24 344.59 1150.02 344.36C1149.8 344.13 1149.62 343.852 1149.5 343.525C1149.38 343.198 1149.32 342.832 1149.32 342.425C1149.32 342.022 1149.38 341.657 1149.5 341.33C1149.62 341.003 1149.8 340.727 1150.02 340.5C1150.24 340.273 1150.51 340.098 1150.82 339.975C1151.13 339.852 1151.48 339.79 1151.87 339.79ZM1151.87 344.125C1152.29 344.125 1152.61 343.982 1152.81 343.695C1153.02 343.408 1153.12 342.988 1153.12 342.435C1153.12 341.882 1153.02 341.46 1152.81 341.17C1152.61 340.88 1152.29 340.735 1151.87 340.735C1151.43 340.735 1151.11 340.882 1150.91 341.175C1150.7 341.465 1150.6 341.885 1150.6 342.435C1150.6 342.985 1150.7 343.405 1150.91 343.695C1151.11 343.982 1151.43 344.125 1151.87 344.125ZM1157.96 345H1156.84L1154.8 339.87H1155.83C1155.92 339.87 1155.99 339.892 1156.05 339.935C1156.12 339.978 1156.16 340.033 1156.18 340.1L1157.17 342.84C1157.23 343 1157.28 343.157 1157.31 343.31C1157.35 343.463 1157.39 343.617 1157.42 343.77C1157.45 343.617 1157.48 343.463 1157.52 343.31C1157.56 343.157 1157.61 343 1157.67 342.84L1158.68 340.1C1158.71 340.033 1158.75 339.978 1158.81 339.935C1158.87 339.892 1158.94 339.87 1159.02 339.87H1160L1157.96 345ZM1246.36 341.385C1246.36 341.915 1246.27 342.402 1246.09 342.845C1245.92 343.288 1245.67 343.67 1245.35 343.99C1245.03 344.31 1244.64 344.558 1244.19 344.735C1243.74 344.912 1243.25 345 1242.7 345H1239.94V337.77H1242.7C1243.25 337.77 1243.74 337.86 1244.19 338.04C1244.64 338.217 1245.03 338.465 1245.35 338.785C1245.67 339.102 1245.92 339.482 1246.09 339.925C1246.27 340.368 1246.36 340.855 1246.36 341.385ZM1244.98 341.385C1244.98 340.988 1244.93 340.633 1244.82 340.32C1244.72 340.003 1244.57 339.737 1244.37 339.52C1244.17 339.3 1243.93 339.132 1243.65 339.015C1243.37 338.898 1243.05 338.84 1242.7 338.84H1241.29V343.93H1242.7C1243.05 343.93 1243.37 343.872 1243.65 343.755C1243.93 343.638 1244.17 343.472 1244.37 343.255C1244.57 343.035 1244.72 342.768 1244.82 342.455C1244.93 342.138 1244.98 341.782 1244.98 341.385ZM1249.66 339.79C1249.98 339.79 1250.28 339.842 1250.55 339.945C1250.82 340.048 1251.06 340.2 1251.25 340.4C1251.45 340.597 1251.6 340.84 1251.71 341.13C1251.82 341.417 1251.88 341.745 1251.88 342.115C1251.88 342.208 1251.87 342.287 1251.86 342.35C1251.86 342.41 1251.84 342.458 1251.82 342.495C1251.8 342.528 1251.77 342.553 1251.73 342.57C1251.7 342.583 1251.65 342.59 1251.59 342.59H1248.42C1248.46 343.117 1248.6 343.503 1248.85 343.75C1249.1 343.997 1249.42 344.12 1249.83 344.12C1250.03 344.12 1250.2 344.097 1250.34 344.05C1250.49 344.003 1250.62 343.952 1250.72 343.895C1250.83 343.838 1250.93 343.787 1251.01 343.74C1251.09 343.693 1251.17 343.67 1251.25 343.67C1251.3 343.67 1251.34 343.68 1251.38 343.7C1251.42 343.72 1251.45 343.748 1251.47 343.785L1251.83 344.235C1251.7 344.395 1251.54 344.53 1251.37 344.64C1251.2 344.747 1251.03 344.833 1250.84 344.9C1250.66 344.963 1250.47 345.008 1250.27 345.035C1250.08 345.062 1249.9 345.075 1249.72 345.075C1249.36 345.075 1249.03 345.017 1248.72 344.9C1248.42 344.78 1248.15 344.605 1247.92 344.375C1247.7 344.142 1247.52 343.855 1247.39 343.515C1247.26 343.172 1247.19 342.775 1247.19 342.325C1247.19 341.975 1247.25 341.647 1247.36 341.34C1247.48 341.03 1247.64 340.762 1247.85 340.535C1248.06 340.305 1248.32 340.123 1248.62 339.99C1248.93 339.857 1249.28 339.79 1249.66 339.79ZM1249.68 340.675C1249.32 340.675 1249.04 340.777 1248.84 340.98C1248.64 341.183 1248.51 341.472 1248.45 341.845H1250.77C1250.77 341.685 1250.75 341.535 1250.7 341.395C1250.66 341.252 1250.59 341.127 1250.5 341.02C1250.41 340.913 1250.3 340.83 1250.16 340.77C1250.03 340.707 1249.87 340.675 1249.68 340.675ZM1256.69 340.955C1256.65 341.002 1256.61 341.038 1256.58 341.065C1256.54 341.092 1256.49 341.105 1256.43 341.105C1256.36 341.105 1256.3 341.087 1256.24 341.05C1256.18 341.01 1256.11 340.967 1256.03 340.92C1255.94 340.87 1255.84 340.827 1255.73 340.79C1255.61 340.75 1255.47 340.73 1255.3 340.73C1255.08 340.73 1254.89 340.77 1254.73 340.85C1254.57 340.927 1254.43 341.038 1254.32 341.185C1254.21 341.332 1254.13 341.51 1254.08 341.72C1254.03 341.927 1254 342.162 1254 342.425C1254 342.698 1254.03 342.942 1254.09 343.155C1254.15 343.368 1254.23 343.548 1254.34 343.695C1254.45 343.838 1254.58 343.948 1254.74 344.025C1254.9 344.098 1255.07 344.135 1255.27 344.135C1255.47 344.135 1255.63 344.112 1255.75 344.065C1255.87 344.015 1255.97 343.962 1256.06 343.905C1256.14 343.845 1256.21 343.792 1256.27 343.745C1256.33 343.695 1256.4 343.67 1256.48 343.67C1256.58 343.67 1256.66 343.708 1256.71 343.785L1257.06 344.235C1256.92 344.395 1256.78 344.53 1256.62 344.64C1256.46 344.747 1256.29 344.833 1256.12 344.9C1255.95 344.963 1255.77 345.008 1255.59 345.035C1255.4 345.062 1255.22 345.075 1255.04 345.075C1254.72 345.075 1254.43 345.017 1254.15 344.9C1253.87 344.78 1253.62 344.607 1253.41 344.38C1253.2 344.153 1253.04 343.877 1252.92 343.55C1252.8 343.22 1252.74 342.845 1252.74 342.425C1252.74 342.048 1252.79 341.7 1252.9 341.38C1253.01 341.057 1253.17 340.778 1253.38 340.545C1253.59 340.308 1253.85 340.123 1254.16 339.99C1254.47 339.857 1254.82 339.79 1255.23 339.79C1255.61 339.79 1255.94 339.852 1256.23 339.975C1256.52 340.098 1256.78 340.275 1257.01 340.505L1256.69 340.955Z" fill="#CACCCF"/>
<g filter="url(#filter0_d_4_56)">
<circle cx="751" cy="95.982" r="4" fill="white"/>
<circle cx="751" cy="95.982" r="3.25" stroke="#336CFB" stroke-width="1.5"/>
</g>
<g filter="url(#filter1_d_4_56)">
<path fill-rule="evenodd" clip-rule="evenodd" d="M715 47H787C789.209 47 791 48.7909 791 51V71C791 73.2091 789.209 75 787 75H756L751.5 78.6002C751.208 78.8339 750.792 78.8339 750.5 78.6002L746 75H715C712.791 75 711 73.2091 711 71V51C711 48.7909 712.791 47 715 47Z" fill="white"/>
</g>
<path d="M742.023 64.89H743.781V59.832C743.781 59.636 743.787 59.43 743.799 59.214L742.551 60.258C742.499 60.302 742.445 60.332 742.389 60.348C742.337 60.364 742.285 60.372 742.233 60.372C742.153 60.372 742.079 60.356 742.011 60.324C741.947 60.288 741.899 60.248 741.867 60.204L741.399 59.562L744.045 57.312H745.263V64.89H746.823V66H742.023V64.89ZM750.95 66.096C750.502 66.096 750.092 66.036 749.72 65.916C749.352 65.796 749.036 65.626 748.772 65.406C748.508 65.186 748.302 64.92 748.154 64.608C748.01 64.296 747.938 63.948 747.938 63.564C747.938 63.052 748.064 62.62 748.316 62.268C748.568 61.912 748.96 61.648 749.492 61.476C749.068 61.3 748.75 61.05 748.538 60.726C748.33 60.402 748.226 60.012 748.226 59.556C748.226 59.228 748.292 58.922 748.424 58.638C748.56 58.354 748.748 58.108 748.988 57.9C749.228 57.688 749.514 57.524 749.846 57.408C750.182 57.288 750.55 57.228 750.95 57.228C751.35 57.228 751.716 57.288 752.048 57.408C752.384 57.524 752.672 57.688 752.912 57.9C753.152 58.108 753.338 58.354 753.47 58.638C753.606 58.922 753.674 59.228 753.674 59.556C753.674 60.012 753.568 60.402 753.356 60.726C753.144 61.05 752.828 61.3 752.408 61.476C752.94 61.648 753.332 61.912 753.584 62.268C753.836 62.62 753.962 63.052 753.962 63.564C753.962 63.948 753.888 64.296 753.74 64.608C753.596 64.92 753.392 65.186 753.128 65.406C752.864 65.626 752.546 65.796 752.174 65.916C751.806 66.036 751.398 66.096 750.95 66.096ZM750.95 64.938C751.194 64.938 751.408 64.904 751.592 64.836C751.776 64.764 751.93 64.666 752.054 64.542C752.182 64.418 752.278 64.27 752.342 64.098C752.406 63.926 752.438 63.74 752.438 63.54C752.438 63.064 752.306 62.704 752.042 62.46C751.778 62.216 751.414 62.094 750.95 62.094C750.486 62.094 750.122 62.216 749.858 62.46C749.594 62.704 749.462 63.064 749.462 63.54C749.462 63.74 749.494 63.926 749.558 64.098C749.622 64.27 749.716 64.418 749.84 64.542C749.968 64.666 750.124 64.764 750.308 64.836C750.492 64.904 750.706 64.938 750.95 64.938ZM750.95 60.93C751.19 60.93 751.392 60.892 751.556 60.816C751.72 60.74 751.852 60.64 751.952 60.516C752.052 60.388 752.122 60.244 752.162 60.084C752.206 59.92 752.228 59.752 752.228 59.58C752.228 59.416 752.202 59.26 752.15 59.112C752.098 58.964 752.02 58.834 751.916 58.722C751.812 58.606 751.68 58.514 751.52 58.446C751.36 58.378 751.17 58.344 750.95 58.344C750.73 58.344 750.54 58.378 750.38 58.446C750.22 58.514 750.086 58.606 749.978 58.722C749.874 58.834 749.796 58.964 749.744 59.112C749.696 59.26 749.672 59.416 749.672 59.58C749.672 59.752 749.692 59.92 749.732 60.084C749.776 60.244 749.848 60.388 749.948 60.516C750.048 60.64 750.18 60.74 750.344 60.816C750.508 60.892 750.71 60.93 750.95 60.93ZM761.19 61.662C761.19 62.418 761.108 63.076 760.944 63.636C760.784 64.192 760.56 64.652 760.272 65.016C759.988 65.38 759.65 65.652 759.258 65.832C758.87 66.008 758.45 66.096 757.998 66.096C757.546 66.096 757.126 66.008 756.738 65.832C756.354 65.652 756.02 65.38 755.736 65.016C755.452 64.652 755.23 64.192 755.07 63.636C754.91 63.076 754.83 62.418 754.83 61.662C754.83 60.902 754.91 60.244 755.07 59.688C755.23 59.132 755.452 58.672 755.736 58.308C756.02 57.944 756.354 57.674 756.738 57.498C757.126 57.318 757.546 57.228 757.998 57.228C758.45 57.228 758.87 57.318 759.258 57.498C759.65 57.674 759.988 57.944 760.272 58.308C760.56 58.672 760.784 59.132 760.944 59.688C761.108 60.244 761.19 60.902 761.19 61.662ZM759.66 61.662C759.66 61.034 759.614 60.514 759.522 60.102C759.43 59.69 759.306 59.362 759.15 59.118C758.998 58.874 758.822 58.704 758.622 58.608C758.422 58.508 758.214 58.458 757.998 58.458C757.786 58.458 757.58 58.508 757.38 58.608C757.184 58.704 757.01 58.874 756.858 59.118C756.706 59.362 756.584 59.69 756.492 60.102C756.404 60.514 756.36 61.034 756.36 61.662C756.36 62.29 756.404 62.81 756.492 63.222C756.584 63.634 756.706 63.962 756.858 64.206C757.01 64.45 757.184 64.622 757.38 64.722C757.58 64.818 757.786 64.866 757.998 64.866C758.214 64.866 758.422 64.818 758.622 64.722C758.822 64.622 758.998 64.45 759.15 64.206C759.306 63.962 759.43 63.634 759.522 63.222C759.614 62.81 759.66 62.29 759.66 61.662Z" fill="#336CFB"/>
<path d="M63.38 48.108C62.268 48.108 61.424 47.816 60.848 47.232C60.272 46.64 59.984 45.78 59.984 44.652V39.96C59.984 39.624 60.148 39.456 60.476 39.456C60.804 39.456 60.968 39.624 60.968 39.96V44.604C60.968 46.356 61.772 47.232 63.38 47.232C64.972 47.232 65.768 46.356 65.768 44.604V39.96C65.768 39.624 65.936 39.456 66.272 39.456C66.592 39.456 66.752 39.624 66.752 39.96V44.652C66.752 45.78 66.464 46.64 65.888 47.232C65.32 47.816 64.484 48.108 63.38 48.108ZM69.1225 48.084C68.8025 48.084 68.6425 47.916 68.6425 47.58V42.576C68.6425 42.248 68.7985 42.084 69.1105 42.084C69.4305 42.084 69.5905 42.248 69.5905 42.576V43.164C69.7825 42.796 70.0545 42.52 70.4065 42.336C70.7585 42.152 71.1545 42.06 71.5945 42.06C72.9785 42.06 73.6705 42.828 73.6705 44.364V47.58C73.6705 47.916 73.5105 48.084 73.1905 48.084C72.8625 48.084 72.6985 47.916 72.6985 47.58V44.424C72.6985 43.88 72.5905 43.484 72.3745 43.236C72.1665 42.98 71.8305 42.852 71.3665 42.852C70.8305 42.852 70.4025 43.02 70.0825 43.356C69.7705 43.684 69.6145 44.124 69.6145 44.676V47.58C69.6145 47.916 69.4505 48.084 69.1225 48.084ZM75.9428 40.764C75.5188 40.764 75.3068 40.564 75.3068 40.164C75.3068 39.772 75.5188 39.576 75.9428 39.576C76.3668 39.576 76.5788 39.772 76.5788 40.164C76.5788 40.564 76.3668 40.764 75.9428 40.764ZM75.9428 48.06C75.6228 48.06 75.4628 47.884 75.4628 47.532V42.624C75.4628 42.28 75.6228 42.108 75.9428 42.108C76.2708 42.108 76.4348 42.28 76.4348 42.624V47.532C76.4348 47.884 76.2708 48.06 75.9428 48.06ZM82.9438 50.244C82.6158 50.244 82.4518 50.08 82.4518 49.752V46.98C82.2838 47.324 82.0238 47.6 81.6718 47.808C81.3278 48.008 80.9278 48.108 80.4718 48.108C79.9518 48.108 79.4958 47.984 79.1038 47.736C78.7198 47.488 78.4198 47.14 78.2038 46.692C77.9958 46.236 77.8918 45.7 77.8918 45.084C77.8918 44.46 77.9958 43.924 78.2038 43.476C78.4198 43.02 78.7198 42.672 79.1038 42.432C79.4958 42.184 79.9518 42.06 80.4718 42.06C80.9278 42.06 81.3278 42.164 81.6718 42.372C82.0238 42.572 82.2878 42.848 82.4638 43.2V42.576C82.4638 42.248 82.6238 42.084 82.9438 42.084C83.2638 42.084 83.4238 42.248 83.4238 42.576V49.752C83.4238 50.08 83.2638 50.244 82.9438 50.244ZM80.6758 47.328C81.2198 47.328 81.6558 47.136 81.9838 46.752C82.3118 46.36 82.4758 45.804 82.4758 45.084C82.4758 44.356 82.3118 43.8 81.9838 43.416C81.6558 43.032 81.2198 42.84 80.6758 42.84C80.1238 42.84 79.6838 43.032 79.3558 43.416C79.0358 43.8 78.8758 44.356 78.8758 45.084C78.8758 45.804 79.0358 46.36 79.3558 46.752C79.6838 47.136 80.1238 47.328 80.6758 47.328ZM87.3119 48.108C85.9119 48.108 85.2119 47.336 85.2119 45.792V42.576C85.2119 42.248 85.3719 42.084 85.6919 42.084C86.0199 42.084 86.1839 42.248 86.1839 42.576V45.78C86.1839 46.3 86.2879 46.684 86.4959 46.932C86.7119 47.18 87.0479 47.304 87.5039 47.304C87.9999 47.304 88.4039 47.14 88.7159 46.812C89.0279 46.476 89.1839 46.032 89.1839 45.48V42.576C89.1839 42.248 89.3479 42.084 89.6759 42.084C89.9959 42.084 90.1559 42.248 90.1559 42.576V47.58C90.1559 47.916 89.9999 48.084 89.6879 48.084C89.3679 48.084 89.2079 47.916 89.2079 47.58V47.016C89.0239 47.368 88.7639 47.64 88.4279 47.832C88.0999 48.016 87.7279 48.108 87.3119 48.108ZM94.6025 48.108C93.6825 48.108 92.9545 47.84 92.4185 47.304C91.8825 46.76 91.6145 46.024 91.6145 45.096C91.6145 44.496 91.7345 43.968 91.9745 43.512C92.2145 43.048 92.5425 42.692 92.9585 42.444C93.3825 42.188 93.8705 42.06 94.4225 42.06C95.2145 42.06 95.8345 42.316 96.2825 42.828C96.7305 43.332 96.9545 44.028 96.9545 44.916C96.9545 45.164 96.8145 45.288 96.5345 45.288H92.5625C92.5945 45.952 92.7865 46.46 93.1385 46.812C93.4905 47.156 93.9785 47.328 94.6025 47.328C94.8665 47.328 95.1345 47.296 95.4065 47.232C95.6785 47.16 95.9425 47.036 96.1985 46.86C96.3825 46.74 96.5345 46.716 96.6545 46.788C96.7825 46.86 96.8465 46.972 96.8465 47.124C96.8545 47.268 96.7745 47.396 96.6065 47.508C96.3425 47.7 96.0265 47.848 95.6585 47.952C95.2985 48.056 94.9465 48.108 94.6025 48.108ZM94.4465 42.78C93.8945 42.78 93.4585 42.952 93.1385 43.296C92.8185 43.64 92.6305 44.092 92.5745 44.652H96.1145C96.0905 44.06 95.9345 43.6 95.6465 43.272C95.3665 42.944 94.9665 42.78 94.4465 42.78ZM60.872 67C60.432 67 60.212 66.784 60.212 66.352C60.212 65.936 60.432 65.728 60.872 65.728H62.216V60.292L61.196 60.904C61.004 61.016 60.828 61.044 60.668 60.988C60.516 60.932 60.4 60.832 60.32 60.688C60.24 60.544 60.216 60.388 60.248 60.22C60.28 60.044 60.392 59.9 60.584 59.788L62.24 58.792C62.4 58.696 62.56 58.616 62.72 58.552C62.88 58.48 63.028 58.444 63.164 58.444C63.332 58.444 63.472 58.492 63.584 58.588C63.696 58.676 63.752 58.824 63.752 59.032V65.728H64.976C65.416 65.728 65.636 65.936 65.636 66.352C65.636 66.784 65.416 67 64.976 67H60.872ZM67.7913 67C67.5353 67 67.3473 66.944 67.2273 66.832C67.1153 66.712 67.0593 66.54 67.0593 66.316C67.0593 66.18 67.0953 66.048 67.1673 65.92C67.2393 65.792 67.3433 65.656 67.4793 65.512L69.8913 62.944C70.2593 62.56 70.5233 62.212 70.6833 61.9C70.8433 61.58 70.9233 61.26 70.9233 60.94C70.9233 60.124 70.4313 59.716 69.4473 59.716C69.1753 59.716 68.9033 59.756 68.6313 59.836C68.3593 59.908 68.0833 60.036 67.8033 60.22C67.6273 60.34 67.4633 60.376 67.3113 60.328C67.1593 60.28 67.0433 60.184 66.9633 60.04C66.8833 59.888 66.8553 59.728 66.8793 59.56C66.9113 59.392 67.0153 59.248 67.1913 59.128C67.5353 58.896 67.9193 58.72 68.3433 58.6C68.7753 58.48 69.2073 58.42 69.6393 58.42C70.5433 58.42 71.2353 58.624 71.7153 59.032C72.2033 59.44 72.4473 60.024 72.4473 60.784C72.4473 61.296 72.3233 61.788 72.0753 62.26C71.8353 62.732 71.4553 63.24 70.9353 63.784L69.0753 65.728H72.2073C72.6473 65.728 72.8673 65.936 72.8673 66.352C72.8673 66.784 72.6473 67 72.2073 67H67.7913ZM76.9906 67.12C75.9906 67.12 75.2266 66.744 74.6986 65.992C74.1706 65.232 73.9066 64.152 73.9066 62.752C73.9066 61.336 74.1706 60.26 74.6986 59.524C75.2266 58.788 75.9906 58.42 76.9906 58.42C77.9986 58.42 78.7626 58.788 79.2826 59.524C79.8106 60.26 80.0746 61.332 80.0746 62.74C80.0746 64.148 79.8106 65.232 79.2826 65.992C78.7546 66.744 77.9906 67.12 76.9906 67.12ZM76.9906 65.86C77.5346 65.86 77.9346 65.608 78.1906 65.104C78.4546 64.6 78.5866 63.812 78.5866 62.74C78.5866 61.668 78.4546 60.892 78.1906 60.412C77.9346 59.924 77.5346 59.68 76.9906 59.68C76.4546 59.68 76.0546 59.924 75.7906 60.412C75.5266 60.892 75.3946 61.668 75.3946 62.74C75.3946 63.812 75.5266 64.6 75.7906 65.104C76.0546 65.608 76.4546 65.86 76.9906 65.86ZM84.1859 67.12C83.1859 67.12 82.4219 66.744 81.8939 65.992C81.3659 65.232 81.1019 64.152 81.1019 62.752C81.1019 61.336 81.3659 60.26 81.8939 59.524C82.4219 58.788 83.1859 58.42 84.1859 58.42C85.1939 58.42 85.9579 58.788 86.4779 59.524C87.0059 60.26 87.2699 61.332 87.2699 62.74C87.2699 64.148 87.0059 65.232 86.4779 65.992C85.9499 66.744 85.1859 67.12 84.1859 67.12ZM84.1859 65.86C84.7299 65.86 85.1299 65.608 85.3859 65.104C85.6499 64.6 85.7819 63.812 85.7819 62.74C85.7819 61.668 85.6499 60.892 85.3859 60.412C85.1299 59.924 84.7299 59.68 84.1859 59.68C83.6499 59.68 83.2499 59.924 82.9859 60.412C82.7219 60.892 82.5899 61.668 82.5899 62.74C82.5899 63.812 82.7219 64.6 82.9859 65.104C83.2499 65.608 83.6499 65.86 84.1859 65.86Z" fill="black"/>
<rect x="34" y="39" width="15" height="15" fill="#7A64C6"/>
<path d="M232.536 45.084C232.208 45.084 232.044 44.912 232.044 44.568V37.044C232.044 36.708 232.212 36.54 232.548 36.54H235.392C236.304 36.54 237 36.752 237.48 37.176C237.968 37.6 238.212 38.204 238.212 38.988C238.212 39.612 238.04 40.124 237.696 40.524C237.36 40.924 236.88 41.184 236.256 41.304C236.624 41.432 236.94 41.744 237.204 42.24L238.356 44.388C238.444 44.556 238.46 44.716 238.404 44.868C238.348 45.012 238.22 45.084 238.02 45.084C237.884 45.084 237.772 45.056 237.684 45C237.596 44.936 237.52 44.84 237.456 44.712L236.148 42.288C235.964 41.944 235.752 41.716 235.512 41.604C235.272 41.484 234.956 41.424 234.564 41.424H233.028V44.568C233.028 44.912 232.864 45.084 232.536 45.084ZM233.028 40.644H235.248C236.576 40.644 237.24 40.092 237.24 38.988C237.24 37.9 236.576 37.356 235.248 37.356H233.028V40.644ZM242.438 45.108C241.518 45.108 240.79 44.84 240.254 44.304C239.718 43.76 239.45 43.024 239.45 42.096C239.45 41.496 239.57 40.968 239.81 40.512C240.05 40.048 240.378 39.692 240.794 39.444C241.218 39.188 241.706 39.06 242.258 39.06C243.05 39.06 243.67 39.316 244.118 39.828C244.566 40.332 244.79 41.028 244.79 41.916C244.79 42.164 244.65 42.288 244.37 42.288H240.398C240.43 42.952 240.622 43.46 240.974 43.812C241.326 44.156 241.814 44.328 242.438 44.328C242.702 44.328 242.97 44.296 243.242 44.232C243.514 44.16 243.778 44.036 244.034 43.86C244.218 43.74 244.37 43.716 244.49 43.788C244.618 43.86 244.682 43.972 244.682 44.124C244.69 44.268 244.61 44.396 244.442 44.508C244.178 44.7 243.862 44.848 243.494 44.952C243.134 45.056 242.782 45.108 242.438 45.108ZM242.282 39.78C241.73 39.78 241.294 39.952 240.974 40.296C240.654 40.64 240.466 41.092 240.41 41.652H243.95C243.926 41.06 243.77 40.6 243.482 40.272C243.202 39.944 242.802 39.78 242.282 39.78ZM246.677 47.244C246.357 47.244 246.197 47.08 246.197 46.752V39.576C246.197 39.248 246.353 39.084 246.665 39.084C246.993 39.084 247.157 39.248 247.157 39.576V40.2C247.325 39.848 247.585 39.572 247.937 39.372C248.289 39.164 248.693 39.06 249.149 39.06C249.669 39.06 250.121 39.184 250.505 39.432C250.897 39.672 251.197 40.02 251.405 40.476C251.621 40.924 251.729 41.46 251.729 42.084C251.729 42.7 251.621 43.236 251.405 43.692C251.197 44.14 250.897 44.488 250.505 44.736C250.121 44.984 249.669 45.108 249.149 45.108C248.701 45.108 248.301 45.008 247.949 44.808C247.597 44.608 247.337 44.332 247.169 43.98V46.752C247.169 47.08 247.005 47.244 246.677 47.244ZM248.945 44.328C249.489 44.328 249.925 44.136 250.253 43.752C250.581 43.36 250.745 42.804 250.745 42.084C250.745 41.356 250.581 40.8 250.253 40.416C249.925 40.032 249.489 39.84 248.945 39.84C248.401 39.84 247.965 40.032 247.637 40.416C247.309 40.8 247.145 41.356 247.145 42.084C247.145 42.804 247.309 43.36 247.637 43.752C247.965 44.136 248.401 44.328 248.945 44.328ZM255.821 45.108C254.901 45.108 254.173 44.84 253.637 44.304C253.101 43.76 252.833 43.024 252.833 42.096C252.833 41.496 252.953 40.968 253.193 40.512C253.433 40.048 253.761 39.692 254.177 39.444C254.601 39.188 255.089 39.06 255.641 39.06C256.433 39.06 257.053 39.316 257.501 39.828C257.949 40.332 258.173 41.028 258.173 41.916C258.173 42.164 258.033 42.288 257.753 42.288H253.781C253.813 42.952 254.005 43.46 254.357 43.812C254.709 44.156 255.197 44.328 255.821 44.328C256.085 44.328 256.353 44.296 256.625 44.232C256.897 44.16 257.161 44.036 257.417 43.86C257.601 43.74 257.753 43.716 257.873 43.788C258.001 43.86 258.065 43.972 258.065 44.124C258.073 44.268 257.993 44.396 257.825 44.508C257.561 44.7 257.245 44.848 256.877 44.952C256.517 45.056 256.165 45.108 255.821 45.108ZM255.665 39.78C255.113 39.78 254.677 39.952 254.357 40.296C254.037 40.64 253.849 41.092 253.793 41.652H257.333C257.309 41.06 257.153 40.6 256.865 40.272C256.585 39.944 256.185 39.78 255.665 39.78ZM261.416 45.108C261.016 45.108 260.656 45.032 260.336 44.88C260.024 44.72 259.776 44.504 259.592 44.232C259.408 43.96 259.316 43.656 259.316 43.32C259.316 42.896 259.424 42.56 259.64 42.312C259.864 42.064 260.228 41.888 260.732 41.784C261.244 41.672 261.94 41.616 262.82 41.616H263.204V41.244C263.204 40.748 263.1 40.392 262.892 40.176C262.692 39.952 262.368 39.84 261.92 39.84C261.64 39.84 261.356 39.876 261.068 39.948C260.788 40.02 260.496 40.136 260.192 40.296C260.056 40.368 259.94 40.384 259.844 40.344C259.756 40.296 259.692 40.224 259.652 40.128C259.62 40.024 259.62 39.92 259.652 39.816C259.692 39.704 259.772 39.62 259.892 39.564C260.236 39.388 260.58 39.26 260.924 39.18C261.276 39.1 261.608 39.06 261.92 39.06C262.672 39.06 263.228 39.244 263.588 39.612C263.956 39.98 264.14 40.552 264.14 41.328V44.58C264.14 44.916 263.992 45.084 263.696 45.084C263.384 45.084 263.228 44.916 263.228 44.58V43.992C263.076 44.336 262.84 44.608 262.52 44.808C262.208 45.008 261.84 45.108 261.416 45.108ZM261.572 44.376C262.052 44.376 262.444 44.212 262.748 43.884C263.052 43.548 263.204 43.124 263.204 42.612V42.252H262.832C262.184 42.252 261.672 42.284 261.296 42.348C260.928 42.404 260.668 42.508 260.516 42.66C260.372 42.804 260.3 43.004 260.3 43.26C260.3 43.588 260.412 43.856 260.636 44.064C260.868 44.272 261.18 44.376 261.572 44.376ZM268.283 45.108C267.595 45.108 267.079 44.928 266.735 44.568C266.391 44.2 266.219 43.672 266.219 42.984V39.924H265.415C265.135 39.924 264.995 39.796 264.995 39.54C264.995 39.292 265.135 39.168 265.415 39.168H266.219V37.788C266.219 37.46 266.383 37.296 266.711 37.296C267.031 37.296 267.191 37.46 267.191 37.788V39.168H268.703C268.983 39.168 269.123 39.292 269.123 39.54C269.123 39.796 268.983 39.924 268.703 39.924H267.191V42.888C267.191 43.344 267.287 43.692 267.479 43.932C267.671 44.164 267.983 44.28 268.415 44.28C268.567 44.28 268.695 44.264 268.799 44.232C268.903 44.2 268.995 44.184 269.075 44.184C269.147 44.176 269.207 44.2 269.255 44.256C269.303 44.312 269.327 44.408 269.327 44.544C269.327 44.64 269.307 44.728 269.267 44.808C269.235 44.888 269.175 44.944 269.087 44.976C268.991 45.008 268.863 45.036 268.703 45.06C268.551 45.092 268.411 45.108 268.283 45.108ZM232.872 64C232.432 64 232.212 63.784 232.212 63.352C232.212 62.936 232.432 62.728 232.872 62.728H234.216V57.292L233.196 57.904C233.004 58.016 232.828 58.044 232.668 57.988C232.516 57.932 232.4 57.832 232.32 57.688C232.24 57.544 232.216 57.388 232.248 57.22C232.28 57.044 232.392 56.9 232.584 56.788L234.24 55.792C234.4 55.696 234.56 55.616 234.72 55.552C234.88 55.48 235.028 55.444 235.164 55.444C235.332 55.444 235.472 55.492 235.584 55.588C235.696 55.676 235.752 55.824 235.752 56.032V62.728H236.976C237.416 62.728 237.636 62.936 237.636 63.352C237.636 63.784 237.416 64 236.976 64H232.872ZM241.627 64.12C241.195 64.12 240.747 64.064 240.283 63.952C239.819 63.84 239.415 63.672 239.071 63.448C238.871 63.312 238.751 63.16 238.711 62.992C238.671 62.816 238.691 62.66 238.771 62.524C238.851 62.38 238.971 62.284 239.131 62.236C239.299 62.188 239.487 62.22 239.695 62.332C240.023 62.508 240.339 62.636 240.643 62.716C240.947 62.788 241.259 62.824 241.579 62.824C242.659 62.824 243.199 62.4 243.199 61.552C243.199 61.152 243.063 60.856 242.791 60.664C242.527 60.464 242.139 60.364 241.627 60.364H240.859C240.635 60.364 240.463 60.308 240.343 60.196C240.231 60.084 240.175 59.928 240.175 59.728C240.175 59.528 240.231 59.372 240.343 59.26C240.463 59.148 240.635 59.092 240.859 59.092H241.483C241.931 59.092 242.287 58.984 242.551 58.768C242.815 58.544 242.947 58.236 242.947 57.844C242.947 57.476 242.823 57.196 242.575 57.004C242.335 56.812 241.983 56.716 241.519 56.716C241.223 56.716 240.943 56.752 240.679 56.824C240.423 56.888 240.139 57.012 239.827 57.196C239.643 57.308 239.475 57.34 239.323 57.292C239.171 57.236 239.051 57.14 238.963 57.004C238.883 56.86 238.859 56.704 238.891 56.536C238.923 56.368 239.035 56.224 239.227 56.104C239.931 55.648 240.739 55.42 241.651 55.42C242.531 55.42 243.215 55.62 243.703 56.02C244.191 56.412 244.435 56.96 244.435 57.664C244.435 58.12 244.319 58.52 244.087 58.864C243.855 59.208 243.539 59.456 243.139 59.608C243.627 59.744 244.007 59.996 244.279 60.364C244.551 60.724 244.687 61.164 244.687 61.684C244.687 62.436 244.415 63.032 243.871 63.472C243.327 63.904 242.579 64.12 241.627 64.12ZM248.991 64.12C247.991 64.12 247.227 63.744 246.699 62.992C246.171 62.232 245.907 61.152 245.907 59.752C245.907 58.336 246.171 57.26 246.699 56.524C247.227 55.788 247.991 55.42 248.991 55.42C249.999 55.42 250.763 55.788 251.283 56.524C251.811 57.26 252.075 58.332 252.075 59.74C252.075 61.148 251.811 62.232 251.283 62.992C250.755 63.744 249.991 64.12 248.991 64.12ZM248.991 62.86C249.535 62.86 249.935 62.608 250.191 62.104C250.455 61.6 250.587 60.812 250.587 59.74C250.587 58.668 250.455 57.892 250.191 57.412C249.935 56.924 249.535 56.68 248.991 56.68C248.455 56.68 248.055 56.924 247.791 57.412C247.527 57.892 247.395 58.668 247.395 59.74C247.395 60.812 247.527 61.6 247.791 62.104C248.055 62.608 248.455 62.86 248.991 62.86ZM256.186 64.12C255.186 64.12 254.422 63.744 253.894 62.992C253.366 62.232 253.102 61.152 253.102 59.752C253.102 58.336 253.366 57.26 253.894 56.524C254.422 55.788 255.186 55.42 256.186 55.42C257.194 55.42 257.958 55.788 258.478 56.524C259.006 57.26 259.27 58.332 259.27 59.74C259.27 61.148 259.006 62.232 258.478 62.992C257.95 63.744 257.186 64.12 256.186 64.12ZM256.186 62.86C256.73 62.86 257.13 62.608 257.386 62.104C257.65 61.6 257.782 60.812 257.782 59.74C257.782 58.668 257.65 57.892 257.386 57.412C257.13 56.924 256.73 56.68 256.186 56.68C255.65 56.68 255.25 56.924 254.986 57.412C254.722 57.892 254.59 58.668 254.59 59.74C254.59 60.812 254.722 61.6 254.986 62.104C255.25 62.608 255.65 62.86 256.186 62.86ZM263.381 64.12C262.381 64.12 261.617 63.744 261.089 62.992C260.561 62.232 260.297 61.152 260.297 59.752C260.297 58.336 260.561 57.26 261.089 56.524C261.617 55.788 262.381 55.42 263.381 55.42C264.389 55.42 265.153 55.788 265.673 56.524C266.201 57.26 266.465 58.332 266.465 59.74C266.465 61.148 266.201 62.232 265.673 62.992C265.145 63.744 264.381 64.12 263.381 64.12ZM263.381 62.86C263.925 62.86 264.325 62.608 264.581 62.104C264.845 61.6 264.977 60.812 264.977 59.74C264.977 58.668 264.845 57.892 264.581 57.412C264.325 56.924 263.925 56.68 263.381 56.68C262.845 56.68 262.445 56.924 262.181 57.412C261.917 57.892 261.785 58.668 261.785 59.74C261.785 60.812 261.917 61.6 262.181 62.104C262.445 62.608 262.845 62.86 263.381 62.86Z" fill="black"/>
<rect x="206" y="39" width="15" height="15" fill="#D57C09"/>
<defs>
<filter id="filter0_d_4_56" x="745" y="90.982" width="12" height="12" filterUnits="userSpaceOnUse" color-interpolation-filters="sRGB">
<feFlood flood-opacity="0" result="BackgroundImageFix"/>
<feColorMatrix in="SourceAlpha" type="matrix" values="0 0 0 0 0 0 0 0 0 0 0 0 0 0 0 0 0 0 127 0" result="hardAlpha"/>
<feOffset dy="1"/>
<feGaussianBlur stdDeviation="1"/>
<feColorMatrix type="matrix" values="0 0 0 0 0.0627451 0 0 0 0 0.117647 0 0 0 0 0.45098 0 0 0 0.2 0"/>
<feBlend mode="normal" in2="BackgroundImageFix" result="effect1_dropShadow_4_56"/>
<feBlend mode="normal" in="SourceGraphic" in2="effect1_dropShadow_4_56" result="shape"/>
</filter>
<filter id="filter1_d_4_56" x="703" y="39" width="96" height="47.7755" filterUnits="userSpaceOnUse" color-interpolation-filters="sRGB">
<feFlood flood-opacity="0" result="BackgroundImageFix"/>
<feColorMatrix in="SourceAlpha" type="matrix" values="0 0 0 0 0 0 0 0 0 0 0 0 0 0 0 0 0 0 127 0" result="hardAlpha"/>
<feOffset/>
<feGaussianBlur stdDeviation="4"/>
<feColorMatrix type="matrix" values="0 0 0 0 0.0627451 0 0 0 0 0.117647 0 0 0 0 0.45098 0 0 0 0.12 0"/>
<feBlend mode="normal" in2="BackgroundImageFix" result="effect1_dropShadow_4_56"/>
<feBlend mode="normal" in="SourceGraphic" in2="effect1_dropShadow_4_56" result="shape"/>
</filter>
<linearGradient id="paint0_linear_4_56" x1="671" y1="67" x2="671" y2="325.5" gradientUnits="userSpaceOnUse">
<stop stop-color="#336CFB" stop-opacity="0.2"/>
<stop offset="1" stop-color="#336CFB" stop-opacity="0.02"/>
</linearGradient>
</defs>
</svg>
