<svg width="21" height="17" viewBox="0 0 21 17" fill="none" xmlns="http://www.w3.org/2000/svg">
<path fill-rule="evenodd" clip-rule="evenodd" d="M1.15625 16.9474H20.5625V15.7368H1.875V0H0.4375V16.3421L1.15625 16.9474ZM3.3125 13.9211V4.23684L4.03125 3.63158H6.90625L7.625 4.23684V13.9211L6.90625 14.5263H4.03125L3.3125 13.9211ZM6.1875 13.3158V4.84211H4.75V13.3158H6.1875ZM14.8125 1.81579V13.9211L15.5312 14.5263H18.4062L19.125 13.9211V1.81579L18.4062 1.21053H15.5312L14.8125 1.81579ZM17.6875 2.42105V13.3158H16.25V2.42105H17.6875ZM9.0625 13.9211V6.6579L9.78125 6.05263H12.6562L13.375 6.6579V13.9211L12.6562 14.5263H9.78125L9.0625 13.9211ZM11.9375 13.3158V7.26316H10.5V13.3158H11.9375Z" fill="#EA5455"/>
</svg>
