<svg width="22" height="23" viewBox="0 0 22 23" fill="none" xmlns="http://www.w3.org/2000/svg">
<path d="M5.49998 18.5335V9.36687C5.49998 7.90818 6.07944 6.50923 7.11089 5.47778C8.14234 4.44633 9.54129 3.86687 11 3.86687C12.4587 3.86687 13.8576 4.44633 14.8891 5.47778C15.9205 6.50923 16.5 7.90818 16.5 9.36687V18.5335M1.83331 12.6348C1.83331 10.7529 3.66665 10.2835 5.49998 10.2835V18.5335C4.52752 18.5335 3.59489 18.1472 2.90725 17.4596C2.21962 16.772 1.83331 15.8393 1.83331 14.8669V12.6348ZM20.1666 12.6348C20.1666 10.7529 18.3333 10.2835 16.5 10.2835V18.5335C17.4724 18.5335 18.4051 18.1472 19.0927 17.4596C19.7803 16.772 20.1666 15.8393 20.1666 14.8669V12.6348Z" stroke="black" stroke-width="2" stroke-linecap="round" stroke-linejoin="round"/>
</svg>
