<svg width="20" height="22" viewBox="0 0 20 22" fill="none" xmlns="http://www.w3.org/2000/svg">
<path d="M2.87501 21.3333H17.125C17.8472 21.3333 18.4653 21.0903 18.9792 20.6042C19.4931 20.118 19.7639 19.5 19.7917 18.75V18.6667C19.7917 18 19.6111 17.375 19.25 16.7917L12.6667 8V1.79167H13.5417C13.7639 1.79167 13.9722 1.69444 14.1667 1.5C14.3611 1.30556 14.4583 1.09722 14.4583 0.875C14.4583 0.652777 14.3611 0.451389 14.1667 0.270833C13.9722 0.0902777 13.7639 0 13.5417 0H6.45834C6.23612 0 6.02779 0.0902777 5.83334 0.270833C5.6389 0.451389 5.54168 0.652777 5.54168 0.875C5.54168 1.09722 5.6389 1.30556 5.83334 1.5C6.02779 1.69444 6.23612 1.79167 6.45834 1.79167H7.33334V7.91666L0.833344 16.7083C0.472233 17.2917 0.291677 17.8889 0.291677 18.5L0.208344 18.6667C0.236121 19.4167 0.513899 20.0486 1.04168 20.5625C1.56945 21.0764 2.18057 21.3333 2.87501 21.3333ZM7.33334 10.9167L7.79168 10.4167C8.45834 9.47222 8.90279 8.40277 9.12501 7.20833V1.79167H10.875V7.125C11.125 8.43055 11.5695 9.48611 12.2083 10.2917L12.6667 10.8333L14.4583 13.25H5.54168L7.33334 10.9167ZM2.25001 17.7917L4.66668 14.5V15.125H15.7917L17.75 17.7917C17.8056 17.8472 17.8889 18.1111 18 18.5833C18 18.8333 17.9097 19.0555 17.7292 19.25C17.5486 19.4444 17.3472 19.5417 17.125 19.5417H2.87501C2.65279 19.5417 2.4514 19.4444 2.27084 19.25C2.09029 19.0555 2.00001 18.8333 2.00001 18.5833C2.00001 18.2222 2.08334 17.9583 2.25001 17.7917Z" fill="black"/>
</svg>
