<svg width="22" height="22" viewBox="0 0 22 22" fill="none" xmlns="http://www.w3.org/2000/svg">
<path d="M5.5 18.3333V9.16667C5.5 7.70798 6.07946 6.30903 7.11091 5.27758C8.14236 4.24613 9.54131 3.66667 11 3.66667C12.4587 3.66667 13.8576 4.24613 14.8891 5.27758C15.9205 6.30903 16.5 7.70798 16.5 9.16667V18.3333M1.83333 12.4346C1.83333 10.5527 3.66667 10.0833 5.5 10.0833V18.3333C4.52754 18.3333 3.59491 17.947 2.90727 17.2594C2.21964 16.5718 1.83333 15.6391 1.83333 14.6667V12.4346ZM20.1667 12.4346C20.1667 10.5527 18.3333 10.0833 16.5 10.0833V18.3333C17.4725 18.3333 18.4051 17.947 19.0927 17.2594C19.7804 16.5718 20.1667 15.6391 20.1667 14.6667V12.4346Z" stroke="black" stroke-width="2" stroke-linecap="round" stroke-linejoin="round"/>
</svg>
