<svg width="22" height="22" viewBox="0 0 22 22" fill="none" xmlns="http://www.w3.org/2000/svg">
<path d="M8.38017 19.7867C6.86403 19.334 5.49092 18.4965 4.3945 17.3557C4.74727 16.9373 4.96717 16.4232 5.02608 15.8791C5.08498 15.335 4.98021 14.7857 4.72516 14.3015C4.47011 13.8173 4.07639 13.4202 3.59438 13.161C3.11237 12.9018 2.56399 12.7924 2.01942 12.8466C1.89535 12.2389 1.83301 11.6202 1.83333 11C1.83333 10.0421 1.98 9.11808 2.25317 8.25H2.29167C2.75905 8.25015 3.21877 8.13117 3.6274 7.9043C4.03604 7.67743 4.3801 7.35015 4.62712 6.95337C4.87413 6.55659 5.01594 6.1034 5.03916 5.63658C5.06237 5.16977 4.96622 4.70475 4.75979 4.28542C5.8344 3.28479 7.13399 2.55742 8.54883 2.16471C8.77909 2.61681 9.12993 2.9964 9.56253 3.26148C9.99514 3.52656 10.4926 3.66679 11 3.66667C11.5074 3.66679 12.0049 3.52656 12.4375 3.26148C12.8701 2.9964 13.2209 2.61681 13.4512 2.16471C14.866 2.55742 16.1656 3.28479 17.2402 4.28542C17.0323 4.70768 16.9362 5.17625 16.9612 5.64628C16.9862 6.1163 17.1314 6.57205 17.3829 6.96989C17.6345 7.36773 17.9839 7.69435 18.3978 7.91848C18.8117 8.14262 19.2762 8.25676 19.7468 8.25C20.0259 9.13995 20.1675 10.0673 20.1667 11C20.1667 11.6325 20.1025 12.2503 19.9806 12.8466C19.436 12.7924 18.8876 12.9018 18.4056 13.161C17.9236 13.4202 17.5299 13.8173 17.2748 14.3015C17.0198 14.7857 16.915 15.335 16.9739 15.8791C17.0328 16.4232 17.2527 16.9373 17.6055 17.3557C16.5091 18.4965 15.136 19.334 13.6198 19.7867C13.4418 19.2318 13.0922 18.7478 12.6213 18.4043C12.1505 18.0609 11.5828 17.8759 11 17.8759C10.4172 17.8759 9.84951 18.0609 9.37868 18.4043C8.90784 18.7478 8.55821 19.2318 8.38017 19.7867Z" stroke="black" stroke-width="2" stroke-linejoin="round"/>
<path d="M11 14.2083C11.4213 14.2083 11.8385 14.1253 12.2278 13.9641C12.617 13.8029 12.9707 13.5666 13.2686 13.2686C13.5666 12.9707 13.8029 12.617 13.9641 12.2278C14.1253 11.8385 14.2083 11.4213 14.2083 11C14.2083 10.5787 14.1253 10.1615 13.9641 9.77222C13.8029 9.38297 13.5666 9.02929 13.2686 8.73137C12.9707 8.43344 12.617 8.19712 12.2278 8.03589C11.8385 7.87465 11.4213 7.79167 11 7.79167C10.1491 7.79167 9.33305 8.12969 8.73137 8.73137C8.12969 9.33305 7.79167 10.1491 7.79167 11C7.79167 11.8509 8.12969 12.667 8.73137 13.2686C9.33305 13.8703 10.1491 14.2083 11 14.2083V14.2083Z" stroke="black" stroke-width="2" stroke-linejoin="round"/>
</svg>
