<svg width="24" height="24" viewBox="0 0 24 24" fill="none" xmlns="http://www.w3.org/2000/svg">
<path d="M16.25 15C16.0511 15 15.8603 15.079 15.7197 15.2197C15.579 15.3603 15.5 15.5511 15.5 15.75C15.5 15.9489 15.579 16.1397 15.7197 16.2803C15.8603 16.421 16.0511 16.5 16.25 16.5H19.25C19.4489 16.5 19.6397 16.421 19.7803 16.2803C19.921 16.1397 20 15.9489 20 15.75C20 15.5511 19.921 15.3603 19.7803 15.2197C19.6397 15.079 19.4489 15 19.25 15H16.25ZM2 7.5C2 6.70435 2.31607 5.94129 2.87868 5.37868C3.44129 4.81607 4.20435 4.5 5 4.5H20C20.7956 4.5 21.5587 4.81607 22.1213 5.37868C22.6839 5.94129 23 6.70435 23 7.5V16.5C23 17.2956 22.6839 18.0587 22.1213 18.6213C21.5587 19.1839 20.7956 19.5 20 19.5H5C4.20435 19.5 3.44129 19.1839 2.87868 18.6213C2.31607 18.0587 2 17.2956 2 16.5V7.5ZM21.5 7.5C21.5 7.10218 21.342 6.72064 21.0607 6.43934C20.7794 6.15804 20.3978 6 20 6H5C4.60218 6 4.22064 6.15804 3.93934 6.43934C3.65804 6.72064 3.5 7.10218 3.5 7.5V9H21.5V7.5ZM3.5 16.5C3.5 16.8978 3.65804 17.2794 3.93934 17.5607C4.22064 17.842 4.60218 18 5 18H20C20.3978 18 20.7794 17.842 21.0607 17.5607C21.342 17.2794 21.5 16.8978 21.5 16.5V10.5H3.5V16.5Z" fill="black"/>
</svg>
