<svg width="28" height="24" viewBox="0 0 28 24" fill="none" xmlns="http://www.w3.org/2000/svg">
<path d="M24.1498 0.962403C23.3785 0.962112 22.628 1.18136 22.0111 1.58719C21.3941 1.99302 20.944 2.56351 20.7284 3.2129C20.5128 3.8623 20.5434 4.55552 20.8155 5.18837C21.0877 5.82121 21.5867 6.3595 22.2376 6.72231L19.9124 13.8594C19.8402 13.8553 19.7679 13.8532 19.6956 13.853C18.9291 13.8523 18.1829 14.0695 17.5691 14.4721L13.2733 11.3327C13.4767 10.8035 13.5147 10.2362 13.3833 9.68979C13.2519 9.14339 12.956 8.63784 12.5263 8.22574C12.0966 7.81364 11.5488 7.51004 10.94 7.34654C10.3311 7.18303 9.68345 7.16558 9.06431 7.29601C8.44517 7.42644 7.87719 7.69998 7.41947 8.08817C6.96174 8.47637 6.63098 8.96504 6.46161 9.50334C6.29224 10.0416 6.29043 10.6099 6.45639 11.149C6.62234 11.6881 6.94999 12.1784 7.40525 12.5688L4.8835 16.9921C4.77306 16.9829 4.6622 16.9782 4.55127 16.978C3.69761 16.9771 2.87184 17.2446 2.22387 17.732C1.57589 18.2193 1.14865 18.8943 1.01971 19.6344C0.89076 20.3744 1.06865 21.1305 1.52109 21.7654C1.97352 22.4002 2.67052 22.8718 3.48555 23.0944C4.30059 23.3171 5.17964 23.2761 5.96315 22.9789C6.74667 22.6817 7.3827 22.148 7.75581 21.4746C8.12891 20.8012 8.21436 20.0329 7.99664 19.309C7.77892 18.5851 7.27246 17.9537 6.56919 17.5293L8.95219 13.3501C9.53106 13.4902 10.1409 13.4994 10.7249 13.3768C11.3089 13.2542 11.848 13.0039 12.2918 12.6492L16.451 15.6888C16.1685 16.2346 16.0711 16.8402 16.1702 17.4333C16.2693 18.0263 16.5607 18.5819 17.0099 19.0337C17.459 19.4855 18.0468 19.8145 18.7033 19.9815C19.3597 20.1484 20.057 20.1463 20.7121 19.9754C21.3672 19.8044 21.9524 19.4719 22.398 19.0173C22.8436 18.5628 23.1307 18.0055 23.2251 17.4118C23.3195 16.8182 23.2172 16.2132 22.9305 15.6691C22.6438 15.125 22.1846 14.6647 21.6079 14.3431L23.933 7.20605C24.0047 7.20986 24.0769 7.2124 24.1498 7.2124C25.0948 7.2124 26.0012 6.88316 26.6695 6.29711C27.3377 5.71106 27.7131 4.9162 27.7131 4.0874C27.7131 3.2586 27.3377 2.46374 26.6695 1.87769C26.0012 1.29164 25.0948 0.962403 24.1498 0.962403ZM4.55127 21.6655C4.19889 21.6655 3.85442 21.5739 3.56142 21.4022C3.26842 21.2305 3.04006 20.9865 2.90521 20.701C2.77036 20.4155 2.73508 20.1013 2.80382 19.7982C2.87257 19.4951 3.04226 19.2167 3.29143 18.9982C3.5406 18.7796 3.85807 18.6308 4.20368 18.5705C4.54929 18.5103 4.90753 18.5412 5.23309 18.6595C5.55865 18.7777 5.83691 18.978 6.03269 19.2349C6.22846 19.4919 6.33295 19.794 6.33295 20.103C6.33242 20.5173 6.14454 20.9144 5.81052 21.2074C5.47651 21.5003 5.02364 21.6651 4.55127 21.6655ZM9.89632 11.8999C9.54393 11.8999 9.19947 11.8083 8.90647 11.6366C8.61347 11.4649 8.38511 11.2209 8.25026 10.9353C8.11541 10.6498 8.08012 10.3357 8.14887 10.0326C8.21762 9.72948 8.38731 9.45107 8.63648 9.23255C8.88565 9.01403 9.20312 8.86521 9.54873 8.80492C9.89434 8.74463 10.2526 8.77558 10.5781 8.89384C10.9037 9.0121 11.182 9.21237 11.3777 9.46932C11.5735 9.72627 11.678 10.0284 11.678 10.3374C11.6775 10.7517 11.4896 11.1488 11.1556 11.4417C10.8216 11.7347 10.3687 11.8994 9.89632 11.8999ZM19.6956 18.5405C19.3432 18.5405 18.9987 18.4489 18.7057 18.2772C18.4127 18.1055 18.1844 17.8615 18.0495 17.576C17.9147 17.2905 17.8794 16.9763 17.9481 16.6732C18.0169 16.3701 18.1866 16.0917 18.4357 15.8732C18.6849 15.6547 19.0024 15.5058 19.348 15.4455C19.6936 15.3853 20.0518 15.4162 20.3774 15.5345C20.703 15.6527 20.9812 15.853 21.177 16.1099C21.3728 16.3669 21.4773 16.669 21.4773 16.978C21.4767 17.3923 21.2888 17.7894 20.9548 18.0824C20.6208 18.3753 20.1679 18.5401 19.6956 18.5405ZM24.1498 5.6499C23.7974 5.6499 23.4529 5.55826 23.1599 5.38657C22.8669 5.21488 22.6386 4.97085 22.5037 4.68534C22.3689 4.39984 22.3336 4.08567 22.4023 3.78257C22.4711 3.47948 22.6408 3.20107 22.8899 2.98255C23.1391 2.76403 23.4566 2.61521 23.8022 2.55493C24.1478 2.49464 24.506 2.52558 24.8316 2.64384C25.1572 2.7621 25.4354 2.96237 25.6312 3.21932C25.827 3.47628 25.9315 3.77837 25.9315 4.0874C25.9309 4.50166 25.743 4.89882 25.409 5.19174C25.075 5.48467 24.6222 5.64944 24.1498 5.6499Z" fill="#444444"/>
</svg>
