<svg width="25" height="23" viewBox="0 0 25 23" fill="none" xmlns="http://www.w3.org/2000/svg">
<path d="M21.0937 0.5625C20.4174 0.56221 19.7592 0.781457 19.2181 1.18729C18.677 1.59312 18.2823 2.1636 18.0932 2.813C17.9042 3.4624 17.931 4.15562 18.1697 4.78846C18.4083 5.42131 18.846 5.9596 19.4168 6.32241L17.3776 13.4595C17.3143 13.4554 17.2509 13.4533 17.1875 13.4531C16.5153 13.4524 15.8609 13.6696 15.3226 14.0722L11.5553 10.9328C11.7337 10.4036 11.767 9.83629 11.6517 9.28989C11.5365 8.74349 11.277 8.23794 10.9002 7.82584C10.5233 7.41374 10.043 7.11014 9.50901 6.94663C8.97507 6.78312 8.40706 6.76568 7.86409 6.89611C7.32112 7.02654 6.82301 7.30008 6.42159 7.68827C6.02017 8.07647 5.73011 8.56513 5.58157 9.10343C5.43304 9.64174 5.43145 10.21 5.57699 10.7491C5.72253 11.2882 6.00987 11.7785 6.40912 12.1689L4.1976 16.5922C4.10075 16.583 4.00353 16.5783 3.90624 16.5781C3.1576 16.5772 2.43342 16.8447 1.86516 17.332C1.29689 17.8194 0.922217 18.4944 0.809133 19.2345C0.69605 19.9745 0.852055 20.7306 1.24883 21.3655C1.64561 22.0003 2.25686 22.4719 2.97163 22.6945C3.6864 22.9172 4.45731 22.8762 5.14444 22.579C5.83156 22.2818 6.38935 21.7481 6.71656 21.0747C7.04376 20.4013 7.1187 19.633 6.92776 18.9091C6.73682 18.1852 6.29267 17.5538 5.67592 17.1294L7.76576 12.9502C8.27342 13.0903 8.80828 13.0994 9.32043 12.9769C9.83258 12.8543 10.3053 12.604 10.6946 12.2493L14.342 15.2889C14.0943 15.8347 14.0089 16.4403 14.0958 17.0334C14.1827 17.6264 14.4383 18.182 14.8322 18.6338C15.2261 19.0856 15.7416 19.4146 16.3173 19.5816C16.8929 19.7485 17.5045 19.7464 18.079 19.5755C18.6535 19.4045 19.1667 19.0719 19.5575 18.6174C19.9482 18.1629 20.2 17.6056 20.2828 17.0119C20.3656 16.4183 20.2759 15.8133 20.0244 15.2692C19.773 14.7251 19.3703 14.2648 18.8645 13.9432L20.9036 6.80615C20.9665 6.80996 21.0298 6.8125 21.0937 6.8125C21.9225 6.8125 22.7174 6.48326 23.3035 5.89721C23.8895 5.31116 24.2187 4.5163 24.2187 3.6875C24.2187 2.8587 23.8895 2.06384 23.3035 1.47779C22.7174 0.89174 21.9225 0.5625 21.0937 0.5625V0.5625ZM3.90624 21.2656C3.59721 21.2656 3.29512 21.174 3.03817 21.0023C2.78121 20.8306 2.58094 20.5866 2.46268 20.3011C2.34442 20.0156 2.31348 19.7014 2.37377 19.3983C2.43406 19.0952 2.58287 18.8168 2.80139 18.5983C3.01991 18.3797 3.29832 18.2309 3.60142 18.1706C3.90451 18.1104 4.21868 18.1413 4.50419 18.2596C4.7897 18.3778 5.03373 18.5781 5.20541 18.835C5.3771 19.092 5.46874 19.3941 5.46874 19.7031C5.46828 20.1174 5.30351 20.5145 5.01058 20.8075C4.71766 21.1004 4.3205 21.2652 3.90624 21.2656V21.2656ZM8.59374 11.5C8.28471 11.5 7.98262 11.4084 7.72566 11.2367C7.46871 11.065 7.26844 10.8209 7.15018 10.5354C7.03192 10.2499 7.00098 9.93576 7.06127 9.63267C7.12156 9.32957 7.27037 9.05116 7.48889 8.83264C7.70741 8.61412 7.98582 8.46531 8.28891 8.40502C8.59201 8.34473 8.90618 8.37567 9.19169 8.49394C9.4772 8.6122 9.72122 8.81247 9.89291 9.06942C10.0646 9.32637 10.1562 9.62846 10.1562 9.9375C10.1558 10.3518 9.99101 10.7489 9.69808 11.0418C9.40516 11.3348 9.008 11.4995 8.59374 11.5ZM17.1875 18.1406C16.8785 18.1406 16.5764 18.049 16.3194 17.8773C16.0625 17.7056 15.8622 17.4616 15.7439 17.1761C15.6257 16.8906 15.5947 16.5764 15.655 16.2733C15.7153 15.9702 15.8641 15.6918 16.0826 15.4733C16.3012 15.2547 16.5796 15.1059 16.8827 15.0456C17.1858 14.9854 17.4999 15.0163 17.7854 15.1346C18.0709 15.2528 18.315 15.4531 18.4867 15.71C18.6584 15.967 18.75 16.2691 18.75 16.5781C18.7495 16.9924 18.5848 17.3895 18.2918 17.6825C17.9989 17.9754 17.6018 18.1402 17.1875 18.1406V18.1406ZM21.0937 5.25C20.7847 5.25 20.4826 5.15836 20.2257 4.98667C19.9687 4.81498 19.7684 4.57095 19.6502 4.28544C19.5319 3.99993 19.501 3.68577 19.5613 3.38267C19.6216 3.07958 19.7704 2.80116 19.9889 2.58265C20.2074 2.36413 20.4858 2.21531 20.7889 2.15502C21.092 2.09473 21.4062 2.12568 21.6917 2.24394C21.9772 2.3622 22.2212 2.56247 22.3929 2.81942C22.5646 3.07637 22.6562 3.37847 22.6562 3.6875C22.6558 4.10176 22.491 4.49892 22.1981 4.79184C21.9052 5.08476 21.508 5.24953 21.0937 5.25Z" fill="black"/>
</svg>
