<svg width="42" height="42" viewBox="0 0 42 42" fill="none" xmlns="http://www.w3.org/2000/svg">
<path d="M21.2584 18.8262C21.2277 18.787 21.1885 18.7552 21.1437 18.7334C21.0989 18.7116 21.0498 18.7003 21 18.7003C20.9502 18.7003 20.9011 18.7116 20.8563 18.7334C20.8115 18.7552 20.7723 18.787 20.7416 18.8262L16.1479 24.6381C16.11 24.6865 16.0865 24.7445 16.08 24.8056C16.0736 24.8667 16.0845 24.9283 16.1114 24.9835C16.1384 25.0387 16.1803 25.0852 16.2325 25.1177C16.2846 25.1502 16.3448 25.1673 16.4062 25.1672H19.4373V35.1094C19.4373 35.2899 19.585 35.4375 19.7654 35.4375H22.2264C22.4068 35.4375 22.5545 35.2899 22.5545 35.1094V25.1713H25.5938C25.8686 25.1713 26.0203 24.8555 25.8522 24.6422L21.2584 18.8262Z" fill="black"/>
<path d="M33.2801 15.0404C31.4016 10.0857 26.615 6.5625 21.0082 6.5625C15.4014 6.5625 10.6148 10.0816 8.73633 15.0363C5.22129 15.9592 2.625 19.1625 2.625 22.9688C2.625 27.501 6.2959 31.1719 10.824 31.1719H12.4688C12.6492 31.1719 12.7969 31.0242 12.7969 30.8438V28.3828C12.7969 28.2023 12.6492 28.0547 12.4688 28.0547H10.824C9.4418 28.0547 8.1416 27.5051 7.17363 26.5084C6.20977 25.5158 5.69707 24.1787 5.74219 22.7924C5.7791 21.7096 6.14824 20.6924 6.8168 19.8352C7.50176 18.9615 8.46152 18.3258 9.52793 18.0428L11.0824 17.6367L11.6525 16.1355C12.0053 15.2004 12.4975 14.3268 13.1168 13.5352C13.7282 12.7506 14.4525 12.0608 15.266 11.4885C16.9518 10.3031 18.9369 9.67559 21.0082 9.67559C23.0795 9.67559 25.0646 10.3031 26.7504 11.4885C27.5666 12.0627 28.2885 12.7518 28.8996 13.5352C29.5189 14.3268 30.0111 15.2045 30.3639 16.1355L30.9299 17.6326L32.4803 18.0428C34.7033 18.6416 36.2578 20.6637 36.2578 22.9688C36.2578 24.3264 35.7287 25.6061 34.7689 26.5658C34.2983 27.0393 33.7383 27.4146 33.1216 27.6702C32.5049 27.9257 31.8436 28.0564 31.176 28.0547H29.5312C29.3508 28.0547 29.2031 28.2023 29.2031 28.3828V30.8438C29.2031 31.0242 29.3508 31.1719 29.5312 31.1719H31.176C35.7041 31.1719 39.375 27.501 39.375 22.9688C39.375 19.1666 36.7869 15.9674 33.2801 15.0404Z" fill="black"/>
</svg>
