<svg width="31" height="31" viewBox="0 0 31 31" fill="none" xmlns="http://www.w3.org/2000/svg">
<path d="M14.4987 12.1737C14.6442 12.0282 14.726 11.8308 14.726 11.625C14.726 11.4192 14.6442 11.2218 14.4987 11.0763C14.3532 10.9308 14.1558 10.849 13.95 10.849C13.7442 10.849 13.5468 10.9308 13.4013 11.0763L11.2127 13.2649L10.5974 12.7038C10.4445 12.5731 10.2468 12.507 10.046 12.5194C9.84526 12.5318 9.6572 12.6218 9.52156 12.7703C9.38592 12.9188 9.31334 13.1142 9.31914 13.3153C9.32495 13.5163 9.40868 13.7073 9.55266 13.8477L10.7152 14.9095C10.8625 15.0436 11.0557 15.1158 11.2549 15.1112C11.454 15.1066 11.6437 15.0254 11.7847 14.8847L14.4972 12.1722L14.4987 12.1737ZM14.4987 18.8263C14.5709 18.8983 14.6281 18.9838 14.6672 19.078C14.7063 19.1721 14.7264 19.2731 14.7264 19.375C14.7264 19.4769 14.7063 19.5779 14.6672 19.672C14.6281 19.7662 14.5709 19.8517 14.4987 19.9237L11.7862 22.6362C11.645 22.7772 11.4549 22.8584 11.2554 22.8627C11.0558 22.867 10.8623 22.7942 10.7152 22.6595L9.55266 21.5977C9.40868 21.4573 9.32495 21.2663 9.31914 21.0653C9.31334 20.8642 9.38592 20.6688 9.52156 20.5203C9.6572 20.3718 9.84526 20.2818 10.046 20.2694C10.2468 20.257 10.4445 20.3231 10.5974 20.4538L11.2127 21.0165L13.4013 18.8263C13.4733 18.7541 13.5588 18.6969 13.653 18.6578C13.7471 18.6187 13.8481 18.5986 13.95 18.5986C14.052 18.5986 14.1529 18.6187 14.247 18.6578C14.3412 18.6969 14.4267 18.7541 14.4987 18.8263V18.8263ZM17.05 19.7625C16.8445 19.7625 16.6473 19.8442 16.502 19.9895C16.3567 20.1348 16.275 20.332 16.275 20.5375C16.275 20.743 16.3567 20.9402 16.502 21.0855C16.6473 21.2309 16.8445 21.3125 17.05 21.3125H20.925C21.1306 21.3125 21.3277 21.2309 21.473 21.0855C21.6184 20.9402 21.7 20.743 21.7 20.5375C21.7 20.332 21.6184 20.1348 21.473 19.9895C21.3277 19.8442 21.1306 19.7625 20.925 19.7625H17.05ZM16.275 12.7875C16.275 12.582 16.3567 12.3848 16.502 12.2395C16.6473 12.0942 16.8445 12.0125 17.05 12.0125H20.925C21.1306 12.0125 21.3277 12.0942 21.473 12.2395C21.6184 12.3848 21.7 12.582 21.7 12.7875C21.7 12.993 21.6184 13.1902 21.473 13.3355C21.3277 13.4809 21.1306 13.5625 20.925 13.5625H17.05C16.8445 13.5625 16.6473 13.4809 16.502 13.3355C16.3567 13.1902 16.275 12.993 16.275 12.7875ZM13.175 3.10001C12.694 3.09975 12.2248 3.24869 11.832 3.5263C11.4391 3.80391 11.1421 4.19651 10.9818 4.65001H8.52501C7.90838 4.65001 7.31701 4.89496 6.88099 5.33098C6.44497 5.76701 6.20001 6.35838 6.20001 6.97501V25.575C6.20001 26.1916 6.44497 26.783 6.88099 27.219C7.31701 27.655 7.90838 27.9 8.52501 27.9H22.475C23.0916 27.9 23.683 27.655 24.119 27.219C24.5551 26.783 24.8 26.1916 24.8 25.575V6.97501C24.8 6.35838 24.5551 5.76701 24.119 5.33098C23.683 4.89496 23.0916 4.65001 22.475 4.65001H20.0183C19.8579 4.19651 19.5609 3.80391 19.1681 3.5263C18.7753 3.24869 18.306 3.09975 17.825 3.10001H13.175ZM12.4 5.42501C12.4 5.21946 12.4817 5.02234 12.627 4.877C12.7723 4.73166 12.9695 4.65001 13.175 4.65001H17.825C18.0306 4.65001 18.2277 4.73166 18.373 4.877C18.5184 5.02234 18.6 5.21946 18.6 5.42501C18.6 5.63055 18.5184 5.82767 18.373 5.97301C18.2277 6.11835 18.0306 6.20001 17.825 6.20001H13.175C12.9695 6.20001 12.7723 6.11835 12.627 5.97301C12.4817 5.82767 12.4 5.63055 12.4 5.42501ZM8.52501 6.20001H10.9818C11.1421 6.6535 11.4391 7.04611 11.832 7.32371C12.2248 7.60132 12.694 7.75026 13.175 7.75001H17.825C18.306 7.75026 18.7753 7.60132 19.1681 7.32371C19.5609 7.04611 19.8579 6.6535 20.0183 6.20001H22.475C22.6806 6.20001 22.8777 6.28166 23.023 6.427C23.1684 6.57234 23.25 6.76946 23.25 6.97501V25.575C23.25 25.7805 23.1684 25.9777 23.023 26.123C22.8777 26.2684 22.6806 26.35 22.475 26.35H8.52501C8.31947 26.35 8.12235 26.2684 7.977 26.123C7.83166 25.9777 7.75001 25.7805 7.75001 25.575V6.97501C7.75001 6.76946 7.83166 6.57234 7.977 6.427C8.12235 6.28166 8.31947 6.20001 8.52501 6.20001V6.20001Z" fill="black"/>
</svg>
