<svg width="19" height="25" viewBox="0 0 19 25" fill="none" xmlns="http://www.w3.org/2000/svg">
<path d="M8.49871 9.17331C8.64424 9.02778 8.72599 8.83041 8.72599 8.62461C8.72599 8.41881 8.64424 8.22143 8.49871 8.07591C8.35319 7.93038 8.15582 7.84863 7.95001 7.84863C7.74421 7.84863 7.54684 7.93038 7.40131 8.07591L5.21271 10.2645L4.59736 9.70341C4.44447 9.57273 4.24676 9.5066 4.04601 9.51901C3.84526 9.53142 3.6572 9.62139 3.52156 9.7699C3.38592 9.91842 3.31334 10.1138 3.31914 10.3149C3.32495 10.5159 3.40868 10.7069 3.55266 10.8473L4.71516 11.9091C4.86246 12.0432 5.05573 12.1154 5.25488 12.1108C5.45402 12.1062 5.64374 12.025 5.78466 11.8843L8.49716 9.17176L8.49871 9.17331ZM8.49871 15.8259C8.57089 15.8979 8.62815 15.9834 8.66722 16.0776C8.70629 16.1717 8.7264 16.2727 8.7264 16.3746C8.7264 16.4765 8.70629 16.5775 8.66722 16.6716C8.62815 16.7658 8.57089 16.8513 8.49871 16.9233L5.78621 19.6358C5.64502 19.7768 5.45486 19.858 5.25535 19.8623C5.05584 19.8666 4.86234 19.7938 4.71516 19.6591L3.55266 18.5973C3.40868 18.4569 3.32495 18.2659 3.31914 18.0649C3.31334 17.8638 3.38592 17.6684 3.52156 17.5199C3.6572 17.3714 3.84526 17.2814 4.04601 17.269C4.24676 17.2566 4.44447 17.3227 4.59736 17.4534L5.21271 18.0161L7.40131 15.8259C7.4733 15.7537 7.55883 15.6965 7.65298 15.6574C7.74714 15.6183 7.84807 15.5982 7.95001 15.5982C8.05195 15.5982 8.15289 15.6183 8.24704 15.6574C8.3412 15.6965 8.42672 15.7537 8.49871 15.8259V15.8259ZM11.05 16.7621C10.8445 16.7621 10.6473 16.8438 10.502 16.9891C10.3567 17.1344 10.275 17.3316 10.275 17.5371C10.275 17.7427 10.3567 17.9398 10.502 18.0851C10.6473 18.2305 10.8445 18.3121 11.05 18.3121H14.925C15.1306 18.3121 15.3277 18.2305 15.473 18.0851C15.6184 17.9398 15.7 17.7427 15.7 17.5371C15.7 17.3316 15.6184 17.1344 15.473 16.9891C15.3277 16.8438 15.1306 16.7621 14.925 16.7621H11.05ZM10.275 9.78711C10.275 9.58157 10.3567 9.38444 10.502 9.2391C10.6473 9.09376 10.8445 9.01211 11.05 9.01211H14.925C15.1306 9.01211 15.3277 9.09376 15.473 9.2391C15.6184 9.38444 15.7 9.58157 15.7 9.78711C15.7 9.99265 15.6184 10.1898 15.473 10.3351C15.3277 10.4805 15.1306 10.5621 14.925 10.5621H11.05C10.8445 10.5621 10.6473 10.4805 10.502 10.3351C10.3567 10.1898 10.275 9.99265 10.275 9.78711ZM7.17501 0.0996097C6.69401 0.0993575 6.22476 0.248297 5.83195 0.525903C5.43914 0.803509 5.1421 1.19611 4.98176 1.64961H2.52501C1.90838 1.64961 1.31701 1.89456 0.880989 2.33059C0.444967 2.76661 0.200012 3.35798 0.200012 3.97461V22.5746C0.200012 23.1912 0.444967 23.7826 0.880989 24.2186C1.31701 24.6547 1.90838 24.8996 2.52501 24.8996H16.475C17.0916 24.8996 17.683 24.6547 18.119 24.2186C18.5551 23.7826 18.8 23.1912 18.8 22.5746V3.97461C18.8 3.35798 18.5551 2.76661 18.119 2.33059C17.683 1.89456 17.0916 1.64961 16.475 1.64961H14.0183C13.8579 1.19611 13.5609 0.803509 13.1681 0.525903C12.7753 0.248297 12.306 0.0993575 11.825 0.0996097H7.17501ZM6.40001 2.42461C6.40001 2.21907 6.48166 2.02194 6.627 1.8766C6.77235 1.73126 6.96947 1.64961 7.17501 1.64961H11.825C12.0306 1.64961 12.2277 1.73126 12.373 1.8766C12.5184 2.02194 12.6 2.21907 12.6 2.42461C12.6 2.63015 12.5184 2.82728 12.373 2.97262C12.2277 3.11796 12.0306 3.19961 11.825 3.19961H7.17501C6.96947 3.19961 6.77235 3.11796 6.627 2.97262C6.48166 2.82728 6.40001 2.63015 6.40001 2.42461ZM2.52501 3.19961H4.98176C5.1421 3.65311 5.43914 4.04571 5.83195 4.32332C6.22476 4.60092 6.69401 4.74986 7.17501 4.74961H11.825C12.306 4.74986 12.7753 4.60092 13.1681 4.32332C13.5609 4.04571 13.8579 3.65311 14.0183 3.19961H16.475C16.6806 3.19961 16.8777 3.28126 17.023 3.4266C17.1684 3.57194 17.25 3.76907 17.25 3.97461V22.5746C17.25 22.7802 17.1684 22.9773 17.023 23.1226C16.8777 23.268 16.6806 23.3496 16.475 23.3496H2.52501C2.31947 23.3496 2.12235 23.268 1.977 23.1226C1.83166 22.9773 1.75001 22.7802 1.75001 22.5746V3.97461C1.75001 3.76907 1.83166 3.57194 1.977 3.4266C2.12235 3.28126 2.31947 3.19961 2.52501 3.19961V3.19961Z" fill="black"/>
</svg>
