<svg width="24" height="25" viewBox="0 0 24 25" fill="none" xmlns="http://www.w3.org/2000/svg">
<path d="M15.6 9.37225V3.84025H16.8V1.44025H7.19999V3.84025H8.39999V9.37225L1.36799 21.2282C1.25997 21.4104 1.20209 21.618 1.20024 21.8298C1.19839 22.0416 1.25263 22.2501 1.35745 22.4341C1.46228 22.6182 1.61394 22.7712 1.79705 22.8777C1.98016 22.9841 2.18818 23.0402 2.39999 23.0402H21.6C21.8118 23.0402 22.0198 22.9841 22.2029 22.8777C22.386 22.7712 22.5377 22.6182 22.6425 22.4341C22.7473 22.2501 22.8016 22.0416 22.7997 21.8298C22.7979 21.618 22.74 21.4104 22.632 21.2282L15.6 9.37225ZM10.56 10.4282C10.7158 10.2205 10.8 9.96789 10.8 9.70825V3.84025H13.2V9.70825C13.2 9.92363 13.2581 10.135 13.368 10.3202L15.936 14.6402H8.06399L10.56 10.4282Z" fill="black"/>
</svg>
