<svg width="24" height="26" viewBox="0 0 24 26" fill="none" xmlns="http://www.w3.org/2000/svg">
<path d="M3.21089 25.6871H20.3691C21.2387 25.6871 21.9829 25.3945 22.6017 24.8092C23.2204 24.2238 23.5466 23.4797 23.58 22.5766V22.4762C23.58 21.6735 23.3626 20.921 22.9278 20.2186L15.0009 9.63268V2.15732H16.0545C16.322 2.15732 16.5729 2.04025 16.807 1.80613C17.0411 1.572 17.1582 1.32115 17.1582 1.05357C17.1582 0.786 17.0411 0.54351 16.807 0.326106C16.5729 0.108702 16.322 0 16.0545 0H7.52553C7.25796 0 7.00711 0.108702 6.77298 0.326106C6.53885 0.54351 6.42179 0.786 6.42179 1.05357C6.42179 1.32115 6.53885 1.572 6.77298 1.80613C7.00711 2.04025 7.25796 2.15732 7.52553 2.15732H8.57911V9.53234L0.752553 20.1182C0.317745 20.8206 0.10034 21.5397 0.10034 22.2756L0 22.4762C0.0334468 23.3793 0.367915 24.1402 1.0034 24.759C1.63889 25.3778 2.37472 25.6871 3.21089 25.6871ZM8.57911 13.1446L9.13098 12.5425C9.9337 11.4054 10.4689 10.1177 10.7364 8.67944V2.15732H12.8436V8.5791C13.1446 10.1511 13.6797 11.4221 14.449 12.392L15.0009 13.0443L17.1582 15.9541H6.42179L8.57911 13.1446ZM2.45834 21.4227L5.36821 17.4592V18.2118H18.7637L21.1217 21.4227C21.1886 21.4896 21.2889 21.8073 21.4227 22.3759C21.4227 22.6769 21.314 22.9445 21.0966 23.1786C20.8792 23.4128 20.6367 23.5298 20.3691 23.5298H3.21089C2.94332 23.5298 2.70083 23.4128 2.48343 23.1786C2.26602 22.9445 2.15732 22.6769 2.15732 22.3759C2.15732 21.9411 2.25766 21.6234 2.45834 21.4227Z" fill="black"/>
</svg>
