<svg width="379" height="232" viewBox="0 0 379 232" fill="none" xmlns="http://www.w3.org/2000/svg">
<path d="M338.536 105.084C338.208 105.084 338.044 104.912 338.044 104.568V96.972C338.044 96.628 338.208 96.456 338.536 96.456C338.864 96.456 339.028 96.628 339.028 96.972V104.568C339.028 104.912 338.864 105.084 338.536 105.084ZM341.474 105.084C341.154 105.084 340.994 104.916 340.994 104.58V99.576C340.994 99.248 341.15 99.084 341.462 99.084C341.782 99.084 341.942 99.248 341.942 99.576V100.164C342.134 99.796 342.406 99.52 342.758 99.336C343.11 99.152 343.506 99.06 343.946 99.06C345.33 99.06 346.022 99.828 346.022 101.364V104.58C346.022 104.916 345.862 105.084 345.542 105.084C345.214 105.084 345.05 104.916 345.05 104.58V101.424C345.05 100.88 344.942 100.484 344.726 100.236C344.518 99.98 344.182 99.852 343.718 99.852C343.182 99.852 342.754 100.02 342.434 100.356C342.122 100.684 341.966 101.124 341.966 101.676V104.58C341.966 104.916 341.802 105.084 341.474 105.084ZM349.65 105.108C349.25 105.108 348.89 105.032 348.57 104.88C348.258 104.72 348.01 104.504 347.826 104.232C347.642 103.96 347.55 103.656 347.55 103.32C347.55 102.896 347.658 102.56 347.874 102.312C348.098 102.064 348.462 101.888 348.966 101.784C349.478 101.672 350.174 101.616 351.054 101.616H351.438V101.244C351.438 100.748 351.334 100.392 351.126 100.176C350.926 99.952 350.602 99.84 350.154 99.84C349.874 99.84 349.59 99.876 349.302 99.948C349.022 100.02 348.73 100.136 348.426 100.296C348.29 100.368 348.174 100.384 348.078 100.344C347.99 100.296 347.926 100.224 347.886 100.128C347.854 100.024 347.854 99.92 347.886 99.816C347.926 99.704 348.006 99.62 348.126 99.564C348.47 99.388 348.814 99.26 349.158 99.18C349.51 99.1 349.842 99.06 350.154 99.06C350.906 99.06 351.462 99.244 351.822 99.612C352.19 99.98 352.374 100.552 352.374 101.328V104.58C352.374 104.916 352.226 105.084 351.93 105.084C351.618 105.084 351.462 104.916 351.462 104.58V103.992C351.31 104.336 351.074 104.608 350.754 104.808C350.442 105.008 350.074 105.108 349.65 105.108ZM349.806 104.376C350.286 104.376 350.678 104.212 350.982 103.884C351.286 103.548 351.438 103.124 351.438 102.612V102.252H351.066C350.418 102.252 349.906 102.284 349.53 102.348C349.162 102.404 348.902 102.508 348.75 102.66C348.606 102.804 348.534 103.004 348.534 103.26C348.534 103.588 348.646 103.856 348.87 104.064C349.102 104.272 349.414 104.376 349.806 104.376ZM356.65 105.108C356.066 105.108 355.562 104.984 355.138 104.736C354.714 104.48 354.386 104.124 354.154 103.668C353.93 103.204 353.818 102.664 353.818 102.048C353.818 101.12 354.07 100.392 354.574 99.864C355.078 99.328 355.77 99.06 356.65 99.06C356.938 99.06 357.238 99.108 357.55 99.204C357.862 99.292 358.146 99.44 358.402 99.648C358.538 99.744 358.594 99.864 358.57 100.008C358.554 100.152 358.486 100.26 358.366 100.332C358.254 100.404 358.122 100.388 357.97 100.284C357.754 100.124 357.538 100.012 357.322 99.948C357.114 99.884 356.91 99.852 356.71 99.852C356.102 99.852 355.634 100.044 355.306 100.428C354.978 100.804 354.814 101.348 354.814 102.06C354.814 102.756 354.978 103.308 355.306 103.716C355.634 104.116 356.102 104.316 356.71 104.316C356.91 104.316 357.114 104.284 357.322 104.22C357.538 104.156 357.754 104.044 357.97 103.884C358.122 103.78 358.254 103.768 358.366 103.848C358.478 103.92 358.538 104.028 358.546 104.172C358.562 104.316 358.506 104.432 358.378 104.52C358.122 104.728 357.842 104.88 357.538 104.976C357.234 105.064 356.938 105.108 356.65 105.108ZM362.072 105.108C361.384 105.108 360.868 104.928 360.524 104.568C360.18 104.2 360.008 103.672 360.008 102.984V99.924H359.204C358.924 99.924 358.784 99.796 358.784 99.54C358.784 99.292 358.924 99.168 359.204 99.168H360.008V97.788C360.008 97.46 360.172 97.296 360.5 97.296C360.82 97.296 360.98 97.46 360.98 97.788V99.168H362.492C362.772 99.168 362.912 99.292 362.912 99.54C362.912 99.796 362.772 99.924 362.492 99.924H360.98V102.888C360.98 103.344 361.076 103.692 361.268 103.932C361.46 104.164 361.772 104.28 362.204 104.28C362.356 104.28 362.484 104.264 362.588 104.232C362.692 104.2 362.784 104.184 362.864 104.184C362.936 104.176 362.996 104.2 363.044 104.256C363.092 104.312 363.116 104.408 363.116 104.544C363.116 104.64 363.096 104.728 363.056 104.808C363.024 104.888 362.964 104.944 362.876 104.976C362.78 105.008 362.652 105.036 362.492 105.06C362.34 105.092 362.2 105.108 362.072 105.108ZM364.478 97.764C364.054 97.764 363.842 97.564 363.842 97.164C363.842 96.772 364.054 96.576 364.478 96.576C364.902 96.576 365.114 96.772 365.114 97.164C365.114 97.564 364.902 97.764 364.478 97.764ZM364.478 105.06C364.158 105.06 363.998 104.884 363.998 104.532V99.624C363.998 99.28 364.158 99.108 364.478 99.108C364.806 99.108 364.97 99.28 364.97 99.624V104.532C364.97 104.884 364.806 105.06 364.478 105.06ZM368.959 105.084C368.679 105.084 368.471 104.928 368.335 104.616L366.259 99.768C366.179 99.584 366.175 99.424 366.247 99.288C366.319 99.152 366.463 99.084 366.679 99.084C366.903 99.084 367.067 99.212 367.171 99.468L368.983 103.896L370.819 99.468C370.875 99.324 370.939 99.224 371.011 99.168C371.083 99.112 371.187 99.084 371.323 99.084C371.507 99.084 371.631 99.152 371.695 99.288C371.759 99.424 371.755 99.58 371.683 99.756L369.583 104.616C369.455 104.928 369.247 105.084 368.959 105.084ZM375.509 105.108C374.589 105.108 373.861 104.84 373.325 104.304C372.789 103.76 372.521 103.024 372.521 102.096C372.521 101.496 372.641 100.968 372.881 100.512C373.121 100.048 373.449 99.692 373.865 99.444C374.289 99.188 374.777 99.06 375.329 99.06C376.121 99.06 376.741 99.316 377.189 99.828C377.637 100.332 377.861 101.028 377.861 101.916C377.861 102.164 377.721 102.288 377.441 102.288H373.469C373.501 102.952 373.693 103.46 374.045 103.812C374.397 104.156 374.885 104.328 375.509 104.328C375.773 104.328 376.041 104.296 376.313 104.232C376.585 104.16 376.849 104.036 377.105 103.86C377.289 103.74 377.441 103.716 377.561 103.788C377.689 103.86 377.753 103.972 377.753 104.124C377.761 104.268 377.681 104.396 377.513 104.508C377.249 104.7 376.933 104.848 376.565 104.952C376.205 105.056 375.853 105.108 375.509 105.108ZM375.353 99.78C374.801 99.78 374.365 99.952 374.045 100.296C373.725 100.64 373.537 101.092 373.481 101.652H377.021C376.997 101.06 376.841 100.6 376.553 100.272C376.273 99.944 375.873 99.78 375.353 99.78Z" fill="black"/>
<rect x="313" y="91" width="15" height="15" fill="#B5B5B6"/>
<path d="M341.38 136.108C340.268 136.108 339.424 135.816 338.848 135.232C338.272 134.64 337.984 133.78 337.984 132.652V127.96C337.984 127.624 338.148 127.456 338.476 127.456C338.804 127.456 338.968 127.624 338.968 127.96V132.604C338.968 134.356 339.772 135.232 341.38 135.232C342.972 135.232 343.768 134.356 343.768 132.604V127.96C343.768 127.624 343.936 127.456 344.272 127.456C344.592 127.456 344.752 127.624 344.752 127.96V132.652C344.752 133.78 344.464 134.64 343.888 135.232C343.32 135.816 342.484 136.108 341.38 136.108ZM347.122 136.084C346.802 136.084 346.642 135.916 346.642 135.58V130.576C346.642 130.248 346.798 130.084 347.11 130.084C347.43 130.084 347.59 130.248 347.59 130.576V131.164C347.782 130.796 348.054 130.52 348.406 130.336C348.758 130.152 349.154 130.06 349.594 130.06C350.978 130.06 351.67 130.828 351.67 132.364V135.58C351.67 135.916 351.51 136.084 351.19 136.084C350.862 136.084 350.698 135.916 350.698 135.58V132.424C350.698 131.88 350.59 131.484 350.374 131.236C350.166 130.98 349.83 130.852 349.366 130.852C348.83 130.852 348.402 131.02 348.082 131.356C347.77 131.684 347.614 132.124 347.614 132.676V135.58C347.614 135.916 347.45 136.084 347.122 136.084ZM353.943 128.764C353.519 128.764 353.307 128.564 353.307 128.164C353.307 127.772 353.519 127.576 353.943 127.576C354.367 127.576 354.579 127.772 354.579 128.164C354.579 128.564 354.367 128.764 353.943 128.764ZM353.943 136.06C353.623 136.06 353.463 135.884 353.463 135.532V130.624C353.463 130.28 353.623 130.108 353.943 130.108C354.271 130.108 354.435 130.28 354.435 130.624V135.532C354.435 135.884 354.271 136.06 353.943 136.06ZM360.944 138.244C360.616 138.244 360.452 138.08 360.452 137.752V134.98C360.284 135.324 360.024 135.6 359.672 135.808C359.328 136.008 358.928 136.108 358.472 136.108C357.952 136.108 357.496 135.984 357.104 135.736C356.72 135.488 356.42 135.14 356.204 134.692C355.996 134.236 355.892 133.7 355.892 133.084C355.892 132.46 355.996 131.924 356.204 131.476C356.42 131.02 356.72 130.672 357.104 130.432C357.496 130.184 357.952 130.06 358.472 130.06C358.928 130.06 359.328 130.164 359.672 130.372C360.024 130.572 360.288 130.848 360.464 131.2V130.576C360.464 130.248 360.624 130.084 360.944 130.084C361.264 130.084 361.424 130.248 361.424 130.576V137.752C361.424 138.08 361.264 138.244 360.944 138.244ZM358.676 135.328C359.22 135.328 359.656 135.136 359.984 134.752C360.312 134.36 360.476 133.804 360.476 133.084C360.476 132.356 360.312 131.8 359.984 131.416C359.656 131.032 359.22 130.84 358.676 130.84C358.124 130.84 357.684 131.032 357.356 131.416C357.036 131.8 356.876 132.356 356.876 133.084C356.876 133.804 357.036 134.36 357.356 134.752C357.684 135.136 358.124 135.328 358.676 135.328ZM365.312 136.108C363.912 136.108 363.212 135.336 363.212 133.792V130.576C363.212 130.248 363.372 130.084 363.692 130.084C364.02 130.084 364.184 130.248 364.184 130.576V133.78C364.184 134.3 364.288 134.684 364.496 134.932C364.712 135.18 365.048 135.304 365.504 135.304C366 135.304 366.404 135.14 366.716 134.812C367.028 134.476 367.184 134.032 367.184 133.48V130.576C367.184 130.248 367.348 130.084 367.676 130.084C367.996 130.084 368.156 130.248 368.156 130.576V135.58C368.156 135.916 368 136.084 367.688 136.084C367.368 136.084 367.208 135.916 367.208 135.58V135.016C367.024 135.368 366.764 135.64 366.428 135.832C366.1 136.016 365.728 136.108 365.312 136.108ZM372.603 136.108C371.683 136.108 370.955 135.84 370.419 135.304C369.883 134.76 369.615 134.024 369.615 133.096C369.615 132.496 369.735 131.968 369.975 131.512C370.215 131.048 370.543 130.692 370.959 130.444C371.383 130.188 371.871 130.06 372.423 130.06C373.215 130.06 373.835 130.316 374.283 130.828C374.731 131.332 374.955 132.028 374.955 132.916C374.955 133.164 374.815 133.288 374.535 133.288H370.562C370.595 133.952 370.787 134.46 371.139 134.812C371.491 135.156 371.979 135.328 372.603 135.328C372.867 135.328 373.135 135.296 373.407 135.232C373.679 135.16 373.943 135.036 374.199 134.86C374.383 134.74 374.535 134.716 374.655 134.788C374.783 134.86 374.847 134.972 374.847 135.124C374.855 135.268 374.775 135.396 374.607 135.508C374.343 135.7 374.027 135.848 373.659 135.952C373.299 136.056 372.947 136.108 372.603 136.108ZM372.447 130.78C371.895 130.78 371.459 130.952 371.139 131.296C370.819 131.64 370.631 132.092 370.575 132.652H374.115C374.091 132.06 373.935 131.6 373.647 131.272C373.367 130.944 372.967 130.78 372.447 130.78Z" fill="black"/>
<rect x="313" y="122" width="15" height="15" fill="#7A64C6"/>
<path d="M338.536 166.084C338.208 166.084 338.044 165.912 338.044 165.568V158.044C338.044 157.708 338.212 157.54 338.548 157.54H341.392C342.304 157.54 343 157.752 343.48 158.176C343.968 158.6 344.212 159.204 344.212 159.988C344.212 160.612 344.04 161.124 343.696 161.524C343.36 161.924 342.88 162.184 342.256 162.304C342.624 162.432 342.94 162.744 343.204 163.24L344.356 165.388C344.444 165.556 344.46 165.716 344.404 165.868C344.348 166.012 344.22 166.084 344.02 166.084C343.884 166.084 343.772 166.056 343.684 166C343.596 165.936 343.52 165.84 343.456 165.712L342.148 163.288C341.964 162.944 341.752 162.716 341.512 162.604C341.272 162.484 340.956 162.424 340.564 162.424H339.028V165.568C339.028 165.912 338.864 166.084 338.536 166.084ZM339.028 161.644H341.248C342.576 161.644 343.24 161.092 343.24 159.988C343.24 158.9 342.576 158.356 341.248 158.356H339.028V161.644ZM348.438 166.108C347.518 166.108 346.79 165.84 346.254 165.304C345.718 164.76 345.45 164.024 345.45 163.096C345.45 162.496 345.57 161.968 345.81 161.512C346.05 161.048 346.378 160.692 346.794 160.444C347.218 160.188 347.706 160.06 348.258 160.06C349.05 160.06 349.67 160.316 350.118 160.828C350.566 161.332 350.79 162.028 350.79 162.916C350.79 163.164 350.65 163.288 350.37 163.288H346.398C346.43 163.952 346.622 164.46 346.974 164.812C347.326 165.156 347.814 165.328 348.438 165.328C348.702 165.328 348.97 165.296 349.242 165.232C349.514 165.16 349.778 165.036 350.034 164.86C350.218 164.74 350.37 164.716 350.49 164.788C350.618 164.86 350.682 164.972 350.682 165.124C350.69 165.268 350.61 165.396 350.442 165.508C350.178 165.7 349.862 165.848 349.494 165.952C349.134 166.056 348.782 166.108 348.438 166.108ZM348.282 160.78C347.73 160.78 347.294 160.952 346.974 161.296C346.654 161.64 346.466 162.092 346.41 162.652H349.95C349.926 162.06 349.77 161.6 349.482 161.272C349.202 160.944 348.802 160.78 348.282 160.78ZM352.677 168.244C352.357 168.244 352.197 168.08 352.197 167.752V160.576C352.197 160.248 352.353 160.084 352.665 160.084C352.993 160.084 353.157 160.248 353.157 160.576V161.2C353.325 160.848 353.585 160.572 353.937 160.372C354.289 160.164 354.693 160.06 355.149 160.06C355.669 160.06 356.121 160.184 356.505 160.432C356.897 160.672 357.197 161.02 357.405 161.476C357.621 161.924 357.729 162.46 357.729 163.084C357.729 163.7 357.621 164.236 357.405 164.692C357.197 165.14 356.897 165.488 356.505 165.736C356.121 165.984 355.669 166.108 355.149 166.108C354.701 166.108 354.301 166.008 353.949 165.808C353.597 165.608 353.337 165.332 353.169 164.98V167.752C353.169 168.08 353.005 168.244 352.677 168.244ZM354.945 165.328C355.489 165.328 355.925 165.136 356.253 164.752C356.581 164.36 356.745 163.804 356.745 163.084C356.745 162.356 356.581 161.8 356.253 161.416C355.925 161.032 355.489 160.84 354.945 160.84C354.401 160.84 353.965 161.032 353.637 161.416C353.309 161.8 353.145 162.356 353.145 163.084C353.145 163.804 353.309 164.36 353.637 164.752C353.965 165.136 354.401 165.328 354.945 165.328ZM361.821 166.108C360.901 166.108 360.173 165.84 359.637 165.304C359.101 164.76 358.833 164.024 358.833 163.096C358.833 162.496 358.953 161.968 359.193 161.512C359.433 161.048 359.761 160.692 360.177 160.444C360.601 160.188 361.089 160.06 361.641 160.06C362.433 160.06 363.053 160.316 363.501 160.828C363.949 161.332 364.173 162.028 364.173 162.916C364.173 163.164 364.033 163.288 363.753 163.288H359.781C359.813 163.952 360.005 164.46 360.357 164.812C360.709 165.156 361.197 165.328 361.821 165.328C362.085 165.328 362.353 165.296 362.625 165.232C362.897 165.16 363.161 165.036 363.417 164.86C363.601 164.74 363.753 164.716 363.873 164.788C364.001 164.86 364.065 164.972 364.065 165.124C364.073 165.268 363.993 165.396 363.825 165.508C363.561 165.7 363.245 165.848 362.877 165.952C362.517 166.056 362.165 166.108 361.821 166.108ZM361.665 160.78C361.113 160.78 360.677 160.952 360.357 161.296C360.037 161.64 359.849 162.092 359.793 162.652H363.333C363.309 162.06 363.153 161.6 362.865 161.272C362.585 160.944 362.185 160.78 361.665 160.78ZM367.416 166.108C367.016 166.108 366.656 166.032 366.336 165.88C366.024 165.72 365.776 165.504 365.592 165.232C365.408 164.96 365.316 164.656 365.316 164.32C365.316 163.896 365.424 163.56 365.64 163.312C365.864 163.064 366.228 162.888 366.732 162.784C367.244 162.672 367.94 162.616 368.82 162.616H369.204V162.244C369.204 161.748 369.1 161.392 368.892 161.176C368.692 160.952 368.368 160.84 367.92 160.84C367.64 160.84 367.356 160.876 367.068 160.948C366.788 161.02 366.496 161.136 366.192 161.296C366.056 161.368 365.94 161.384 365.844 161.344C365.756 161.296 365.692 161.224 365.652 161.128C365.62 161.024 365.62 160.92 365.652 160.816C365.692 160.704 365.772 160.62 365.892 160.564C366.236 160.388 366.58 160.26 366.924 160.18C367.276 160.1 367.608 160.06 367.92 160.06C368.672 160.06 369.228 160.244 369.588 160.612C369.956 160.98 370.14 161.552 370.14 162.328V165.58C370.14 165.916 369.992 166.084 369.696 166.084C369.384 166.084 369.228 165.916 369.228 165.58V164.992C369.076 165.336 368.84 165.608 368.52 165.808C368.208 166.008 367.84 166.108 367.416 166.108ZM367.572 165.376C368.052 165.376 368.444 165.212 368.748 164.884C369.052 164.548 369.204 164.124 369.204 163.612V163.252H368.832C368.184 163.252 367.672 163.284 367.296 163.348C366.928 163.404 366.668 163.508 366.516 163.66C366.372 163.804 366.3 164.004 366.3 164.26C366.3 164.588 366.412 164.856 366.636 165.064C366.868 165.272 367.18 165.376 367.572 165.376ZM374.283 166.108C373.595 166.108 373.079 165.928 372.735 165.568C372.391 165.2 372.219 164.672 372.219 163.984V160.924H371.415C371.135 160.924 370.995 160.796 370.995 160.54C370.995 160.292 371.135 160.168 371.415 160.168H372.219V158.788C372.219 158.46 372.383 158.296 372.711 158.296C373.031 158.296 373.191 158.46 373.191 158.788V160.168H374.703C374.983 160.168 375.123 160.292 375.123 160.54C375.123 160.796 374.983 160.924 374.703 160.924H373.191V163.888C373.191 164.344 373.287 164.692 373.479 164.932C373.671 165.164 373.983 165.28 374.415 165.28C374.567 165.28 374.695 165.264 374.799 165.232C374.903 165.2 374.995 165.184 375.075 165.184C375.147 165.176 375.207 165.2 375.255 165.256C375.303 165.312 375.327 165.408 375.327 165.544C375.327 165.64 375.307 165.728 375.267 165.808C375.235 165.888 375.175 165.944 375.087 165.976C374.991 166.008 374.863 166.036 374.703 166.06C374.551 166.092 374.411 166.108 374.283 166.108Z" fill="black"/>
<rect x="313" y="152" width="15" height="15" fill="#F59E0B"/>
<path d="M226.619 129.914C226.619 108.636 219.893 87.9032 207.401 70.6785C194.909 53.4537 177.291 40.6191 157.066 34.0093C136.841 27.3995 115.044 27.3529 94.7907 33.8761C74.5375 40.3993 56.865 53.1584 44.2994 70.3296L95.6317 107.894C100.275 101.548 106.807 96.8325 114.291 94.4218C121.776 92.011 129.832 92.0283 137.306 94.471C144.781 96.9138 151.292 101.657 155.908 108.023C160.525 114.388 163.011 122.051 163.011 129.914H226.619Z" fill="#B5B5B6" stroke="white"/>
<path d="M44.473 71C31.4861 88.7469 24.6529 110.251 25.0136 132.239C25.3742 154.227 32.9089 175.496 46.4708 192.807C60.0327 210.119 78.8791 222.525 100.142 228.139C121.404 233.752 143.919 232.265 164.259 223.904L140.074 165.072C132.557 168.162 124.236 168.712 116.378 166.637C108.521 164.563 101.556 159.978 96.5435 153.58C91.5315 147.182 88.747 139.322 88.6137 131.196C88.4804 123.07 91.0057 115.123 95.8052 108.564L44.473 71Z" fill="#7A64C6" stroke="white"/>
<path d="M164.259 223.904C182.758 216.299 198.579 203.367 209.714 186.752C220.848 170.136 226.793 150.586 226.793 130.584H163.184C163.184 137.976 160.987 145.201 156.872 151.342C152.758 157.483 146.91 162.262 140.074 165.072L164.259 223.904Z" fill="#D57C09" stroke="white"/>
<path d="M157.066 34.0093L163.88 13.1604" stroke="#38A837"/>
<path d="M169.968 8.69141C169.968 9.21094 169.846 9.65234 169.604 10.0156C169.366 10.375 169.042 10.6484 168.632 10.8359C168.225 11.0234 167.766 11.1172 167.255 11.1172C166.743 11.1172 166.282 11.0234 165.872 10.8359C165.462 10.6484 165.137 10.375 164.899 10.0156C164.661 9.65234 164.542 9.21094 164.542 8.69141C164.542 8.35156 164.606 8.04102 164.735 7.75977C164.868 7.47461 165.053 7.22656 165.292 7.01562C165.534 6.80469 165.819 6.64258 166.147 6.5293C166.479 6.41211 166.844 6.35352 167.243 6.35352C167.766 6.35352 168.233 6.45508 168.643 6.6582C169.053 6.85742 169.376 7.13281 169.61 7.48438C169.848 7.83594 169.968 8.23828 169.968 8.69141ZM168.878 8.66797C168.878 8.35156 168.809 8.07227 168.673 7.83008C168.536 7.58398 168.344 7.39258 168.098 7.25586C167.852 7.11914 167.567 7.05078 167.243 7.05078C166.911 7.05078 166.624 7.11914 166.382 7.25586C166.143 7.39258 165.958 7.58398 165.825 7.83008C165.692 8.07227 165.626 8.35156 165.626 8.66797C165.626 8.99609 165.69 9.27734 165.819 9.51172C165.952 9.74219 166.139 9.91992 166.382 10.0449C166.628 10.166 166.919 10.2266 167.255 10.2266C167.591 10.2266 167.88 10.166 168.122 10.0449C168.364 9.91992 168.55 9.74219 168.678 9.51172C168.811 9.27734 168.878 8.99609 168.878 8.66797ZM169.768 4.68945C169.768 5.10352 169.659 5.47656 169.44 5.80859C169.221 6.14062 168.923 6.40234 168.544 6.59375C168.165 6.78516 167.735 6.88086 167.255 6.88086C166.766 6.88086 166.331 6.78516 165.948 6.59375C165.569 6.40234 165.272 6.14062 165.057 5.80859C164.843 5.47656 164.735 5.10352 164.735 4.68945C164.735 4.19336 164.843 3.77148 165.057 3.42383C165.276 3.07617 165.575 2.81055 165.954 2.62695C166.333 2.44336 166.764 2.35156 167.249 2.35156C167.737 2.35156 168.171 2.44336 168.55 2.62695C168.928 2.81055 169.225 3.07617 169.44 3.42383C169.659 3.77148 169.768 4.19336 169.768 4.68945ZM168.684 4.70703C168.684 4.42188 168.624 4.16992 168.503 3.95117C168.382 3.73242 168.214 3.56055 167.999 3.43555C167.784 3.30664 167.534 3.24219 167.249 3.24219C166.964 3.24219 166.714 3.30273 166.499 3.42383C166.288 3.54102 166.122 3.70898 166.001 3.92773C165.884 4.14648 165.825 4.40625 165.825 4.70703C165.825 5 165.884 5.25586 166.001 5.47461C166.122 5.69336 166.29 5.86328 166.505 5.98438C166.719 6.10547 166.969 6.16602 167.255 6.16602C167.54 6.16602 167.788 6.10547 167.999 5.98438C168.214 5.86328 168.382 5.69336 168.503 5.47461C168.624 5.25586 168.684 5 168.684 4.70703ZM176.718 8.69141C176.718 9.21094 176.596 9.65234 176.354 10.0156C176.116 10.375 175.792 10.6484 175.382 10.8359C174.975 11.0234 174.516 11.1172 174.005 11.1172C173.493 11.1172 173.032 11.0234 172.622 10.8359C172.212 10.6484 171.887 10.375 171.649 10.0156C171.411 9.65234 171.292 9.21094 171.292 8.69141C171.292 8.35156 171.356 8.04102 171.485 7.75977C171.618 7.47461 171.803 7.22656 172.042 7.01562C172.284 6.80469 172.569 6.64258 172.897 6.5293C173.229 6.41211 173.594 6.35352 173.993 6.35352C174.516 6.35352 174.983 6.45508 175.393 6.6582C175.803 6.85742 176.126 7.13281 176.36 7.48438C176.598 7.83594 176.718 8.23828 176.718 8.69141ZM175.628 8.66797C175.628 8.35156 175.559 8.07227 175.423 7.83008C175.286 7.58398 175.094 7.39258 174.848 7.25586C174.602 7.11914 174.317 7.05078 173.993 7.05078C173.661 7.05078 173.374 7.11914 173.132 7.25586C172.893 7.39258 172.708 7.58398 172.575 7.83008C172.442 8.07227 172.376 8.35156 172.376 8.66797C172.376 8.99609 172.44 9.27734 172.569 9.51172C172.702 9.74219 172.889 9.91992 173.132 10.0449C173.378 10.166 173.669 10.2266 174.005 10.2266C174.341 10.2266 174.63 10.166 174.872 10.0449C175.114 9.91992 175.3 9.74219 175.428 9.51172C175.561 9.27734 175.628 8.99609 175.628 8.66797ZM176.518 4.68945C176.518 5.10352 176.409 5.47656 176.19 5.80859C175.971 6.14062 175.673 6.40234 175.294 6.59375C174.915 6.78516 174.485 6.88086 174.005 6.88086C173.516 6.88086 173.081 6.78516 172.698 6.59375C172.319 6.40234 172.022 6.14062 171.807 5.80859C171.593 5.47656 171.485 5.10352 171.485 4.68945C171.485 4.19336 171.593 3.77148 171.807 3.42383C172.026 3.07617 172.325 2.81055 172.704 2.62695C173.083 2.44336 173.514 2.35156 173.999 2.35156C174.487 2.35156 174.921 2.44336 175.3 2.62695C175.678 2.81055 175.975 3.07617 176.19 3.42383C176.409 3.77148 176.518 4.19336 176.518 4.68945ZM175.434 4.70703C175.434 4.42188 175.374 4.16992 175.253 3.95117C175.132 3.73242 174.964 3.56055 174.749 3.43555C174.534 3.30664 174.284 3.24219 173.999 3.24219C173.714 3.24219 173.464 3.30273 173.249 3.42383C173.038 3.54102 172.872 3.70898 172.751 3.92773C172.634 4.14648 172.575 4.40625 172.575 4.70703C172.575 5 172.634 5.25586 172.751 5.47461C172.872 5.69336 173.04 5.86328 173.255 5.98438C173.469 6.10547 173.719 6.16602 174.005 6.16602C174.29 6.16602 174.538 6.10547 174.749 5.98438C174.964 5.86328 175.132 5.69336 175.253 5.47461C175.374 5.25586 175.434 5 175.434 4.70703ZM183.444 6.05469V7.35547C183.444 8.05469 183.382 8.64453 183.257 9.125C183.132 9.60547 182.952 9.99219 182.718 10.2852C182.483 10.5781 182.2 10.791 181.868 10.9238C181.54 11.0527 181.169 11.1172 180.755 11.1172C180.427 11.1172 180.124 11.0762 179.846 10.9941C179.569 10.9121 179.319 10.7812 179.096 10.6016C178.878 10.418 178.69 10.1797 178.534 9.88672C178.378 9.59375 178.259 9.23828 178.177 8.82031C178.094 8.40234 178.053 7.91406 178.053 7.35547V6.05469C178.053 5.35547 178.116 4.76953 178.241 4.29688C178.37 3.82422 178.552 3.44531 178.786 3.16016C179.02 2.87109 179.302 2.66406 179.63 2.53906C179.962 2.41406 180.333 2.35156 180.743 2.35156C181.075 2.35156 181.38 2.39258 181.657 2.47461C181.938 2.55273 182.188 2.67969 182.407 2.85547C182.626 3.02734 182.811 3.25781 182.964 3.54688C183.12 3.83203 183.239 4.18164 183.321 4.5957C183.403 5.00977 183.444 5.49609 183.444 6.05469ZM182.354 7.53125V5.87305C182.354 5.49023 182.331 5.1543 182.284 4.86523C182.241 4.57227 182.177 4.32227 182.091 4.11523C182.005 3.9082 181.895 3.74023 181.762 3.61133C181.634 3.48242 181.483 3.38867 181.311 3.33008C181.143 3.26758 180.954 3.23633 180.743 3.23633C180.485 3.23633 180.257 3.28516 180.057 3.38281C179.858 3.47656 179.69 3.62695 179.553 3.83398C179.421 4.04102 179.319 4.3125 179.249 4.64844C179.178 4.98438 179.143 5.39258 179.143 5.87305V7.53125C179.143 7.91406 179.165 8.25195 179.208 8.54492C179.255 8.83789 179.323 9.0918 179.413 9.30664C179.503 9.51758 179.612 9.69141 179.741 9.82812C179.87 9.96484 180.018 10.0664 180.186 10.1328C180.358 10.1953 180.548 10.2266 180.755 10.2266C181.02 10.2266 181.253 10.1758 181.452 10.0742C181.651 9.97266 181.817 9.81445 181.95 9.59961C182.087 9.38086 182.188 9.10156 182.255 8.76172C182.321 8.41797 182.354 8.00781 182.354 7.53125Z" fill="#38A837"/>
<path d="M46.2972 192.137L29.0308 205.663" stroke="#38A837"/>
<path d="M10.5678 202.595H10.6792C11.3042 202.595 11.812 202.507 12.2026 202.331C12.5932 202.155 12.894 201.919 13.1049 201.622C13.3159 201.325 13.4604 200.991 13.5385 200.62C13.6167 200.245 13.6557 199.86 13.6557 199.466V198.159C13.6557 197.772 13.6108 197.429 13.521 197.128C13.435 196.827 13.3139 196.575 13.1577 196.372C13.0053 196.169 12.8315 196.015 12.6362 195.909C12.4409 195.804 12.2339 195.751 12.0151 195.751C11.7651 195.751 11.5405 195.802 11.3413 195.903C11.146 196.001 10.9799 196.14 10.8432 196.319C10.7104 196.499 10.6089 196.71 10.5385 196.952C10.4682 197.194 10.4331 197.458 10.4331 197.743C10.4331 197.997 10.4643 198.243 10.5268 198.481C10.5893 198.72 10.685 198.935 10.8139 199.126C10.9428 199.317 11.103 199.47 11.2944 199.583C11.4897 199.692 11.7182 199.747 11.9799 199.747C12.2221 199.747 12.4487 199.7 12.6596 199.606C12.8745 199.509 13.0639 199.378 13.228 199.214C13.396 199.046 13.5288 198.856 13.6264 198.646C13.728 198.435 13.7866 198.214 13.8022 197.983H14.3178C14.3178 198.308 14.2534 198.628 14.1245 198.944C13.9995 199.257 13.8237 199.542 13.5971 199.8C13.3706 200.058 13.1049 200.265 12.8003 200.421C12.4956 200.573 12.1635 200.649 11.8042 200.649C11.3823 200.649 11.0171 200.567 10.7085 200.403C10.3999 200.239 10.146 200.021 9.94674 199.747C9.75143 199.474 9.60495 199.169 9.50729 198.833C9.41354 198.493 9.36666 198.149 9.36666 197.802C9.36666 197.396 9.42331 197.015 9.53659 196.659C9.64987 196.304 9.81784 195.991 10.0405 195.722C10.2631 195.448 10.5385 195.235 10.8667 195.083C11.1987 194.931 11.5815 194.854 12.0151 194.854C12.5034 194.854 12.9194 194.952 13.2631 195.147C13.6069 195.343 13.8862 195.604 14.101 195.933C14.3198 196.261 14.4799 196.63 14.5815 197.04C14.6831 197.45 14.7339 197.872 14.7339 198.306V198.698C14.7339 199.14 14.7046 199.589 14.646 200.046C14.5913 200.499 14.4839 200.933 14.3237 201.347C14.1674 201.761 13.9389 202.132 13.6381 202.46C13.3374 202.784 12.9448 203.042 12.4604 203.233C11.9799 203.421 11.3862 203.515 10.6792 203.515H10.5678V202.595ZM21.5952 198.558V199.858C21.5952 200.558 21.5327 201.147 21.4077 201.628C21.2827 202.108 21.103 202.495 20.8686 202.788C20.6342 203.081 20.351 203.294 20.019 203.427C19.6909 203.556 19.3198 203.62 18.9057 203.62C18.5776 203.62 18.2749 203.579 17.9975 203.497C17.7202 203.415 17.4702 203.284 17.2475 203.104C17.0288 202.921 16.8413 202.683 16.685 202.39C16.5288 202.097 16.4096 201.741 16.3276 201.323C16.2456 200.905 16.2046 200.417 16.2046 199.858V198.558C16.2046 197.858 16.2671 197.272 16.3921 196.8C16.521 196.327 16.7026 195.948 16.937 195.663C17.1714 195.374 17.4526 195.167 17.7807 195.042C18.1128 194.917 18.4839 194.854 18.894 194.854C19.226 194.854 19.5307 194.896 19.8081 194.978C20.0893 195.056 20.3393 195.183 20.5581 195.358C20.7768 195.53 20.9624 195.761 21.1147 196.05C21.271 196.335 21.3901 196.685 21.4721 197.099C21.5542 197.513 21.5952 197.999 21.5952 198.558ZM20.5053 200.034V198.376C20.5053 197.993 20.4819 197.657 20.435 197.368C20.3921 197.075 20.3276 196.825 20.2417 196.618C20.1557 196.411 20.0464 196.243 19.9135 196.114C19.7846 195.985 19.6342 195.892 19.4624 195.833C19.2944 195.771 19.1049 195.739 18.894 195.739C18.6362 195.739 18.4077 195.788 18.2085 195.886C18.0092 195.979 17.8413 196.13 17.7046 196.337C17.5717 196.544 17.4702 196.815 17.3999 197.151C17.3296 197.487 17.2944 197.896 17.2944 198.376V200.034C17.2944 200.417 17.3159 200.755 17.3589 201.048C17.4057 201.341 17.4741 201.595 17.5639 201.81C17.6538 202.021 17.7631 202.194 17.8921 202.331C18.021 202.468 18.1694 202.569 18.3374 202.636C18.5092 202.698 18.6987 202.729 18.9057 202.729C19.1714 202.729 19.4038 202.679 19.603 202.577C19.8022 202.476 19.9682 202.317 20.101 202.103C20.2378 201.884 20.3393 201.604 20.4057 201.265C20.4721 200.921 20.5053 200.511 20.5053 200.034ZM24.0678 202.595H24.1792C24.8042 202.595 25.312 202.507 25.7026 202.331C26.0932 202.155 26.394 201.919 26.6049 201.622C26.8159 201.325 26.9604 200.991 27.0385 200.62C27.1167 200.245 27.1557 199.86 27.1557 199.466V198.159C27.1557 197.772 27.1108 197.429 27.021 197.128C26.935 196.827 26.8139 196.575 26.6577 196.372C26.5053 196.169 26.3315 196.015 26.1362 195.909C25.9409 195.804 25.7339 195.751 25.5151 195.751C25.2651 195.751 25.0405 195.802 24.8413 195.903C24.646 196.001 24.4799 196.14 24.3432 196.319C24.2104 196.499 24.1089 196.71 24.0385 196.952C23.9682 197.194 23.9331 197.458 23.9331 197.743C23.9331 197.997 23.9643 198.243 24.0268 198.481C24.0893 198.72 24.185 198.935 24.3139 199.126C24.4428 199.317 24.603 199.47 24.7944 199.583C24.9897 199.692 25.2182 199.747 25.4799 199.747C25.7221 199.747 25.9487 199.7 26.1596 199.606C26.3745 199.509 26.5639 199.378 26.728 199.214C26.896 199.046 27.0288 198.856 27.1264 198.646C27.228 198.435 27.2866 198.214 27.3022 197.983H27.8178C27.8178 198.308 27.7534 198.628 27.6245 198.944C27.4995 199.257 27.3237 199.542 27.0971 199.8C26.8706 200.058 26.6049 200.265 26.3003 200.421C25.9956 200.573 25.6635 200.649 25.3042 200.649C24.8823 200.649 24.5171 200.567 24.2085 200.403C23.8999 200.239 23.646 200.021 23.4467 199.747C23.2514 199.474 23.1049 199.169 23.0073 198.833C22.9135 198.493 22.8667 198.149 22.8667 197.802C22.8667 197.396 22.9233 197.015 23.0366 196.659C23.1499 196.304 23.3178 195.991 23.5405 195.722C23.7631 195.448 24.0385 195.235 24.3667 195.083C24.6987 194.931 25.0815 194.854 25.5151 194.854C26.0034 194.854 26.4194 194.952 26.7631 195.147C27.1069 195.343 27.3862 195.604 27.601 195.933C27.8198 196.261 27.9799 196.63 28.0815 197.04C28.1831 197.45 28.2339 197.872 28.2339 198.306V198.698C28.2339 199.14 28.2046 199.589 28.146 200.046C28.0913 200.499 27.9839 200.933 27.8237 201.347C27.6674 201.761 27.4389 202.132 27.1381 202.46C26.8374 202.784 26.4448 203.042 25.9604 203.233C25.4799 203.421 24.8862 203.515 24.1792 203.515H24.0678V202.595Z" fill="#38A837"/>
<path d="M209.541 186.081L227.762 198.292" stroke="#38A837"/>
<path d="M234.236 193.26V194.151H228.072V193.512L231.893 187.6H232.777L231.828 189.311L229.303 193.26H234.236ZM233.047 187.6V196.131H231.963V187.6H233.047ZM238.783 187.553V196.131H237.699V188.906L235.514 189.703V188.725L238.613 187.553H238.783ZM247.736 193.26V194.151H241.572V193.512L245.393 187.6H246.277L245.328 189.311L242.803 193.26H247.736ZM246.547 187.6V196.131H245.463V187.6H246.547Z" fill="#38A837"/>
</svg>
