<svg width="406" height="170" viewBox="0 0 406 170" fill="none" xmlns="http://www.w3.org/2000/svg">
<path d="M200.526 88.0137C200.526 76.6986 198.2 65.5083 193.696 55.1593C189.192 44.8102 182.61 35.5307 174.371 27.915C166.132 20.2993 156.418 14.5152 145.852 10.9332C135.285 7.35115 124.098 6.05017 113.008 7.11356L117.049 50.5974C122.178 50.1056 127.352 50.7073 132.239 52.364C137.126 54.0206 141.619 56.6958 145.429 60.2181C149.24 63.7404 152.284 68.0321 154.367 72.8185C156.45 77.605 157.526 82.7805 157.526 88.0137H200.526Z" fill="#B5B5B6" stroke="white"/>
<path d="M113.008 7.11328C102.527 8.11824 92.3444 11.2146 83.0438 16.2248C73.7432 21.235 65.5077 28.0605 58.8092 36.31C52.1108 44.5596 47.0813 54.071 44.0089 64.2989C40.9366 74.5267 39.8819 85.27 40.9053 95.9127C41.9286 106.555 45.01 116.888 49.9727 126.319C54.9353 135.75 61.6818 144.093 69.8251 150.87C77.9685 157.647 87.3486 162.725 97.4279 165.812C107.507 168.9 118.087 169.936 128.562 168.862L124.243 125.406C119.398 125.903 114.505 125.424 109.843 123.996C105.182 122.568 100.843 120.219 97.0771 117.085C93.3107 113.95 90.1906 110.092 87.8953 105.73C85.6001 101.368 84.1749 96.5892 83.7016 91.6669C83.2283 86.7446 83.7161 81.7759 85.1371 77.0455C86.558 72.3151 88.8842 67.9161 91.9822 64.1006C95.0803 60.2852 98.8892 57.1284 103.191 54.8112C107.492 52.494 112.202 51.0619 117.049 50.5971L113.008 7.11328Z" fill="#D57C09" stroke="white"/>
<path d="M128.561 168.863C148.287 166.84 166.571 157.449 179.867 142.511C193.164 127.573 200.526 108.152 200.526 88.0137H157.526C157.526 97.3277 154.121 106.31 147.971 113.219C141.822 120.128 133.365 124.471 124.242 125.406L128.561 168.863Z" fill="#7A64C6" stroke="white"/>
<path d="M174.371 27.9148L187.832 12.8901" stroke="#716A92"/>
<path d="M189.912 7.64062L189.045 7.41797L189.473 3.16992H193.85V4.17188H190.393L190.135 6.49219C190.291 6.40234 190.488 6.31836 190.727 6.24023C190.969 6.16211 191.246 6.12305 191.559 6.12305C191.953 6.12305 192.307 6.19141 192.619 6.32812C192.932 6.46094 193.197 6.65234 193.416 6.90234C193.639 7.15234 193.809 7.45312 193.926 7.80469C194.043 8.15625 194.102 8.54883 194.102 8.98242C194.102 9.39258 194.045 9.76953 193.932 10.1133C193.822 10.457 193.656 10.7578 193.434 11.0156C193.211 11.2695 192.93 11.4668 192.59 11.6074C192.254 11.748 191.857 11.8184 191.4 11.8184C191.057 11.8184 190.73 11.7715 190.422 11.6777C190.117 11.5801 189.844 11.4336 189.602 11.2383C189.363 11.0391 189.168 10.793 189.016 10.5C188.867 10.2031 188.773 9.85547 188.734 9.45703H189.766C189.812 9.77734 189.906 10.0469 190.047 10.2656C190.188 10.4844 190.371 10.6504 190.598 10.7637C190.828 10.873 191.096 10.9277 191.4 10.9277C191.658 10.9277 191.887 10.8828 192.086 10.793C192.285 10.7031 192.453 10.5742 192.59 10.4062C192.727 10.2383 192.83 10.0352 192.9 9.79688C192.975 9.55859 193.012 9.29102 193.012 8.99414C193.012 8.72461 192.975 8.47461 192.9 8.24414C192.826 8.01367 192.715 7.8125 192.566 7.64062C192.422 7.46875 192.244 7.33594 192.033 7.24219C191.822 7.14453 191.58 7.0957 191.307 7.0957C190.943 7.0957 190.668 7.14453 190.48 7.24219C190.297 7.33984 190.107 7.47266 189.912 7.64062ZM198.854 3.12305V11.7012H197.77V4.47656L195.584 5.27344V4.29492L198.684 3.12305H198.854ZM203.623 6.90234H204.396C204.775 6.90234 205.088 6.83984 205.334 6.71484C205.584 6.58594 205.77 6.41211 205.891 6.19336C206.016 5.9707 206.078 5.7207 206.078 5.44336C206.078 5.11523 206.023 4.83984 205.914 4.61719C205.805 4.39453 205.641 4.22656 205.422 4.11328C205.203 4 204.926 3.94336 204.59 3.94336C204.285 3.94336 204.016 4.00391 203.781 4.125C203.551 4.24219 203.369 4.41016 203.236 4.62891C203.107 4.84766 203.043 5.10547 203.043 5.40234H201.959C201.959 4.96875 202.068 4.57422 202.287 4.21875C202.506 3.86328 202.812 3.58008 203.207 3.36914C203.605 3.1582 204.066 3.05273 204.59 3.05273C205.105 3.05273 205.557 3.14453 205.943 3.32812C206.33 3.50781 206.631 3.77734 206.846 4.13672C207.061 4.49219 207.168 4.93555 207.168 5.4668C207.168 5.68164 207.117 5.91211 207.016 6.1582C206.918 6.40039 206.764 6.62695 206.553 6.83789C206.346 7.04883 206.076 7.22266 205.744 7.35938C205.412 7.49219 205.014 7.55859 204.549 7.55859H203.623V6.90234ZM203.623 7.79297V7.14258H204.549C205.092 7.14258 205.541 7.20703 205.896 7.33594C206.252 7.46484 206.531 7.63672 206.734 7.85156C206.941 8.06641 207.086 8.30273 207.168 8.56055C207.254 8.81445 207.297 9.06836 207.297 9.32227C207.297 9.7207 207.229 10.0742 207.092 10.3828C206.959 10.6914 206.77 10.9531 206.523 11.168C206.281 11.3828 205.996 11.5449 205.668 11.6543C205.34 11.7637 204.982 11.8184 204.596 11.8184C204.225 11.8184 203.875 11.7656 203.547 11.6602C203.223 11.5547 202.936 11.4023 202.686 11.2031C202.436 11 202.24 10.752 202.1 10.459C201.959 10.1621 201.889 9.82422 201.889 9.44531H202.973C202.973 9.74219 203.037 10.002 203.166 10.2246C203.299 10.4473 203.486 10.6211 203.729 10.7461C203.975 10.8672 204.264 10.9277 204.596 10.9277C204.928 10.9277 205.213 10.8711 205.451 10.7578C205.693 10.6406 205.879 10.4648 206.008 10.2305C206.141 9.99609 206.207 9.70117 206.207 9.3457C206.207 8.99023 206.133 8.69922 205.984 8.47266C205.836 8.24219 205.625 8.07227 205.352 7.96289C205.082 7.84961 204.764 7.79297 204.396 7.79297H203.623Z" fill="#716A92"/>
<path d="M40.9053 95.9131L21 97.8879" stroke="#716A92"/>
<path d="M2.53711 95.7905H2.64844C3.27344 95.7905 3.78125 95.7026 4.17188 95.5269C4.5625 95.3511 4.86328 95.1147 5.07422 94.8179C5.28516 94.521 5.42969 94.187 5.50781 93.8159C5.58594 93.4409 5.625 93.0562 5.625 92.6616V91.355C5.625 90.9683 5.58008 90.6245 5.49023 90.3237C5.4043 90.0229 5.2832 89.771 5.12695 89.5679C4.97461 89.3647 4.80078 89.2104 4.60547 89.105C4.41016 88.9995 4.20312 88.9468 3.98438 88.9468C3.73438 88.9468 3.50977 88.9976 3.31055 89.0991C3.11523 89.1968 2.94922 89.3354 2.8125 89.5151C2.67969 89.6948 2.57812 89.9058 2.50781 90.1479C2.4375 90.3901 2.40234 90.6538 2.40234 90.939C2.40234 91.1929 2.43359 91.439 2.49609 91.6772C2.55859 91.9155 2.6543 92.1304 2.7832 92.3218C2.91211 92.5132 3.07227 92.6655 3.26367 92.7788C3.45898 92.8882 3.6875 92.9429 3.94922 92.9429C4.19141 92.9429 4.41797 92.896 4.62891 92.8022C4.84375 92.7046 5.0332 92.5737 5.19727 92.4097C5.36523 92.2417 5.49805 92.0522 5.5957 91.8413C5.69727 91.6304 5.75586 91.4097 5.77148 91.1792H6.28711C6.28711 91.5034 6.22266 91.8237 6.09375 92.1401C5.96875 92.4526 5.79297 92.7378 5.56641 92.9956C5.33984 93.2534 5.07422 93.4604 4.76953 93.6167C4.46484 93.769 4.13281 93.8452 3.77344 93.8452C3.35156 93.8452 2.98633 93.7632 2.67773 93.5991C2.36914 93.4351 2.11523 93.2163 1.91602 92.9429C1.7207 92.6694 1.57422 92.3647 1.47656 92.0288C1.38281 91.689 1.33594 91.3452 1.33594 90.9976C1.33594 90.5913 1.39258 90.2104 1.50586 89.855C1.61914 89.4995 1.78711 89.187 2.00977 88.9175C2.23242 88.644 2.50781 88.4312 2.83594 88.2788C3.16797 88.1265 3.55078 88.0503 3.98438 88.0503C4.47266 88.0503 4.88867 88.1479 5.23242 88.3433C5.57617 88.5386 5.85547 88.8003 6.07031 89.1284C6.28906 89.4565 6.44922 89.8257 6.55078 90.2358C6.65234 90.646 6.70312 91.0679 6.70312 91.5015V91.894C6.70312 92.3354 6.67383 92.7847 6.61523 93.2417C6.56055 93.6948 6.45312 94.1284 6.29297 94.5425C6.13672 94.9565 5.9082 95.3276 5.60742 95.6558C5.30664 95.98 4.91406 96.2378 4.42969 96.4292C3.94922 96.6167 3.35547 96.7104 2.64844 96.7104H2.53711V95.7905ZM13.7227 88.1675V88.7769L10.1895 96.6987H9.04688L12.5742 89.0581H7.95703V88.1675H13.7227ZM20.3145 91.7534V93.0542C20.3145 93.7534 20.252 94.3433 20.127 94.8237C20.002 95.3042 19.8223 95.6909 19.5879 95.9839C19.3535 96.2769 19.0703 96.4897 18.7383 96.6226C18.4102 96.7515 18.0391 96.8159 17.625 96.8159C17.2969 96.8159 16.9941 96.7749 16.7168 96.6929C16.4395 96.6108 16.1895 96.48 15.9668 96.3003C15.748 96.1167 15.5605 95.8784 15.4043 95.5854C15.248 95.2925 15.1289 94.937 15.0469 94.519C14.9648 94.1011 14.9238 93.6128 14.9238 93.0542V91.7534C14.9238 91.0542 14.9863 90.4683 15.1113 89.9956C15.2402 89.5229 15.4219 89.144 15.6562 88.8589C15.8906 88.5698 16.1719 88.3628 16.5 88.2378C16.832 88.1128 17.2031 88.0503 17.6133 88.0503C17.9453 88.0503 18.25 88.0913 18.5273 88.1733C18.8086 88.2515 19.0586 88.3784 19.2773 88.5542C19.4961 88.7261 19.6816 88.9565 19.834 89.2456C19.9902 89.5308 20.1094 89.8804 20.1914 90.2944C20.2734 90.7085 20.3145 91.1948 20.3145 91.7534ZM19.2246 93.23V91.5718C19.2246 91.189 19.2012 90.853 19.1543 90.564C19.1113 90.271 19.0469 90.021 18.9609 89.814C18.875 89.6069 18.7656 89.439 18.6328 89.3101C18.5039 89.1812 18.3535 89.0874 18.1816 89.0288C18.0137 88.9663 17.8242 88.9351 17.6133 88.9351C17.3555 88.9351 17.127 88.9839 16.9277 89.0815C16.7285 89.1753 16.5605 89.3257 16.4238 89.5327C16.291 89.7397 16.1895 90.0112 16.1191 90.3472C16.0488 90.6831 16.0137 91.0913 16.0137 91.5718V93.23C16.0137 93.6128 16.0352 93.9507 16.0781 94.2437C16.125 94.5366 16.1934 94.7905 16.2832 95.0054C16.373 95.2163 16.4824 95.3901 16.6113 95.5269C16.7402 95.6636 16.8887 95.7651 17.0566 95.8315C17.2285 95.894 17.418 95.9253 17.625 95.9253C17.8906 95.9253 18.123 95.8745 18.3223 95.7729C18.5215 95.6714 18.6875 95.5132 18.8203 95.2983C18.957 95.0796 19.0586 94.8003 19.125 94.4604C19.1914 94.1167 19.2246 93.7065 19.2246 93.23Z" fill="#716A92"/>
<path d="M179.868 142.511L194.703 156.136" stroke="#716A92"/>
<path d="M201.178 152.076V152.966H195.014V152.328L198.834 146.416H199.719L198.77 148.126L196.244 152.076H201.178ZM199.988 146.416V154.947H198.904V146.416H199.988ZM203.533 150.886L202.666 150.664L203.094 146.416H207.471V147.417H204.014L203.756 149.738C203.912 149.648 204.109 149.564 204.348 149.486C204.59 149.408 204.867 149.369 205.18 149.369C205.574 149.369 205.928 149.437 206.24 149.574C206.553 149.707 206.818 149.898 207.037 150.148C207.26 150.398 207.43 150.699 207.547 151.05C207.664 151.402 207.723 151.794 207.723 152.228C207.723 152.638 207.666 153.015 207.553 153.359C207.443 153.703 207.277 154.003 207.055 154.261C206.832 154.515 206.551 154.712 206.211 154.853C205.875 154.994 205.479 155.064 205.021 155.064C204.678 155.064 204.352 155.017 204.043 154.923C203.738 154.826 203.465 154.679 203.223 154.484C202.984 154.285 202.789 154.039 202.637 153.746C202.488 153.449 202.395 153.101 202.355 152.703H203.387C203.434 153.023 203.527 153.292 203.668 153.511C203.809 153.73 203.992 153.896 204.219 154.009C204.449 154.119 204.717 154.173 205.021 154.173C205.279 154.173 205.508 154.128 205.707 154.039C205.906 153.949 206.074 153.82 206.211 153.652C206.348 153.484 206.451 153.281 206.521 153.042C206.596 152.804 206.633 152.537 206.633 152.24C206.633 151.97 206.596 151.72 206.521 151.49C206.447 151.259 206.336 151.058 206.188 150.886C206.043 150.714 205.865 150.582 205.654 150.488C205.443 150.39 205.201 150.341 204.928 150.341C204.564 150.341 204.289 150.39 204.102 150.488C203.918 150.585 203.729 150.718 203.533 150.886ZM210.494 150.148H211.268C211.646 150.148 211.959 150.085 212.205 149.96C212.455 149.832 212.641 149.658 212.762 149.439C212.887 149.216 212.949 148.966 212.949 148.689C212.949 148.361 212.895 148.085 212.785 147.863C212.676 147.64 212.512 147.472 212.293 147.359C212.074 147.246 211.797 147.189 211.461 147.189C211.156 147.189 210.887 147.25 210.652 147.371C210.422 147.488 210.24 147.656 210.107 147.875C209.979 148.093 209.914 148.351 209.914 148.648H208.83C208.83 148.214 208.939 147.82 209.158 147.464C209.377 147.109 209.684 146.826 210.078 146.615C210.477 146.404 210.938 146.298 211.461 146.298C211.977 146.298 212.428 146.39 212.814 146.574C213.201 146.753 213.502 147.023 213.717 147.382C213.932 147.738 214.039 148.181 214.039 148.712C214.039 148.927 213.988 149.158 213.887 149.404C213.789 149.646 213.635 149.873 213.424 150.083C213.217 150.294 212.947 150.468 212.615 150.605C212.283 150.738 211.885 150.804 211.42 150.804H210.494V150.148ZM210.494 151.039V150.388H211.42C211.963 150.388 212.412 150.453 212.768 150.582C213.123 150.71 213.402 150.882 213.605 151.097C213.812 151.312 213.957 151.548 214.039 151.806C214.125 152.06 214.168 152.314 214.168 152.568C214.168 152.966 214.1 153.32 213.963 153.628C213.83 153.937 213.641 154.199 213.395 154.414C213.152 154.628 212.867 154.791 212.539 154.9C212.211 155.009 211.854 155.064 211.467 155.064C211.096 155.064 210.746 155.011 210.418 154.906C210.094 154.8 209.807 154.648 209.557 154.449C209.307 154.246 209.111 153.998 208.971 153.705C208.83 153.408 208.76 153.07 208.76 152.691H209.844C209.844 152.988 209.908 153.248 210.037 153.47C210.17 153.693 210.357 153.867 210.6 153.992C210.846 154.113 211.135 154.173 211.467 154.173C211.799 154.173 212.084 154.117 212.322 154.003C212.564 153.886 212.75 153.71 212.879 153.476C213.012 153.242 213.078 152.947 213.078 152.591C213.078 152.236 213.004 151.945 212.855 151.718C212.707 151.488 212.496 151.318 212.223 151.208C211.953 151.095 211.635 151.039 211.268 151.039H210.494Z" fill="#716A92"/>
<path d="M289.864 53.084C289.672 53.084 289.54 53.02 289.468 52.892C289.396 52.764 289.404 52.604 289.492 52.412L292.792 44.9C292.92 44.604 293.116 44.456 293.38 44.456C293.5 44.456 293.608 44.492 293.704 44.564C293.808 44.628 293.892 44.74 293.956 44.9L297.268 52.412C297.356 52.604 297.368 52.764 297.304 52.892C297.24 53.02 297.112 53.084 296.92 53.084C296.776 53.084 296.66 53.048 296.572 52.976C296.484 52.896 296.412 52.784 296.356 52.64L295.576 50.84H291.172L290.404 52.64C290.276 52.936 290.096 53.084 289.864 53.084ZM293.368 45.692L291.532 50.012H295.228L293.392 45.692H293.368ZM300.51 53.084C300.23 53.084 300.022 52.928 299.886 52.616L297.81 47.768C297.73 47.584 297.726 47.424 297.798 47.288C297.87 47.152 298.014 47.084 298.23 47.084C298.454 47.084 298.618 47.212 298.722 47.468L300.534 51.896L302.37 47.468C302.426 47.324 302.49 47.224 302.562 47.168C302.634 47.112 302.738 47.084 302.874 47.084C303.058 47.084 303.182 47.152 303.246 47.288C303.31 47.424 303.306 47.58 303.234 47.756L301.134 52.616C301.006 52.928 300.798 53.084 300.51 53.084ZM307.06 53.108C306.14 53.108 305.412 52.84 304.876 52.304C304.34 51.76 304.072 51.024 304.072 50.096C304.072 49.496 304.192 48.968 304.432 48.512C304.672 48.048 305 47.692 305.416 47.444C305.84 47.188 306.328 47.06 306.88 47.06C307.672 47.06 308.292 47.316 308.74 47.828C309.188 48.332 309.412 49.028 309.412 49.916C309.412 50.164 309.272 50.288 308.992 50.288H305.02C305.052 50.952 305.244 51.46 305.596 51.812C305.948 52.156 306.436 52.328 307.06 52.328C307.324 52.328 307.592 52.296 307.864 52.232C308.136 52.16 308.4 52.036 308.656 51.86C308.84 51.74 308.992 51.716 309.112 51.788C309.24 51.86 309.304 51.972 309.304 52.124C309.312 52.268 309.232 52.396 309.064 52.508C308.8 52.7 308.484 52.848 308.116 52.952C307.756 53.056 307.404 53.108 307.06 53.108ZM306.904 47.78C306.352 47.78 305.916 47.952 305.596 48.296C305.276 48.64 305.088 49.092 305.032 49.652H308.572C308.548 49.06 308.392 48.6 308.104 48.272C307.824 47.944 307.424 47.78 306.904 47.78ZM311.31 53.084C310.982 53.084 310.818 52.916 310.818 52.58V47.576C310.818 47.248 310.974 47.084 311.286 47.084C311.606 47.084 311.766 47.248 311.766 47.576V48.212C311.926 47.844 312.174 47.564 312.51 47.372C312.846 47.172 313.246 47.064 313.71 47.048C313.966 47.024 314.102 47.152 314.118 47.432C314.142 47.712 313.998 47.868 313.686 47.9L313.494 47.924C312.942 47.972 312.522 48.148 312.234 48.452C311.946 48.748 311.802 49.156 311.802 49.676V52.58C311.802 52.916 311.638 53.084 311.31 53.084ZM316.896 53.108C316.496 53.108 316.136 53.032 315.816 52.88C315.504 52.72 315.256 52.504 315.072 52.232C314.888 51.96 314.796 51.656 314.796 51.32C314.796 50.896 314.904 50.56 315.12 50.312C315.344 50.064 315.708 49.888 316.212 49.784C316.724 49.672 317.42 49.616 318.3 49.616H318.684V49.244C318.684 48.748 318.58 48.392 318.372 48.176C318.172 47.952 317.848 47.84 317.4 47.84C317.12 47.84 316.836 47.876 316.548 47.948C316.268 48.02 315.976 48.136 315.672 48.296C315.536 48.368 315.42 48.384 315.324 48.344C315.236 48.296 315.172 48.224 315.132 48.128C315.1 48.024 315.1 47.92 315.132 47.816C315.172 47.704 315.252 47.62 315.372 47.564C315.716 47.388 316.06 47.26 316.404 47.18C316.756 47.1 317.088 47.06 317.4 47.06C318.152 47.06 318.708 47.244 319.068 47.612C319.436 47.98 319.62 48.552 319.62 49.328V52.58C319.62 52.916 319.472 53.084 319.176 53.084C318.864 53.084 318.708 52.916 318.708 52.58V51.992C318.556 52.336 318.32 52.608 318 52.808C317.688 53.008 317.32 53.108 316.896 53.108ZM317.052 52.376C317.532 52.376 317.924 52.212 318.228 51.884C318.532 51.548 318.684 51.124 318.684 50.612V50.252H318.312C317.664 50.252 317.152 50.284 316.776 50.348C316.408 50.404 316.148 50.508 315.996 50.66C315.852 50.804 315.78 51.004 315.78 51.26C315.78 51.588 315.892 51.856 316.116 52.064C316.348 52.272 316.66 52.376 317.052 52.376ZM324.004 55.268C323.58 55.268 323.164 55.216 322.756 55.112C322.356 55.016 321.992 54.86 321.664 54.644C321.544 54.572 321.472 54.484 321.448 54.38C321.432 54.284 321.448 54.188 321.496 54.092C321.544 54.004 321.612 53.94 321.7 53.9C321.796 53.86 321.896 53.868 322 53.924C322.352 54.14 322.688 54.288 323.008 54.368C323.328 54.448 323.644 54.488 323.956 54.488C325.108 54.488 325.684 53.896 325.684 52.712V51.68C325.516 52.048 325.252 52.34 324.892 52.556C324.54 52.764 324.136 52.868 323.68 52.868C323.144 52.868 322.68 52.744 322.288 52.496C321.896 52.248 321.592 51.908 321.376 51.476C321.168 51.036 321.064 50.528 321.064 49.952C321.064 49.376 321.168 48.872 321.376 48.44C321.592 48 321.896 47.66 322.288 47.42C322.68 47.18 323.144 47.06 323.68 47.06C324.136 47.06 324.54 47.16 324.892 47.36C325.244 47.56 325.504 47.84 325.672 48.2V47.576C325.672 47.248 325.832 47.084 326.152 47.084C326.472 47.084 326.632 47.248 326.632 47.576V52.58C326.632 53.476 326.408 54.148 325.96 54.596C325.52 55.044 324.868 55.268 324.004 55.268ZM323.86 52.076C324.42 52.076 324.864 51.884 325.192 51.5C325.52 51.116 325.684 50.6 325.684 49.952C325.684 49.304 325.52 48.792 325.192 48.416C324.864 48.032 324.42 47.84 323.86 47.84C323.308 47.84 322.868 48.032 322.54 48.416C322.212 48.792 322.048 49.304 322.048 49.952C322.048 50.6 322.212 51.116 322.54 51.5C322.868 51.884 323.308 52.076 323.86 52.076ZM331.083 53.108C330.163 53.108 329.435 52.84 328.899 52.304C328.363 51.76 328.095 51.024 328.095 50.096C328.095 49.496 328.215 48.968 328.455 48.512C328.695 48.048 329.023 47.692 329.439 47.444C329.863 47.188 330.351 47.06 330.903 47.06C331.695 47.06 332.315 47.316 332.763 47.828C333.211 48.332 333.435 49.028 333.435 49.916C333.435 50.164 333.295 50.288 333.015 50.288H329.043C329.075 50.952 329.267 51.46 329.619 51.812C329.971 52.156 330.459 52.328 331.083 52.328C331.347 52.328 331.615 52.296 331.887 52.232C332.159 52.16 332.423 52.036 332.679 51.86C332.863 51.74 333.015 51.716 333.135 51.788C333.263 51.86 333.327 51.972 333.327 52.124C333.335 52.268 333.255 52.396 333.087 52.508C332.823 52.7 332.507 52.848 332.139 52.952C331.779 53.056 331.427 53.108 331.083 53.108ZM330.927 47.78C330.375 47.78 329.939 47.952 329.619 48.296C329.299 48.64 329.111 49.092 329.055 49.652H332.595C332.571 49.06 332.415 48.6 332.127 48.272C331.847 47.944 331.447 47.78 330.927 47.78ZM338.559 53.084C338.231 53.084 338.067 52.912 338.067 52.568V45.044C338.067 44.708 338.235 44.54 338.571 44.54H341.415C342.327 44.54 343.023 44.76 343.503 45.2C343.991 45.64 344.235 46.268 344.235 47.084C344.235 47.892 343.991 48.52 343.503 48.968C343.023 49.408 342.327 49.628 341.415 49.628H339.051V52.568C339.051 52.912 338.887 53.084 338.559 53.084ZM339.051 48.8H341.295C342.607 48.8 343.263 48.228 343.263 47.084C343.263 45.932 342.607 45.356 341.295 45.356H339.051V48.8ZM347.888 53.108C346.968 53.108 346.24 52.84 345.704 52.304C345.168 51.76 344.9 51.024 344.9 50.096C344.9 49.496 345.02 48.968 345.26 48.512C345.5 48.048 345.828 47.692 346.244 47.444C346.668 47.188 347.156 47.06 347.708 47.06C348.5 47.06 349.12 47.316 349.568 47.828C350.016 48.332 350.24 49.028 350.24 49.916C350.24 50.164 350.1 50.288 349.82 50.288H345.848C345.88 50.952 346.072 51.46 346.424 51.812C346.776 52.156 347.264 52.328 347.888 52.328C348.152 52.328 348.42 52.296 348.692 52.232C348.964 52.16 349.228 52.036 349.484 51.86C349.668 51.74 349.82 51.716 349.94 51.788C350.068 51.86 350.132 51.972 350.132 52.124C350.14 52.268 350.06 52.396 349.892 52.508C349.628 52.7 349.312 52.848 348.944 52.952C348.584 53.056 348.232 53.108 347.888 53.108ZM347.732 47.78C347.18 47.78 346.744 47.952 346.424 48.296C346.104 48.64 345.916 49.092 345.86 49.652H349.4C349.376 49.06 349.22 48.6 348.932 48.272C348.652 47.944 348.252 47.78 347.732 47.78ZM352.138 53.084C351.81 53.084 351.646 52.916 351.646 52.58V47.576C351.646 47.248 351.802 47.084 352.114 47.084C352.434 47.084 352.594 47.248 352.594 47.576V48.212C352.754 47.844 353.002 47.564 353.338 47.372C353.674 47.172 354.074 47.064 354.538 47.048C354.794 47.024 354.93 47.152 354.946 47.432C354.97 47.712 354.826 47.868 354.514 47.9L354.322 47.924C353.77 47.972 353.35 48.148 353.062 48.452C352.774 48.748 352.63 49.156 352.63 49.676V52.58C352.63 52.916 352.466 53.084 352.138 53.084ZM357.056 53.084C356.736 53.084 356.576 52.916 356.576 52.58V47.924H355.808C355.528 47.924 355.388 47.796 355.388 47.54C355.388 47.292 355.528 47.168 355.808 47.168H356.576V46.964C356.576 45.468 357.308 44.656 358.772 44.528L359.12 44.492C359.264 44.484 359.368 44.516 359.432 44.588C359.496 44.66 359.528 44.748 359.528 44.852C359.536 44.948 359.512 45.036 359.456 45.116C359.4 45.196 359.32 45.24 359.216 45.248L358.94 45.272C358.452 45.312 358.096 45.46 357.872 45.716C357.656 45.972 357.548 46.348 357.548 46.844V47.168H358.844C359.124 47.168 359.264 47.292 359.264 47.54C359.264 47.796 359.124 47.924 358.844 47.924H357.548V52.58C357.548 52.916 357.384 53.084 357.056 53.084ZM362.52 53.108C361.952 53.108 361.46 52.984 361.044 52.736C360.628 52.488 360.304 52.14 360.072 51.692C359.848 51.236 359.736 50.7 359.736 50.084C359.736 49.468 359.848 48.936 360.072 48.488C360.304 48.032 360.628 47.68 361.044 47.432C361.46 47.184 361.952 47.06 362.52 47.06C363.08 47.06 363.568 47.184 363.984 47.432C364.408 47.68 364.732 48.032 364.956 48.488C365.188 48.936 365.304 49.468 365.304 50.084C365.304 50.7 365.188 51.236 364.956 51.692C364.732 52.14 364.408 52.488 363.984 52.736C363.568 52.984 363.08 53.108 362.52 53.108ZM362.52 52.328C363.064 52.328 363.5 52.136 363.828 51.752C364.156 51.36 364.32 50.804 364.32 50.084C364.32 49.356 364.156 48.8 363.828 48.416C363.5 48.032 363.064 47.84 362.52 47.84C361.968 47.84 361.528 48.032 361.2 48.416C360.88 48.8 360.72 49.356 360.72 50.084C360.72 50.804 360.88 51.36 361.2 51.752C361.528 52.136 361.968 52.328 362.52 52.328ZM367.256 53.084C366.928 53.084 366.764 52.916 366.764 52.58V47.576C366.764 47.248 366.92 47.084 367.232 47.084C367.552 47.084 367.712 47.248 367.712 47.576V48.212C367.872 47.844 368.12 47.564 368.456 47.372C368.792 47.172 369.192 47.064 369.656 47.048C369.912 47.024 370.048 47.152 370.064 47.432C370.088 47.712 369.944 47.868 369.632 47.9L369.44 47.924C368.888 47.972 368.468 48.148 368.18 48.452C367.892 48.748 367.748 49.156 367.748 49.676V52.58C367.748 52.916 367.584 53.084 367.256 53.084ZM371.568 53.084C371.248 53.084 371.088 52.916 371.088 52.58V47.576C371.088 47.248 371.244 47.084 371.556 47.084C371.876 47.084 372.036 47.248 372.036 47.576V48.152C372.212 47.8 372.456 47.532 372.768 47.348C373.08 47.156 373.444 47.06 373.86 47.06C374.772 47.06 375.356 47.456 375.612 48.248C375.788 47.88 376.048 47.592 376.392 47.384C376.736 47.168 377.132 47.06 377.58 47.06C378.876 47.06 379.524 47.828 379.524 49.364V52.58C379.524 52.916 379.36 53.084 379.032 53.084C378.712 53.084 378.552 52.916 378.552 52.58V49.412C378.552 48.876 378.456 48.484 378.264 48.236C378.08 47.98 377.772 47.852 377.34 47.852C376.868 47.852 376.492 48.02 376.212 48.356C375.932 48.692 375.792 49.14 375.792 49.7V52.58C375.792 52.916 375.628 53.084 375.3 53.084C374.98 53.084 374.82 52.916 374.82 52.58V49.412C374.82 48.876 374.724 48.484 374.532 48.236C374.348 47.98 374.04 47.852 373.608 47.852C373.128 47.852 372.748 48.02 372.468 48.356C372.196 48.692 372.06 49.14 372.06 49.7V52.58C372.06 52.916 371.896 53.084 371.568 53.084ZM383.178 53.108C382.778 53.108 382.418 53.032 382.098 52.88C381.786 52.72 381.538 52.504 381.354 52.232C381.17 51.96 381.078 51.656 381.078 51.32C381.078 50.896 381.186 50.56 381.402 50.312C381.626 50.064 381.99 49.888 382.494 49.784C383.006 49.672 383.702 49.616 384.582 49.616H384.966V49.244C384.966 48.748 384.862 48.392 384.654 48.176C384.454 47.952 384.13 47.84 383.682 47.84C383.402 47.84 383.118 47.876 382.83 47.948C382.55 48.02 382.258 48.136 381.954 48.296C381.818 48.368 381.702 48.384 381.606 48.344C381.518 48.296 381.454 48.224 381.414 48.128C381.382 48.024 381.382 47.92 381.414 47.816C381.454 47.704 381.534 47.62 381.654 47.564C381.998 47.388 382.342 47.26 382.686 47.18C383.038 47.1 383.37 47.06 383.682 47.06C384.434 47.06 384.99 47.244 385.35 47.612C385.718 47.98 385.902 48.552 385.902 49.328V52.58C385.902 52.916 385.754 53.084 385.458 53.084C385.146 53.084 384.99 52.916 384.99 52.58V51.992C384.838 52.336 384.602 52.608 384.282 52.808C383.97 53.008 383.602 53.108 383.178 53.108ZM383.334 52.376C383.814 52.376 384.206 52.212 384.51 51.884C384.814 51.548 384.966 51.124 384.966 50.612V50.252H384.594C383.946 50.252 383.434 50.284 383.058 50.348C382.69 50.404 382.43 50.508 382.278 50.66C382.134 50.804 382.062 51.004 382.062 51.26C382.062 51.588 382.174 51.856 382.398 52.064C382.63 52.272 382.942 52.376 383.334 52.376ZM388.185 53.084C387.865 53.084 387.705 52.916 387.705 52.58V47.576C387.705 47.248 387.861 47.084 388.173 47.084C388.493 47.084 388.653 47.248 388.653 47.576V48.164C388.845 47.796 389.117 47.52 389.469 47.336C389.821 47.152 390.217 47.06 390.657 47.06C392.041 47.06 392.733 47.828 392.733 49.364V52.58C392.733 52.916 392.573 53.084 392.253 53.084C391.925 53.084 391.761 52.916 391.761 52.58V49.424C391.761 48.88 391.653 48.484 391.437 48.236C391.229 47.98 390.893 47.852 390.429 47.852C389.893 47.852 389.465 48.02 389.145 48.356C388.833 48.684 388.677 49.124 388.677 49.676V52.58C388.677 52.916 388.513 53.084 388.185 53.084ZM396.997 53.108C396.413 53.108 395.909 52.984 395.485 52.736C395.061 52.48 394.733 52.124 394.501 51.668C394.277 51.204 394.165 50.664 394.165 50.048C394.165 49.12 394.417 48.392 394.921 47.864C395.425 47.328 396.117 47.06 396.997 47.06C397.285 47.06 397.585 47.108 397.897 47.204C398.209 47.292 398.493 47.44 398.749 47.648C398.885 47.744 398.941 47.864 398.917 48.008C398.901 48.152 398.833 48.26 398.713 48.332C398.601 48.404 398.469 48.388 398.317 48.284C398.101 48.124 397.885 48.012 397.669 47.948C397.461 47.884 397.257 47.852 397.057 47.852C396.449 47.852 395.981 48.044 395.653 48.428C395.325 48.804 395.161 49.348 395.161 50.06C395.161 50.756 395.325 51.308 395.653 51.716C395.981 52.116 396.449 52.316 397.057 52.316C397.257 52.316 397.461 52.284 397.669 52.22C397.885 52.156 398.101 52.044 398.317 51.884C398.469 51.78 398.601 51.768 398.713 51.848C398.825 51.92 398.885 52.028 398.893 52.172C398.909 52.316 398.853 52.432 398.725 52.52C398.469 52.728 398.189 52.88 397.885 52.976C397.581 53.064 397.285 53.108 396.997 53.108ZM402.591 53.108C401.671 53.108 400.943 52.84 400.407 52.304C399.871 51.76 399.603 51.024 399.603 50.096C399.603 49.496 399.723 48.968 399.963 48.512C400.203 48.048 400.531 47.692 400.947 47.444C401.371 47.188 401.859 47.06 402.411 47.06C403.203 47.06 403.823 47.316 404.271 47.828C404.719 48.332 404.943 49.028 404.943 49.916C404.943 50.164 404.803 50.288 404.523 50.288H400.551C400.583 50.952 400.775 51.46 401.127 51.812C401.479 52.156 401.967 52.328 402.591 52.328C402.855 52.328 403.123 52.296 403.395 52.232C403.667 52.16 403.931 52.036 404.187 51.86C404.371 51.74 404.523 51.716 404.643 51.788C404.771 51.86 404.835 51.972 404.835 52.124C404.843 52.268 404.763 52.396 404.595 52.508C404.331 52.7 404.015 52.848 403.647 52.952C403.287 53.056 402.935 53.108 402.591 53.108ZM402.435 47.78C401.883 47.78 401.447 47.952 401.127 48.296C400.807 48.64 400.619 49.092 400.563 49.652H404.103C404.079 49.06 403.923 48.6 403.635 48.272C403.355 47.944 402.955 47.78 402.435 47.78Z" fill="black"/>
<rect x="265" y="39" width="15" height="15" fill="#B5B5B6"/>
<path d="M290.584 84C290.224 84 290.044 83.82 290.044 83.46V76.08C290.044 75.72 290.224 75.54 290.584 75.54H293.428C294.3 75.54 294.972 75.736 295.444 76.128C295.924 76.512 296.164 77.052 296.164 77.748C296.164 78.212 296.044 78.608 295.804 78.936C295.564 79.264 295.232 79.504 294.808 79.656C295.296 79.784 295.676 80.02 295.948 80.364C296.228 80.708 296.368 81.144 296.368 81.672C296.368 82.424 296.124 83 295.636 83.4C295.148 83.8 294.46 84 293.572 84H290.584ZM291.004 79.32H293.284C294.556 79.32 295.192 78.824 295.192 77.832C295.192 76.832 294.556 76.332 293.284 76.332H291.004V79.32ZM291.004 83.208H293.476C294.756 83.208 295.396 82.692 295.396 81.66C295.396 80.628 294.756 80.112 293.476 80.112H291.004V83.208ZM300.649 84.108C299.729 84.108 299.001 83.84 298.465 83.304C297.929 82.76 297.661 82.024 297.661 81.096C297.661 80.496 297.781 79.968 298.021 79.512C298.261 79.048 298.589 78.692 299.005 78.444C299.429 78.188 299.917 78.06 300.469 78.06C301.261 78.06 301.881 78.316 302.329 78.828C302.777 79.332 303.001 80.028 303.001 80.916C303.001 81.164 302.861 81.288 302.581 81.288H298.609C298.641 81.952 298.833 82.46 299.185 82.812C299.537 83.156 300.025 83.328 300.649 83.328C300.913 83.328 301.181 83.296 301.453 83.232C301.725 83.16 301.989 83.036 302.245 82.86C302.429 82.74 302.581 82.716 302.701 82.788C302.829 82.86 302.893 82.972 302.893 83.124C302.901 83.268 302.821 83.396 302.653 83.508C302.389 83.7 302.073 83.848 301.705 83.952C301.345 84.056 300.993 84.108 300.649 84.108ZM300.493 78.78C299.941 78.78 299.505 78.952 299.185 79.296C298.865 79.64 298.677 80.092 298.621 80.652H302.161C302.137 80.06 301.981 79.6 301.693 79.272C301.413 78.944 301.013 78.78 300.493 78.78ZM306.376 84.108C306.016 84.108 305.652 84.064 305.284 83.976C304.924 83.88 304.588 83.728 304.276 83.52C304.132 83.432 304.06 83.32 304.06 83.184C304.068 83.04 304.124 82.928 304.228 82.848C304.332 82.768 304.464 82.768 304.624 82.848C304.936 83.04 305.236 83.176 305.524 83.256C305.82 83.328 306.112 83.364 306.4 83.364C306.856 83.364 307.2 83.28 307.432 83.112C307.664 82.944 307.78 82.716 307.78 82.428C307.78 82.204 307.704 82.028 307.552 81.9C307.4 81.764 307.16 81.66 306.832 81.588L305.74 81.348C304.748 81.132 304.252 80.62 304.252 79.812C304.252 79.284 304.46 78.86 304.876 78.54C305.3 78.22 305.852 78.06 306.532 78.06C306.876 78.06 307.208 78.108 307.528 78.204C307.848 78.292 308.136 78.436 308.392 78.636C308.528 78.732 308.588 78.848 308.572 78.984C308.556 79.12 308.492 79.228 308.38 79.308C308.276 79.38 308.148 79.368 307.996 79.272C307.756 79.112 307.512 78.996 307.264 78.924C307.016 78.844 306.772 78.804 306.532 78.804C306.084 78.804 305.744 78.892 305.512 79.068C305.28 79.244 305.164 79.476 305.164 79.764C305.164 80.212 305.46 80.5 306.052 80.628L307.144 80.856C307.656 80.968 308.044 81.148 308.308 81.396C308.572 81.636 308.704 81.964 308.704 82.38C308.704 82.916 308.492 83.34 308.068 83.652C307.644 83.956 307.08 84.108 306.376 84.108ZM312.467 84.108C311.779 84.108 311.263 83.928 310.919 83.568C310.575 83.2 310.403 82.672 310.403 81.984V78.924H309.599C309.319 78.924 309.179 78.796 309.179 78.54C309.179 78.292 309.319 78.168 309.599 78.168H310.403V76.788C310.403 76.46 310.567 76.296 310.895 76.296C311.215 76.296 311.375 76.46 311.375 76.788V78.168H312.887C313.167 78.168 313.307 78.292 313.307 78.54C313.307 78.796 313.167 78.924 312.887 78.924H311.375V81.888C311.375 82.344 311.471 82.692 311.663 82.932C311.855 83.164 312.167 83.28 312.599 83.28C312.751 83.28 312.879 83.264 312.983 83.232C313.087 83.2 313.179 83.184 313.259 83.184C313.331 83.176 313.391 83.2 313.439 83.256C313.487 83.312 313.511 83.408 313.511 83.544C313.511 83.64 313.491 83.728 313.451 83.808C313.419 83.888 313.359 83.944 313.271 83.976C313.175 84.008 313.047 84.036 312.887 84.06C312.735 84.092 312.595 84.108 312.467 84.108ZM318.04 84.084C317.712 84.084 317.548 83.912 317.548 83.568V76.044C317.548 75.708 317.716 75.54 318.052 75.54H320.896C321.808 75.54 322.504 75.76 322.984 76.2C323.472 76.64 323.716 77.268 323.716 78.084C323.716 78.892 323.472 79.52 322.984 79.968C322.504 80.408 321.808 80.628 320.896 80.628H318.532V83.568C318.532 83.912 318.368 84.084 318.04 84.084ZM318.532 79.8H320.776C322.088 79.8 322.744 79.228 322.744 78.084C322.744 76.932 322.088 76.356 320.776 76.356H318.532V79.8ZM327.368 84.108C326.448 84.108 325.72 83.84 325.184 83.304C324.648 82.76 324.38 82.024 324.38 81.096C324.38 80.496 324.5 79.968 324.74 79.512C324.98 79.048 325.308 78.692 325.724 78.444C326.148 78.188 326.636 78.06 327.188 78.06C327.98 78.06 328.6 78.316 329.048 78.828C329.496 79.332 329.72 80.028 329.72 80.916C329.72 81.164 329.58 81.288 329.3 81.288H325.328C325.36 81.952 325.552 82.46 325.904 82.812C326.256 83.156 326.744 83.328 327.368 83.328C327.632 83.328 327.9 83.296 328.172 83.232C328.444 83.16 328.708 83.036 328.964 82.86C329.148 82.74 329.3 82.716 329.42 82.788C329.548 82.86 329.612 82.972 329.612 83.124C329.62 83.268 329.54 83.396 329.372 83.508C329.108 83.7 328.792 83.848 328.424 83.952C328.064 84.056 327.712 84.108 327.368 84.108ZM327.212 78.78C326.66 78.78 326.224 78.952 325.904 79.296C325.584 79.64 325.396 80.092 325.34 80.652H328.88C328.856 80.06 328.7 79.6 328.412 79.272C328.132 78.944 327.732 78.78 327.212 78.78ZM331.619 84.084C331.291 84.084 331.127 83.916 331.127 83.58V78.576C331.127 78.248 331.283 78.084 331.595 78.084C331.915 78.084 332.075 78.248 332.075 78.576V79.212C332.235 78.844 332.483 78.564 332.819 78.372C333.155 78.172 333.555 78.064 334.019 78.048C334.275 78.024 334.411 78.152 334.427 78.432C334.451 78.712 334.307 78.868 333.995 78.9L333.803 78.924C333.251 78.972 332.831 79.148 332.543 79.452C332.255 79.748 332.111 80.156 332.111 80.676V83.58C332.111 83.916 331.947 84.084 331.619 84.084ZM336.536 84.084C336.216 84.084 336.056 83.916 336.056 83.58V78.924H335.288C335.008 78.924 334.868 78.796 334.868 78.54C334.868 78.292 335.008 78.168 335.288 78.168H336.056V77.964C336.056 76.468 336.788 75.656 338.252 75.528L338.6 75.492C338.744 75.484 338.848 75.516 338.912 75.588C338.976 75.66 339.008 75.748 339.008 75.852C339.016 75.948 338.992 76.036 338.936 76.116C338.88 76.196 338.8 76.24 338.696 76.248L338.42 76.272C337.932 76.312 337.576 76.46 337.352 76.716C337.136 76.972 337.028 77.348 337.028 77.844V78.168H338.324C338.604 78.168 338.744 78.292 338.744 78.54C338.744 78.796 338.604 78.924 338.324 78.924H337.028V83.58C337.028 83.916 336.864 84.084 336.536 84.084ZM342 84.108C341.432 84.108 340.94 83.984 340.524 83.736C340.108 83.488 339.784 83.14 339.552 82.692C339.328 82.236 339.216 81.7 339.216 81.084C339.216 80.468 339.328 79.936 339.552 79.488C339.784 79.032 340.108 78.68 340.524 78.432C340.94 78.184 341.432 78.06 342 78.06C342.56 78.06 343.048 78.184 343.464 78.432C343.888 78.68 344.212 79.032 344.436 79.488C344.668 79.936 344.784 80.468 344.784 81.084C344.784 81.7 344.668 82.236 344.436 82.692C344.212 83.14 343.888 83.488 343.464 83.736C343.048 83.984 342.56 84.108 342 84.108ZM342 83.328C342.544 83.328 342.98 83.136 343.308 82.752C343.636 82.36 343.8 81.804 343.8 81.084C343.8 80.356 343.636 79.8 343.308 79.416C342.98 79.032 342.544 78.84 342 78.84C341.448 78.84 341.008 79.032 340.68 79.416C340.36 79.8 340.2 80.356 340.2 81.084C340.2 81.804 340.36 82.36 340.68 82.752C341.008 83.136 341.448 83.328 342 83.328ZM346.736 84.084C346.408 84.084 346.244 83.916 346.244 83.58V78.576C346.244 78.248 346.4 78.084 346.712 78.084C347.032 78.084 347.192 78.248 347.192 78.576V79.212C347.352 78.844 347.6 78.564 347.936 78.372C348.272 78.172 348.672 78.064 349.136 78.048C349.392 78.024 349.528 78.152 349.544 78.432C349.568 78.712 349.424 78.868 349.112 78.9L348.92 78.924C348.368 78.972 347.948 79.148 347.66 79.452C347.372 79.748 347.228 80.156 347.228 80.676V83.58C347.228 83.916 347.064 84.084 346.736 84.084ZM351.049 84.084C350.729 84.084 350.569 83.916 350.569 83.58V78.576C350.569 78.248 350.725 78.084 351.037 78.084C351.357 78.084 351.517 78.248 351.517 78.576V79.152C351.693 78.8 351.937 78.532 352.249 78.348C352.561 78.156 352.925 78.06 353.341 78.06C354.253 78.06 354.837 78.456 355.093 79.248C355.269 78.88 355.529 78.592 355.873 78.384C356.217 78.168 356.613 78.06 357.061 78.06C358.357 78.06 359.005 78.828 359.005 80.364V83.58C359.005 83.916 358.841 84.084 358.513 84.084C358.193 84.084 358.033 83.916 358.033 83.58V80.412C358.033 79.876 357.937 79.484 357.745 79.236C357.561 78.98 357.253 78.852 356.821 78.852C356.349 78.852 355.973 79.02 355.693 79.356C355.413 79.692 355.273 80.14 355.273 80.7V83.58C355.273 83.916 355.109 84.084 354.781 84.084C354.461 84.084 354.301 83.916 354.301 83.58V80.412C354.301 79.876 354.205 79.484 354.013 79.236C353.829 78.98 353.521 78.852 353.089 78.852C352.609 78.852 352.229 79.02 351.949 79.356C351.677 79.692 351.541 80.14 351.541 80.7V83.58C351.541 83.916 351.377 84.084 351.049 84.084ZM362.658 84.108C362.258 84.108 361.898 84.032 361.578 83.88C361.266 83.72 361.018 83.504 360.834 83.232C360.65 82.96 360.558 82.656 360.558 82.32C360.558 81.896 360.666 81.56 360.882 81.312C361.106 81.064 361.47 80.888 361.974 80.784C362.486 80.672 363.182 80.616 364.062 80.616H364.446V80.244C364.446 79.748 364.342 79.392 364.134 79.176C363.934 78.952 363.61 78.84 363.162 78.84C362.882 78.84 362.598 78.876 362.31 78.948C362.03 79.02 361.738 79.136 361.434 79.296C361.298 79.368 361.182 79.384 361.086 79.344C360.998 79.296 360.934 79.224 360.894 79.128C360.862 79.024 360.862 78.92 360.894 78.816C360.934 78.704 361.014 78.62 361.134 78.564C361.478 78.388 361.822 78.26 362.166 78.18C362.518 78.1 362.85 78.06 363.162 78.06C363.914 78.06 364.47 78.244 364.83 78.612C365.198 78.98 365.382 79.552 365.382 80.328V83.58C365.382 83.916 365.234 84.084 364.938 84.084C364.626 84.084 364.47 83.916 364.47 83.58V82.992C364.318 83.336 364.082 83.608 363.762 83.808C363.45 84.008 363.082 84.108 362.658 84.108ZM362.814 83.376C363.294 83.376 363.686 83.212 363.99 82.884C364.294 82.548 364.446 82.124 364.446 81.612V81.252H364.074C363.426 81.252 362.914 81.284 362.538 81.348C362.17 81.404 361.91 81.508 361.758 81.66C361.614 81.804 361.542 82.004 361.542 82.26C361.542 82.588 361.654 82.856 361.878 83.064C362.11 83.272 362.422 83.376 362.814 83.376ZM367.665 84.084C367.345 84.084 367.185 83.916 367.185 83.58V78.576C367.185 78.248 367.341 78.084 367.653 78.084C367.973 78.084 368.133 78.248 368.133 78.576V79.164C368.325 78.796 368.597 78.52 368.949 78.336C369.301 78.152 369.697 78.06 370.137 78.06C371.521 78.06 372.213 78.828 372.213 80.364V83.58C372.213 83.916 372.053 84.084 371.733 84.084C371.405 84.084 371.241 83.916 371.241 83.58V80.424C371.241 79.88 371.133 79.484 370.917 79.236C370.709 78.98 370.373 78.852 369.909 78.852C369.373 78.852 368.945 79.02 368.625 79.356C368.313 79.684 368.157 80.124 368.157 80.676V83.58C368.157 83.916 367.993 84.084 367.665 84.084ZM376.478 84.108C375.894 84.108 375.39 83.984 374.966 83.736C374.542 83.48 374.214 83.124 373.982 82.668C373.758 82.204 373.646 81.664 373.646 81.048C373.646 80.12 373.898 79.392 374.402 78.864C374.906 78.328 375.598 78.06 376.478 78.06C376.766 78.06 377.066 78.108 377.378 78.204C377.69 78.292 377.974 78.44 378.23 78.648C378.366 78.744 378.422 78.864 378.398 79.008C378.382 79.152 378.314 79.26 378.194 79.332C378.082 79.404 377.95 79.388 377.798 79.284C377.582 79.124 377.366 79.012 377.15 78.948C376.942 78.884 376.738 78.852 376.538 78.852C375.93 78.852 375.462 79.044 375.134 79.428C374.806 79.804 374.642 80.348 374.642 81.06C374.642 81.756 374.806 82.308 375.134 82.716C375.462 83.116 375.93 83.316 376.538 83.316C376.738 83.316 376.942 83.284 377.15 83.22C377.366 83.156 377.582 83.044 377.798 82.884C377.95 82.78 378.082 82.768 378.194 82.848C378.306 82.92 378.366 83.028 378.374 83.172C378.39 83.316 378.334 83.432 378.206 83.52C377.95 83.728 377.67 83.88 377.366 83.976C377.062 84.064 376.766 84.108 376.478 84.108ZM382.071 84.108C381.151 84.108 380.423 83.84 379.887 83.304C379.351 82.76 379.083 82.024 379.083 81.096C379.083 80.496 379.203 79.968 379.443 79.512C379.683 79.048 380.011 78.692 380.427 78.444C380.851 78.188 381.339 78.06 381.891 78.06C382.683 78.06 383.303 78.316 383.751 78.828C384.199 79.332 384.423 80.028 384.423 80.916C384.423 81.164 384.283 81.288 384.003 81.288H380.031C380.063 81.952 380.255 82.46 380.607 82.812C380.959 83.156 381.447 83.328 382.071 83.328C382.335 83.328 382.603 83.296 382.875 83.232C383.147 83.16 383.411 83.036 383.667 82.86C383.851 82.74 384.003 82.716 384.123 82.788C384.251 82.86 384.315 82.972 384.315 83.124C384.323 83.268 384.243 83.396 384.075 83.508C383.811 83.7 383.495 83.848 383.127 83.952C382.767 84.056 382.415 84.108 382.071 84.108ZM381.915 78.78C381.363 78.78 380.927 78.952 380.607 79.296C380.287 79.64 380.099 80.092 380.043 80.652H383.583C383.559 80.06 383.403 79.6 383.115 79.272C382.835 78.944 382.435 78.78 381.915 78.78Z" fill="black"/>
<rect x="265" y="70" width="15" height="15" fill="#D57C09"/>
<path d="M290.536 114.084C290.208 114.084 290.044 113.912 290.044 113.568V106.044C290.044 105.708 290.212 105.54 290.548 105.54H293.392C294.304 105.54 295 105.76 295.48 106.2C295.968 106.64 296.212 107.268 296.212 108.084C296.212 108.892 295.968 109.52 295.48 109.968C295 110.408 294.304 110.628 293.392 110.628H291.028V113.568C291.028 113.912 290.864 114.084 290.536 114.084ZM291.028 109.8H293.272C294.584 109.8 295.24 109.228 295.24 108.084C295.24 106.932 294.584 106.356 293.272 106.356H291.028V109.8ZM299.66 114.108C299.092 114.108 298.6 113.984 298.184 113.736C297.768 113.488 297.444 113.14 297.212 112.692C296.988 112.236 296.876 111.7 296.876 111.084C296.876 110.468 296.988 109.936 297.212 109.488C297.444 109.032 297.768 108.68 298.184 108.432C298.6 108.184 299.092 108.06 299.66 108.06C300.22 108.06 300.708 108.184 301.124 108.432C301.548 108.68 301.872 109.032 302.096 109.488C302.328 109.936 302.444 110.468 302.444 111.084C302.444 111.7 302.328 112.236 302.096 112.692C301.872 113.14 301.548 113.488 301.124 113.736C300.708 113.984 300.22 114.108 299.66 114.108ZM299.66 113.328C300.204 113.328 300.64 113.136 300.968 112.752C301.296 112.36 301.46 111.804 301.46 111.084C301.46 110.356 301.296 109.8 300.968 109.416C300.64 109.032 300.204 108.84 299.66 108.84C299.108 108.84 298.668 109.032 298.34 109.416C298.02 109.8 297.86 110.356 297.86 111.084C297.86 111.804 298.02 112.36 298.34 112.752C298.668 113.136 299.108 113.328 299.66 113.328ZM306.328 114.108C305.76 114.108 305.268 113.984 304.852 113.736C304.436 113.488 304.112 113.14 303.88 112.692C303.656 112.236 303.544 111.7 303.544 111.084C303.544 110.468 303.656 109.936 303.88 109.488C304.112 109.032 304.436 108.68 304.852 108.432C305.268 108.184 305.76 108.06 306.328 108.06C306.888 108.06 307.376 108.184 307.792 108.432C308.216 108.68 308.54 109.032 308.764 109.488C308.996 109.936 309.112 110.468 309.112 111.084C309.112 111.7 308.996 112.236 308.764 112.692C308.54 113.14 308.216 113.488 307.792 113.736C307.376 113.984 306.888 114.108 306.328 114.108ZM306.328 113.328C306.872 113.328 307.308 113.136 307.636 112.752C307.964 112.36 308.128 111.804 308.128 111.084C308.128 110.356 307.964 109.8 307.636 109.416C307.308 109.032 306.872 108.84 306.328 108.84C305.776 108.84 305.336 109.032 305.008 109.416C304.688 109.8 304.528 110.356 304.528 111.084C304.528 111.804 304.688 112.36 305.008 112.752C305.336 113.136 305.776 113.328 306.328 113.328ZM311.064 114.084C310.736 114.084 310.572 113.916 310.572 113.58V108.576C310.572 108.248 310.728 108.084 311.04 108.084C311.36 108.084 311.52 108.248 311.52 108.576V109.212C311.68 108.844 311.928 108.564 312.264 108.372C312.6 108.172 313 108.064 313.464 108.048C313.72 108.024 313.856 108.152 313.872 108.432C313.896 108.712 313.752 108.868 313.44 108.9L313.248 108.924C312.696 108.972 312.276 109.148 311.988 109.452C311.7 109.748 311.556 110.156 311.556 110.676V113.58C311.556 113.916 311.392 114.084 311.064 114.084ZM318.591 114.084C318.263 114.084 318.099 113.912 318.099 113.568V106.044C318.099 105.708 318.267 105.54 318.603 105.54H321.447C322.359 105.54 323.055 105.76 323.535 106.2C324.023 106.64 324.267 107.268 324.267 108.084C324.267 108.892 324.023 109.52 323.535 109.968C323.055 110.408 322.359 110.628 321.447 110.628H319.083V113.568C319.083 113.912 318.919 114.084 318.591 114.084ZM319.083 109.8H321.327C322.639 109.8 323.295 109.228 323.295 108.084C323.295 106.932 322.639 106.356 321.327 106.356H319.083V109.8ZM327.919 114.108C326.999 114.108 326.271 113.84 325.735 113.304C325.199 112.76 324.931 112.024 324.931 111.096C324.931 110.496 325.051 109.968 325.291 109.512C325.531 109.048 325.859 108.692 326.275 108.444C326.699 108.188 327.187 108.06 327.739 108.06C328.531 108.06 329.151 108.316 329.599 108.828C330.047 109.332 330.271 110.028 330.271 110.916C330.271 111.164 330.131 111.288 329.851 111.288H325.879C325.911 111.952 326.103 112.46 326.455 112.812C326.807 113.156 327.295 113.328 327.919 113.328C328.183 113.328 328.451 113.296 328.723 113.232C328.995 113.16 329.259 113.036 329.515 112.86C329.699 112.74 329.851 112.716 329.971 112.788C330.099 112.86 330.163 112.972 330.163 113.124C330.171 113.268 330.091 113.396 329.923 113.508C329.659 113.7 329.343 113.848 328.975 113.952C328.615 114.056 328.263 114.108 327.919 114.108ZM327.763 108.78C327.211 108.78 326.775 108.952 326.455 109.296C326.135 109.64 325.947 110.092 325.891 110.652H329.431C329.407 110.06 329.251 109.6 328.963 109.272C328.683 108.944 328.283 108.78 327.763 108.78ZM332.17 114.084C331.842 114.084 331.678 113.916 331.678 113.58V108.576C331.678 108.248 331.834 108.084 332.146 108.084C332.466 108.084 332.626 108.248 332.626 108.576V109.212C332.786 108.844 333.034 108.564 333.37 108.372C333.706 108.172 334.106 108.064 334.57 108.048C334.826 108.024 334.962 108.152 334.978 108.432C335.002 108.712 334.858 108.868 334.546 108.9L334.354 108.924C333.802 108.972 333.382 109.148 333.094 109.452C332.806 109.748 332.662 110.156 332.662 110.676V113.58C332.662 113.916 332.498 114.084 332.17 114.084ZM337.087 114.084C336.767 114.084 336.607 113.916 336.607 113.58V108.924H335.839C335.559 108.924 335.419 108.796 335.419 108.54C335.419 108.292 335.559 108.168 335.839 108.168H336.607V107.964C336.607 106.468 337.339 105.656 338.803 105.528L339.151 105.492C339.295 105.484 339.399 105.516 339.463 105.588C339.527 105.66 339.559 105.748 339.559 105.852C339.567 105.948 339.543 106.036 339.487 106.116C339.431 106.196 339.351 106.24 339.247 106.248L338.971 106.272C338.483 106.312 338.127 106.46 337.903 106.716C337.687 106.972 337.579 107.348 337.579 107.844V108.168H338.875C339.155 108.168 339.295 108.292 339.295 108.54C339.295 108.796 339.155 108.924 338.875 108.924H337.579V113.58C337.579 113.916 337.415 114.084 337.087 114.084ZM342.551 114.108C341.983 114.108 341.491 113.984 341.075 113.736C340.659 113.488 340.335 113.14 340.103 112.692C339.879 112.236 339.767 111.7 339.767 111.084C339.767 110.468 339.879 109.936 340.103 109.488C340.335 109.032 340.659 108.68 341.075 108.432C341.491 108.184 341.983 108.06 342.551 108.06C343.111 108.06 343.599 108.184 344.015 108.432C344.439 108.68 344.763 109.032 344.987 109.488C345.219 109.936 345.335 110.468 345.335 111.084C345.335 111.7 345.219 112.236 344.987 112.692C344.763 113.14 344.439 113.488 344.015 113.736C343.599 113.984 343.111 114.108 342.551 114.108ZM342.551 113.328C343.095 113.328 343.531 113.136 343.859 112.752C344.187 112.36 344.351 111.804 344.351 111.084C344.351 110.356 344.187 109.8 343.859 109.416C343.531 109.032 343.095 108.84 342.551 108.84C341.999 108.84 341.559 109.032 341.231 109.416C340.911 109.8 340.751 110.356 340.751 111.084C340.751 111.804 340.911 112.36 341.231 112.752C341.559 113.136 341.999 113.328 342.551 113.328ZM347.287 114.084C346.959 114.084 346.795 113.916 346.795 113.58V108.576C346.795 108.248 346.951 108.084 347.263 108.084C347.583 108.084 347.743 108.248 347.743 108.576V109.212C347.903 108.844 348.151 108.564 348.487 108.372C348.823 108.172 349.223 108.064 349.687 108.048C349.943 108.024 350.079 108.152 350.095 108.432C350.119 108.712 349.975 108.868 349.663 108.9L349.471 108.924C348.919 108.972 348.499 109.148 348.211 109.452C347.923 109.748 347.779 110.156 347.779 110.676V113.58C347.779 113.916 347.615 114.084 347.287 114.084ZM351.6 114.084C351.28 114.084 351.12 113.916 351.12 113.58V108.576C351.12 108.248 351.276 108.084 351.588 108.084C351.908 108.084 352.068 108.248 352.068 108.576V109.152C352.244 108.8 352.488 108.532 352.8 108.348C353.112 108.156 353.476 108.06 353.892 108.06C354.804 108.06 355.388 108.456 355.644 109.248C355.82 108.88 356.08 108.592 356.424 108.384C356.768 108.168 357.164 108.06 357.612 108.06C358.908 108.06 359.556 108.828 359.556 110.364V113.58C359.556 113.916 359.392 114.084 359.064 114.084C358.744 114.084 358.584 113.916 358.584 113.58V110.412C358.584 109.876 358.488 109.484 358.296 109.236C358.112 108.98 357.804 108.852 357.372 108.852C356.9 108.852 356.524 109.02 356.244 109.356C355.964 109.692 355.824 110.14 355.824 110.7V113.58C355.824 113.916 355.66 114.084 355.332 114.084C355.012 114.084 354.852 113.916 354.852 113.58V110.412C354.852 109.876 354.756 109.484 354.564 109.236C354.38 108.98 354.072 108.852 353.64 108.852C353.16 108.852 352.78 109.02 352.5 109.356C352.228 109.692 352.092 110.14 352.092 110.7V113.58C352.092 113.916 351.928 114.084 351.6 114.084ZM363.209 114.108C362.809 114.108 362.449 114.032 362.129 113.88C361.817 113.72 361.569 113.504 361.385 113.232C361.201 112.96 361.109 112.656 361.109 112.32C361.109 111.896 361.217 111.56 361.433 111.312C361.657 111.064 362.021 110.888 362.525 110.784C363.037 110.672 363.733 110.616 364.613 110.616H364.997V110.244C364.997 109.748 364.893 109.392 364.685 109.176C364.485 108.952 364.161 108.84 363.713 108.84C363.433 108.84 363.149 108.876 362.861 108.948C362.581 109.02 362.289 109.136 361.985 109.296C361.849 109.368 361.733 109.384 361.637 109.344C361.549 109.296 361.485 109.224 361.445 109.128C361.413 109.024 361.413 108.92 361.445 108.816C361.485 108.704 361.565 108.62 361.685 108.564C362.029 108.388 362.373 108.26 362.717 108.18C363.069 108.1 363.401 108.06 363.713 108.06C364.465 108.06 365.021 108.244 365.381 108.612C365.749 108.98 365.933 109.552 365.933 110.328V113.58C365.933 113.916 365.785 114.084 365.489 114.084C365.177 114.084 365.021 113.916 365.021 113.58V112.992C364.869 113.336 364.633 113.608 364.313 113.808C364.001 114.008 363.633 114.108 363.209 114.108ZM363.365 113.376C363.845 113.376 364.237 113.212 364.541 112.884C364.845 112.548 364.997 112.124 364.997 111.612V111.252H364.625C363.977 111.252 363.465 111.284 363.089 111.348C362.721 111.404 362.461 111.508 362.309 111.66C362.165 111.804 362.093 112.004 362.093 112.26C362.093 112.588 362.205 112.856 362.429 113.064C362.661 113.272 362.973 113.376 363.365 113.376ZM368.216 114.084C367.896 114.084 367.736 113.916 367.736 113.58V108.576C367.736 108.248 367.892 108.084 368.204 108.084C368.524 108.084 368.684 108.248 368.684 108.576V109.164C368.876 108.796 369.148 108.52 369.5 108.336C369.852 108.152 370.248 108.06 370.688 108.06C372.072 108.06 372.764 108.828 372.764 110.364V113.58C372.764 113.916 372.604 114.084 372.284 114.084C371.956 114.084 371.792 113.916 371.792 113.58V110.424C371.792 109.88 371.684 109.484 371.468 109.236C371.26 108.98 370.924 108.852 370.46 108.852C369.924 108.852 369.496 109.02 369.176 109.356C368.864 109.684 368.708 110.124 368.708 110.676V113.58C368.708 113.916 368.544 114.084 368.216 114.084ZM377.029 114.108C376.445 114.108 375.941 113.984 375.517 113.736C375.093 113.48 374.765 113.124 374.533 112.668C374.309 112.204 374.197 111.664 374.197 111.048C374.197 110.12 374.449 109.392 374.953 108.864C375.457 108.328 376.149 108.06 377.029 108.06C377.317 108.06 377.617 108.108 377.929 108.204C378.241 108.292 378.525 108.44 378.781 108.648C378.917 108.744 378.973 108.864 378.949 109.008C378.933 109.152 378.865 109.26 378.745 109.332C378.633 109.404 378.501 109.388 378.349 109.284C378.133 109.124 377.917 109.012 377.701 108.948C377.493 108.884 377.289 108.852 377.089 108.852C376.481 108.852 376.013 109.044 375.685 109.428C375.357 109.804 375.193 110.348 375.193 111.06C375.193 111.756 375.357 112.308 375.685 112.716C376.013 113.116 376.481 113.316 377.089 113.316C377.289 113.316 377.493 113.284 377.701 113.22C377.917 113.156 378.133 113.044 378.349 112.884C378.501 112.78 378.633 112.768 378.745 112.848C378.857 112.92 378.917 113.028 378.925 113.172C378.941 113.316 378.885 113.432 378.757 113.52C378.501 113.728 378.221 113.88 377.917 113.976C377.613 114.064 377.317 114.108 377.029 114.108ZM382.622 114.108C381.702 114.108 380.974 113.84 380.438 113.304C379.902 112.76 379.634 112.024 379.634 111.096C379.634 110.496 379.754 109.968 379.994 109.512C380.234 109.048 380.562 108.692 380.978 108.444C381.402 108.188 381.89 108.06 382.442 108.06C383.234 108.06 383.854 108.316 384.302 108.828C384.75 109.332 384.974 110.028 384.974 110.916C384.974 111.164 384.834 111.288 384.554 111.288H380.582C380.614 111.952 380.806 112.46 381.158 112.812C381.51 113.156 381.998 113.328 382.622 113.328C382.886 113.328 383.154 113.296 383.426 113.232C383.698 113.16 383.962 113.036 384.218 112.86C384.402 112.74 384.554 112.716 384.674 112.788C384.802 112.86 384.866 112.972 384.866 113.124C384.874 113.268 384.794 113.396 384.626 113.508C384.362 113.7 384.046 113.848 383.678 113.952C383.318 114.056 382.966 114.108 382.622 114.108ZM382.466 108.78C381.914 108.78 381.478 108.952 381.158 109.296C380.838 109.64 380.65 110.092 380.594 110.652H384.134C384.11 110.06 383.954 109.6 383.666 109.272C383.386 108.944 382.986 108.78 382.466 108.78Z" fill="black"/>
<rect x="265" y="100" width="15" height="15" fill="#7A64C6"/>
</svg>
