<svg width="22" height="24" viewBox="0 0 22 24" fill="none" xmlns="http://www.w3.org/2000/svg">
<path d="M18.3125 12.9578V10.9375H16.75V13.2812C16.75 13.4884 16.8324 13.6871 16.9789 13.8336L19.0938 15.9484V17.1875H1.90625V15.9484L4.02109 13.8336C4.16762 13.6871 4.24996 13.4884 4.25 13.2812V10.1562C4.24782 9.05843 4.53539 7.97948 5.08366 7.02837C5.63193 6.07726 6.42149 5.28768 7.37258 4.73938C8.32367 4.19108 9.40261 3.90347 10.5004 3.90561C11.5982 3.90775 12.6761 4.19956 13.625 4.75156V3.00547C12.8813 2.67619 12.0903 2.46632 11.2812 2.38359V0.78125H9.71875V2.38281C7.79264 2.57885 6.00763 3.48212 4.70888 4.91795C3.41014 6.35379 2.68992 8.22019 2.6875 10.1562V12.9578L0.572656 15.0727C0.426133 15.2191 0.343794 15.4178 0.34375 15.625V17.9688C0.34375 18.176 0.42606 18.3747 0.572573 18.5212C0.719086 18.6677 0.9178 18.75 1.125 18.75H6.59375V19.5312C6.59375 20.5673 7.0053 21.5608 7.73786 22.2934C8.47043 23.0259 9.464 23.4375 10.5 23.4375C11.536 23.4375 12.5296 23.0259 13.2621 22.2934C13.9947 21.5608 14.4062 20.5673 14.4062 19.5312V18.75H19.875C20.0822 18.75 20.2809 18.6677 20.4274 18.5212C20.5739 18.3747 20.6562 18.176 20.6562 17.9688V15.625C20.6562 15.4178 20.5739 15.2191 20.4273 15.0727L18.3125 12.9578ZM12.8438 19.5312C12.8438 20.1529 12.5968 20.749 12.1573 21.1885C11.7177 21.6281 11.1216 21.875 10.5 21.875C9.8784 21.875 9.28226 21.6281 8.84272 21.1885C8.40318 20.749 8.15625 20.1529 8.15625 19.5312V18.75H12.8438V19.5312Z" fill="black"/>
<path d="M18.3125 9.375C20.0384 9.375 21.4375 7.97589 21.4375 6.25C21.4375 4.52411 20.0384 3.125 18.3125 3.125C16.5866 3.125 15.1875 4.52411 15.1875 6.25C15.1875 7.97589 16.5866 9.375 18.3125 9.375Z" fill="black"/>
</svg>
