<svg width="34" height="30" viewBox="0 0 34 30" fill="none" xmlns="http://www.w3.org/2000/svg">
<path d="M26.5 21.3333V16.5833M13.8334 19.75V26.0833C13.8334 26.9232 13.4997 27.7286 12.9059 28.3225C12.312 28.9164 11.5065 29.25 10.6667 29.25H4.33335C3.4935 29.25 2.68805 28.9164 2.09418 28.3225C1.50032 27.7286 1.16669 26.9232 1.16669 26.0833V19.75C1.16669 18.9101 1.50032 18.1047 2.09418 17.5108C2.68805 16.917 3.4935 16.5833 4.33335 16.5833H10.6667C11.5065 16.5833 12.312 16.917 12.9059 17.5108C13.4997 18.1047 13.8334 18.9101 13.8334 19.75ZM23.3334 3.91667V10.25C23.3334 11.0899 22.9997 11.8953 22.4059 12.4892C21.812 13.083 21.0065 13.4167 20.1667 13.4167H13.8334C12.9935 13.4167 12.188 13.083 11.5942 12.4892C11.0003 11.8953 10.6667 11.0899 10.6667 10.25V3.91667C10.6667 3.07681 11.0003 2.27136 11.5942 1.6775C12.188 1.08363 12.9935 0.75 13.8334 0.75H20.1667C21.0065 0.75 21.812 1.08363 22.4059 1.6775C22.9997 2.27136 23.3334 3.07681 23.3334 3.91667ZM32.8334 19.75V26.0833C32.8334 26.9232 32.4997 27.7286 31.9059 28.3225C31.312 28.9164 30.5065 29.25 29.6667 29.25H23.3334C22.4935 29.25 21.6881 28.9164 21.0942 28.3225C20.5003 27.7286 20.1667 26.9232 20.1667 26.0833V19.75C20.1667 18.9101 20.5003 18.1047 21.0942 17.5108C21.6881 16.917 22.4935 16.5833 23.3334 16.5833H29.6667C30.5065 16.5833 31.312 16.917 31.9059 17.5108C32.4997 18.1047 32.8334 18.9101 32.8334 19.75ZM7.50002 21.3333V16.5833V21.3333ZM17 5.5V0.75V5.5Z" stroke="black" stroke-width="1.5" stroke-linecap="round" stroke-linejoin="round"/>
</svg>
