<svg width="36" height="36" viewBox="0 0 36 36" fill="none" xmlns="http://www.w3.org/2000/svg">
<path d="M23.625 22.5C23.3266 22.5 23.0405 22.6185 22.8295 22.8295C22.6185 23.0405 22.5 23.3266 22.5 23.625C22.5 23.9234 22.6185 24.2095 22.8295 24.4205C23.0405 24.6315 23.3266 24.75 23.625 24.75H28.125C28.4234 24.75 28.7095 24.6315 28.9205 24.4205C29.1315 24.2095 29.25 23.9234 29.25 23.625C29.25 23.3266 29.1315 23.0405 28.9205 22.8295C28.7095 22.6185 28.4234 22.5 28.125 22.5H23.625ZM2.25 11.25C2.25 10.0565 2.72411 8.91193 3.56802 8.06802C4.41193 7.22411 5.55653 6.75 6.75 6.75H29.25C30.4435 6.75 31.5881 7.22411 32.432 8.06802C33.2759 8.91193 33.75 10.0565 33.75 11.25V24.75C33.75 25.9435 33.2759 27.0881 32.432 27.932C31.5881 28.7759 30.4435 29.25 29.25 29.25H6.75C5.55653 29.25 4.41193 28.7759 3.56802 27.932C2.72411 27.0881 2.25 25.9435 2.25 24.75V11.25ZM31.5 11.25C31.5 10.6533 31.2629 10.081 30.841 9.65901C30.419 9.23705 29.8467 9 29.25 9H6.75C6.15326 9 5.58097 9.23705 5.15901 9.65901C4.73705 10.081 4.5 10.6533 4.5 11.25V13.5H31.5V11.25ZM4.5 24.75C4.5 25.3467 4.73705 25.919 5.15901 26.341C5.58097 26.7629 6.15326 27 6.75 27H29.25C29.8467 27 30.419 26.7629 30.841 26.341C31.2629 25.919 31.5 25.3467 31.5 24.75V15.75H4.5V24.75Z" fill="#444444"/>
</svg>
