<svg width="590" height="413" viewBox="0 0 590 413" fill="none" xmlns="http://www.w3.org/2000/svg">
<path d="M57.8604 406.782C57.6177 406.79 57.427 406.725 57.2884 406.587C57.1497 406.448 57.0804 406.27 57.0804 406.054C57.0804 405.889 57.1324 405.746 57.2364 405.625C57.3317 405.495 57.4747 405.425 57.6654 405.417L58.0554 405.391C58.8267 405.339 59.2124 404.914 59.2124 404.117V398.267C59.2124 397.703 59.4897 397.422 60.0444 397.422C60.599 397.422 60.8764 397.703 60.8764 398.267V404.104C60.8764 404.918 60.6597 405.551 60.2264 406.002C59.793 406.452 59.1517 406.704 58.3024 406.756L57.8604 406.782ZM64.9961 406.821C64.5367 406.821 64.1251 406.734 63.7611 406.561C63.4057 406.379 63.1241 406.136 62.9161 405.833C62.7167 405.529 62.6171 405.187 62.6171 404.806C62.6171 404.338 62.7384 403.969 62.9811 403.701C63.2237 403.423 63.6181 403.224 64.1641 403.103C64.7101 402.981 65.4424 402.921 66.3611 402.921H66.8161V402.648C66.8161 402.214 66.7207 401.902 66.5301 401.712C66.3394 401.521 66.0187 401.426 65.5681 401.426C65.3167 401.426 65.0437 401.456 64.7491 401.517C64.4631 401.577 64.1597 401.681 63.8391 401.829C63.6311 401.924 63.4577 401.937 63.3191 401.868C63.1804 401.79 63.0851 401.673 63.0331 401.517C62.9897 401.352 62.9984 401.187 63.0591 401.023C63.1284 400.858 63.2627 400.737 63.4621 400.659C63.8607 400.494 64.2421 400.377 64.6061 400.308C64.9787 400.238 65.3167 400.204 65.6201 400.204C66.5474 400.204 67.2364 400.42 67.6871 400.854C68.1377 401.278 68.3631 401.941 68.3631 402.843V405.963C68.3631 406.517 68.1117 406.795 67.6091 406.795C67.0977 406.795 66.8421 406.517 66.8421 405.963V405.677C66.6947 406.032 66.4607 406.314 66.1401 406.522C65.8194 406.721 65.4381 406.821 64.9961 406.821ZM65.3341 405.703C65.7587 405.703 66.1097 405.555 66.3871 405.261C66.6731 404.966 66.8161 404.593 66.8161 404.143V403.857H66.3741C65.5594 403.857 64.9917 403.922 64.6711 404.052C64.3591 404.173 64.2031 404.398 64.2031 404.728C64.2031 405.014 64.3027 405.248 64.5021 405.43C64.7014 405.612 64.9787 405.703 65.3341 405.703ZM71.0184 406.795C70.4811 406.795 70.2124 406.517 70.2124 405.963V401.049C70.2124 400.503 70.4768 400.23 71.0054 400.23C71.5341 400.23 71.7984 400.503 71.7984 401.049V401.322C72.0151 400.958 72.3054 400.68 72.6694 400.49C73.0421 400.299 73.4581 400.204 73.9174 400.204C75.4168 400.204 76.1664 401.075 76.1664 402.817V405.963C76.1664 406.517 75.8978 406.795 75.3604 406.795C74.8144 406.795 74.5414 406.517 74.5414 405.963V402.895C74.5414 402.401 74.4461 402.041 74.2554 401.816C74.0734 401.59 73.7874 401.478 73.3974 401.478C72.9208 401.478 72.5394 401.629 72.2534 401.933C71.9761 402.227 71.8374 402.622 71.8374 403.116V405.963C71.8374 406.517 71.5644 406.795 71.0184 406.795Z" fill="#CACCCF"/>
<path d="M7.80913 130.874C7.34113 130.874 6.8558 130.813 6.35313 130.692C5.85047 130.57 5.4128 130.388 5.04013 130.146C4.82347 129.998 4.69347 129.834 4.65013 129.652C4.6068 129.461 4.62847 129.292 4.71513 129.145C4.8018 128.989 4.9318 128.885 5.10513 128.833C5.28713 128.781 5.4908 128.815 5.71613 128.937C6.07147 129.127 6.4138 129.266 6.74313 129.353C7.07247 129.431 7.41047 129.47 7.75713 129.47C8.92713 129.47 9.51213 129.01 9.51213 128.092C9.51213 127.658 9.3648 127.338 9.07013 127.13C8.78413 126.913 8.3638 126.805 7.80913 126.805H6.97713C6.73447 126.805 6.54813 126.744 6.41813 126.623C6.2968 126.501 6.23613 126.332 6.23613 126.116C6.23613 125.899 6.2968 125.73 6.41813 125.609C6.54813 125.487 6.73447 125.427 6.97713 125.427H7.65313C8.13847 125.427 8.52413 125.31 8.81013 125.076C9.09613 124.833 9.23913 124.499 9.23913 124.075C9.23913 123.676 9.1048 123.373 8.83613 123.165C8.57613 122.957 8.1948 122.853 7.69213 122.853C7.37147 122.853 7.06813 122.892 6.78213 122.97C6.5048 123.039 6.19713 123.173 5.85913 123.373C5.6598 123.494 5.4778 123.529 5.31313 123.477C5.14847 123.416 5.01847 123.312 4.92313 123.165C4.83647 123.009 4.81047 122.84 4.84513 122.658C4.8798 122.476 5.00113 122.32 5.20913 122.19C5.9718 121.696 6.84713 121.449 7.83513 121.449C8.78847 121.449 9.52947 121.665 10.0581 122.099C10.5868 122.523 10.8511 123.117 10.8511 123.88C10.8511 124.374 10.7255 124.807 10.4741 125.18C10.2228 125.552 9.88047 125.821 9.44713 125.986C9.9758 126.133 10.3875 126.406 10.6821 126.805C10.9768 127.195 11.1241 127.671 11.1241 128.235C11.1241 129.049 10.8295 129.695 10.2401 130.172C9.6508 130.64 8.84047 130.874 7.80913 130.874ZM15.9861 130.874C14.9027 130.874 14.0751 130.466 13.5031 129.652C12.9311 128.828 12.6451 127.658 12.6451 126.142C12.6451 124.608 12.9311 123.442 13.5031 122.645C14.0751 121.847 14.9027 121.449 15.9861 121.449C17.0781 121.449 17.9057 121.847 18.4691 122.645C19.0411 123.442 19.3271 124.603 19.3271 126.129C19.3271 127.654 19.0411 128.828 18.4691 129.652C17.8971 130.466 17.0694 130.874 15.9861 130.874ZM15.9861 129.509C16.5754 129.509 17.0087 129.236 17.2861 128.69C17.5721 128.144 17.7151 127.29 17.7151 126.129C17.7151 124.967 17.5721 124.127 17.2861 123.607C17.0087 123.078 16.5754 122.814 15.9861 122.814C15.4054 122.814 14.9721 123.078 14.6861 123.607C14.4001 124.127 14.2571 124.967 14.2571 126.129C14.2571 127.29 14.4001 128.144 14.6861 128.69C14.9721 129.236 15.4054 129.509 15.9861 129.509ZM23.981 130.874C22.8976 130.874 22.07 130.466 21.498 129.652C20.926 128.828 20.64 127.658 20.64 126.142C20.64 124.608 20.926 123.442 21.498 122.645C22.07 121.847 22.8976 121.449 23.981 121.449C25.073 121.449 25.9006 121.847 26.464 122.645C27.036 123.442 27.322 124.603 27.322 126.129C27.322 127.654 27.036 128.828 26.464 129.652C25.892 130.466 25.0643 130.874 23.981 130.874ZM23.981 129.509C24.5703 129.509 25.0036 129.236 25.281 128.69C25.567 128.144 25.71 127.29 25.71 126.129C25.71 124.967 25.567 124.127 25.281 123.607C25.0036 123.078 24.5703 122.814 23.981 122.814C23.4003 122.814 22.967 123.078 22.681 123.607C22.395 124.127 22.252 124.967 22.252 126.129C22.252 127.29 22.395 128.144 22.681 128.69C22.967 129.236 23.4003 129.509 23.981 129.509Z" fill="#CACCCF"/>
<path d="M5.82013 172.446C5.5428 172.446 5.33913 172.386 5.20913 172.264C5.0878 172.134 5.02713 171.948 5.02713 171.705C5.02713 171.558 5.06613 171.415 5.14413 171.276C5.22213 171.138 5.3348 170.99 5.48213 170.834L8.09513 168.052C8.4938 167.636 8.7798 167.259 8.95313 166.921C9.12647 166.575 9.21313 166.228 9.21313 165.881C9.21313 164.997 8.68013 164.555 7.61413 164.555C7.31947 164.555 7.0248 164.599 6.73013 164.685C6.43547 164.763 6.13647 164.902 5.83313 165.101C5.64247 165.231 5.4648 165.27 5.30013 165.218C5.13547 165.166 5.0098 165.062 4.92313 164.906C4.83647 164.742 4.80613 164.568 4.83213 164.386C4.8668 164.204 4.97947 164.048 5.17013 163.918C5.5428 163.667 5.9588 163.476 6.41813 163.346C6.88613 163.216 7.35413 163.151 7.82213 163.151C8.80147 163.151 9.55113 163.372 10.0711 163.814C10.5998 164.256 10.8641 164.889 10.8641 165.712C10.8641 166.267 10.7298 166.8 10.4611 167.311C10.2011 167.823 9.78947 168.373 9.22613 168.962L7.21113 171.068H10.6041C11.0808 171.068 11.3191 171.294 11.3191 171.744C11.3191 172.212 11.0808 172.446 10.6041 172.446H5.82013ZM16.0641 172.576C15.6047 172.576 15.1367 172.516 14.6601 172.394C14.1834 172.273 13.7457 172.087 13.3471 171.835C13.1391 171.705 13.0134 171.549 12.9701 171.367C12.9354 171.177 12.9614 171.003 13.0481 170.847C13.1347 170.683 13.2604 170.574 13.4251 170.522C13.5984 170.462 13.7934 170.492 14.0101 170.613C14.3307 170.795 14.6557 170.934 14.9851 171.029C15.3144 171.125 15.6654 171.172 16.0381 171.172C16.5841 171.172 17.0087 171.034 17.3121 170.756C17.6241 170.47 17.7801 170.089 17.7801 169.612C17.7801 169.127 17.6327 168.737 17.3381 168.442C17.0434 168.139 16.6404 167.987 16.1291 167.987C15.8517 167.987 15.5831 168.035 15.3231 168.13C15.0631 168.217 14.8074 168.373 14.5561 168.598C14.4781 168.668 14.3784 168.737 14.2571 168.806C14.1357 168.867 14.0057 168.897 13.8671 168.897C13.4251 168.897 13.2041 168.685 13.2041 168.26V164.009C13.2041 163.524 13.4467 163.281 13.9321 163.281H18.2091C18.6944 163.281 18.9371 163.511 18.9371 163.97C18.9371 164.43 18.6944 164.659 18.2091 164.659H14.8291V167.142C15.2884 166.796 15.8517 166.622 16.5191 166.622C17.0997 166.622 17.6024 166.748 18.0271 166.999C18.4604 167.242 18.7941 167.584 19.0281 168.026C19.2707 168.46 19.3921 168.967 19.3921 169.547C19.3921 170.145 19.2577 170.674 18.9891 171.133C18.7204 171.584 18.3347 171.939 17.8321 172.199C17.3381 172.451 16.7487 172.576 16.0641 172.576ZM23.981 172.576C22.8976 172.576 22.07 172.169 21.498 171.354C20.926 170.531 20.64 169.361 20.64 167.844C20.64 166.31 20.926 165.145 21.498 164.347C22.07 163.55 22.8976 163.151 23.981 163.151C25.073 163.151 25.9006 163.55 26.464 164.347C27.036 165.145 27.322 166.306 27.322 167.831C27.322 169.357 27.036 170.531 26.464 171.354C25.892 172.169 25.0643 172.576 23.981 172.576ZM23.981 171.211C24.5703 171.211 25.0036 170.938 25.281 170.392C25.567 169.846 25.71 168.993 25.71 167.831C25.71 166.67 25.567 165.829 25.281 165.309C25.0036 164.781 24.5703 164.516 23.981 164.516C23.4003 164.516 22.967 164.781 22.681 165.309C22.395 165.829 22.252 166.67 22.252 167.831C22.252 168.993 22.395 169.846 22.681 170.392C22.967 170.938 23.4003 171.211 23.981 171.211Z" fill="#CACCCF"/>
<path d="M5.82013 216.81C5.5428 216.81 5.33913 216.749 5.20913 216.628C5.0878 216.498 5.02713 216.311 5.02713 216.069C5.02713 215.921 5.06613 215.778 5.14413 215.64C5.22213 215.501 5.3348 215.354 5.48213 215.198L8.09513 212.416C8.4938 212 8.7798 211.623 8.95313 211.285C9.12647 210.938 9.21313 210.591 9.21313 210.245C9.21313 209.361 8.68013 208.919 7.61413 208.919C7.31947 208.919 7.0248 208.962 6.73013 209.049C6.43547 209.127 6.13647 209.265 5.83313 209.465C5.64247 209.595 5.4648 209.634 5.30013 209.582C5.13547 209.53 5.0098 209.426 4.92313 209.27C4.83647 209.105 4.80613 208.932 4.83213 208.75C4.8668 208.568 4.97947 208.412 5.17013 208.282C5.5428 208.03 5.9588 207.84 6.41813 207.71C6.88613 207.58 7.35413 207.515 7.82213 207.515C8.80147 207.515 9.55113 207.736 10.0711 208.178C10.5998 208.62 10.8641 209.252 10.8641 210.076C10.8641 210.63 10.7298 211.163 10.4611 211.675C10.2011 212.186 9.78947 212.736 9.22613 213.326L7.21113 215.432H10.6041C11.0808 215.432 11.3191 215.657 11.3191 216.108C11.3191 216.576 11.0808 216.81 10.6041 216.81H5.82013ZM15.9861 216.94C14.9027 216.94 14.0751 216.532 13.5031 215.718C12.9311 214.894 12.6451 213.724 12.6451 212.208C12.6451 210.674 12.9311 209.508 13.5031 208.711C14.0751 207.913 14.9027 207.515 15.9861 207.515C17.0781 207.515 17.9057 207.913 18.4691 208.711C19.0411 209.508 19.3271 210.669 19.3271 212.195C19.3271 213.72 19.0411 214.894 18.4691 215.718C17.8971 216.532 17.0694 216.94 15.9861 216.94ZM15.9861 215.575C16.5754 215.575 17.0087 215.302 17.2861 214.756C17.5721 214.21 17.7151 213.356 17.7151 212.195C17.7151 211.033 17.5721 210.193 17.2861 209.673C17.0087 209.144 16.5754 208.88 15.9861 208.88C15.4054 208.88 14.9721 209.144 14.6861 209.673C14.4001 210.193 14.2571 211.033 14.2571 212.195C14.2571 213.356 14.4001 214.21 14.6861 214.756C14.9721 215.302 15.4054 215.575 15.9861 215.575ZM23.981 216.94C22.8976 216.94 22.07 216.532 21.498 215.718C20.926 214.894 20.64 213.724 20.64 212.208C20.64 210.674 20.926 209.508 21.498 208.711C22.07 207.913 22.8976 207.515 23.981 207.515C25.073 207.515 25.9006 207.913 26.464 208.711C27.036 209.508 27.322 210.669 27.322 212.195C27.322 213.72 27.036 214.894 26.464 215.718C25.892 216.532 25.0643 216.94 23.981 216.94ZM23.981 215.575C24.5703 215.575 25.0036 215.302 25.281 214.756C25.567 214.21 25.71 213.356 25.71 212.195C25.71 211.033 25.567 210.193 25.281 209.673C25.0036 209.144 24.5703 208.88 23.981 208.88C23.4003 208.88 22.967 209.144 22.681 209.673C22.395 210.193 22.252 211.033 22.252 212.195C22.252 213.356 22.395 214.21 22.681 214.756C22.967 215.302 23.4003 215.575 23.981 215.575Z" fill="#CACCCF"/>
<path d="M9.46013 50.104C9.20013 50.104 8.99647 50.0347 8.84913 49.896C8.7018 49.7487 8.62813 49.5407 8.62813 49.272V48.258H5.41713C5.14847 48.258 4.9318 48.2017 4.76713 48.089C4.61113 47.9763 4.53313 47.803 4.53313 47.569C4.53313 47.4217 4.5678 47.2657 4.63713 47.101C4.71513 46.9363 4.84947 46.7197 5.04013 46.451L8.60213 41.29C8.72347 41.108 8.8578 40.9693 9.00513 40.874C9.15247 40.7787 9.32147 40.731 9.51213 40.731C9.73747 40.731 9.9238 40.8003 10.0711 40.939C10.2185 41.069 10.2921 41.277 10.2921 41.563V46.88H10.9291C11.4318 46.88 11.6831 47.1097 11.6831 47.569C11.6831 48.0283 11.4318 48.258 10.9291 48.258H10.2921V49.272C10.2921 49.5407 10.2185 49.7487 10.0711 49.896C9.9238 50.0347 9.72013 50.104 9.46013 50.104ZM8.62813 46.88V43.383L6.23613 46.88H8.62813ZM15.9861 50.13C14.9027 50.13 14.0751 49.7227 13.5031 48.908C12.9311 48.0847 12.6451 46.9147 12.6451 45.398C12.6451 43.864 12.9311 42.6983 13.5031 41.901C14.0751 41.1037 14.9027 40.705 15.9861 40.705C17.0781 40.705 17.9057 41.1037 18.4691 41.901C19.0411 42.6983 19.3271 43.8597 19.3271 45.385C19.3271 46.9103 19.0411 48.0847 18.4691 48.908C17.8971 49.7227 17.0694 50.13 15.9861 50.13ZM15.9861 48.765C16.5754 48.765 17.0087 48.492 17.2861 47.946C17.5721 47.4 17.7151 46.5463 17.7151 45.385C17.7151 44.2237 17.5721 43.383 17.2861 42.863C17.0087 42.3343 16.5754 42.07 15.9861 42.07C15.4054 42.07 14.9721 42.3343 14.6861 42.863C14.4001 43.383 14.2571 44.2237 14.2571 45.385C14.2571 46.5463 14.4001 47.4 14.6861 47.946C14.9721 48.492 15.4054 48.765 15.9861 48.765ZM23.981 50.13C22.8976 50.13 22.07 49.7227 21.498 48.908C20.926 48.0847 20.64 46.9147 20.64 45.398C20.64 43.864 20.926 42.6983 21.498 41.901C22.07 41.1037 22.8976 40.705 23.981 40.705C25.073 40.705 25.9006 41.1037 26.464 41.901C27.036 42.6983 27.322 43.8597 27.322 45.385C27.322 46.9103 27.036 48.0847 26.464 48.908C25.892 49.7227 25.0643 50.13 23.981 50.13ZM23.981 48.765C24.5703 48.765 25.0036 48.492 25.281 47.946C25.567 47.4 25.71 46.5463 25.71 45.385C25.71 44.2237 25.567 43.383 25.281 42.863C25.0036 42.3343 24.5703 42.07 23.981 42.07C23.4003 42.07 22.967 42.3343 22.681 42.863C22.395 43.383 22.252 44.2237 22.252 45.385C22.252 46.5463 22.395 47.4 22.681 47.946C22.967 48.492 23.4003 48.765 23.981 48.765Z" fill="#CACCCF"/>
<path d="M7.80913 91.8327C7.34113 91.8327 6.8558 91.772 6.35313 91.6507C5.85047 91.5293 5.4128 91.3473 5.04013 91.1047C4.82347 90.9573 4.69347 90.7927 4.65013 90.6107C4.6068 90.42 4.62847 90.251 4.71513 90.1037C4.8018 89.9477 4.9318 89.8437 5.10513 89.7917C5.28713 89.7397 5.4908 89.7743 5.71613 89.8957C6.07147 90.0863 6.4138 90.225 6.74313 90.3117C7.07247 90.3897 7.41047 90.4287 7.75713 90.4287C8.92713 90.4287 9.51213 89.9693 9.51213 89.0507C9.51213 88.6173 9.3648 88.2967 9.07013 88.0887C8.78413 87.872 8.3638 87.7637 7.80913 87.7637H6.97713C6.73447 87.7637 6.54813 87.703 6.41813 87.5817C6.2968 87.4603 6.23613 87.2913 6.23613 87.0747C6.23613 86.858 6.2968 86.689 6.41813 86.5677C6.54813 86.4463 6.73447 86.3857 6.97713 86.3857H7.65313C8.13847 86.3857 8.52413 86.2687 8.81013 86.0347C9.09613 85.792 9.23913 85.4583 9.23913 85.0337C9.23913 84.635 9.1048 84.3317 8.83613 84.1237C8.57613 83.9157 8.1948 83.8117 7.69213 83.8117C7.37147 83.8117 7.06813 83.8507 6.78213 83.9287C6.5048 83.998 6.19713 84.1323 5.85913 84.3317C5.6598 84.453 5.4778 84.4877 5.31313 84.4357C5.14847 84.375 5.01847 84.271 4.92313 84.1237C4.83647 83.9677 4.81047 83.7987 4.84513 83.6167C4.8798 83.4347 5.00113 83.2787 5.20913 83.1487C5.9718 82.6547 6.84713 82.4077 7.83513 82.4077C8.78847 82.4077 9.52947 82.6243 10.0581 83.0577C10.5868 83.4823 10.8511 84.076 10.8511 84.8387C10.8511 85.3327 10.7255 85.766 10.4741 86.1387C10.2228 86.5113 9.88047 86.78 9.44713 86.9447C9.9758 87.092 10.3875 87.365 10.6821 87.7637C10.9768 88.1537 11.1241 88.6303 11.1241 89.1937C11.1241 90.0083 10.8295 90.654 10.2401 91.1307C9.6508 91.5987 8.84047 91.8327 7.80913 91.8327ZM16.0641 91.8327C15.6047 91.8327 15.1367 91.772 14.6601 91.6507C14.1834 91.5293 13.7457 91.343 13.3471 91.0917C13.1391 90.9617 13.0134 90.8057 12.9701 90.6237C12.9354 90.433 12.9614 90.2597 13.0481 90.1037C13.1347 89.939 13.2604 89.8307 13.4251 89.7787C13.5984 89.718 13.7934 89.7483 14.0101 89.8697C14.3307 90.0517 14.6557 90.1903 14.9851 90.2857C15.3144 90.381 15.6654 90.4287 16.0381 90.4287C16.5841 90.4287 17.0087 90.29 17.3121 90.0127C17.6241 89.7267 17.7801 89.3453 17.7801 88.8687C17.7801 88.3833 17.6327 87.9933 17.3381 87.6987C17.0434 87.3953 16.6404 87.2437 16.1291 87.2437C15.8517 87.2437 15.5831 87.2913 15.3231 87.3867C15.0631 87.4733 14.8074 87.6293 14.5561 87.8547C14.4781 87.924 14.3784 87.9933 14.2571 88.0627C14.1357 88.1233 14.0057 88.1537 13.8671 88.1537C13.4251 88.1537 13.2041 87.9413 13.2041 87.5167V83.2657C13.2041 82.7803 13.4467 82.5377 13.9321 82.5377H18.2091C18.6944 82.5377 18.9371 82.7673 18.9371 83.2267C18.9371 83.686 18.6944 83.9157 18.2091 83.9157H14.8291V86.3987C15.2884 86.052 15.8517 85.8787 16.5191 85.8787C17.0997 85.8787 17.6024 86.0043 18.0271 86.2557C18.4604 86.4983 18.7941 86.8407 19.0281 87.2827C19.2707 87.716 19.3921 88.223 19.3921 88.8037C19.3921 89.4017 19.2577 89.9303 18.9891 90.3897C18.7204 90.8403 18.3347 91.1957 17.8321 91.4557C17.3381 91.707 16.7487 91.8327 16.0641 91.8327ZM23.981 91.8327C22.8976 91.8327 22.07 91.4253 21.498 90.6107C20.926 89.7873 20.64 88.6173 20.64 87.1007C20.64 85.5667 20.926 84.401 21.498 83.6037C22.07 82.8063 22.8976 82.4077 23.981 82.4077C25.073 82.4077 25.9006 82.8063 26.464 83.6037C27.036 84.401 27.322 85.5623 27.322 87.0877C27.322 88.613 27.036 89.7873 26.464 90.6107C25.892 91.4253 25.0643 91.8327 23.981 91.8327ZM23.981 90.4677C24.5703 90.4677 25.0036 90.1947 25.281 89.6487C25.567 89.1027 25.71 88.249 25.71 87.0877C25.71 85.9263 25.567 85.0857 25.281 84.5657C25.0036 84.037 24.5703 83.7727 23.981 83.7727C23.4003 83.7727 22.967 84.037 22.681 84.5657C22.395 85.0857 22.252 85.9263 22.252 87.0877C22.252 88.249 22.395 89.1027 22.681 89.6487C22.967 90.1947 23.4003 90.4677 23.981 90.4677Z" fill="#CACCCF"/>
<path d="M6.11913 260.287C5.64247 260.287 5.40413 260.053 5.40413 259.585C5.40413 259.134 5.64247 258.909 6.11913 258.909H7.57513V253.02L6.47013 253.683C6.26213 253.804 6.07147 253.835 5.89813 253.774C5.73347 253.713 5.6078 253.605 5.52113 253.449C5.43447 253.293 5.40847 253.124 5.44313 252.942C5.4778 252.751 5.59913 252.595 5.80713 252.474L7.60113 251.395C7.77447 251.291 7.9478 251.204 8.12113 251.135C8.29447 251.057 8.4548 251.018 8.60213 251.018C8.78413 251.018 8.9358 251.07 9.05713 251.174C9.17847 251.269 9.23913 251.43 9.23913 251.655V258.909H10.5651C11.0418 258.909 11.2801 259.134 11.2801 259.585C11.2801 260.053 11.0418 260.287 10.5651 260.287H6.11913ZM16.0641 260.417C15.6047 260.417 15.1367 260.356 14.6601 260.235C14.1834 260.114 13.7457 259.927 13.3471 259.676C13.1391 259.546 13.0134 259.39 12.9701 259.208C12.9354 259.017 12.9614 258.844 13.0481 258.688C13.1347 258.523 13.2604 258.415 13.4251 258.363C13.5984 258.302 13.7934 258.333 14.0101 258.454C14.3307 258.636 14.6557 258.775 14.9851 258.87C15.3144 258.965 15.6654 259.013 16.0381 259.013C16.5841 259.013 17.0087 258.874 17.3121 258.597C17.6241 258.311 17.7801 257.93 17.7801 257.453C17.7801 256.968 17.6327 256.578 17.3381 256.283C17.0434 255.98 16.6404 255.828 16.1291 255.828C15.8517 255.828 15.5831 255.876 15.3231 255.971C15.0631 256.058 14.8074 256.214 14.5561 256.439C14.4781 256.508 14.3784 256.578 14.2571 256.647C14.1357 256.708 14.0057 256.738 13.8671 256.738C13.4251 256.738 13.2041 256.526 13.2041 256.101V251.85C13.2041 251.365 13.4467 251.122 13.9321 251.122H18.2091C18.6944 251.122 18.9371 251.352 18.9371 251.811C18.9371 252.27 18.6944 252.5 18.2091 252.5H14.8291V254.983C15.2884 254.636 15.8517 254.463 16.5191 254.463C17.0997 254.463 17.6024 254.589 18.0271 254.84C18.4604 255.083 18.7941 255.425 19.0281 255.867C19.2707 256.3 19.3921 256.807 19.3921 257.388C19.3921 257.986 19.2577 258.515 18.9891 258.974C18.7204 259.425 18.3347 259.78 17.8321 260.04C17.3381 260.291 16.7487 260.417 16.0641 260.417ZM23.981 260.417C22.8976 260.417 22.07 260.01 21.498 259.195C20.926 258.372 20.64 257.202 20.64 255.685C20.64 254.151 20.926 252.985 21.498 252.188C22.07 251.391 22.8976 250.992 23.981 250.992C25.073 250.992 25.9006 251.391 26.464 252.188C27.036 252.985 27.322 254.147 27.322 255.672C27.322 257.197 27.036 258.372 26.464 259.195C25.892 260.01 25.0643 260.417 23.981 260.417ZM23.981 259.052C24.5703 259.052 25.0036 258.779 25.281 258.233C25.567 257.687 25.71 256.833 25.71 255.672C25.71 254.511 25.567 253.67 25.281 253.15C25.0036 252.621 24.5703 252.357 23.981 252.357C23.4003 252.357 22.967 252.621 22.681 253.15C22.395 253.67 22.252 254.511 22.252 255.672C22.252 256.833 22.395 257.687 22.681 258.233C22.967 258.779 23.4003 259.052 23.981 259.052Z" fill="#CACCCF"/>
<path d="M6.11913 305.539C5.64247 305.539 5.40413 305.305 5.40413 304.837C5.40413 304.386 5.64247 304.161 6.11913 304.161H7.57513V298.272L6.47013 298.935C6.26213 299.056 6.07147 299.087 5.89813 299.026C5.73347 298.965 5.6078 298.857 5.52113 298.701C5.43447 298.545 5.40847 298.376 5.44313 298.194C5.4778 298.003 5.59913 297.847 5.80713 297.726L7.60113 296.647C7.77447 296.543 7.9478 296.456 8.12113 296.387C8.29447 296.309 8.4548 296.27 8.60213 296.27C8.78413 296.27 8.9358 296.322 9.05713 296.426C9.17847 296.521 9.23913 296.682 9.23913 296.907V304.161H10.5651C11.0418 304.161 11.2801 304.386 11.2801 304.837C11.2801 305.305 11.0418 305.539 10.5651 305.539H6.11913ZM15.9861 305.669C14.9027 305.669 14.0751 305.262 13.5031 304.447C12.9311 303.624 12.6451 302.454 12.6451 300.937C12.6451 299.403 12.9311 298.237 13.5031 297.44C14.0751 296.643 14.9027 296.244 15.9861 296.244C17.0781 296.244 17.9057 296.643 18.4691 297.44C19.0411 298.237 19.3271 299.399 19.3271 300.924C19.3271 302.449 19.0411 303.624 18.4691 304.447C17.8971 305.262 17.0694 305.669 15.9861 305.669ZM15.9861 304.304C16.5754 304.304 17.0087 304.031 17.2861 303.485C17.5721 302.939 17.7151 302.085 17.7151 300.924C17.7151 299.763 17.5721 298.922 17.2861 298.402C17.0087 297.873 16.5754 297.609 15.9861 297.609C15.4054 297.609 14.9721 297.873 14.6861 298.402C14.4001 298.922 14.2571 299.763 14.2571 300.924C14.2571 302.085 14.4001 302.939 14.6861 303.485C14.9721 304.031 15.4054 304.304 15.9861 304.304ZM23.981 305.669C22.8976 305.669 22.07 305.262 21.498 304.447C20.926 303.624 20.64 302.454 20.64 300.937C20.64 299.403 20.926 298.237 21.498 297.44C22.07 296.643 22.8976 296.244 23.981 296.244C25.073 296.244 25.9006 296.643 26.464 297.44C27.036 298.237 27.322 299.399 27.322 300.924C27.322 302.449 27.036 303.624 26.464 304.447C25.892 305.262 25.0643 305.669 23.981 305.669ZM23.981 304.304C24.5703 304.304 25.0036 304.031 25.281 303.485C25.567 302.939 25.71 302.085 25.71 300.924C25.71 299.763 25.567 298.922 25.281 298.402C25.0036 297.873 24.5703 297.609 23.981 297.609C23.4003 297.609 22.967 297.873 22.681 298.402C22.395 298.922 22.252 299.763 22.252 300.924C22.252 302.085 22.395 302.939 22.681 303.485C22.967 304.031 23.4003 304.304 23.981 304.304Z" fill="#CACCCF"/>
<path d="M16.0641 344.71C15.6047 344.71 15.1367 344.649 14.6601 344.528C14.1834 344.407 13.7457 344.22 13.3471 343.969C13.1391 343.839 13.0134 343.683 12.9701 343.501C12.9354 343.31 12.9614 343.137 13.0481 342.981C13.1347 342.816 13.2604 342.708 13.4251 342.656C13.5984 342.595 13.7934 342.626 14.0101 342.747C14.3307 342.929 14.6557 343.068 14.9851 343.163C15.3144 343.258 15.6654 343.306 16.0381 343.306C16.5841 343.306 17.0087 343.167 17.3121 342.89C17.6241 342.604 17.7801 342.223 17.7801 341.746C17.7801 341.261 17.6327 340.871 17.3381 340.576C17.0434 340.273 16.6404 340.121 16.1291 340.121C15.8517 340.121 15.5831 340.169 15.3231 340.264C15.0631 340.351 14.8074 340.507 14.5561 340.732C14.4781 340.801 14.3784 340.871 14.2571 340.94C14.1357 341.001 14.0057 341.031 13.8671 341.031C13.4251 341.031 13.2041 340.819 13.2041 340.394V336.143C13.2041 335.658 13.4467 335.415 13.9321 335.415H18.2091C18.6944 335.415 18.9371 335.645 18.9371 336.104C18.9371 336.563 18.6944 336.793 18.2091 336.793H14.8291V339.276C15.2884 338.929 15.8517 338.756 16.5191 338.756C17.0997 338.756 17.6024 338.882 18.0271 339.133C18.4604 339.376 18.7941 339.718 19.0281 340.16C19.2707 340.593 19.3921 341.1 19.3921 341.681C19.3921 342.279 19.2577 342.808 18.9891 343.267C18.7204 343.718 18.3347 344.073 17.8321 344.333C17.3381 344.584 16.7487 344.71 16.0641 344.71ZM23.981 344.71C22.8976 344.71 22.07 344.303 21.498 343.488C20.926 342.665 20.64 341.495 20.64 339.978C20.64 338.444 20.926 337.278 21.498 336.481C22.07 335.684 22.8976 335.285 23.981 335.285C25.073 335.285 25.9006 335.684 26.464 336.481C27.036 337.278 27.322 338.44 27.322 339.965C27.322 341.49 27.036 342.665 26.464 343.488C25.892 344.303 25.0643 344.71 23.981 344.71ZM23.981 343.345C24.5703 343.345 25.0036 343.072 25.281 342.526C25.567 341.98 25.71 341.126 25.71 339.965C25.71 338.804 25.567 337.963 25.281 337.443C25.0036 336.914 24.5703 336.65 23.981 336.65C23.4003 336.65 22.967 336.914 22.681 337.443C22.395 337.963 22.252 338.804 22.252 339.965C22.252 341.126 22.395 341.98 22.681 342.526C22.967 343.072 23.4003 343.345 23.981 343.345Z" fill="#CACCCF"/>
<path d="M23.981 388.187C22.8976 388.187 22.07 387.78 21.498 386.965C20.926 386.142 20.64 384.972 20.64 383.455C20.64 381.921 20.926 380.756 21.498 379.958C22.07 379.161 22.8976 378.762 23.981 378.762C25.073 378.762 25.9006 379.161 26.464 379.958C27.036 380.756 27.322 381.917 27.322 383.442C27.322 384.968 27.036 386.142 26.464 386.965C25.892 387.78 25.0643 388.187 23.981 388.187ZM23.981 386.822C24.5703 386.822 25.0036 386.549 25.281 386.003C25.567 385.457 25.71 384.604 25.71 383.442C25.71 382.281 25.567 381.44 25.281 380.92C25.0036 380.392 24.5703 380.127 23.981 380.127C23.4003 380.127 22.967 380.392 22.681 380.92C22.395 381.44 22.252 382.281 22.252 383.442C22.252 384.604 22.395 385.457 22.681 386.003C22.967 386.549 23.4003 386.822 23.981 386.822Z" fill="#CACCCF"/>
<path d="M199.022 407.521C198.52 407.521 198.268 407.261 198.268 406.741V398.928C198.268 398.408 198.528 398.148 199.048 398.148C199.265 398.148 199.434 398.191 199.555 398.278C199.685 398.356 199.802 398.494 199.906 398.694L202.909 404.245L205.912 398.694C206.016 398.494 206.129 398.356 206.25 398.278C206.372 398.191 206.541 398.148 206.757 398.148C207.26 398.148 207.511 398.408 207.511 398.928V406.741C207.511 407.261 207.26 407.521 206.757 407.521C206.255 407.521 206.003 407.261 206.003 406.741V401.242L203.559 405.701C203.473 405.848 203.382 405.956 203.286 406.026C203.191 406.095 203.061 406.13 202.896 406.13C202.732 406.13 202.597 406.095 202.493 406.026C202.389 405.948 202.298 405.839 202.22 405.701L199.776 401.268V406.741C199.776 407.261 199.525 407.521 199.022 407.521ZM211.665 407.547C211.206 407.547 210.794 407.46 210.43 407.287C210.075 407.105 209.793 406.862 209.585 406.559C209.386 406.255 209.286 405.913 209.286 405.532C209.286 405.064 209.408 404.695 209.65 404.427C209.893 404.149 210.287 403.95 210.833 403.829C211.379 403.707 212.112 403.647 213.03 403.647H213.485V403.374C213.485 402.94 213.39 402.628 213.199 402.438C213.009 402.247 212.688 402.152 212.237 402.152C211.986 402.152 211.713 402.182 211.418 402.243C211.132 402.303 210.829 402.407 210.508 402.555C210.3 402.65 210.127 402.663 209.988 402.594C209.85 402.516 209.754 402.399 209.702 402.243C209.659 402.078 209.668 401.913 209.728 401.749C209.798 401.584 209.932 401.463 210.131 401.385C210.53 401.22 210.911 401.103 211.275 401.034C211.648 400.964 211.986 400.93 212.289 400.93C213.217 400.93 213.906 401.146 214.356 401.58C214.807 402.004 215.032 402.667 215.032 403.569V406.689C215.032 407.243 214.781 407.521 214.278 407.521C213.767 407.521 213.511 407.243 213.511 406.689V406.403C213.364 406.758 213.13 407.04 212.809 407.248C212.489 407.447 212.107 407.547 211.665 407.547ZM212.003 406.429C212.428 406.429 212.779 406.281 213.056 405.987C213.342 405.692 213.485 405.319 213.485 404.869V404.583H213.043C212.229 404.583 211.661 404.648 211.34 404.778C211.028 404.899 210.872 405.124 210.872 405.454C210.872 405.74 210.972 405.974 211.171 406.156C211.371 406.338 211.648 406.429 212.003 406.429ZM217.714 407.521C217.159 407.521 216.882 407.243 216.882 406.689V401.775C216.882 401.229 217.146 400.956 217.675 400.956C218.203 400.956 218.468 401.229 218.468 401.775V402.178C218.78 401.432 219.447 401.016 220.47 400.93C220.842 400.886 221.05 401.099 221.094 401.567C221.137 402.026 220.912 402.282 220.418 402.334L220.132 402.36C219.066 402.464 218.533 403.01 218.533 403.998V406.689C218.533 407.243 218.26 407.521 217.714 407.521Z" fill="#CACCCF"/>
<path d="M128.777 407.682C128.205 407.682 127.919 407.387 127.919 406.798V399.297C127.919 398.707 128.214 398.413 128.803 398.413H133.34C133.791 398.413 134.016 398.629 134.016 399.063C134.016 399.513 133.791 399.739 133.34 399.739H129.583V402.326H133.067C133.518 402.326 133.743 402.542 133.743 402.976C133.743 403.426 133.518 403.652 133.067 403.652H129.583V406.798C129.583 407.387 129.314 407.682 128.777 407.682ZM138.167 407.708C137.448 407.708 136.828 407.573 136.308 407.305C135.788 407.036 135.385 406.655 135.099 406.161C134.822 405.667 134.683 405.082 134.683 404.406C134.683 403.747 134.818 403.171 135.086 402.677C135.364 402.183 135.741 401.797 136.217 401.52C136.703 401.234 137.253 401.091 137.868 401.091C138.77 401.091 139.48 401.377 140 401.949C140.529 402.521 140.793 403.301 140.793 404.289C140.793 404.609 140.585 404.77 140.169 404.77H136.243C136.365 405.905 137.015 406.473 138.193 406.473C138.419 406.473 138.67 406.447 138.947 406.395C139.233 406.334 139.502 406.234 139.753 406.096C139.979 405.966 140.169 405.927 140.325 405.979C140.481 406.022 140.59 406.113 140.65 406.252C140.72 406.39 140.728 406.546 140.676 406.72C140.633 406.884 140.512 407.027 140.312 407.149C140.009 407.339 139.658 407.482 139.259 407.578C138.869 407.664 138.505 407.708 138.167 407.708ZM137.933 402.196C137.457 402.196 137.071 402.343 136.776 402.638C136.482 402.932 136.304 403.331 136.243 403.834H139.441C139.407 403.305 139.259 402.902 138.999 402.625C138.748 402.339 138.393 402.196 137.933 402.196ZM145.946 407.708C145.478 407.708 145.062 407.608 144.698 407.409C144.334 407.201 144.061 406.923 143.879 406.577V406.85C143.879 407.404 143.615 407.682 143.086 407.682C142.549 407.682 142.28 407.404 142.28 406.85V399.128C142.28 398.582 142.549 398.309 143.086 398.309C143.632 398.309 143.905 398.582 143.905 399.128V402.157C144.096 401.836 144.369 401.58 144.724 401.39C145.088 401.19 145.495 401.091 145.946 401.091C146.509 401.091 146.999 401.225 147.415 401.494C147.831 401.762 148.156 402.144 148.39 402.638C148.624 403.123 148.741 403.708 148.741 404.393C148.741 405.069 148.624 405.658 148.39 406.161C148.156 406.655 147.827 407.036 147.402 407.305C146.986 407.573 146.501 407.708 145.946 407.708ZM145.491 406.473C145.976 406.473 146.366 406.299 146.661 405.953C146.956 405.597 147.103 405.077 147.103 404.393C147.103 403.699 146.956 403.184 146.661 402.846C146.366 402.499 145.976 402.326 145.491 402.326C145.006 402.326 144.616 402.499 144.321 402.846C144.026 403.184 143.879 403.699 143.879 404.393C143.879 405.077 144.026 405.597 144.321 405.953C144.616 406.299 145.006 406.473 145.491 406.473Z" fill="#CACCCF"/>
<path d="M270.52 408.569C270.217 408.569 270 408.465 269.87 408.257C269.74 408.049 269.745 407.798 269.883 407.503L273.315 399.898C273.428 399.647 273.562 399.469 273.718 399.365C273.883 399.252 274.069 399.196 274.277 399.196C274.477 399.196 274.654 399.252 274.81 399.365C274.975 399.469 275.114 399.647 275.226 399.898L278.671 407.503C278.81 407.806 278.819 408.062 278.697 408.27C278.576 408.469 278.368 408.569 278.073 408.569C277.831 408.569 277.64 408.513 277.501 408.4C277.371 408.279 277.254 408.097 277.15 407.854L276.5 406.346H272.028L271.391 407.854C271.279 408.105 271.162 408.287 271.04 408.4C270.919 408.513 270.746 408.569 270.52 408.569ZM274.251 401.107L272.6 405.02H275.928L274.277 401.107H274.251ZM280.953 410.909C280.416 410.909 280.147 410.636 280.147 410.09V402.823C280.147 402.277 280.411 402.004 280.94 402.004C281.477 402.004 281.746 402.277 281.746 402.823V403.096C281.928 402.758 282.201 402.489 282.565 402.29C282.929 402.082 283.345 401.978 283.813 401.978C284.368 401.978 284.853 402.112 285.269 402.381C285.694 402.65 286.023 403.031 286.257 403.525C286.491 404.01 286.608 404.595 286.608 405.28C286.608 405.956 286.491 406.545 286.257 407.048C286.023 407.542 285.698 407.923 285.282 408.192C284.866 408.461 284.376 408.595 283.813 408.595C283.362 408.595 282.955 408.5 282.591 408.309C282.236 408.11 281.963 407.845 281.772 407.516V410.09C281.772 410.636 281.499 410.909 280.953 410.909ZM283.358 407.36C283.843 407.36 284.233 407.187 284.528 406.84C284.823 406.485 284.97 405.965 284.97 405.28C284.97 404.587 284.823 404.071 284.528 403.733C284.233 403.386 283.843 403.213 283.358 403.213C282.873 403.213 282.483 403.386 282.188 403.733C281.893 404.071 281.746 404.587 281.746 405.28C281.746 405.965 281.893 406.485 282.188 406.84C282.483 407.187 282.873 407.36 283.358 407.36ZM288.974 408.569C288.419 408.569 288.142 408.292 288.142 407.737V402.823C288.142 402.277 288.406 402.004 288.935 402.004C289.464 402.004 289.728 402.277 289.728 402.823V403.226C290.04 402.481 290.707 402.065 291.73 401.978C292.103 401.935 292.311 402.147 292.354 402.615C292.397 403.074 292.172 403.33 291.678 403.382L291.392 403.408C290.326 403.512 289.793 404.058 289.793 405.046V407.737C289.793 408.292 289.52 408.569 288.974 408.569Z" fill="#CACCCF"/>
<path d="M255.26 158.507C255.26 144.511 266.606 133.165 280.602 133.165V133.165C294.598 133.165 305.944 144.511 305.944 158.507V389.673H255.26V158.507Z" fill="#D2D9EA"/>
<path d="M337.788 408.488C337.285 408.488 337.034 408.228 337.034 407.708V399.895C337.034 399.375 337.294 399.115 337.814 399.115C338.031 399.115 338.2 399.158 338.321 399.245C338.451 399.323 338.568 399.461 338.672 399.661L341.675 405.212L344.678 399.661C344.782 399.461 344.895 399.323 345.016 399.245C345.137 399.158 345.306 399.115 345.523 399.115C346.026 399.115 346.277 399.375 346.277 399.895V407.708C346.277 408.228 346.026 408.488 345.523 408.488C345.02 408.488 344.769 408.228 344.769 407.708V402.209L342.325 406.668C342.238 406.815 342.147 406.923 342.052 406.993C341.957 407.062 341.827 407.097 341.662 407.097C341.497 407.097 341.363 407.062 341.259 406.993C341.155 406.915 341.064 406.806 340.986 406.668L338.542 402.235V407.708C338.542 408.228 338.291 408.488 337.788 408.488ZM350.431 408.514C349.972 408.514 349.56 408.427 349.196 408.254C348.841 408.072 348.559 407.829 348.351 407.526C348.152 407.222 348.052 406.88 348.052 406.499C348.052 406.031 348.173 405.662 348.416 405.394C348.659 405.116 349.053 404.917 349.599 404.796C350.145 404.674 350.877 404.614 351.796 404.614H352.251V404.341C352.251 403.907 352.156 403.595 351.965 403.405C351.774 403.214 351.454 403.119 351.003 403.119C350.752 403.119 350.479 403.149 350.184 403.21C349.898 403.27 349.595 403.374 349.274 403.522C349.066 403.617 348.893 403.63 348.754 403.561C348.615 403.483 348.52 403.366 348.468 403.21C348.425 403.045 348.433 402.88 348.494 402.716C348.563 402.551 348.698 402.43 348.897 402.352C349.296 402.187 349.677 402.07 350.041 402.001C350.414 401.931 350.752 401.897 351.055 401.897C351.982 401.897 352.671 402.113 353.122 402.547C353.573 402.971 353.798 403.634 353.798 404.536V407.656C353.798 408.21 353.547 408.488 353.044 408.488C352.533 408.488 352.277 408.21 352.277 407.656V407.37C352.13 407.725 351.896 408.007 351.575 408.215C351.254 408.414 350.873 408.514 350.431 408.514ZM350.769 407.396C351.194 407.396 351.545 407.248 351.822 406.954C352.108 406.659 352.251 406.286 352.251 405.836V405.55H351.809C350.994 405.55 350.427 405.615 350.106 405.745C349.794 405.866 349.638 406.091 349.638 406.421C349.638 406.707 349.738 406.941 349.937 407.123C350.136 407.305 350.414 407.396 350.769 407.396ZM357.196 410.828C356.901 410.828 356.698 410.719 356.585 410.503C356.472 410.286 356.477 410.039 356.598 409.762L357.339 408.124L355.116 403.002C354.995 402.716 354.995 402.464 355.116 402.248C355.237 402.031 355.476 401.923 355.831 401.923C356.03 401.923 356.191 401.97 356.312 402.066C356.433 402.152 356.542 402.321 356.637 402.573L358.197 406.473L359.796 402.56C359.891 402.317 360.004 402.152 360.134 402.066C360.264 401.97 360.437 401.923 360.654 401.923C360.931 401.923 361.126 402.031 361.239 402.248C361.352 402.464 361.347 402.711 361.226 402.989L358.067 410.204C357.954 410.446 357.833 410.611 357.703 410.698C357.573 410.784 357.404 410.828 357.196 410.828Z" fill="#CACCCF"/>
<path d="M485.579 409.443C485.337 409.452 485.146 409.387 485.007 409.248C484.869 409.109 484.799 408.932 484.799 408.715C484.799 408.55 484.851 408.407 484.955 408.286C485.051 408.156 485.194 408.087 485.384 408.078L485.774 408.052C486.546 408 486.931 407.575 486.931 406.778V400.928C486.931 400.365 487.209 400.083 487.763 400.083C488.318 400.083 488.595 400.365 488.595 400.928V406.765C488.595 407.58 488.379 408.212 487.945 408.663C487.512 409.114 486.871 409.365 486.021 409.417L485.579 409.443ZM492.923 409.482C491.363 409.482 490.583 408.607 490.583 406.856V403.71C490.583 403.164 490.852 402.891 491.389 402.891C491.935 402.891 492.208 403.164 492.208 403.71V406.882C492.208 407.333 492.299 407.666 492.481 407.883C492.663 408.1 492.953 408.208 493.352 408.208C493.785 408.208 494.141 408.061 494.418 407.766C494.695 407.463 494.834 407.064 494.834 406.57V403.71C494.834 403.164 495.103 402.891 495.64 402.891C496.186 402.891 496.459 403.164 496.459 403.71V408.624C496.459 409.179 496.195 409.456 495.666 409.456C495.137 409.456 494.873 409.179 494.873 408.624V408.403C494.448 409.122 493.798 409.482 492.923 409.482ZM500.521 409.482C499.074 409.482 498.35 408.672 498.35 407.051V400.902C498.35 400.356 498.619 400.083 499.156 400.083C499.702 400.083 499.975 400.356 499.975 400.902V406.973C499.975 407.753 500.3 408.143 500.95 408.143C501.02 408.143 501.085 408.143 501.145 408.143C501.206 408.134 501.267 408.126 501.327 408.117C501.449 408.1 501.531 408.134 501.574 408.221C501.618 408.299 501.639 408.464 501.639 408.715C501.639 408.932 501.596 409.101 501.509 409.222C501.423 409.343 501.28 409.417 501.08 409.443C500.898 409.469 500.712 409.482 500.521 409.482Z" fill="#CACCCF"/>
<path d="M412.896 409.443C412.653 409.452 412.462 409.387 412.324 409.248C412.185 409.109 412.116 408.932 412.116 408.715C412.116 408.55 412.168 408.407 412.272 408.286C412.367 408.156 412.51 408.087 412.701 408.078L413.091 408.052C413.862 408 414.248 407.575 414.248 406.778V400.928C414.248 400.365 414.525 400.083 415.08 400.083C415.634 400.083 415.912 400.365 415.912 400.928V406.765C415.912 407.58 415.695 408.212 415.262 408.663C414.828 409.114 414.187 409.365 413.338 409.417L412.896 409.443ZM420.239 409.482C418.679 409.482 417.899 408.607 417.899 406.856V403.71C417.899 403.164 418.168 402.891 418.705 402.891C419.251 402.891 419.524 403.164 419.524 403.71V406.882C419.524 407.333 419.615 407.666 419.797 407.883C419.979 408.1 420.27 408.208 420.668 408.208C421.102 408.208 421.457 408.061 421.734 407.766C422.012 407.463 422.15 407.064 422.15 406.57V403.71C422.15 403.164 422.419 402.891 422.956 402.891C423.502 402.891 423.775 403.164 423.775 403.71V408.624C423.775 409.179 423.511 409.456 422.982 409.456C422.454 409.456 422.189 409.179 422.189 408.624V408.403C421.765 409.122 421.115 409.482 420.239 409.482ZM426.473 409.456C425.935 409.456 425.667 409.179 425.667 408.624V403.71C425.667 403.164 425.931 402.891 426.46 402.891C426.988 402.891 427.253 403.164 427.253 403.71V403.983C427.469 403.619 427.76 403.342 428.124 403.151C428.496 402.96 428.912 402.865 429.372 402.865C430.871 402.865 431.621 403.736 431.621 405.478V408.624C431.621 409.179 431.352 409.456 430.815 409.456C430.269 409.456 429.996 409.179 429.996 408.624V405.556C429.996 405.062 429.9 404.702 429.71 404.477C429.528 404.252 429.242 404.139 428.852 404.139C428.375 404.139 427.994 404.291 427.708 404.594C427.43 404.889 427.292 405.283 427.292 405.777V408.624C427.292 409.179 427.019 409.456 426.473 409.456Z" fill="#CACCCF"/>
<path d="M552.103 410.343C551.8 410.343 551.583 410.239 551.453 410.031C551.323 409.823 551.328 409.572 551.466 409.277L554.898 401.672C555.011 401.421 555.145 401.243 555.301 401.139C555.466 401.027 555.652 400.97 555.86 400.97C556.06 400.97 556.237 401.027 556.393 401.139C556.558 401.243 556.697 401.421 556.809 401.672L560.254 409.277C560.393 409.581 560.402 409.836 560.28 410.044C560.159 410.244 559.951 410.343 559.656 410.343C559.414 410.343 559.223 410.287 559.084 410.174C558.954 410.053 558.837 409.871 558.733 409.628L558.083 408.12H553.611L552.974 409.628C552.862 409.88 552.745 410.062 552.623 410.174C552.502 410.287 552.329 410.343 552.103 410.343ZM555.834 402.881L554.183 406.794H557.511L555.86 402.881H555.834ZM564.031 410.369C562.471 410.369 561.691 409.494 561.691 407.743V404.597C561.691 404.051 561.96 403.778 562.497 403.778C563.043 403.778 563.316 404.051 563.316 404.597V407.769C563.316 408.22 563.407 408.554 563.589 408.77C563.771 408.987 564.062 409.095 564.46 409.095C564.894 409.095 565.249 408.948 565.526 408.653C565.804 408.35 565.942 407.951 565.942 407.457V404.597C565.942 404.051 566.211 403.778 566.748 403.778C567.294 403.778 567.567 404.051 567.567 404.597V409.511C567.567 410.066 567.303 410.343 566.774 410.343C566.246 410.343 565.981 410.066 565.981 409.511V409.29C565.557 410.01 564.907 410.369 564.031 410.369ZM572.423 412.709C571.955 412.709 571.5 412.666 571.058 412.579C570.624 412.493 570.23 412.358 569.875 412.176C569.667 412.072 569.541 411.938 569.498 411.773C569.463 411.617 569.48 411.466 569.55 411.318C569.619 411.171 569.723 411.063 569.862 410.993C570.009 410.933 570.165 410.941 570.33 411.019C570.711 411.21 571.071 411.331 571.409 411.383C571.755 411.444 572.05 411.474 572.293 411.474C573.454 411.474 574.035 410.915 574.035 409.797V408.926C573.853 409.282 573.571 409.563 573.19 409.771C572.817 409.979 572.401 410.083 571.942 410.083C571.37 410.083 570.871 409.953 570.447 409.693C570.022 409.425 569.693 409.052 569.459 408.575C569.225 408.099 569.108 407.544 569.108 406.911C569.108 406.279 569.225 405.728 569.459 405.26C569.693 404.784 570.022 404.415 570.447 404.155C570.871 403.887 571.37 403.752 571.942 403.752C572.401 403.752 572.817 403.852 573.19 404.051C573.562 404.251 573.835 404.524 574.009 404.87V404.597C574.009 404.329 574.078 404.125 574.217 403.986C574.364 403.848 574.563 403.778 574.815 403.778C575.352 403.778 575.621 404.051 575.621 404.597V409.602C575.621 410.634 575.348 411.409 574.802 411.929C574.256 412.449 573.463 412.709 572.423 412.709ZM572.384 408.848C572.886 408.848 573.285 408.675 573.58 408.328C573.874 407.982 574.022 407.509 574.022 406.911C574.022 406.313 573.874 405.845 573.58 405.507C573.285 405.161 572.886 404.987 572.384 404.987C571.881 404.987 571.482 405.161 571.188 405.507C570.893 405.845 570.746 406.313 570.746 406.911C570.746 407.509 570.893 407.982 571.188 408.328C571.482 408.675 571.881 408.848 572.384 408.848Z" fill="#CACCCF"/>
<path d="M42.3899 282.727C42.3899 268.731 53.7358 257.386 67.7316 257.386V257.386C81.7275 257.386 93.0733 268.731 93.0733 282.727V387.817H42.3899V282.727Z" fill="#D2D9EA"/>
<path d="M323.453 79.1354C323.453 65.1396 334.799 53.7936 348.794 53.7936V53.7936C362.79 53.7936 374.136 65.1395 374.136 79.1354V389.673H323.453V79.1354Z" fill="#6D88CF"/>
<path d="M184.303 182.464C184.303 168.468 195.649 157.123 209.645 157.123V157.123C223.641 157.123 234.987 168.468 234.987 182.464V388.705H184.303V182.464Z" fill="#D2D9EA"/>
<path d="M468.131 193.354C468.131 179.358 479.477 168.012 493.473 168.012V168.012C507.468 168.012 518.814 179.358 518.814 193.354V390.641H468.131V193.354Z" fill="#D2D9EA"/>
<path d="M113.347 235.702C113.347 221.706 124.693 210.36 138.688 210.36V210.36C152.684 210.36 164.03 221.706 164.03 235.702V388.705H113.347V235.702Z" fill="#D2D9EA"/>
<path d="M397.174 158.507C397.174 144.511 408.52 133.165 422.516 133.165V133.165C436.512 133.165 447.858 144.511 447.858 158.507V390.641H397.174V158.507Z" fill="#D2D9EA"/>
<path d="M539.088 235.943C539.088 221.947 550.434 210.601 564.429 210.601V210.601C578.425 210.601 589.771 221.947 589.771 235.942V391.608H539.088V235.943Z" fill="#D2D9EA"/>
<rect x="297" width="99" height="30" rx="5" fill="#4E6CB9"/>
<path d="M346 37L339.072 29.5H352.928L346 37Z" fill="#4E6CB9"/>
<path d="M309.465 20.112C308.868 20.112 308.569 19.804 308.569 19.188V11.04C308.569 10.4333 308.873 10.13 309.479 10.13H312.853C313.936 10.13 314.771 10.3913 315.359 10.914C315.947 11.4273 316.241 12.1507 316.241 13.084C316.241 13.8213 316.05 14.4327 315.667 14.918C315.285 15.394 314.734 15.716 314.015 15.884C314.491 16.0333 314.883 16.3927 315.191 16.962L316.241 18.908C316.4 19.2067 316.428 19.482 316.325 19.734C316.232 19.986 315.994 20.112 315.611 20.112C315.359 20.112 315.154 20.0607 314.995 19.958C314.837 19.846 314.697 19.678 314.575 19.454L313.161 16.85C312.993 16.5327 312.793 16.3227 312.559 16.22C312.335 16.108 312.046 16.052 311.691 16.052H310.361V19.188C310.361 19.804 310.063 20.112 309.465 20.112ZM310.361 14.722H312.545C313.852 14.722 314.505 14.19 314.505 13.126C314.505 12.0713 313.852 11.544 312.545 11.544H310.361V14.722ZM320.568 20.14C320.167 20.14 319.742 20.098 319.294 20.014C318.846 19.93 318.445 19.7853 318.09 19.58C317.894 19.468 317.773 19.3327 317.726 19.174C317.679 19.006 317.684 18.852 317.74 18.712C317.805 18.5627 317.908 18.4553 318.048 18.39C318.197 18.3247 318.37 18.3387 318.566 18.432C318.939 18.6093 319.289 18.7353 319.616 18.81C319.943 18.8753 320.265 18.908 320.582 18.908C321.03 18.908 321.361 18.8333 321.576 18.684C321.8 18.5253 321.912 18.32 321.912 18.068C321.912 17.676 321.623 17.424 321.044 17.312L319.644 17.046C318.459 16.822 317.866 16.206 317.866 15.198C317.866 14.75 317.987 14.3627 318.23 14.036C318.482 13.7093 318.827 13.4573 319.266 13.28C319.705 13.1027 320.209 13.014 320.778 13.014C321.599 13.014 322.332 13.196 322.976 13.56C323.153 13.6533 323.256 13.784 323.284 13.952C323.321 14.1107 323.303 14.2647 323.228 14.414C323.163 14.554 323.055 14.6567 322.906 14.722C322.757 14.778 322.584 14.7593 322.388 14.666C322.099 14.5167 321.819 14.4093 321.548 14.344C321.287 14.2787 321.035 14.246 320.792 14.246C320.335 14.246 319.994 14.3253 319.77 14.484C319.555 14.6427 319.448 14.8527 319.448 15.114C319.448 15.5247 319.714 15.7767 320.246 15.87L321.646 16.136C322.253 16.248 322.71 16.4533 323.018 16.752C323.335 17.0507 323.494 17.452 323.494 17.956C323.494 18.6373 323.228 19.174 322.696 19.566C322.164 19.9487 321.455 20.14 320.568 20.14ZM325.87 20.07C325.552 20.07 325.296 19.972 325.1 19.776C324.913 19.58 324.82 19.328 324.82 19.02C324.82 18.7213 324.913 18.4787 325.1 18.292C325.296 18.096 325.552 17.998 325.87 17.998C326.196 17.998 326.448 18.096 326.626 18.292C326.812 18.4787 326.906 18.7213 326.906 19.02C326.906 19.328 326.812 19.58 326.626 19.776C326.448 19.972 326.196 20.07 325.87 20.07ZM333.977 20C333.464 20 333.207 19.748 333.207 19.244C333.207 18.7587 333.464 18.516 333.977 18.516H335.545V12.174L334.355 12.888C334.131 13.0187 333.926 13.0513 333.739 12.986C333.562 12.9207 333.426 12.804 333.333 12.636C333.24 12.468 333.212 12.286 333.249 12.09C333.286 11.8847 333.417 11.7167 333.641 11.586L335.573 10.424C335.76 10.312 335.946 10.2187 336.133 10.144C336.32 10.06 336.492 10.018 336.651 10.018C336.847 10.018 337.01 10.074 337.141 10.186C337.272 10.2887 337.337 10.4613 337.337 10.704V18.516H338.765C339.278 18.516 339.535 18.7587 339.535 19.244C339.535 19.748 339.278 20 338.765 20H333.977ZM344.672 20.14C344.177 20.14 343.673 20.0747 343.16 19.944C342.646 19.8133 342.175 19.6127 341.746 19.342C341.522 19.202 341.386 19.034 341.34 18.838C341.302 18.6327 341.33 18.446 341.424 18.278C341.517 18.1007 341.652 17.984 341.83 17.928C342.016 17.8627 342.226 17.8953 342.46 18.026C342.805 18.222 343.155 18.3713 343.51 18.474C343.864 18.5767 344.242 18.628 344.644 18.628C345.232 18.628 345.689 18.4787 346.016 18.18C346.352 17.872 346.52 17.4613 346.52 16.948C346.52 16.4253 346.361 16.0053 346.044 15.688C345.726 15.3613 345.292 15.198 344.742 15.198C344.443 15.198 344.154 15.2493 343.874 15.352C343.594 15.4453 343.318 15.6133 343.048 15.856C342.964 15.9307 342.856 16.0053 342.726 16.08C342.595 16.1453 342.455 16.178 342.306 16.178C341.83 16.178 341.592 15.9493 341.592 15.492V10.914C341.592 10.3913 341.853 10.13 342.376 10.13H346.982C347.504 10.13 347.766 10.3773 347.766 10.872C347.766 11.3667 347.504 11.614 346.982 11.614H343.342V14.288C343.836 13.9147 344.443 13.728 345.162 13.728C345.787 13.728 346.328 13.8633 346.786 14.134C347.252 14.3953 347.612 14.764 347.864 15.24C348.125 15.7067 348.256 16.2527 348.256 16.878C348.256 17.522 348.111 18.0913 347.822 18.586C347.532 19.0713 347.117 19.454 346.576 19.734C346.044 20.0047 345.409 20.14 344.672 20.14ZM353.182 20.14C352.016 20.14 351.124 19.7013 350.508 18.824C349.892 17.9373 349.584 16.6773 349.584 15.044C349.584 13.392 349.892 12.1367 350.508 11.278C351.124 10.4193 352.016 9.99 353.182 9.99C354.358 9.99 355.25 10.4193 355.856 11.278C356.472 12.1367 356.78 13.3873 356.78 15.03C356.78 16.6727 356.472 17.9373 355.856 18.824C355.24 19.7013 354.349 20.14 353.182 20.14ZM353.182 18.67C353.817 18.67 354.284 18.376 354.582 17.788C354.89 17.2 355.044 16.2807 355.044 15.03C355.044 13.7793 354.89 12.874 354.582 12.314C354.284 11.7447 353.817 11.46 353.182 11.46C352.557 11.46 352.09 11.7447 351.782 12.314C351.474 12.874 351.32 13.7793 351.32 15.03C351.32 16.2807 351.474 17.2 351.782 17.788C352.09 18.376 352.557 18.67 353.182 18.67ZM361.777 20.14C360.61 20.14 359.719 19.7013 359.103 18.824C358.487 17.9373 358.179 16.6773 358.179 15.044C358.179 13.392 358.487 12.1367 359.103 11.278C359.719 10.4193 360.61 9.99 361.777 9.99C362.953 9.99 363.844 10.4193 364.451 11.278C365.067 12.1367 365.375 13.3873 365.375 15.03C365.375 16.6727 365.067 17.9373 364.451 18.824C363.835 19.7013 362.943 20.14 361.777 20.14ZM361.777 18.67C362.411 18.67 362.878 18.376 363.177 17.788C363.485 17.2 363.639 16.2807 363.639 15.03C363.639 13.7793 363.485 12.874 363.177 12.314C362.878 11.7447 362.411 11.46 361.777 11.46C361.151 11.46 360.685 11.7447 360.377 12.314C360.069 12.874 359.915 13.7793 359.915 15.03C359.915 16.2807 360.069 17.2 360.377 17.788C360.685 18.376 361.151 18.67 361.777 18.67ZM370.371 20.14C369.205 20.14 368.313 19.7013 367.697 18.824C367.081 17.9373 366.773 16.6773 366.773 15.044C366.773 13.392 367.081 12.1367 367.697 11.278C368.313 10.4193 369.205 9.99 370.371 9.99C371.547 9.99 372.439 10.4193 373.045 11.278C373.661 12.1367 373.969 13.3873 373.969 15.03C373.969 16.6727 373.661 17.9373 373.045 18.824C372.429 19.7013 371.538 20.14 370.371 20.14ZM370.371 18.67C371.006 18.67 371.473 18.376 371.771 17.788C372.079 17.2 372.233 16.2807 372.233 15.03C372.233 13.7793 372.079 12.874 371.771 12.314C371.473 11.7447 371.006 11.46 370.371 11.46C369.746 11.46 369.279 11.7447 368.971 12.314C368.663 12.874 368.509 13.7793 368.509 15.03C368.509 16.2807 368.663 17.2 368.971 17.788C369.279 18.376 369.746 18.67 370.371 18.67ZM375.998 20.406C375.932 20.63 375.811 20.7747 375.634 20.84C375.466 20.9147 375.293 20.924 375.116 20.868C374.948 20.8213 374.817 20.7233 374.724 20.574C374.621 20.4247 374.607 20.2333 374.682 20L377.916 9.962C377.99 9.738 378.112 9.58867 378.28 9.514C378.448 9.43933 378.616 9.43 378.784 9.486C378.961 9.53267 379.096 9.63533 379.19 9.794C379.292 9.94333 379.306 10.13 379.232 10.354L375.998 20.406ZM379.992 16.948C379.787 16.948 379.614 16.8827 379.474 16.752C379.344 16.612 379.278 16.444 379.278 16.248C379.278 16.0427 379.344 15.8747 379.474 15.744C379.614 15.6133 379.787 15.548 379.992 15.548H382.974C383.17 15.548 383.334 15.6133 383.464 15.744C383.604 15.8747 383.674 16.0427 383.674 16.248C383.674 16.444 383.604 16.612 383.464 16.752C383.334 16.8827 383.17 16.948 382.974 16.948H379.992Z" fill="white"/>
</svg>
