<svg width="555" height="315" viewBox="0 0 555 315" fill="none" xmlns="http://www.w3.org/2000/svg">
<g clip-path="url(#clip0_3_6)">
<path d="M47.0062 309.859C47.0062 310.265 46.9562 310.632 46.8562 310.959C46.7562 311.285 46.6062 311.564 46.4062 311.794C46.2095 312.024 45.9629 312.2 45.6662 312.324C45.3695 312.447 45.0245 312.509 44.6312 312.509C44.4512 312.509 44.2745 312.497 44.1012 312.474C43.9279 312.454 43.7462 312.42 43.5562 312.374L43.6262 311.574C43.6329 311.5 43.6595 311.442 43.7062 311.399C43.7562 311.352 43.8279 311.329 43.9212 311.329C43.9779 311.329 44.0512 311.34 44.1412 311.364C44.2345 311.387 44.3512 311.399 44.4912 311.399C44.6812 311.399 44.8495 311.372 44.9962 311.319C45.1429 311.262 45.2645 311.174 45.3612 311.054C45.4612 310.934 45.5362 310.779 45.5862 310.589C45.6362 310.395 45.6612 310.162 45.6612 309.889V305.199H47.0062V309.859ZM52.6115 312.429H52.0565C51.9398 312.429 51.8481 312.412 51.7815 312.379C51.7148 312.342 51.6648 312.27 51.6315 312.164L51.5215 311.799C51.3915 311.915 51.2631 312.019 51.1365 312.109C51.0131 312.195 50.8848 312.269 50.7515 312.329C50.6181 312.389 50.4765 312.434 50.3265 312.464C50.1765 312.494 50.0098 312.509 49.8265 312.509C49.6098 312.509 49.4098 312.48 49.2265 312.424C49.0431 312.364 48.8848 312.275 48.7515 312.159C48.6215 312.042 48.5198 311.897 48.4465 311.724C48.3731 311.55 48.3365 311.349 48.3365 311.119C48.3365 310.925 48.3865 310.735 48.4865 310.549C48.5898 310.359 48.7598 310.189 48.9965 310.039C49.2331 309.885 49.5481 309.759 49.9415 309.659C50.3348 309.559 50.8231 309.502 51.4065 309.489V309.189C51.4065 308.845 51.3331 308.592 51.1865 308.429C51.0431 308.262 50.8331 308.179 50.5565 308.179C50.3565 308.179 50.1898 308.202 50.0565 308.249C49.9231 308.295 49.8065 308.349 49.7065 308.409C49.6098 308.465 49.5198 308.517 49.4365 308.564C49.3531 308.61 49.2615 308.634 49.1615 308.634C49.0781 308.634 49.0065 308.612 48.9465 308.569C48.8865 308.525 48.8381 308.472 48.8015 308.409L48.5765 308.014C49.1665 307.474 49.8781 307.204 50.7115 307.204C51.0115 307.204 51.2781 307.254 51.5115 307.354C51.7481 307.45 51.9481 307.587 52.1115 307.764C52.2748 307.937 52.3981 308.145 52.4815 308.389C52.5681 308.632 52.6115 308.899 52.6115 309.189V312.429ZM50.2115 311.659C50.3381 311.659 50.4548 311.647 50.5615 311.624C50.6681 311.6 50.7681 311.565 50.8615 311.519C50.9581 311.472 51.0498 311.415 51.1365 311.349C51.2265 311.279 51.3165 311.197 51.4065 311.104V310.239C51.0465 310.255 50.7448 310.287 50.5015 310.334C50.2615 310.377 50.0681 310.434 49.9215 310.504C49.7748 310.574 49.6698 310.655 49.6065 310.749C49.5465 310.842 49.5165 310.944 49.5165 311.054C49.5165 311.27 49.5798 311.425 49.7065 311.519C49.8365 311.612 50.0048 311.659 50.2115 311.659ZM54.0258 312.429V307.299H54.7808C54.9408 307.299 55.0458 307.374 55.0958 307.524L55.1808 307.929C55.2842 307.822 55.3925 307.725 55.5058 307.639C55.6225 307.552 55.7442 307.477 55.8708 307.414C56.0008 307.35 56.1392 307.302 56.2858 307.269C56.4325 307.235 56.5925 307.219 56.7658 307.219C57.0458 307.219 57.2942 307.267 57.5108 307.364C57.7275 307.457 57.9075 307.59 58.0508 307.764C58.1975 307.934 58.3075 308.139 58.3808 308.379C58.4575 308.615 58.4958 308.877 58.4958 309.164V312.429H57.2608V309.164C57.2608 308.85 57.1875 308.609 57.0408 308.439C56.8975 308.265 56.6808 308.179 56.3908 308.179C56.1775 308.179 55.9775 308.227 55.7908 308.324C55.6042 308.42 55.4275 308.552 55.2608 308.719V312.429H54.0258ZM90.1425 305.199V306.269H86.9375V308.409H89.6425V309.484H86.9375V312.429H85.5825V305.199H90.1425ZM93.1255 307.219C93.4488 307.219 93.7455 307.27 94.0155 307.374C94.2888 307.477 94.5238 307.629 94.7205 307.829C94.9172 308.025 95.0705 308.269 95.1805 308.559C95.2905 308.845 95.3455 309.174 95.3455 309.544C95.3455 309.637 95.3405 309.715 95.3305 309.779C95.3238 309.839 95.3088 309.887 95.2855 309.924C95.2655 309.957 95.2372 309.982 95.2005 309.999C95.1638 310.012 95.1172 310.019 95.0605 310.019H91.8905C91.9272 310.545 92.0688 310.932 92.3155 311.179C92.5622 311.425 92.8888 311.549 93.2955 311.549C93.4955 311.549 93.6672 311.525 93.8105 311.479C93.9572 311.432 94.0838 311.38 94.1905 311.324C94.3005 311.267 94.3955 311.215 94.4755 311.169C94.5588 311.122 94.6388 311.099 94.7155 311.099C94.7655 311.099 94.8088 311.109 94.8455 311.129C94.8822 311.149 94.9138 311.177 94.9405 311.214L95.3005 311.664C95.1638 311.824 95.0105 311.959 94.8405 312.069C94.6705 312.175 94.4922 312.262 94.3055 312.329C94.1222 312.392 93.9338 312.437 93.7405 312.464C93.5505 312.49 93.3655 312.504 93.1855 312.504C92.8288 312.504 92.4972 312.445 92.1905 312.329C91.8838 312.209 91.6172 312.034 91.3905 311.804C91.1638 311.57 90.9855 311.284 90.8555 310.944C90.7255 310.6 90.6605 310.204 90.6605 309.754C90.6605 309.404 90.7172 309.075 90.8305 308.769C90.9438 308.459 91.1055 308.19 91.3155 307.964C91.5288 307.734 91.7872 307.552 92.0905 307.419C92.3972 307.285 92.7422 307.219 93.1255 307.219ZM93.1505 308.104C92.7905 308.104 92.5088 308.205 92.3055 308.409C92.1022 308.612 91.9722 308.9 91.9155 309.274H94.2355C94.2355 309.114 94.2138 308.964 94.1705 308.824C94.1272 308.68 94.0605 308.555 93.9705 308.449C93.8805 308.342 93.7672 308.259 93.6305 308.199C93.4938 308.135 93.3338 308.104 93.1505 308.104ZM96.5623 312.429V304.999H97.7973V307.929C98.0006 307.712 98.2306 307.54 98.4873 307.414C98.744 307.284 99.044 307.219 99.3873 307.219C99.6673 307.219 99.9223 307.277 100.152 307.394C100.386 307.507 100.586 307.674 100.752 307.894C100.922 308.114 101.052 308.385 101.142 308.709C101.236 309.032 101.282 309.404 101.282 309.824C101.282 310.207 101.231 310.562 101.127 310.889C101.024 311.215 100.876 311.499 100.682 311.739C100.492 311.979 100.261 312.167 99.9873 312.304C99.7173 312.437 99.414 312.504 99.0773 312.504C98.9206 312.504 98.7773 312.487 98.6473 312.454C98.5173 312.424 98.399 312.38 98.2923 312.324C98.1856 312.267 98.0856 312.199 97.9923 312.119C97.9023 312.035 97.8156 311.944 97.7323 311.844L97.6773 312.189C97.6573 312.275 97.6223 312.337 97.5723 312.374C97.5256 312.41 97.4606 312.429 97.3773 312.429H96.5623ZM98.9623 308.179C98.7056 308.179 98.4856 308.234 98.3023 308.344C98.1223 308.45 97.954 308.602 97.7973 308.799V311.099C97.9373 311.272 98.089 311.394 98.2523 311.464C98.419 311.53 98.599 311.564 98.7923 311.564C98.979 311.564 99.1473 311.529 99.2973 311.459C99.4473 311.389 99.574 311.282 99.6773 311.139C99.784 310.995 99.8656 310.815 99.9223 310.599C99.979 310.379 100.007 310.12 100.007 309.824C100.007 309.524 99.9823 309.27 99.9323 309.064C99.8856 308.854 99.8173 308.684 99.7273 308.554C99.6373 308.424 99.5273 308.329 99.3973 308.269C99.2706 308.209 99.1256 308.179 98.9623 308.179ZM131.754 309.429C131.81 309.535 131.862 309.647 131.909 309.764C131.959 309.877 132.007 309.992 132.054 310.109C132.1 309.989 132.149 309.87 132.199 309.754C132.249 309.637 132.302 309.525 132.359 309.419L134.499 305.414C134.525 305.364 134.552 305.324 134.579 305.294C134.609 305.264 134.64 305.242 134.674 305.229C134.71 305.215 134.75 305.207 134.794 305.204C134.837 305.2 134.889 305.199 134.949 305.199H135.964V312.429H134.779V307.759C134.779 307.672 134.78 307.577 134.784 307.474C134.79 307.37 134.799 307.265 134.809 307.159L132.624 311.259C132.574 311.352 132.509 311.425 132.429 311.479C132.349 311.529 132.255 311.554 132.149 311.554H131.964C131.857 311.554 131.764 311.529 131.684 311.479C131.604 311.425 131.539 311.352 131.489 311.259L129.274 307.144C129.287 307.254 129.295 307.362 129.299 307.469C129.305 307.572 129.309 307.669 129.309 307.759V312.429H128.124V305.199H129.139C129.199 305.199 129.25 305.2 129.294 305.204C129.337 305.207 129.375 305.215 129.409 305.229C129.445 305.242 129.479 305.264 129.509 305.294C129.539 305.324 129.567 305.364 129.594 305.414L131.754 309.429ZM141.57 312.429H141.015C140.899 312.429 140.807 312.412 140.74 312.379C140.674 312.342 140.624 312.27 140.59 312.164L140.48 311.799C140.35 311.915 140.222 312.019 140.095 312.109C139.972 312.195 139.844 312.269 139.71 312.329C139.577 312.389 139.435 312.434 139.285 312.464C139.135 312.494 138.969 312.509 138.785 312.509C138.569 312.509 138.369 312.48 138.185 312.424C138.002 312.364 137.844 312.275 137.71 312.159C137.58 312.042 137.479 311.897 137.405 311.724C137.332 311.55 137.295 311.349 137.295 311.119C137.295 310.925 137.345 310.735 137.445 310.549C137.549 310.359 137.719 310.189 137.955 310.039C138.192 309.885 138.507 309.759 138.9 309.659C139.294 309.559 139.782 309.502 140.365 309.489V309.189C140.365 308.845 140.292 308.592 140.145 308.429C140.002 308.262 139.792 308.179 139.515 308.179C139.315 308.179 139.149 308.202 139.015 308.249C138.882 308.295 138.765 308.349 138.665 308.409C138.569 308.465 138.479 308.517 138.395 308.564C138.312 308.61 138.22 308.634 138.12 308.634C138.037 308.634 137.965 308.612 137.905 308.569C137.845 308.525 137.797 308.472 137.76 308.409L137.535 308.014C138.125 307.474 138.837 307.204 139.67 307.204C139.97 307.204 140.237 307.254 140.47 307.354C140.707 307.45 140.907 307.587 141.07 307.764C141.234 307.937 141.357 308.145 141.44 308.389C141.527 308.632 141.57 308.899 141.57 309.189V312.429ZM139.17 311.659C139.297 311.659 139.414 311.647 139.52 311.624C139.627 311.6 139.727 311.565 139.82 311.519C139.917 311.472 140.009 311.415 140.095 311.349C140.185 311.279 140.275 311.197 140.365 311.104V310.239C140.005 310.255 139.704 310.287 139.46 310.334C139.22 310.377 139.027 310.434 138.88 310.504C138.734 310.574 138.629 310.655 138.565 310.749C138.505 310.842 138.475 310.944 138.475 311.054C138.475 311.27 138.539 311.425 138.665 311.519C138.795 311.612 138.964 311.659 139.17 311.659ZM142.985 312.429V307.299H143.71C143.836 307.299 143.925 307.322 143.975 307.369C144.025 307.415 144.058 307.495 144.075 307.609L144.15 308.229C144.333 307.912 144.548 307.662 144.795 307.479C145.041 307.295 145.318 307.204 145.625 307.204C145.878 307.204 146.088 307.262 146.255 307.379L146.095 308.304C146.085 308.364 146.063 308.407 146.03 308.434C145.996 308.457 145.951 308.469 145.895 308.469C145.845 308.469 145.776 308.457 145.69 308.434C145.603 308.41 145.488 308.399 145.345 308.399C145.088 308.399 144.868 308.47 144.685 308.614C144.501 308.754 144.346 308.96 144.22 309.234V312.429H142.985ZM177.161 312.429H176.121C176.005 312.429 175.908 312.4 175.831 312.344C175.758 312.284 175.705 312.21 175.671 312.124L175.131 310.649H172.136L171.596 312.124C171.57 312.2 171.516 312.27 171.436 312.334C171.36 312.397 171.265 312.429 171.151 312.429H170.106L172.946 305.199H174.321L177.161 312.429ZM172.481 309.699H174.786L173.906 307.294C173.866 307.187 173.821 307.062 173.771 306.919C173.725 306.772 173.678 306.614 173.631 306.444C173.585 306.614 173.538 306.772 173.491 306.919C173.448 307.065 173.405 307.194 173.361 307.304L172.481 309.699ZM178.036 314.104V307.299H178.791C178.871 307.299 178.939 307.317 178.996 307.354C179.053 307.39 179.089 307.447 179.106 307.524L179.206 307.999C179.413 307.762 179.649 307.57 179.916 307.424C180.186 307.277 180.501 307.204 180.861 307.204C181.141 307.204 181.396 307.262 181.626 307.379C181.859 307.495 182.059 307.665 182.226 307.889C182.396 308.109 182.526 308.382 182.616 308.709C182.709 309.032 182.756 309.404 182.756 309.824C182.756 310.207 182.704 310.562 182.601 310.889C182.498 311.215 182.349 311.499 182.156 311.739C181.966 311.979 181.734 312.167 181.461 312.304C181.191 312.437 180.888 312.504 180.551 312.504C180.261 312.504 180.014 312.46 179.811 312.374C179.611 312.284 179.431 312.16 179.271 312.004V314.104H178.036ZM180.436 308.179C180.179 308.179 179.959 308.234 179.776 308.344C179.596 308.45 179.428 308.602 179.271 308.799V311.099C179.411 311.272 179.563 311.394 179.726 311.464C179.893 311.53 180.071 311.564 180.261 311.564C180.448 311.564 180.616 311.529 180.766 311.459C180.919 311.389 181.048 311.282 181.151 311.139C181.258 310.995 181.339 310.815 181.396 310.599C181.453 310.379 181.481 310.12 181.481 309.824C181.481 309.524 181.456 309.27 181.406 309.064C181.359 308.854 181.291 308.684 181.201 308.554C181.111 308.424 181.001 308.329 180.871 308.269C180.744 308.209 180.599 308.179 180.436 308.179ZM183.89 312.429V307.299H184.615C184.742 307.299 184.83 307.322 184.88 307.369C184.93 307.415 184.964 307.495 184.98 307.609L185.055 308.229C185.239 307.912 185.454 307.662 185.7 307.479C185.947 307.295 186.224 307.204 186.53 307.204C186.784 307.204 186.994 307.262 187.16 307.379L187 308.304C186.99 308.364 186.969 308.407 186.935 308.434C186.902 308.457 186.857 308.469 186.8 308.469C186.75 308.469 186.682 308.457 186.595 308.434C186.509 308.41 186.394 308.399 186.25 308.399C185.994 308.399 185.774 308.47 185.59 308.614C185.407 308.754 185.252 308.96 185.125 309.234V312.429H183.89ZM215.342 309.429C215.399 309.535 215.45 309.647 215.497 309.764C215.547 309.877 215.595 309.992 215.642 310.109C215.689 309.989 215.737 309.87 215.787 309.754C215.837 309.637 215.89 309.525 215.947 309.419L218.087 305.414C218.114 305.364 218.14 305.324 218.167 305.294C218.197 305.264 218.229 305.242 218.262 305.229C218.299 305.215 218.339 305.207 218.382 305.204C218.425 305.2 218.477 305.199 218.537 305.199H219.552V312.429H218.367V307.759C218.367 307.672 218.369 307.577 218.372 307.474C218.379 307.37 218.387 307.265 218.397 307.159L216.212 311.259C216.162 311.352 216.097 311.425 216.017 311.479C215.937 311.529 215.844 311.554 215.737 311.554H215.552C215.445 311.554 215.352 311.529 215.272 311.479C215.192 311.425 215.127 311.352 215.077 311.259L212.862 307.144C212.875 307.254 212.884 307.362 212.887 307.469C212.894 307.572 212.897 307.669 212.897 307.759V312.429H211.712V305.199H212.727C212.787 305.199 212.839 305.2 212.882 305.204C212.925 305.207 212.964 305.215 212.997 305.229C213.034 305.242 213.067 305.264 213.097 305.294C213.127 305.324 213.155 305.364 213.182 305.414L215.342 309.429ZM225.159 312.429H224.604C224.487 312.429 224.395 312.412 224.329 312.379C224.262 312.342 224.212 312.27 224.179 312.164L224.069 311.799C223.939 311.915 223.81 312.019 223.684 312.109C223.56 312.195 223.432 312.269 223.299 312.329C223.165 312.389 223.024 312.434 222.874 312.464C222.724 312.494 222.557 312.509 222.374 312.509C222.157 312.509 221.957 312.48 221.774 312.424C221.59 312.364 221.432 312.275 221.299 312.159C221.169 312.042 221.067 311.897 220.994 311.724C220.92 311.55 220.884 311.349 220.884 311.119C220.884 310.925 220.934 310.735 221.034 310.549C221.137 310.359 221.307 310.189 221.544 310.039C221.78 309.885 222.095 309.759 222.489 309.659C222.882 309.559 223.37 309.502 223.954 309.489V309.189C223.954 308.845 223.88 308.592 223.734 308.429C223.59 308.262 223.38 308.179 223.104 308.179C222.904 308.179 222.737 308.202 222.604 308.249C222.47 308.295 222.354 308.349 222.254 308.409C222.157 308.465 222.067 308.517 221.984 308.564C221.9 308.61 221.809 308.634 221.709 308.634C221.625 308.634 221.554 308.612 221.494 308.569C221.434 308.525 221.385 308.472 221.349 308.409L221.124 308.014C221.714 307.474 222.425 307.204 223.259 307.204C223.559 307.204 223.825 307.254 224.059 307.354C224.295 307.45 224.495 307.587 224.659 307.764C224.822 307.937 224.945 308.145 225.029 308.389C225.115 308.632 225.159 308.899 225.159 309.189V312.429ZM222.759 311.659C222.885 311.659 223.002 311.647 223.109 311.624C223.215 311.6 223.315 311.565 223.409 311.519C223.505 311.472 223.597 311.415 223.684 311.349C223.774 311.279 223.864 311.197 223.954 311.104V310.239C223.594 310.255 223.292 310.287 223.049 310.334C222.809 310.377 222.615 310.434 222.469 310.504C222.322 310.574 222.217 310.655 222.154 310.749C222.094 310.842 222.064 310.944 222.064 311.054C222.064 311.27 222.127 311.425 222.254 311.519C222.384 311.612 222.552 311.659 222.759 311.659ZM228.217 313.839C228.181 313.925 228.132 313.99 228.072 314.034C228.016 314.08 227.927 314.104 227.807 314.104H226.887L227.847 312.049L225.772 307.299H226.852C226.952 307.299 227.029 307.322 227.082 307.369C227.136 307.415 227.176 307.469 227.202 307.529L228.297 310.189C228.334 310.275 228.366 310.365 228.392 310.459C228.419 310.552 228.442 310.645 228.462 310.739C228.489 310.642 228.517 310.549 228.547 310.459C228.581 310.369 228.616 310.277 228.652 310.184L229.682 307.529C229.709 307.462 229.752 307.407 229.812 307.364C229.876 307.32 229.946 307.299 230.022 307.299H231.012L228.217 313.839ZM256.245 309.859C256.245 310.265 256.195 310.632 256.095 310.959C255.995 311.285 255.845 311.564 255.645 311.794C255.449 312.024 255.202 312.2 254.905 312.324C254.609 312.447 254.264 312.509 253.87 312.509C253.69 312.509 253.514 312.497 253.34 312.474C253.167 312.454 252.985 312.42 252.795 312.374L252.865 311.574C252.872 311.5 252.899 311.442 252.945 311.399C252.995 311.352 253.067 311.329 253.16 311.329C253.217 311.329 253.29 311.34 253.38 311.364C253.474 311.387 253.59 311.399 253.73 311.399C253.92 311.399 254.089 311.372 254.235 311.319C254.382 311.262 254.504 311.174 254.6 311.054C254.7 310.934 254.775 310.779 254.825 310.589C254.875 310.395 254.9 310.162 254.9 309.889V305.199H256.245V309.859ZM258.961 307.299V310.559C258.961 310.872 259.032 311.115 259.176 311.289C259.322 311.459 259.541 311.544 259.831 311.544C260.044 311.544 260.244 311.497 260.431 311.404C260.617 311.307 260.794 311.175 260.961 311.009V307.299H262.196V312.429H261.441C261.281 312.429 261.176 312.354 261.126 312.204L261.041 311.794C260.934 311.9 260.824 311.999 260.711 312.089C260.597 312.175 260.476 312.25 260.346 312.314C260.219 312.374 260.081 312.42 259.931 312.454C259.784 312.49 259.626 312.509 259.456 312.509C259.176 312.509 258.927 312.462 258.711 312.369C258.497 312.272 258.317 312.137 258.171 311.964C258.024 311.79 257.912 311.585 257.836 311.349C257.762 311.109 257.726 310.845 257.726 310.559V307.299H258.961ZM263.714 312.429V307.299H264.469C264.629 307.299 264.734 307.374 264.784 307.524L264.869 307.929C264.972 307.822 265.081 307.725 265.194 307.639C265.311 307.552 265.432 307.477 265.559 307.414C265.689 307.35 265.827 307.302 265.974 307.269C266.121 307.235 266.281 307.219 266.454 307.219C266.734 307.219 266.982 307.267 267.199 307.364C267.416 307.457 267.596 307.59 267.739 307.764C267.886 307.934 267.996 308.139 268.069 308.379C268.146 308.615 268.184 308.877 268.184 309.164V312.429H266.949V309.164C266.949 308.85 266.876 308.609 266.729 308.439C266.586 308.265 266.369 308.179 266.079 308.179C265.866 308.179 265.666 308.227 265.479 308.324C265.292 308.42 265.116 308.552 264.949 308.719V312.429H263.714ZM293.914 309.859C293.914 310.265 293.864 310.632 293.764 310.959C293.664 311.285 293.514 311.564 293.314 311.794C293.117 312.024 292.87 312.2 292.574 312.324C292.277 312.447 291.932 312.509 291.539 312.509C291.359 312.509 291.182 312.497 291.009 312.474C290.835 312.454 290.654 312.42 290.464 312.374L290.534 311.574C290.54 311.5 290.567 311.442 290.614 311.399C290.664 311.352 290.735 311.329 290.829 311.329C290.885 311.329 290.959 311.34 291.049 311.364C291.142 311.387 291.259 311.399 291.399 311.399C291.589 311.399 291.757 311.372 291.904 311.319C292.05 311.262 292.172 311.174 292.269 311.054C292.369 310.934 292.444 310.779 292.494 310.589C292.544 310.395 292.569 310.162 292.569 309.889V305.199H293.914V309.859ZM296.629 307.299V310.559C296.629 310.872 296.701 311.115 296.844 311.289C296.991 311.459 297.209 311.544 297.499 311.544C297.712 311.544 297.912 311.497 298.099 311.404C298.286 311.307 298.462 311.175 298.629 311.009V307.299H299.864V312.429H299.109C298.949 312.429 298.844 312.354 298.794 312.204L298.709 311.794C298.602 311.9 298.492 311.999 298.379 312.089C298.266 312.175 298.144 312.25 298.014 312.314C297.887 312.374 297.749 312.42 297.599 312.454C297.452 312.49 297.294 312.509 297.124 312.509C296.844 312.509 296.596 312.462 296.379 312.369C296.166 312.272 295.986 312.137 295.839 311.964C295.692 311.79 295.581 311.585 295.504 311.349C295.431 311.109 295.394 310.845 295.394 310.559V307.299H296.629ZM302.697 304.999V312.429H301.462V304.999H302.697ZM332.058 312.429H331.018C330.902 312.429 330.805 312.4 330.728 312.344C330.655 312.284 330.602 312.21 330.568 312.124L330.028 310.649H327.033L326.493 312.124C326.467 312.2 326.413 312.27 326.333 312.334C326.257 312.397 326.162 312.429 326.048 312.429H325.003L327.843 305.199H329.218L332.058 312.429ZM327.378 309.699H329.683L328.803 307.294C328.763 307.187 328.718 307.062 328.668 306.919C328.622 306.772 328.575 306.614 328.528 306.444C328.482 306.614 328.435 306.772 328.388 306.919C328.345 307.065 328.302 307.194 328.258 307.304L327.378 309.699ZM334.063 307.299V310.559C334.063 310.872 334.135 311.115 334.278 311.289C334.425 311.459 334.643 311.544 334.933 311.544C335.146 311.544 335.346 311.497 335.533 311.404C335.72 311.307 335.896 311.175 336.063 311.009V307.299H337.298V312.429H336.543C336.383 312.429 336.278 312.354 336.228 312.204L336.143 311.794C336.036 311.9 335.926 311.999 335.813 312.089C335.7 312.175 335.578 312.25 335.448 312.314C335.321 312.374 335.183 312.42 335.033 312.454C334.886 312.49 334.728 312.509 334.558 312.509C334.278 312.509 334.03 312.462 333.813 312.369C333.6 312.272 333.42 312.137 333.273 311.964C333.126 311.79 333.015 311.585 332.938 311.349C332.865 311.109 332.828 310.845 332.828 310.559V307.299H334.063ZM340.591 307.209C340.811 307.209 341.018 307.232 341.211 307.279C341.405 307.322 341.581 307.387 341.741 307.474H343.216V307.934C343.216 308.01 343.196 308.07 343.156 308.114C343.116 308.157 343.048 308.187 342.951 308.204L342.491 308.289C342.525 308.375 342.55 308.467 342.566 308.564C342.586 308.66 342.596 308.762 342.596 308.869C342.596 309.122 342.545 309.352 342.441 309.559C342.341 309.762 342.201 309.935 342.021 310.079C341.845 310.222 341.633 310.334 341.386 310.414C341.143 310.49 340.878 310.529 340.591 310.529C340.398 310.529 340.21 310.51 340.026 310.474C339.866 310.57 339.786 310.679 339.786 310.799C339.786 310.902 339.833 310.979 339.926 311.029C340.023 311.075 340.148 311.109 340.301 311.129C340.458 311.149 340.635 311.162 340.831 311.169C341.028 311.172 341.23 311.182 341.436 311.199C341.643 311.215 341.845 311.245 342.041 311.289C342.238 311.329 342.413 311.394 342.566 311.484C342.723 311.574 342.848 311.697 342.941 311.854C343.038 312.007 343.086 312.205 343.086 312.449C343.086 312.675 343.03 312.895 342.916 313.109C342.806 313.322 342.645 313.512 342.431 313.679C342.221 313.845 341.963 313.979 341.656 314.079C341.35 314.182 341 314.234 340.606 314.234C340.216 314.234 339.878 314.195 339.591 314.119C339.305 314.045 339.066 313.945 338.876 313.819C338.69 313.695 338.55 313.552 338.456 313.389C338.363 313.225 338.316 313.055 338.316 312.879C338.316 312.639 338.39 312.437 338.536 312.274C338.683 312.11 338.886 311.98 339.146 311.884C339.02 311.814 338.918 311.72 338.841 311.604C338.765 311.487 338.726 311.335 338.726 311.149C338.726 311.072 338.74 310.994 338.766 310.914C338.793 310.83 338.833 310.749 338.886 310.669C338.943 310.589 339.013 310.514 339.096 310.444C339.18 310.37 339.278 310.305 339.391 310.249C339.131 310.109 338.926 309.922 338.776 309.689C338.63 309.455 338.556 309.182 338.556 308.869C338.556 308.615 338.606 308.387 338.706 308.184C338.81 307.977 338.951 307.802 339.131 307.659C339.315 307.512 339.53 307.4 339.776 307.324C340.026 307.247 340.298 307.209 340.591 307.209ZM341.946 312.659C341.946 312.559 341.916 312.477 341.856 312.414C341.796 312.35 341.715 312.302 341.611 312.269C341.508 312.232 341.386 312.205 341.246 312.189C341.11 312.172 340.963 312.16 340.806 312.154C340.653 312.144 340.493 312.135 340.326 312.129C340.163 312.119 340.005 312.104 339.851 312.084C339.711 312.16 339.598 312.252 339.511 312.359C339.428 312.462 339.386 312.582 339.386 312.719C339.386 312.809 339.408 312.892 339.451 312.969C339.498 313.049 339.57 313.117 339.666 313.174C339.766 313.23 339.895 313.274 340.051 313.304C340.208 313.337 340.4 313.354 340.626 313.354C340.856 313.354 341.055 313.335 341.221 313.299C341.388 313.265 341.525 313.217 341.631 313.154C341.741 313.094 341.821 313.02 341.871 312.934C341.921 312.85 341.946 312.759 341.946 312.659ZM340.591 309.739C340.745 309.739 340.878 309.719 340.991 309.679C341.105 309.635 341.198 309.577 341.271 309.504C341.348 309.43 341.405 309.342 341.441 309.239C341.481 309.135 341.501 309.022 341.501 308.899C341.501 308.645 341.425 308.445 341.271 308.299C341.121 308.149 340.895 308.074 340.591 308.074C340.288 308.074 340.06 308.149 339.906 308.299C339.756 308.445 339.681 308.645 339.681 308.899C339.681 309.019 339.7 309.13 339.736 309.234C339.776 309.337 339.833 309.427 339.906 309.504C339.983 309.577 340.078 309.635 340.191 309.679C340.308 309.719 340.441 309.739 340.591 309.739ZM369.473 306.514C369.436 306.587 369.393 306.639 369.343 306.669C369.296 306.699 369.24 306.714 369.173 306.714C369.106 306.714 369.031 306.689 368.948 306.639C368.865 306.585 368.766 306.527 368.653 306.464C368.54 306.4 368.406 306.344 368.253 306.294C368.103 306.24 367.925 306.214 367.718 306.214C367.531 306.214 367.368 306.237 367.228 306.284C367.091 306.327 366.975 306.389 366.878 306.469C366.785 306.549 366.715 306.645 366.668 306.759C366.621 306.869 366.598 306.99 366.598 307.124C366.598 307.294 366.645 307.435 366.738 307.549C366.835 307.662 366.961 307.759 367.118 307.839C367.275 307.919 367.453 307.99 367.653 308.054C367.853 308.117 368.056 308.185 368.263 308.259C368.473 308.329 368.678 308.412 368.878 308.509C369.078 308.602 369.256 308.722 369.413 308.869C369.57 309.012 369.695 309.189 369.788 309.399C369.885 309.609 369.933 309.864 369.933 310.164C369.933 310.49 369.876 310.797 369.763 311.084C369.653 311.367 369.49 311.615 369.273 311.829C369.06 312.039 368.798 312.205 368.488 312.329C368.178 312.449 367.823 312.509 367.423 312.509C367.193 312.509 366.966 312.485 366.743 312.439C366.52 312.395 366.305 312.332 366.098 312.249C365.895 312.165 365.703 312.065 365.523 311.949C365.346 311.832 365.188 311.702 365.048 311.559L365.438 310.914C365.475 310.867 365.518 310.829 365.568 310.799C365.621 310.765 365.68 310.749 365.743 310.749C365.826 310.749 365.916 310.784 366.013 310.854C366.11 310.92 366.223 310.995 366.353 311.079C366.486 311.162 366.641 311.239 366.818 311.309C366.998 311.375 367.213 311.409 367.463 311.409C367.846 311.409 368.143 311.319 368.353 311.139C368.563 310.955 368.668 310.694 368.668 310.354C368.668 310.164 368.62 310.009 368.523 309.889C368.43 309.769 368.305 309.669 368.148 309.589C367.991 309.505 367.813 309.435 367.613 309.379C367.413 309.322 367.21 309.26 367.003 309.194C366.796 309.127 366.593 309.047 366.393 308.954C366.193 308.86 366.015 308.739 365.858 308.589C365.701 308.439 365.575 308.252 365.478 308.029C365.385 307.802 365.338 307.524 365.338 307.194C365.338 306.93 365.39 306.674 365.493 306.424C365.6 306.174 365.753 305.952 365.953 305.759C366.156 305.565 366.405 305.41 366.698 305.294C366.991 305.177 367.326 305.119 367.703 305.119C368.13 305.119 368.523 305.185 368.883 305.319C369.243 305.452 369.55 305.639 369.803 305.879L369.473 306.514ZM373.21 307.219C373.533 307.219 373.83 307.27 374.1 307.374C374.373 307.477 374.608 307.629 374.805 307.829C375.001 308.025 375.155 308.269 375.265 308.559C375.375 308.845 375.43 309.174 375.43 309.544C375.43 309.637 375.425 309.715 375.415 309.779C375.408 309.839 375.393 309.887 375.37 309.924C375.35 309.957 375.321 309.982 375.285 309.999C375.248 310.012 375.201 310.019 375.145 310.019H371.975C372.011 310.545 372.153 310.932 372.4 311.179C372.646 311.425 372.973 311.549 373.38 311.549C373.58 311.549 373.751 311.525 373.895 311.479C374.041 311.432 374.168 311.38 374.275 311.324C374.385 311.267 374.48 311.215 374.56 311.169C374.643 311.122 374.723 311.099 374.8 311.099C374.85 311.099 374.893 311.109 374.93 311.129C374.966 311.149 374.998 311.177 375.025 311.214L375.385 311.664C375.248 311.824 375.095 311.959 374.925 312.069C374.755 312.175 374.576 312.262 374.39 312.329C374.206 312.392 374.018 312.437 373.825 312.464C373.635 312.49 373.45 312.504 373.27 312.504C372.913 312.504 372.581 312.445 372.275 312.329C371.968 312.209 371.701 312.034 371.475 311.804C371.248 311.57 371.07 311.284 370.94 310.944C370.81 310.6 370.745 310.204 370.745 309.754C370.745 309.404 370.801 309.075 370.915 308.769C371.028 308.459 371.19 308.19 371.4 307.964C371.613 307.734 371.871 307.552 372.175 307.419C372.481 307.285 372.826 307.219 373.21 307.219ZM373.235 308.104C372.875 308.104 372.593 308.205 372.39 308.409C372.186 308.612 372.056 308.9 372 309.274H374.32C374.32 309.114 374.298 308.964 374.255 308.824C374.211 308.68 374.145 308.555 374.055 308.449C373.965 308.342 373.851 308.259 373.715 308.199C373.578 308.135 373.418 308.104 373.235 308.104ZM376.631 314.104V307.299H377.386C377.466 307.299 377.535 307.317 377.591 307.354C377.648 307.39 377.685 307.447 377.701 307.524L377.801 307.999C378.008 307.762 378.245 307.57 378.511 307.424C378.781 307.277 379.096 307.204 379.456 307.204C379.736 307.204 379.991 307.262 380.221 307.379C380.455 307.495 380.655 307.665 380.821 307.889C380.991 308.109 381.121 308.382 381.211 308.709C381.305 309.032 381.351 309.404 381.351 309.824C381.351 310.207 381.3 310.562 381.196 310.889C381.093 311.215 380.945 311.499 380.751 311.739C380.561 311.979 380.33 312.167 380.056 312.304C379.786 312.437 379.483 312.504 379.146 312.504C378.856 312.504 378.61 312.46 378.406 312.374C378.206 312.284 378.026 312.16 377.866 312.004V314.104H376.631ZM379.031 308.179C378.775 308.179 378.555 308.234 378.371 308.344C378.191 308.45 378.023 308.602 377.866 308.799V311.099C378.006 311.272 378.158 311.394 378.321 311.464C378.488 311.53 378.666 311.564 378.856 311.564C379.043 311.564 379.211 311.529 379.361 311.459C379.515 311.389 379.643 311.282 379.746 311.139C379.853 310.995 379.935 310.815 379.991 310.599C380.048 310.379 380.076 310.12 380.076 309.824C380.076 309.524 380.051 309.27 380.001 309.064C379.955 308.854 379.886 308.684 379.796 308.554C379.706 308.424 379.596 308.329 379.466 308.269C379.34 308.209 379.195 308.179 379.031 308.179ZM408.693 308.814C408.693 309.344 408.605 309.835 408.428 310.289C408.251 310.739 408.003 311.129 407.683 311.459C407.363 311.789 406.978 312.047 406.528 312.234C406.078 312.417 405.58 312.509 405.033 312.509C404.486 312.509 403.986 312.417 403.533 312.234C403.083 312.047 402.696 311.789 402.373 311.459C402.053 311.129 401.805 310.739 401.628 310.289C401.451 309.835 401.363 309.344 401.363 308.814C401.363 308.284 401.451 307.794 401.628 307.344C401.805 306.89 402.053 306.499 402.373 306.169C402.696 305.839 403.083 305.582 403.533 305.399C403.986 305.212 404.486 305.119 405.033 305.119C405.58 305.119 406.078 305.212 406.528 305.399C406.978 305.585 407.363 305.844 407.683 306.174C408.003 306.5 408.251 306.89 408.428 307.344C408.605 307.794 408.693 308.284 408.693 308.814ZM407.313 308.814C407.313 308.417 407.26 308.062 407.153 307.749C407.05 307.432 406.9 307.164 406.703 306.944C406.506 306.724 406.266 306.555 405.983 306.439C405.703 306.322 405.386 306.264 405.033 306.264C404.68 306.264 404.361 306.322 404.078 306.439C403.795 306.555 403.553 306.724 403.353 306.944C403.156 307.164 403.005 307.432 402.898 307.749C402.791 308.062 402.738 308.417 402.738 308.814C402.738 309.21 402.791 309.567 402.898 309.884C403.005 310.197 403.156 310.464 403.353 310.684C403.553 310.9 403.795 311.067 404.078 311.184C404.361 311.3 404.68 311.359 405.033 311.359C405.386 311.359 405.703 311.3 405.983 311.184C406.266 311.067 406.506 310.9 406.703 310.684C406.9 310.464 407.05 310.197 407.153 309.884C407.26 309.567 407.313 309.21 407.313 308.814ZM413.491 308.384C413.454 308.43 413.418 308.467 413.381 308.494C413.348 308.52 413.298 308.534 413.231 308.534C413.168 308.534 413.106 308.515 413.046 308.479C412.986 308.439 412.914 308.395 412.831 308.349C412.748 308.299 412.648 308.255 412.531 308.219C412.418 308.179 412.276 308.159 412.106 308.159C411.889 308.159 411.699 308.199 411.536 308.279C411.373 308.355 411.236 308.467 411.126 308.614C411.019 308.76 410.939 308.939 410.886 309.149C410.833 309.355 410.806 309.59 410.806 309.854C410.806 310.127 410.834 310.37 410.891 310.584C410.951 310.797 411.036 310.977 411.146 311.124C411.256 311.267 411.389 311.377 411.546 311.454C411.703 311.527 411.879 311.564 412.076 311.564C412.273 311.564 412.431 311.54 412.551 311.494C412.674 311.444 412.778 311.39 412.861 311.334C412.944 311.274 413.016 311.22 413.076 311.174C413.139 311.124 413.209 311.099 413.286 311.099C413.386 311.099 413.461 311.137 413.511 311.214L413.866 311.664C413.729 311.824 413.581 311.959 413.421 312.069C413.261 312.175 413.094 312.262 412.921 312.329C412.751 312.392 412.574 312.437 412.391 312.464C412.208 312.49 412.026 312.504 411.846 312.504C411.529 312.504 411.231 312.445 410.951 312.329C410.671 312.209 410.426 312.035 410.216 311.809C410.009 311.582 409.844 311.305 409.721 310.979C409.601 310.649 409.541 310.274 409.541 309.854C409.541 309.477 409.594 309.129 409.701 308.809C409.811 308.485 409.971 308.207 410.181 307.974C410.391 307.737 410.651 307.552 410.961 307.419C411.271 307.285 411.628 307.219 412.031 307.219C412.414 307.219 412.749 307.28 413.036 307.404C413.326 307.527 413.586 307.704 413.816 307.934L413.491 308.384ZM416.537 312.509C416.093 312.509 415.752 312.384 415.512 312.134C415.272 311.88 415.152 311.532 415.152 311.089V308.224H414.632C414.565 308.224 414.507 308.202 414.457 308.159C414.41 308.115 414.387 308.05 414.387 307.964V307.474L415.212 307.339L415.472 305.939C415.485 305.872 415.515 305.82 415.562 305.784C415.612 305.747 415.673 305.729 415.747 305.729H416.387V307.344H417.737V308.224H416.387V311.004C416.387 311.164 416.427 311.289 416.507 311.379C416.587 311.469 416.693 311.514 416.827 311.514C416.903 311.514 416.967 311.505 417.017 311.489C417.07 311.469 417.115 311.449 417.152 311.429C417.192 311.409 417.227 311.39 417.257 311.374C417.287 311.354 417.317 311.344 417.347 311.344C417.383 311.344 417.413 311.354 417.437 311.374C417.46 311.39 417.485 311.417 417.512 311.454L417.882 312.054C417.702 312.204 417.495 312.317 417.262 312.394C417.028 312.47 416.787 312.509 416.537 312.509ZM443.163 305.199C443.223 305.199 443.273 305.202 443.313 305.209C443.353 305.212 443.388 305.222 443.418 305.239C443.452 305.252 443.483 305.274 443.513 305.304C443.543 305.33 443.577 305.367 443.613 305.414L447.408 310.249C447.395 310.132 447.385 310.019 447.378 309.909C447.375 309.795 447.373 309.69 447.373 309.594V305.199H448.558V312.429H447.863C447.757 312.429 447.668 312.412 447.598 312.379C447.528 312.345 447.46 312.285 447.393 312.199L443.613 307.384C443.623 307.49 443.63 307.597 443.633 307.704C443.64 307.807 443.643 307.902 443.643 307.989V312.429H442.458V305.199H443.163ZM452.337 307.219C452.72 307.219 453.067 307.28 453.377 307.404C453.69 307.527 453.957 307.702 454.177 307.929C454.397 308.155 454.567 308.432 454.687 308.759C454.807 309.085 454.867 309.45 454.867 309.854C454.867 310.26 454.807 310.627 454.687 310.954C454.567 311.28 454.397 311.559 454.177 311.789C453.957 312.019 453.69 312.195 453.377 312.319C453.067 312.442 452.72 312.504 452.337 312.504C451.954 312.504 451.605 312.442 451.292 312.319C450.979 312.195 450.71 312.019 450.487 311.789C450.267 311.559 450.095 311.28 449.972 310.954C449.852 310.627 449.792 310.26 449.792 309.854C449.792 309.45 449.852 309.085 449.972 308.759C450.095 308.432 450.267 308.155 450.487 307.929C450.71 307.702 450.979 307.527 451.292 307.404C451.605 307.28 451.954 307.219 452.337 307.219ZM452.337 311.554C452.764 311.554 453.079 311.41 453.282 311.124C453.489 310.837 453.592 310.417 453.592 309.864C453.592 309.31 453.489 308.889 453.282 308.599C453.079 308.309 452.764 308.164 452.337 308.164C451.904 308.164 451.584 308.31 451.377 308.604C451.17 308.894 451.067 309.314 451.067 309.864C451.067 310.414 451.17 310.834 451.377 311.124C451.584 311.41 451.904 311.554 452.337 311.554ZM458.434 312.429H457.314L455.274 307.299H456.299C456.389 307.299 456.464 307.32 456.524 307.364C456.588 307.407 456.631 307.462 456.654 307.529L457.644 310.269C457.701 310.429 457.748 310.585 457.784 310.739C457.824 310.892 457.859 311.045 457.889 311.199C457.919 311.045 457.953 310.892 457.989 310.739C458.029 310.585 458.079 310.429 458.139 310.269L459.154 307.529C459.178 307.462 459.219 307.407 459.279 307.364C459.339 307.32 459.411 307.299 459.494 307.299H460.469L458.434 312.429ZM489.222 308.814C489.222 309.344 489.134 309.83 488.957 310.274C488.781 310.717 488.532 311.099 488.212 311.419C487.892 311.739 487.507 311.987 487.057 312.164C486.607 312.34 486.109 312.429 485.562 312.429H482.802V305.199H485.562C486.109 305.199 486.607 305.289 487.057 305.469C487.507 305.645 487.892 305.894 488.212 306.214C488.532 306.53 488.781 306.91 488.957 307.354C489.134 307.797 489.222 308.284 489.222 308.814ZM487.847 308.814C487.847 308.417 487.794 308.062 487.687 307.749C487.581 307.432 487.429 307.165 487.232 306.949C487.036 306.729 486.796 306.56 486.512 306.444C486.232 306.327 485.916 306.269 485.562 306.269H484.157V311.359H485.562C485.916 311.359 486.232 311.3 486.512 311.184C486.796 311.067 487.036 310.9 487.232 310.684C487.429 310.464 487.581 310.197 487.687 309.884C487.794 309.567 487.847 309.21 487.847 308.814ZM492.523 307.219C492.846 307.219 493.143 307.27 493.413 307.374C493.686 307.477 493.921 307.629 494.118 307.829C494.315 308.025 494.468 308.269 494.578 308.559C494.688 308.845 494.743 309.174 494.743 309.544C494.743 309.637 494.738 309.715 494.728 309.779C494.721 309.839 494.706 309.887 494.683 309.924C494.663 309.957 494.635 309.982 494.598 309.999C494.561 310.012 494.515 310.019 494.458 310.019H491.288C491.325 310.545 491.466 310.932 491.713 311.179C491.96 311.425 492.286 311.549 492.693 311.549C492.893 311.549 493.065 311.525 493.208 311.479C493.355 311.432 493.481 311.38 493.588 311.324C493.698 311.267 493.793 311.215 493.873 311.169C493.956 311.122 494.036 311.099 494.113 311.099C494.163 311.099 494.206 311.109 494.243 311.129C494.28 311.149 494.311 311.177 494.338 311.214L494.698 311.664C494.561 311.824 494.408 311.959 494.238 312.069C494.068 312.175 493.89 312.262 493.703 312.329C493.52 312.392 493.331 312.437 493.138 312.464C492.948 312.49 492.763 312.504 492.583 312.504C492.226 312.504 491.895 312.445 491.588 312.329C491.281 312.209 491.015 312.034 490.788 311.804C490.561 311.57 490.383 311.284 490.253 310.944C490.123 310.6 490.058 310.204 490.058 309.754C490.058 309.404 490.115 309.075 490.228 308.769C490.341 308.459 490.503 308.19 490.713 307.964C490.926 307.734 491.185 307.552 491.488 307.419C491.795 307.285 492.14 307.219 492.523 307.219ZM492.548 308.104C492.188 308.104 491.906 308.205 491.703 308.409C491.5 308.612 491.37 308.9 491.313 309.274H493.633C493.633 309.114 493.611 308.964 493.568 308.824C493.525 308.68 493.458 308.555 493.368 308.449C493.278 308.342 493.165 308.259 493.028 308.199C492.891 308.135 492.731 308.104 492.548 308.104ZM499.55 308.384C499.513 308.43 499.477 308.467 499.44 308.494C499.407 308.52 499.357 308.534 499.29 308.534C499.227 308.534 499.165 308.515 499.105 308.479C499.045 308.439 498.973 308.395 498.89 308.349C498.807 308.299 498.707 308.255 498.59 308.219C498.477 308.179 498.335 308.159 498.165 308.159C497.948 308.159 497.758 308.199 497.595 308.279C497.432 308.355 497.295 308.467 497.185 308.614C497.078 308.76 496.998 308.939 496.945 309.149C496.892 309.355 496.865 309.59 496.865 309.854C496.865 310.127 496.893 310.37 496.95 310.584C497.01 310.797 497.095 310.977 497.205 311.124C497.315 311.267 497.448 311.377 497.605 311.454C497.762 311.527 497.938 311.564 498.135 311.564C498.332 311.564 498.49 311.54 498.61 311.494C498.733 311.444 498.837 311.39 498.92 311.334C499.003 311.274 499.075 311.22 499.135 311.174C499.198 311.124 499.268 311.099 499.345 311.099C499.445 311.099 499.52 311.137 499.57 311.214L499.925 311.664C499.788 311.824 499.64 311.959 499.48 312.069C499.32 312.175 499.153 312.262 498.98 312.329C498.81 312.392 498.633 312.437 498.45 312.464C498.267 312.49 498.085 312.504 497.905 312.504C497.588 312.504 497.29 312.445 497.01 312.329C496.73 312.209 496.485 312.035 496.275 311.809C496.068 311.582 495.903 311.305 495.78 310.979C495.66 310.649 495.6 310.274 495.6 309.854C495.6 309.477 495.653 309.129 495.76 308.809C495.87 308.485 496.03 308.207 496.24 307.974C496.45 307.737 496.71 307.552 497.02 307.419C497.33 307.285 497.687 307.219 498.09 307.219C498.473 307.219 498.808 307.28 499.095 307.404C499.385 307.527 499.645 307.704 499.875 307.934L499.55 308.384Z" fill="#CACCCF"/>
</g>
<path d="M5.32266 58.69C5.65599 58.69 5.95599 58.7383 6.22266 58.835C6.49266 58.9283 6.72266 59.06 6.91266 59.23C7.10266 59.3967 7.24766 59.5933 7.34766 59.82C7.45099 60.0467 7.50266 60.2917 7.50266 60.555C7.50266 60.785 7.47599 60.9883 7.42266 61.165C7.37266 61.3383 7.29766 61.49 7.19766 61.62C7.10099 61.75 6.98099 61.86 6.83766 61.95C6.69766 62.04 6.53766 62.115 6.35766 62.175C6.79099 62.3117 7.11432 62.52 7.32766 62.8C7.54099 63.08 7.64766 63.4317 7.64766 63.855C7.64766 64.215 7.58099 64.5333 7.44766 64.81C7.31432 65.0867 7.13432 65.32 6.90766 65.51C6.68099 65.6967 6.41766 65.8383 6.11766 65.935C5.82099 66.0317 5.50599 66.08 5.17266 66.08C4.80932 66.08 4.49266 66.0383 4.22266 65.955C3.95266 65.8717 3.71766 65.7483 3.51766 65.585C3.31766 65.4217 3.14766 65.2217 3.00766 64.985C2.86766 64.7483 2.74766 64.475 2.64766 64.165L3.19266 63.94C3.28599 63.9 3.38099 63.88 3.47766 63.88C3.56432 63.88 3.64099 63.8983 3.70766 63.935C3.77766 63.9717 3.83099 64.025 3.86766 64.095C3.92766 64.2117 3.99266 64.3267 4.06266 64.44C4.13599 64.5533 4.22266 64.655 4.32266 64.745C4.42266 64.8317 4.53932 64.9033 4.67266 64.96C4.80932 65.0133 4.97099 65.04 5.15766 65.04C5.36766 65.04 5.55099 65.0067 5.70766 64.94C5.86432 64.87 5.99432 64.78 6.09766 64.67C6.20432 64.56 6.28266 64.4383 6.33266 64.305C6.38599 64.1683 6.41266 64.0317 6.41266 63.895C6.41266 63.7217 6.39432 63.565 6.35766 63.425C6.32099 63.2817 6.24432 63.16 6.12766 63.06C6.01099 62.96 5.84266 62.8817 5.62266 62.825C5.40599 62.7683 5.11432 62.74 4.74766 62.74V61.86C5.05099 61.8567 5.30266 61.8283 5.50266 61.775C5.70266 61.7217 5.86099 61.6483 5.97766 61.555C6.09766 61.4583 6.18099 61.3433 6.22766 61.21C6.27432 61.0767 6.29766 60.93 6.29766 60.77C6.29766 60.4267 6.20432 60.1683 6.01766 59.995C5.83099 59.8183 5.57599 59.73 5.25266 59.73C4.95932 59.73 4.71599 59.8083 4.52266 59.965C4.32932 60.1183 4.19432 60.3167 4.11766 60.56C4.07766 60.6867 4.02266 60.7783 3.95266 60.835C3.88266 60.8883 3.79099 60.915 3.67766 60.915C3.62432 60.915 3.56766 60.91 3.50766 60.9L2.85766 60.785C2.90766 60.4383 3.00432 60.135 3.14766 59.875C3.29099 59.6117 3.46932 59.3933 3.68266 59.22C3.89932 59.0433 4.14599 58.9117 4.42266 58.825C4.70266 58.735 5.00266 58.69 5.32266 58.69ZM13.7484 62.385C13.7484 63.015 13.6801 63.5633 13.5434 64.03C13.4101 64.4933 13.2234 64.8767 12.9834 65.18C12.7468 65.4833 12.4651 65.71 12.1384 65.86C11.8151 66.0067 11.4651 66.08 11.0884 66.08C10.7118 66.08 10.3618 66.0067 10.0384 65.86C9.71844 65.71 9.4401 65.4833 9.20344 65.18C8.96677 64.8767 8.78177 64.4933 8.64844 64.03C8.5151 63.5633 8.44844 63.015 8.44844 62.385C8.44844 61.7517 8.5151 61.2033 8.64844 60.74C8.78177 60.2767 8.96677 59.8933 9.20344 59.59C9.4401 59.2867 9.71844 59.0617 10.0384 58.915C10.3618 58.765 10.7118 58.69 11.0884 58.69C11.4651 58.69 11.8151 58.765 12.1384 58.915C12.4651 59.0617 12.7468 59.2867 12.9834 59.59C13.2234 59.8933 13.4101 60.2767 13.5434 60.74C13.6801 61.2033 13.7484 61.7517 13.7484 62.385ZM12.4734 62.385C12.4734 61.8617 12.4351 61.4283 12.3584 61.085C12.2818 60.7417 12.1784 60.4683 12.0484 60.265C11.9218 60.0617 11.7751 59.92 11.6084 59.84C11.4418 59.7567 11.2684 59.715 11.0884 59.715C10.9118 59.715 10.7401 59.7567 10.5734 59.84C10.4101 59.92 10.2651 60.0617 10.1384 60.265C10.0118 60.4683 9.9101 60.7417 9.83344 61.085C9.7601 61.4283 9.72344 61.8617 9.72344 62.385C9.72344 62.9083 9.7601 63.3417 9.83344 63.685C9.9101 64.0283 10.0118 64.3017 10.1384 64.505C10.2651 64.7083 10.4101 64.8517 10.5734 64.935C10.7401 65.015 10.9118 65.055 11.0884 65.055C11.2684 65.055 11.4418 65.015 11.6084 64.935C11.7751 64.8517 11.9218 64.7083 12.0484 64.505C12.1784 64.3017 12.2818 64.0283 12.3584 63.685C12.4351 63.3417 12.4734 62.9083 12.4734 62.385ZM19.7492 62.385C19.7492 63.015 19.6809 63.5633 19.5442 64.03C19.4109 64.4933 19.2242 64.8767 18.9842 65.18C18.7476 65.4833 18.4659 65.71 18.1392 65.86C17.8159 66.0067 17.4659 66.08 17.0892 66.08C16.7126 66.08 16.3626 66.0067 16.0392 65.86C15.7192 65.71 15.4409 65.4833 15.2042 65.18C14.9676 64.8767 14.7826 64.4933 14.6492 64.03C14.5159 63.5633 14.4492 63.015 14.4492 62.385C14.4492 61.7517 14.5159 61.2033 14.6492 60.74C14.7826 60.2767 14.9676 59.8933 15.2042 59.59C15.4409 59.2867 15.7192 59.0617 16.0392 58.915C16.3626 58.765 16.7126 58.69 17.0892 58.69C17.4659 58.69 17.8159 58.765 18.1392 58.915C18.4659 59.0617 18.7476 59.2867 18.9842 59.59C19.2242 59.8933 19.4109 60.2767 19.5442 60.74C19.6809 61.2033 19.7492 61.7517 19.7492 62.385ZM18.4742 62.385C18.4742 61.8617 18.4359 61.4283 18.3592 61.085C18.2826 60.7417 18.1792 60.4683 18.0492 60.265C17.9226 60.0617 17.7759 59.92 17.6092 59.84C17.4426 59.7567 17.2692 59.715 17.0892 59.715C16.9126 59.715 16.7409 59.7567 16.5742 59.84C16.4109 59.92 16.2659 60.0617 16.1392 60.265C16.0126 60.4683 15.9109 60.7417 15.8342 61.085C15.7609 61.4283 15.7242 61.8617 15.7242 62.385C15.7242 62.9083 15.7609 63.3417 15.8342 63.685C15.9109 64.0283 16.0126 64.3017 16.1392 64.505C16.2659 64.7083 16.4109 64.8517 16.5742 64.935C16.7409 65.015 16.9126 65.055 17.0892 65.055C17.2692 65.055 17.4426 65.015 17.6092 64.935C17.7759 64.8517 17.9226 64.7083 18.0492 64.505C18.1792 64.3017 18.2826 64.0283 18.3592 63.685C18.4359 63.3417 18.4742 62.9083 18.4742 62.385Z" fill="#CACCCF"/>
<path d="M5.20766 98.69C5.54099 98.69 5.84599 98.74 6.12266 98.84C6.39932 98.9367 6.63599 99.075 6.83266 99.255C7.02932 99.435 7.18266 99.6517 7.29266 99.905C7.40266 100.158 7.45766 100.44 7.45766 100.75C7.45766 101.017 7.41766 101.263 7.33766 101.49C7.26099 101.717 7.15599 101.933 7.02266 102.14C6.89266 102.347 6.73932 102.547 6.56266 102.74C6.38599 102.933 6.20099 103.13 6.00766 103.33L4.37766 104.995C4.53766 104.948 4.69432 104.913 4.84766 104.89C5.00099 104.863 5.14766 104.85 5.28766 104.85H7.14266C7.27599 104.85 7.38099 104.888 7.45766 104.965C7.53766 105.038 7.57766 105.137 7.57766 105.26V106H2.61766V105.59C2.61766 105.507 2.63432 105.42 2.66766 105.33C2.70432 105.24 2.76099 105.157 2.83766 105.08L5.03266 102.88C5.21599 102.693 5.37932 102.515 5.52266 102.345C5.66932 102.175 5.79099 102.007 5.88766 101.84C5.98766 101.673 6.06266 101.505 6.11266 101.335C6.16599 101.162 6.19266 100.98 6.19266 100.79C6.19266 100.617 6.16766 100.465 6.11766 100.335C6.06766 100.202 5.99599 100.09 5.90266 100C5.80932 99.91 5.69766 99.8433 5.56766 99.8C5.44099 99.7533 5.29766 99.73 5.13766 99.73C4.84099 99.73 4.59599 99.805 4.40266 99.955C4.21266 100.105 4.07932 100.307 4.00266 100.56C3.96599 100.687 3.91099 100.778 3.83766 100.835C3.76432 100.888 3.67099 100.915 3.55766 100.915C3.50766 100.915 3.45266 100.91 3.39266 100.9L2.74266 100.785C2.79266 100.438 2.88932 100.135 3.03266 99.875C3.17599 99.6117 3.35432 99.3933 3.56766 99.22C3.78432 99.0433 4.03099 98.9117 4.30766 98.825C4.58766 98.735 4.88766 98.69 5.20766 98.69ZM13.1434 99.295C13.1434 99.4717 13.0868 99.615 12.9734 99.725C12.8634 99.835 12.6784 99.89 12.4184 99.89H10.4284L10.1684 101.4C10.4951 101.333 10.7934 101.3 11.0634 101.3C11.4434 101.3 11.7768 101.357 12.0634 101.47C12.3534 101.583 12.5968 101.74 12.7934 101.94C12.9901 102.14 13.1384 102.375 13.2384 102.645C13.3384 102.912 13.3884 103.2 13.3884 103.51C13.3884 103.893 13.3201 104.243 13.1834 104.56C13.0501 104.877 12.8634 105.148 12.6234 105.375C12.3834 105.598 12.0984 105.772 11.7684 105.895C11.4418 106.018 11.0851 106.08 10.6984 106.08C10.4718 106.08 10.2568 106.057 10.0534 106.01C9.8501 105.963 9.65844 105.902 9.47844 105.825C9.30177 105.745 9.13677 105.655 8.98344 105.555C8.83344 105.452 8.69844 105.343 8.57844 105.23L8.95844 104.705C9.03844 104.592 9.1451 104.535 9.27844 104.535C9.36177 104.535 9.4451 104.562 9.52844 104.615C9.6151 104.668 9.7151 104.727 9.82844 104.79C9.94177 104.853 10.0734 104.912 10.2234 104.965C10.3734 105.018 10.5551 105.045 10.7684 105.045C10.9951 105.045 11.1951 105.008 11.3684 104.935C11.5418 104.862 11.6851 104.76 11.7984 104.63C11.9151 104.497 12.0018 104.34 12.0584 104.16C12.1184 103.977 12.1484 103.778 12.1484 103.565C12.1484 103.172 12.0334 102.865 11.8034 102.645C11.5768 102.422 11.2418 102.31 10.7984 102.31C10.4484 102.31 10.0968 102.373 9.74344 102.5L8.97344 102.28L9.57344 98.77H13.1434V99.295ZM19.7492 102.385C19.7492 103.015 19.6809 103.563 19.5442 104.03C19.4109 104.493 19.2242 104.877 18.9842 105.18C18.7476 105.483 18.4659 105.71 18.1392 105.86C17.8159 106.007 17.4659 106.08 17.0892 106.08C16.7126 106.08 16.3626 106.007 16.0392 105.86C15.7192 105.71 15.4409 105.483 15.2042 105.18C14.9676 104.877 14.7826 104.493 14.6492 104.03C14.5159 103.563 14.4492 103.015 14.4492 102.385C14.4492 101.752 14.5159 101.203 14.6492 100.74C14.7826 100.277 14.9676 99.8933 15.2042 99.59C15.4409 99.2867 15.7192 99.0617 16.0392 98.915C16.3626 98.765 16.7126 98.69 17.0892 98.69C17.4659 98.69 17.8159 98.765 18.1392 98.915C18.4659 99.0617 18.7476 99.2867 18.9842 99.59C19.2242 99.8933 19.4109 100.277 19.5442 100.74C19.6809 101.203 19.7492 101.752 19.7492 102.385ZM18.4742 102.385C18.4742 101.862 18.4359 101.428 18.3592 101.085C18.2826 100.742 18.1792 100.468 18.0492 100.265C17.9226 100.062 17.7759 99.92 17.6092 99.84C17.4426 99.7567 17.2692 99.715 17.0892 99.715C16.9126 99.715 16.7409 99.7567 16.5742 99.84C16.4109 99.92 16.2659 100.062 16.1392 100.265C16.0126 100.468 15.9109 100.742 15.8342 101.085C15.7609 101.428 15.7242 101.862 15.7242 102.385C15.7242 102.908 15.7609 103.342 15.8342 103.685C15.9109 104.028 16.0126 104.302 16.1392 104.505C16.2659 104.708 16.4109 104.852 16.5742 104.935C16.7409 105.015 16.9126 105.055 17.0892 105.055C17.2692 105.055 17.4426 105.015 17.6092 104.935C17.7759 104.852 17.9226 104.708 18.0492 104.505C18.1792 104.302 18.2826 104.028 18.3592 103.685C18.4359 103.342 18.4742 102.908 18.4742 102.385Z" fill="#CACCCF"/>
<path d="M5.20766 138.69C5.54099 138.69 5.84599 138.74 6.12266 138.84C6.39932 138.937 6.63599 139.075 6.83266 139.255C7.02932 139.435 7.18266 139.652 7.29266 139.905C7.40266 140.158 7.45766 140.44 7.45766 140.75C7.45766 141.017 7.41766 141.263 7.33766 141.49C7.26099 141.717 7.15599 141.933 7.02266 142.14C6.89266 142.347 6.73932 142.547 6.56266 142.74C6.38599 142.933 6.20099 143.13 6.00766 143.33L4.37766 144.995C4.53766 144.948 4.69432 144.913 4.84766 144.89C5.00099 144.863 5.14766 144.85 5.28766 144.85H7.14266C7.27599 144.85 7.38099 144.888 7.45766 144.965C7.53766 145.038 7.57766 145.137 7.57766 145.26V146H2.61766V145.59C2.61766 145.507 2.63432 145.42 2.66766 145.33C2.70432 145.24 2.76099 145.157 2.83766 145.08L5.03266 142.88C5.21599 142.693 5.37932 142.515 5.52266 142.345C5.66932 142.175 5.79099 142.007 5.88766 141.84C5.98766 141.673 6.06266 141.505 6.11266 141.335C6.16599 141.162 6.19266 140.98 6.19266 140.79C6.19266 140.617 6.16766 140.465 6.11766 140.335C6.06766 140.202 5.99599 140.09 5.90266 140C5.80932 139.91 5.69766 139.843 5.56766 139.8C5.44099 139.753 5.29766 139.73 5.13766 139.73C4.84099 139.73 4.59599 139.805 4.40266 139.955C4.21266 140.105 4.07932 140.307 4.00266 140.56C3.96599 140.687 3.91099 140.778 3.83766 140.835C3.76432 140.888 3.67099 140.915 3.55766 140.915C3.50766 140.915 3.45266 140.91 3.39266 140.9L2.74266 140.785C2.79266 140.438 2.88932 140.135 3.03266 139.875C3.17599 139.612 3.35432 139.393 3.56766 139.22C3.78432 139.043 4.03099 138.912 4.30766 138.825C4.58766 138.735 4.88766 138.69 5.20766 138.69ZM13.7484 142.385C13.7484 143.015 13.6801 143.563 13.5434 144.03C13.4101 144.493 13.2234 144.877 12.9834 145.18C12.7468 145.483 12.4651 145.71 12.1384 145.86C11.8151 146.007 11.4651 146.08 11.0884 146.08C10.7118 146.08 10.3618 146.007 10.0384 145.86C9.71844 145.71 9.4401 145.483 9.20344 145.18C8.96677 144.877 8.78177 144.493 8.64844 144.03C8.5151 143.563 8.44844 143.015 8.44844 142.385C8.44844 141.752 8.5151 141.203 8.64844 140.74C8.78177 140.277 8.96677 139.893 9.20344 139.59C9.4401 139.287 9.71844 139.062 10.0384 138.915C10.3618 138.765 10.7118 138.69 11.0884 138.69C11.4651 138.69 11.8151 138.765 12.1384 138.915C12.4651 139.062 12.7468 139.287 12.9834 139.59C13.2234 139.893 13.4101 140.277 13.5434 140.74C13.6801 141.203 13.7484 141.752 13.7484 142.385ZM12.4734 142.385C12.4734 141.862 12.4351 141.428 12.3584 141.085C12.2818 140.742 12.1784 140.468 12.0484 140.265C11.9218 140.062 11.7751 139.92 11.6084 139.84C11.4418 139.757 11.2684 139.715 11.0884 139.715C10.9118 139.715 10.7401 139.757 10.5734 139.84C10.4101 139.92 10.2651 140.062 10.1384 140.265C10.0118 140.468 9.9101 140.742 9.83344 141.085C9.7601 141.428 9.72344 141.862 9.72344 142.385C9.72344 142.908 9.7601 143.342 9.83344 143.685C9.9101 144.028 10.0118 144.302 10.1384 144.505C10.2651 144.708 10.4101 144.852 10.5734 144.935C10.7401 145.015 10.9118 145.055 11.0884 145.055C11.2684 145.055 11.4418 145.015 11.6084 144.935C11.7751 144.852 11.9218 144.708 12.0484 144.505C12.1784 144.302 12.2818 144.028 12.3584 143.685C12.4351 143.342 12.4734 142.908 12.4734 142.385ZM19.7492 142.385C19.7492 143.015 19.6809 143.563 19.5442 144.03C19.4109 144.493 19.2242 144.877 18.9842 145.18C18.7476 145.483 18.4659 145.71 18.1392 145.86C17.8159 146.007 17.4659 146.08 17.0892 146.08C16.7126 146.08 16.3626 146.007 16.0392 145.86C15.7192 145.71 15.4409 145.483 15.2042 145.18C14.9676 144.877 14.7826 144.493 14.6492 144.03C14.5159 143.563 14.4492 143.015 14.4492 142.385C14.4492 141.752 14.5159 141.203 14.6492 140.74C14.7826 140.277 14.9676 139.893 15.2042 139.59C15.4409 139.287 15.7192 139.062 16.0392 138.915C16.3626 138.765 16.7126 138.69 17.0892 138.69C17.4659 138.69 17.8159 138.765 18.1392 138.915C18.4659 139.062 18.7476 139.287 18.9842 139.59C19.2242 139.893 19.4109 140.277 19.5442 140.74C19.6809 141.203 19.7492 141.752 19.7492 142.385ZM18.4742 142.385C18.4742 141.862 18.4359 141.428 18.3592 141.085C18.2826 140.742 18.1792 140.468 18.0492 140.265C17.9226 140.062 17.7759 139.92 17.6092 139.84C17.4426 139.757 17.2692 139.715 17.0892 139.715C16.9126 139.715 16.7409 139.757 16.5742 139.84C16.4109 139.92 16.2659 140.062 16.1392 140.265C16.0126 140.468 15.9109 140.742 15.8342 141.085C15.7609 141.428 15.7242 141.862 15.7242 142.385C15.7242 142.908 15.7609 143.342 15.8342 143.685C15.9109 144.028 16.0126 144.302 16.1392 144.505C16.2659 144.708 16.4109 144.852 16.5742 144.935C16.7409 145.015 16.9126 145.055 17.0892 145.055C17.2692 145.055 17.4426 145.015 17.6092 144.935C17.7759 144.852 17.9226 144.708 18.0492 144.505C18.1792 144.302 18.2826 144.028 18.3592 143.685C18.4359 143.342 18.4742 142.908 18.4742 142.385Z" fill="#CACCCF"/>
<path d="M3.54266 185.075H5.00766V180.86C5.00766 180.697 5.01266 180.525 5.02266 180.345L3.98266 181.215C3.93932 181.252 3.89432 181.277 3.84766 181.29C3.80432 181.303 3.76099 181.31 3.71766 181.31C3.65099 181.31 3.58932 181.297 3.53266 181.27C3.47932 181.24 3.43932 181.207 3.41266 181.17L3.02266 180.635L5.22766 178.76H6.24266V185.075H7.54266V186H3.54266V185.075ZM13.1434 179.295C13.1434 179.472 13.0868 179.615 12.9734 179.725C12.8634 179.835 12.6784 179.89 12.4184 179.89H10.4284L10.1684 181.4C10.4951 181.333 10.7934 181.3 11.0634 181.3C11.4434 181.3 11.7768 181.357 12.0634 181.47C12.3534 181.583 12.5968 181.74 12.7934 181.94C12.9901 182.14 13.1384 182.375 13.2384 182.645C13.3384 182.912 13.3884 183.2 13.3884 183.51C13.3884 183.893 13.3201 184.243 13.1834 184.56C13.0501 184.877 12.8634 185.148 12.6234 185.375C12.3834 185.598 12.0984 185.772 11.7684 185.895C11.4418 186.018 11.0851 186.08 10.6984 186.08C10.4718 186.08 10.2568 186.057 10.0534 186.01C9.8501 185.963 9.65844 185.902 9.47844 185.825C9.30177 185.745 9.13677 185.655 8.98344 185.555C8.83344 185.452 8.69844 185.343 8.57844 185.23L8.95844 184.705C9.03844 184.592 9.1451 184.535 9.27844 184.535C9.36177 184.535 9.4451 184.562 9.52844 184.615C9.6151 184.668 9.7151 184.727 9.82844 184.79C9.94177 184.853 10.0734 184.912 10.2234 184.965C10.3734 185.018 10.5551 185.045 10.7684 185.045C10.9951 185.045 11.1951 185.008 11.3684 184.935C11.5418 184.862 11.6851 184.76 11.7984 184.63C11.9151 184.497 12.0018 184.34 12.0584 184.16C12.1184 183.977 12.1484 183.778 12.1484 183.565C12.1484 183.172 12.0334 182.865 11.8034 182.645C11.5768 182.422 11.2418 182.31 10.7984 182.31C10.4484 182.31 10.0968 182.373 9.74344 182.5L8.97344 182.28L9.57344 178.77H13.1434V179.295ZM19.7492 182.385C19.7492 183.015 19.6809 183.563 19.5442 184.03C19.4109 184.493 19.2242 184.877 18.9842 185.18C18.7476 185.483 18.4659 185.71 18.1392 185.86C17.8159 186.007 17.4659 186.08 17.0892 186.08C16.7126 186.08 16.3626 186.007 16.0392 185.86C15.7192 185.71 15.4409 185.483 15.2042 185.18C14.9676 184.877 14.7826 184.493 14.6492 184.03C14.5159 183.563 14.4492 183.015 14.4492 182.385C14.4492 181.752 14.5159 181.203 14.6492 180.74C14.7826 180.277 14.9676 179.893 15.2042 179.59C15.4409 179.287 15.7192 179.062 16.0392 178.915C16.3626 178.765 16.7126 178.69 17.0892 178.69C17.4659 178.69 17.8159 178.765 18.1392 178.915C18.4659 179.062 18.7476 179.287 18.9842 179.59C19.2242 179.893 19.4109 180.277 19.5442 180.74C19.6809 181.203 19.7492 181.752 19.7492 182.385ZM18.4742 182.385C18.4742 181.862 18.4359 181.428 18.3592 181.085C18.2826 180.742 18.1792 180.468 18.0492 180.265C17.9226 180.062 17.7759 179.92 17.6092 179.84C17.4426 179.757 17.2692 179.715 17.0892 179.715C16.9126 179.715 16.7409 179.757 16.5742 179.84C16.4109 179.92 16.2659 180.062 16.1392 180.265C16.0126 180.468 15.9109 180.742 15.8342 181.085C15.7609 181.428 15.7242 181.862 15.7242 182.385C15.7242 182.908 15.7609 183.342 15.8342 183.685C15.9109 184.028 16.0126 184.302 16.1392 184.505C16.2659 184.708 16.4109 184.852 16.5742 184.935C16.7409 185.015 16.9126 185.055 17.0892 185.055C17.2692 185.055 17.4426 185.015 17.6092 184.935C17.7759 184.852 17.9226 184.708 18.0492 184.505C18.1792 184.302 18.2826 184.028 18.3592 183.685C18.4359 183.342 18.4742 182.908 18.4742 182.385Z" fill="#CACCCF"/>
<path d="M3.54266 225.075H5.00766V220.86C5.00766 220.697 5.01266 220.525 5.02266 220.345L3.98266 221.215C3.93932 221.252 3.89432 221.277 3.84766 221.29C3.80432 221.303 3.76099 221.31 3.71766 221.31C3.65099 221.31 3.58932 221.297 3.53266 221.27C3.47932 221.24 3.43932 221.207 3.41266 221.17L3.02266 220.635L5.22766 218.76H6.24266V225.075H7.54266V226H3.54266V225.075ZM13.7484 222.385C13.7484 223.015 13.6801 223.563 13.5434 224.03C13.4101 224.493 13.2234 224.877 12.9834 225.18C12.7468 225.483 12.4651 225.71 12.1384 225.86C11.8151 226.007 11.4651 226.08 11.0884 226.08C10.7118 226.08 10.3618 226.007 10.0384 225.86C9.71844 225.71 9.4401 225.483 9.20344 225.18C8.96677 224.877 8.78177 224.493 8.64844 224.03C8.5151 223.563 8.44844 223.015 8.44844 222.385C8.44844 221.752 8.5151 221.203 8.64844 220.74C8.78177 220.277 8.96677 219.893 9.20344 219.59C9.4401 219.287 9.71844 219.062 10.0384 218.915C10.3618 218.765 10.7118 218.69 11.0884 218.69C11.4651 218.69 11.8151 218.765 12.1384 218.915C12.4651 219.062 12.7468 219.287 12.9834 219.59C13.2234 219.893 13.4101 220.277 13.5434 220.74C13.6801 221.203 13.7484 221.752 13.7484 222.385ZM12.4734 222.385C12.4734 221.862 12.4351 221.428 12.3584 221.085C12.2818 220.742 12.1784 220.468 12.0484 220.265C11.9218 220.062 11.7751 219.92 11.6084 219.84C11.4418 219.757 11.2684 219.715 11.0884 219.715C10.9118 219.715 10.7401 219.757 10.5734 219.84C10.4101 219.92 10.2651 220.062 10.1384 220.265C10.0118 220.468 9.9101 220.742 9.83344 221.085C9.7601 221.428 9.72344 221.862 9.72344 222.385C9.72344 222.908 9.7601 223.342 9.83344 223.685C9.9101 224.028 10.0118 224.302 10.1384 224.505C10.2651 224.708 10.4101 224.852 10.5734 224.935C10.7401 225.015 10.9118 225.055 11.0884 225.055C11.2684 225.055 11.4418 225.015 11.6084 224.935C11.7751 224.852 11.9218 224.708 12.0484 224.505C12.1784 224.302 12.2818 224.028 12.3584 223.685C12.4351 223.342 12.4734 222.908 12.4734 222.385ZM19.7492 222.385C19.7492 223.015 19.6809 223.563 19.5442 224.03C19.4109 224.493 19.2242 224.877 18.9842 225.18C18.7476 225.483 18.4659 225.71 18.1392 225.86C17.8159 226.007 17.4659 226.08 17.0892 226.08C16.7126 226.08 16.3626 226.007 16.0392 225.86C15.7192 225.71 15.4409 225.483 15.2042 225.18C14.9676 224.877 14.7826 224.493 14.6492 224.03C14.5159 223.563 14.4492 223.015 14.4492 222.385C14.4492 221.752 14.5159 221.203 14.6492 220.74C14.7826 220.277 14.9676 219.893 15.2042 219.59C15.4409 219.287 15.7192 219.062 16.0392 218.915C16.3626 218.765 16.7126 218.69 17.0892 218.69C17.4659 218.69 17.8159 218.765 18.1392 218.915C18.4659 219.062 18.7476 219.287 18.9842 219.59C19.2242 219.893 19.4109 220.277 19.5442 220.74C19.6809 221.203 19.7492 221.752 19.7492 222.385ZM18.4742 222.385C18.4742 221.862 18.4359 221.428 18.3592 221.085C18.2826 220.742 18.1792 220.468 18.0492 220.265C17.9226 220.062 17.7759 219.92 17.6092 219.84C17.4426 219.757 17.2692 219.715 17.0892 219.715C16.9126 219.715 16.7409 219.757 16.5742 219.84C16.4109 219.92 16.2659 220.062 16.1392 220.265C16.0126 220.468 15.9109 220.742 15.8342 221.085C15.7609 221.428 15.7242 221.862 15.7242 222.385C15.7242 222.908 15.7609 223.342 15.8342 223.685C15.9109 224.028 16.0126 224.302 16.1392 224.505C16.2659 224.708 16.4109 224.852 16.5742 224.935C16.7409 225.015 16.9126 225.055 17.0892 225.055C17.2692 225.055 17.4426 225.015 17.6092 224.935C17.7759 224.852 17.9226 224.708 18.0492 224.505C18.1792 224.302 18.2826 224.028 18.3592 223.685C18.4359 223.342 18.4742 222.908 18.4742 222.385Z" fill="#CACCCF"/>
<path d="M13.1434 259.295C13.1434 259.472 13.0868 259.615 12.9734 259.725C12.8634 259.835 12.6784 259.89 12.4184 259.89H10.4284L10.1684 261.4C10.4951 261.333 10.7934 261.3 11.0634 261.3C11.4434 261.3 11.7768 261.357 12.0634 261.47C12.3534 261.583 12.5968 261.74 12.7934 261.94C12.9901 262.14 13.1384 262.375 13.2384 262.645C13.3384 262.912 13.3884 263.2 13.3884 263.51C13.3884 263.893 13.3201 264.243 13.1834 264.56C13.0501 264.877 12.8634 265.148 12.6234 265.375C12.3834 265.598 12.0984 265.772 11.7684 265.895C11.4418 266.018 11.0851 266.08 10.6984 266.08C10.4718 266.08 10.2568 266.057 10.0534 266.01C9.8501 265.963 9.65844 265.902 9.47844 265.825C9.30177 265.745 9.13677 265.655 8.98344 265.555C8.83344 265.452 8.69844 265.343 8.57844 265.23L8.95844 264.705C9.03844 264.592 9.1451 264.535 9.27844 264.535C9.36177 264.535 9.4451 264.562 9.52844 264.615C9.6151 264.668 9.7151 264.727 9.82844 264.79C9.94177 264.853 10.0734 264.912 10.2234 264.965C10.3734 265.018 10.5551 265.045 10.7684 265.045C10.9951 265.045 11.1951 265.008 11.3684 264.935C11.5418 264.862 11.6851 264.76 11.7984 264.63C11.9151 264.497 12.0018 264.34 12.0584 264.16C12.1184 263.977 12.1484 263.778 12.1484 263.565C12.1484 263.172 12.0334 262.865 11.8034 262.645C11.5768 262.422 11.2418 262.31 10.7984 262.31C10.4484 262.31 10.0968 262.373 9.74344 262.5L8.97344 262.28L9.57344 258.77H13.1434V259.295ZM19.7492 262.385C19.7492 263.015 19.6809 263.563 19.5442 264.03C19.4109 264.493 19.2242 264.877 18.9842 265.18C18.7476 265.483 18.4659 265.71 18.1392 265.86C17.8159 266.007 17.4659 266.08 17.0892 266.08C16.7126 266.08 16.3626 266.007 16.0392 265.86C15.7192 265.71 15.4409 265.483 15.2042 265.18C14.9676 264.877 14.7826 264.493 14.6492 264.03C14.5159 263.563 14.4492 263.015 14.4492 262.385C14.4492 261.752 14.5159 261.203 14.6492 260.74C14.7826 260.277 14.9676 259.893 15.2042 259.59C15.4409 259.287 15.7192 259.062 16.0392 258.915C16.3626 258.765 16.7126 258.69 17.0892 258.69C17.4659 258.69 17.8159 258.765 18.1392 258.915C18.4659 259.062 18.7476 259.287 18.9842 259.59C19.2242 259.893 19.4109 260.277 19.5442 260.74C19.6809 261.203 19.7492 261.752 19.7492 262.385ZM18.4742 262.385C18.4742 261.862 18.4359 261.428 18.3592 261.085C18.2826 260.742 18.1792 260.468 18.0492 260.265C17.9226 260.062 17.7759 259.92 17.6092 259.84C17.4426 259.757 17.2692 259.715 17.0892 259.715C16.9126 259.715 16.7409 259.757 16.5742 259.84C16.4109 259.92 16.2659 260.062 16.1392 260.265C16.0126 260.468 15.9109 260.742 15.8342 261.085C15.7609 261.428 15.7242 261.862 15.7242 262.385C15.7242 262.908 15.7609 263.342 15.8342 263.685C15.9109 264.028 16.0126 264.302 16.1392 264.505C16.2659 264.708 16.4109 264.852 16.5742 264.935C16.7409 265.015 16.9126 265.055 17.0892 265.055C17.2692 265.055 17.4426 265.015 17.6092 264.935C17.7759 264.852 17.9226 264.708 18.0492 264.505C18.1792 264.302 18.2826 264.028 18.3592 263.685C18.4359 263.342 18.4742 262.908 18.4742 262.385Z" fill="#CACCCF"/>
<path d="M19.7492 302.385C19.7492 303.015 19.6809 303.563 19.5442 304.03C19.4109 304.493 19.2242 304.877 18.9842 305.18C18.7476 305.483 18.4659 305.71 18.1392 305.86C17.8159 306.007 17.4659 306.08 17.0892 306.08C16.7126 306.08 16.3626 306.007 16.0392 305.86C15.7192 305.71 15.4409 305.483 15.2042 305.18C14.9676 304.877 14.7826 304.493 14.6492 304.03C14.5159 303.563 14.4492 303.015 14.4492 302.385C14.4492 301.752 14.5159 301.203 14.6492 300.74C14.7826 300.277 14.9676 299.893 15.2042 299.59C15.4409 299.287 15.7192 299.062 16.0392 298.915C16.3626 298.765 16.7126 298.69 17.0892 298.69C17.4659 298.69 17.8159 298.765 18.1392 298.915C18.4659 299.062 18.7476 299.287 18.9842 299.59C19.2242 299.893 19.4109 300.277 19.5442 300.74C19.6809 301.203 19.7492 301.752 19.7492 302.385ZM18.4742 302.385C18.4742 301.862 18.4359 301.428 18.3592 301.085C18.2826 300.742 18.1792 300.468 18.0492 300.265C17.9226 300.062 17.7759 299.92 17.6092 299.84C17.4426 299.757 17.2692 299.715 17.0892 299.715C16.9126 299.715 16.7409 299.757 16.5742 299.84C16.4109 299.92 16.2659 300.062 16.1392 300.265C16.0126 300.468 15.9109 300.742 15.8342 301.085C15.7609 301.428 15.7242 301.862 15.7242 302.385C15.7242 302.908 15.7609 303.342 15.8342 303.685C15.9109 304.028 16.0126 304.302 16.1392 304.505C16.2659 304.708 16.4109 304.852 16.5742 304.935C16.7409 305.015 16.9126 305.055 17.0892 305.055C17.2692 305.055 17.4426 305.015 17.6092 304.935C17.7759 304.852 17.9226 304.708 18.0492 304.505C18.1792 304.302 18.2826 304.028 18.3592 303.685C18.4359 303.342 18.4742 302.908 18.4742 302.385Z" fill="#CACCCF"/>
<path d="M554 154C524.671 154 506.725 228.327 480.323 228.327C453.921 228.327 433.368 158.301 418.449 158.301C403.531 158.301 398.047 198.797 378.496 198.797C358.945 198.797 359.467 176.31 345.606 176.31C331.745 176.31 313.279 215.811 280.935 215.811C248.591 215.811 236.933 171.634 216.768 171.634C196.603 171.634 173.628 233.261 154.476 233.261C135.324 233.261 127.712 206.657 109.622 206.657C91.5319 206.657 87.2617 234.17 53.1229 253.422C47.9373 256.171 41.0839 260.59 28.0002 262" stroke="#E55C9B" stroke-width="2" stroke-linecap="round"/>
<path d="M41.554 209.44C35.4984 204.388 28 190.592 28 190.592V301.5H554V106C528.189 117.5 520.582 158.289 503.775 158.289C486.968 158.289 483.088 128.542 458.941 128.542C434.795 128.542 417.881 197.45 396.678 197.45C375.475 197.45 370.335 148.054 332.541 148.054C294.747 148.054 283.121 192.221 267.9 192.221C252.679 192.221 252.691 167.078 235.025 167.078C217.358 167.078 211.122 212.358 195.09 212.358C179.058 212.358 159.5 134.06 133.245 134.06C106.99 134.06 86.4143 217.083 62.283 217.083C52.8743 216.952 47.0186 214 41.554 209.44Z" fill="url(#paint0_linear_3_6)"/>
<path d="M28.8786 190.114C28.6149 189.629 28.0077 189.449 27.5225 189.713C27.0372 189.977 26.8577 190.584 27.1214 191.069L28.8786 190.114ZM41.554 209.44L40.9133 210.208L41.554 209.44ZM62.283 217.083L62.2691 218.083H62.283V217.083ZM554.407 106.913C554.911 106.689 555.138 106.097 554.913 105.593C554.689 105.089 554.097 104.862 553.593 105.087L554.407 106.913ZM28 190.592C27.1214 191.069 27.1215 191.069 27.1216 191.069C27.1216 191.07 27.1218 191.07 27.1219 191.07C27.1222 191.071 27.1226 191.071 27.1231 191.072C27.1241 191.074 27.1256 191.077 27.1275 191.08C27.1314 191.087 27.1371 191.098 27.1445 191.111C27.1594 191.139 27.1813 191.179 27.21 191.231C27.2674 191.335 27.352 191.487 27.4616 191.683C27.6807 192.074 27.9999 192.637 28.4017 193.329C29.2048 194.711 30.3395 196.607 31.6657 198.663C34.2952 202.741 37.7554 207.573 40.9133 210.208L42.1947 208.673C39.297 206.255 35.9802 201.663 33.3465 197.579C32.0412 195.555 30.9229 193.686 30.1308 192.324C29.735 191.643 29.421 191.089 29.2065 190.705C29.0992 190.514 29.0168 190.365 28.9614 190.265C28.9337 190.215 28.9128 190.177 28.8989 190.151C28.8919 190.138 28.8868 190.129 28.8834 190.123C28.8817 190.12 28.8804 190.117 28.8796 190.116C28.8792 190.115 28.879 190.115 28.8788 190.114C28.8787 190.114 28.8787 190.114 28.8786 190.114C28.8786 190.114 28.8786 190.114 28 190.592ZM40.9133 210.208C46.5264 214.892 52.5975 217.948 62.2691 218.083L62.2969 216.083C53.1512 215.956 47.5108 213.108 42.1947 208.673L40.9133 210.208ZM62.283 218.083C65.5976 218.083 68.7696 216.657 71.7969 214.306C74.8232 211.956 77.7719 208.631 80.6643 204.704C86.4449 196.855 92.1348 186.409 97.8433 176.054C103.573 165.66 109.324 155.354 115.266 147.642C121.257 139.869 127.201 135.06 133.245 135.06V133.06C126.162 133.06 119.688 138.628 113.682 146.422C107.629 154.277 101.804 164.727 96.0918 175.089C90.3581 185.489 84.7386 195.799 79.0539 203.518C76.2135 207.374 73.3907 210.536 70.5703 212.726C67.751 214.915 65.0013 216.083 62.283 216.083V218.083ZM133.245 135.06C139.309 135.06 145.193 139.603 150.944 146.912C156.656 154.171 162.026 163.881 167.114 173.67C172.181 183.418 176.98 193.266 181.503 200.647C183.766 204.339 185.995 207.475 188.196 209.698C190.374 211.897 192.679 213.358 195.09 213.358V211.358C193.494 211.358 191.68 210.373 189.617 208.29C187.578 206.231 185.444 203.25 183.208 199.602C178.734 192.301 173.997 182.575 168.889 172.748C163.802 162.962 158.357 153.098 152.516 145.675C146.715 138.303 140.308 133.06 133.245 133.06V135.06ZM195.09 213.358C199.606 213.358 203.263 210.17 206.415 205.875C209.589 201.549 212.464 195.803 215.335 190.172C218.23 184.494 221.124 178.925 224.374 174.769C227.633 170.601 231.078 168.078 235.025 168.078V166.078C230.138 166.078 226.178 169.215 222.798 173.537C219.409 177.872 216.43 183.622 213.553 189.264C210.653 194.953 207.859 200.527 204.803 204.692C201.724 208.886 198.59 211.358 195.09 211.358V213.358ZM235.025 168.078C243.259 168.078 247.403 173.864 251.542 180.197C253.571 183.302 255.615 186.557 258.128 189.009C260.68 191.5 263.772 193.221 267.9 193.221V191.221C264.417 191.221 261.802 189.8 259.524 187.577C257.206 185.315 255.295 182.284 253.216 179.103C249.139 172.864 244.457 166.078 235.025 166.078V168.078ZM267.9 193.221C272.179 193.221 276.025 190.134 279.842 185.998C281.778 183.9 283.768 181.46 285.855 178.875C287.948 176.281 290.143 173.536 292.513 170.791C301.996 159.808 314.096 149.054 332.541 149.054V147.054C313.192 147.054 300.583 158.384 290.999 169.484C288.602 172.26 286.383 175.036 284.298 177.618C282.208 180.209 280.257 182.6 278.372 184.642C274.546 188.788 271.231 191.221 267.9 191.221V193.221ZM332.541 149.054C350.902 149.054 361.373 161.006 370.012 173.326C374.29 179.427 378.173 185.706 382.274 190.391C386.392 195.095 390.941 198.45 396.678 198.45V196.45C391.813 196.45 387.769 193.631 383.779 189.073C379.772 184.496 376.031 178.426 371.65 172.178C362.97 159.8 351.974 147.054 332.541 147.054V149.054ZM396.678 198.45C399.611 198.45 402.399 197.257 405.047 195.293C407.691 193.33 410.25 190.558 412.75 187.291C417.745 180.766 422.639 172.082 427.573 163.495C432.53 154.867 437.53 146.329 442.78 139.944C448.063 133.52 453.388 129.542 458.941 129.542V127.542C452.422 127.542 446.577 132.178 441.235 138.674C435.86 145.21 430.779 153.899 425.839 162.498C420.875 171.137 416.057 179.681 411.162 186.076C408.718 189.27 406.288 191.88 403.855 193.686C401.424 195.49 399.046 196.45 396.678 196.45V198.45ZM458.941 129.542C470.516 129.542 477.258 136.626 483.337 144.049C486.341 147.719 489.228 151.53 492.407 154.385C495.618 157.27 499.24 159.289 503.775 159.289V157.289C499.907 157.289 496.741 155.59 493.743 152.897C490.713 150.175 487.969 146.549 484.884 142.782C478.784 135.332 471.513 127.542 458.941 127.542V129.542ZM503.775 159.289C508.418 159.289 512.298 156.465 515.838 152.392C519.383 148.314 522.764 142.773 526.36 136.985C533.622 125.297 541.829 112.518 554.407 106.913L553.593 105.087C540.36 110.982 531.858 124.347 524.661 135.929C521.029 141.776 517.743 147.151 514.328 151.08C510.909 155.015 507.535 157.289 503.775 157.289V159.289Z" fill="#8478FF"/>
<path d="M39.38 16.108C38.268 16.108 37.424 15.816 36.848 15.232C36.272 14.64 35.984 13.78 35.984 12.652V7.96C35.984 7.624 36.148 7.456 36.476 7.456C36.804 7.456 36.968 7.624 36.968 7.96V12.604C36.968 14.356 37.772 15.232 39.38 15.232C40.972 15.232 41.768 14.356 41.768 12.604V7.96C41.768 7.624 41.936 7.456 42.272 7.456C42.592 7.456 42.752 7.624 42.752 7.96V12.652C42.752 13.78 42.464 14.64 41.888 15.232C41.32 15.816 40.484 16.108 39.38 16.108ZM45.1225 16.084C44.8025 16.084 44.6425 15.916 44.6425 15.58V10.576C44.6425 10.248 44.7985 10.084 45.1105 10.084C45.4305 10.084 45.5905 10.248 45.5905 10.576V11.164C45.7825 10.796 46.0545 10.52 46.4065 10.336C46.7585 10.152 47.1545 10.06 47.5945 10.06C48.9785 10.06 49.6705 10.828 49.6705 12.364V15.58C49.6705 15.916 49.5105 16.084 49.1905 16.084C48.8625 16.084 48.6985 15.916 48.6985 15.58V12.424C48.6985 11.88 48.5905 11.484 48.3745 11.236C48.1665 10.98 47.8305 10.852 47.3665 10.852C46.8305 10.852 46.4025 11.02 46.0825 11.356C45.7705 11.684 45.6145 12.124 45.6145 12.676V15.58C45.6145 15.916 45.4505 16.084 45.1225 16.084ZM51.9428 8.764C51.5188 8.764 51.3068 8.564 51.3068 8.164C51.3068 7.772 51.5188 7.576 51.9428 7.576C52.3668 7.576 52.5788 7.772 52.5788 8.164C52.5788 8.564 52.3668 8.764 51.9428 8.764ZM51.9428 16.06C51.6228 16.06 51.4628 15.884 51.4628 15.532V10.624C51.4628 10.28 51.6228 10.108 51.9428 10.108C52.2708 10.108 52.4348 10.28 52.4348 10.624V15.532C52.4348 15.884 52.2708 16.06 51.9428 16.06ZM58.9438 18.244C58.6158 18.244 58.4518 18.08 58.4518 17.752V14.98C58.2838 15.324 58.0238 15.6 57.6718 15.808C57.3278 16.008 56.9278 16.108 56.4718 16.108C55.9518 16.108 55.4958 15.984 55.1038 15.736C54.7198 15.488 54.4198 15.14 54.2038 14.692C53.9958 14.236 53.8918 13.7 53.8918 13.084C53.8918 12.46 53.9958 11.924 54.2038 11.476C54.4198 11.02 54.7198 10.672 55.1038 10.432C55.4958 10.184 55.9518 10.06 56.4718 10.06C56.9278 10.06 57.3278 10.164 57.6718 10.372C58.0238 10.572 58.2878 10.848 58.4638 11.2V10.576C58.4638 10.248 58.6238 10.084 58.9438 10.084C59.2638 10.084 59.4238 10.248 59.4238 10.576V17.752C59.4238 18.08 59.2638 18.244 58.9438 18.244ZM56.6758 15.328C57.2198 15.328 57.6558 15.136 57.9838 14.752C58.3118 14.36 58.4758 13.804 58.4758 13.084C58.4758 12.356 58.3118 11.8 57.9838 11.416C57.6558 11.032 57.2198 10.84 56.6758 10.84C56.1238 10.84 55.6838 11.032 55.3558 11.416C55.0358 11.8 54.8758 12.356 54.8758 13.084C54.8758 13.804 55.0358 14.36 55.3558 14.752C55.6838 15.136 56.1238 15.328 56.6758 15.328ZM63.3119 16.108C61.9119 16.108 61.2119 15.336 61.2119 13.792V10.576C61.2119 10.248 61.3719 10.084 61.6919 10.084C62.0199 10.084 62.1839 10.248 62.1839 10.576V13.78C62.1839 14.3 62.2879 14.684 62.4959 14.932C62.7119 15.18 63.0479 15.304 63.5039 15.304C63.9999 15.304 64.4039 15.14 64.7159 14.812C65.0279 14.476 65.1839 14.032 65.1839 13.48V10.576C65.1839 10.248 65.3479 10.084 65.6759 10.084C65.9959 10.084 66.1559 10.248 66.1559 10.576V15.58C66.1559 15.916 65.9999 16.084 65.6879 16.084C65.3679 16.084 65.2079 15.916 65.2079 15.58V15.016C65.0239 15.368 64.7639 15.64 64.4279 15.832C64.0999 16.016 63.7279 16.108 63.3119 16.108ZM70.6025 16.108C69.6825 16.108 68.9545 15.84 68.4185 15.304C67.8825 14.76 67.6145 14.024 67.6145 13.096C67.6145 12.496 67.7345 11.968 67.9745 11.512C68.2145 11.048 68.5425 10.692 68.9585 10.444C69.3825 10.188 69.8705 10.06 70.4225 10.06C71.2145 10.06 71.8345 10.316 72.2825 10.828C72.7305 11.332 72.9545 12.028 72.9545 12.916C72.9545 13.164 72.8145 13.288 72.5345 13.288H68.5625C68.5945 13.952 68.7865 14.46 69.1385 14.812C69.4905 15.156 69.9785 15.328 70.6025 15.328C70.8665 15.328 71.1345 15.296 71.4065 15.232C71.6785 15.16 71.9425 15.036 72.1985 14.86C72.3825 14.74 72.5345 14.716 72.6545 14.788C72.7825 14.86 72.8465 14.972 72.8465 15.124C72.8545 15.268 72.7745 15.396 72.6065 15.508C72.3425 15.7 72.0265 15.848 71.6585 15.952C71.2985 16.056 70.9465 16.108 70.6025 16.108ZM70.4465 10.78C69.8945 10.78 69.4585 10.952 69.1385 11.296C68.8185 11.64 68.6305 12.092 68.5745 12.652H72.1145C72.0905 12.06 71.9345 11.6 71.6465 11.272C71.3665 10.944 70.9665 10.78 70.4465 10.78ZM36.872 35C36.432 35 36.212 34.784 36.212 34.352C36.212 33.936 36.432 33.728 36.872 33.728H38.216V28.292L37.196 28.904C37.004 29.016 36.828 29.044 36.668 28.988C36.516 28.932 36.4 28.832 36.32 28.688C36.24 28.544 36.216 28.388 36.248 28.22C36.28 28.044 36.392 27.9 36.584 27.788L38.24 26.792C38.4 26.696 38.56 26.616 38.72 26.552C38.88 26.48 39.028 26.444 39.164 26.444C39.332 26.444 39.472 26.492 39.584 26.588C39.696 26.676 39.752 26.824 39.752 27.032V33.728H40.976C41.416 33.728 41.636 33.936 41.636 34.352C41.636 34.784 41.416 35 40.976 35H36.872ZM43.7913 35C43.5353 35 43.3473 34.944 43.2273 34.832C43.1153 34.712 43.0593 34.54 43.0593 34.316C43.0593 34.18 43.0953 34.048 43.1673 33.92C43.2393 33.792 43.3433 33.656 43.4793 33.512L45.8913 30.944C46.2593 30.56 46.5233 30.212 46.6833 29.9C46.8433 29.58 46.9233 29.26 46.9233 28.94C46.9233 28.124 46.4313 27.716 45.4473 27.716C45.1753 27.716 44.9033 27.756 44.6313 27.836C44.3593 27.908 44.0833 28.036 43.8033 28.22C43.6273 28.34 43.4633 28.376 43.3113 28.328C43.1593 28.28 43.0433 28.184 42.9633 28.04C42.8833 27.888 42.8553 27.728 42.8793 27.56C42.9113 27.392 43.0153 27.248 43.1913 27.128C43.5353 26.896 43.9193 26.72 44.3433 26.6C44.7753 26.48 45.2073 26.42 45.6393 26.42C46.5433 26.42 47.2353 26.624 47.7153 27.032C48.2033 27.44 48.4473 28.024 48.4473 28.784C48.4473 29.296 48.3233 29.788 48.0753 30.26C47.8353 30.732 47.4553 31.24 46.9353 31.784L45.0753 33.728H48.2073C48.6473 33.728 48.8673 33.936 48.8673 34.352C48.8673 34.784 48.6473 35 48.2073 35H43.7913ZM52.9906 35.12C51.9906 35.12 51.2266 34.744 50.6986 33.992C50.1706 33.232 49.9066 32.152 49.9066 30.752C49.9066 29.336 50.1706 28.26 50.6986 27.524C51.2266 26.788 51.9906 26.42 52.9906 26.42C53.9986 26.42 54.7626 26.788 55.2826 27.524C55.8106 28.26 56.0746 29.332 56.0746 30.74C56.0746 32.148 55.8106 33.232 55.2826 33.992C54.7546 34.744 53.9906 35.12 52.9906 35.12ZM52.9906 33.86C53.5346 33.86 53.9346 33.608 54.1906 33.104C54.4546 32.6 54.5866 31.812 54.5866 30.74C54.5866 29.668 54.4546 28.892 54.1906 28.412C53.9346 27.924 53.5346 27.68 52.9906 27.68C52.4546 27.68 52.0546 27.924 51.7906 28.412C51.5266 28.892 51.3946 29.668 51.3946 30.74C51.3946 31.812 51.5266 32.6 51.7906 33.104C52.0546 33.608 52.4546 33.86 52.9906 33.86ZM60.1859 35.12C59.1859 35.12 58.4219 34.744 57.8939 33.992C57.3659 33.232 57.1019 32.152 57.1019 30.752C57.1019 29.336 57.3659 28.26 57.8939 27.524C58.4219 26.788 59.1859 26.42 60.1859 26.42C61.1939 26.42 61.9579 26.788 62.4779 27.524C63.0059 28.26 63.2699 29.332 63.2699 30.74C63.2699 32.148 63.0059 33.232 62.4779 33.992C61.9499 34.744 61.1859 35.12 60.1859 35.12ZM60.1859 33.86C60.7299 33.86 61.1299 33.608 61.3859 33.104C61.6499 32.6 61.7819 31.812 61.7819 30.74C61.7819 29.668 61.6499 28.892 61.3859 28.412C61.1299 27.924 60.7299 27.68 60.1859 27.68C59.6499 27.68 59.2499 27.924 58.9859 28.412C58.7219 28.892 58.5899 29.668 58.5899 30.74C58.5899 31.812 58.7219 32.6 58.9859 33.104C59.2499 33.608 59.6499 33.86 60.1859 33.86Z" fill="black"/>
<rect x="10" y="7" width="15" height="15" fill="#7A64C6"/>
<path d="M208.536 13.084C208.208 13.084 208.044 12.912 208.044 12.568V5.044C208.044 4.708 208.212 4.54 208.548 4.54H211.392C212.304 4.54 213 4.752 213.48 5.176C213.968 5.6 214.212 6.204 214.212 6.988C214.212 7.612 214.04 8.124 213.696 8.524C213.36 8.924 212.88 9.184 212.256 9.304C212.624 9.432 212.94 9.744 213.204 10.24L214.356 12.388C214.444 12.556 214.46 12.716 214.404 12.868C214.348 13.012 214.22 13.084 214.02 13.084C213.884 13.084 213.772 13.056 213.684 13C213.596 12.936 213.52 12.84 213.456 12.712L212.148 10.288C211.964 9.944 211.752 9.716 211.512 9.604C211.272 9.484 210.956 9.424 210.564 9.424H209.028V12.568C209.028 12.912 208.864 13.084 208.536 13.084ZM209.028 8.644H211.248C212.576 8.644 213.24 8.092 213.24 6.988C213.24 5.9 212.576 5.356 211.248 5.356H209.028V8.644ZM218.438 13.108C217.518 13.108 216.79 12.84 216.254 12.304C215.718 11.76 215.45 11.024 215.45 10.096C215.45 9.496 215.57 8.968 215.81 8.512C216.05 8.048 216.378 7.692 216.794 7.444C217.218 7.188 217.706 7.06 218.258 7.06C219.05 7.06 219.67 7.316 220.118 7.828C220.566 8.332 220.79 9.028 220.79 9.916C220.79 10.164 220.65 10.288 220.37 10.288H216.398C216.43 10.952 216.622 11.46 216.974 11.812C217.326 12.156 217.814 12.328 218.438 12.328C218.702 12.328 218.97 12.296 219.242 12.232C219.514 12.16 219.778 12.036 220.034 11.86C220.218 11.74 220.37 11.716 220.49 11.788C220.618 11.86 220.682 11.972 220.682 12.124C220.69 12.268 220.61 12.396 220.442 12.508C220.178 12.7 219.862 12.848 219.494 12.952C219.134 13.056 218.782 13.108 218.438 13.108ZM218.282 7.78C217.73 7.78 217.294 7.952 216.974 8.296C216.654 8.64 216.466 9.092 216.41 9.652H219.95C219.926 9.06 219.77 8.6 219.482 8.272C219.202 7.944 218.802 7.78 218.282 7.78ZM222.677 15.244C222.357 15.244 222.197 15.08 222.197 14.752V7.576C222.197 7.248 222.353 7.084 222.665 7.084C222.993 7.084 223.157 7.248 223.157 7.576V8.2C223.325 7.848 223.585 7.572 223.937 7.372C224.289 7.164 224.693 7.06 225.149 7.06C225.669 7.06 226.121 7.184 226.505 7.432C226.897 7.672 227.197 8.02 227.405 8.476C227.621 8.924 227.729 9.46 227.729 10.084C227.729 10.7 227.621 11.236 227.405 11.692C227.197 12.14 226.897 12.488 226.505 12.736C226.121 12.984 225.669 13.108 225.149 13.108C224.701 13.108 224.301 13.008 223.949 12.808C223.597 12.608 223.337 12.332 223.169 11.98V14.752C223.169 15.08 223.005 15.244 222.677 15.244ZM224.945 12.328C225.489 12.328 225.925 12.136 226.253 11.752C226.581 11.36 226.745 10.804 226.745 10.084C226.745 9.356 226.581 8.8 226.253 8.416C225.925 8.032 225.489 7.84 224.945 7.84C224.401 7.84 223.965 8.032 223.637 8.416C223.309 8.8 223.145 9.356 223.145 10.084C223.145 10.804 223.309 11.36 223.637 11.752C223.965 12.136 224.401 12.328 224.945 12.328ZM231.821 13.108C230.901 13.108 230.173 12.84 229.637 12.304C229.101 11.76 228.833 11.024 228.833 10.096C228.833 9.496 228.953 8.968 229.193 8.512C229.433 8.048 229.761 7.692 230.177 7.444C230.601 7.188 231.089 7.06 231.641 7.06C232.433 7.06 233.053 7.316 233.501 7.828C233.949 8.332 234.173 9.028 234.173 9.916C234.173 10.164 234.033 10.288 233.753 10.288H229.781C229.813 10.952 230.005 11.46 230.357 11.812C230.709 12.156 231.197 12.328 231.821 12.328C232.085 12.328 232.353 12.296 232.625 12.232C232.897 12.16 233.161 12.036 233.417 11.86C233.601 11.74 233.753 11.716 233.873 11.788C234.001 11.86 234.065 11.972 234.065 12.124C234.073 12.268 233.993 12.396 233.825 12.508C233.561 12.7 233.245 12.848 232.877 12.952C232.517 13.056 232.165 13.108 231.821 13.108ZM231.665 7.78C231.113 7.78 230.677 7.952 230.357 8.296C230.037 8.64 229.849 9.092 229.793 9.652H233.333C233.309 9.06 233.153 8.6 232.865 8.272C232.585 7.944 232.185 7.78 231.665 7.78ZM237.416 13.108C237.016 13.108 236.656 13.032 236.336 12.88C236.024 12.72 235.776 12.504 235.592 12.232C235.408 11.96 235.316 11.656 235.316 11.32C235.316 10.896 235.424 10.56 235.64 10.312C235.864 10.064 236.228 9.888 236.732 9.784C237.244 9.672 237.94 9.616 238.82 9.616H239.204V9.244C239.204 8.748 239.1 8.392 238.892 8.176C238.692 7.952 238.368 7.84 237.92 7.84C237.64 7.84 237.356 7.876 237.068 7.948C236.788 8.02 236.496 8.136 236.192 8.296C236.056 8.368 235.94 8.384 235.844 8.344C235.756 8.296 235.692 8.224 235.652 8.128C235.62 8.024 235.62 7.92 235.652 7.816C235.692 7.704 235.772 7.62 235.892 7.564C236.236 7.388 236.58 7.26 236.924 7.18C237.276 7.1 237.608 7.06 237.92 7.06C238.672 7.06 239.228 7.244 239.588 7.612C239.956 7.98 240.14 8.552 240.14 9.328V12.58C240.14 12.916 239.992 13.084 239.696 13.084C239.384 13.084 239.228 12.916 239.228 12.58V11.992C239.076 12.336 238.84 12.608 238.52 12.808C238.208 13.008 237.84 13.108 237.416 13.108ZM237.572 12.376C238.052 12.376 238.444 12.212 238.748 11.884C239.052 11.548 239.204 11.124 239.204 10.612V10.252H238.832C238.184 10.252 237.672 10.284 237.296 10.348C236.928 10.404 236.668 10.508 236.516 10.66C236.372 10.804 236.3 11.004 236.3 11.26C236.3 11.588 236.412 11.856 236.636 12.064C236.868 12.272 237.18 12.376 237.572 12.376ZM244.283 13.108C243.595 13.108 243.079 12.928 242.735 12.568C242.391 12.2 242.219 11.672 242.219 10.984V7.924H241.415C241.135 7.924 240.995 7.796 240.995 7.54C240.995 7.292 241.135 7.168 241.415 7.168H242.219V5.788C242.219 5.46 242.383 5.296 242.711 5.296C243.031 5.296 243.191 5.46 243.191 5.788V7.168H244.703C244.983 7.168 245.123 7.292 245.123 7.54C245.123 7.796 244.983 7.924 244.703 7.924H243.191V10.888C243.191 11.344 243.287 11.692 243.479 11.932C243.671 12.164 243.983 12.28 244.415 12.28C244.567 12.28 244.695 12.264 244.799 12.232C244.903 12.2 244.995 12.184 245.075 12.184C245.147 12.176 245.207 12.2 245.255 12.256C245.303 12.312 245.327 12.408 245.327 12.544C245.327 12.64 245.307 12.728 245.267 12.808C245.235 12.888 245.175 12.944 245.087 12.976C244.991 13.008 244.863 13.036 244.703 13.06C244.551 13.092 244.411 13.108 244.283 13.108ZM208.872 32C208.432 32 208.212 31.784 208.212 31.352C208.212 30.936 208.432 30.728 208.872 30.728H210.216V25.292L209.196 25.904C209.004 26.016 208.828 26.044 208.668 25.988C208.516 25.932 208.4 25.832 208.32 25.688C208.24 25.544 208.216 25.388 208.248 25.22C208.28 25.044 208.392 24.9 208.584 24.788L210.24 23.792C210.4 23.696 210.56 23.616 210.72 23.552C210.88 23.48 211.028 23.444 211.164 23.444C211.332 23.444 211.472 23.492 211.584 23.588C211.696 23.676 211.752 23.824 211.752 24.032V30.728H212.976C213.416 30.728 213.636 30.936 213.636 31.352C213.636 31.784 213.416 32 212.976 32H208.872ZM217.627 32.12C217.195 32.12 216.747 32.064 216.283 31.952C215.819 31.84 215.415 31.672 215.071 31.448C214.871 31.312 214.751 31.16 214.711 30.992C214.671 30.816 214.691 30.66 214.771 30.524C214.851 30.38 214.971 30.284 215.131 30.236C215.299 30.188 215.487 30.22 215.695 30.332C216.023 30.508 216.339 30.636 216.643 30.716C216.947 30.788 217.259 30.824 217.579 30.824C218.659 30.824 219.199 30.4 219.199 29.552C219.199 29.152 219.063 28.856 218.791 28.664C218.527 28.464 218.139 28.364 217.627 28.364H216.859C216.635 28.364 216.463 28.308 216.343 28.196C216.231 28.084 216.175 27.928 216.175 27.728C216.175 27.528 216.231 27.372 216.343 27.26C216.463 27.148 216.635 27.092 216.859 27.092H217.483C217.931 27.092 218.287 26.984 218.551 26.768C218.815 26.544 218.947 26.236 218.947 25.844C218.947 25.476 218.823 25.196 218.575 25.004C218.335 24.812 217.983 24.716 217.519 24.716C217.223 24.716 216.943 24.752 216.679 24.824C216.423 24.888 216.139 25.012 215.827 25.196C215.643 25.308 215.475 25.34 215.323 25.292C215.171 25.236 215.051 25.14 214.963 25.004C214.883 24.86 214.859 24.704 214.891 24.536C214.923 24.368 215.035 24.224 215.227 24.104C215.931 23.648 216.739 23.42 217.651 23.42C218.531 23.42 219.215 23.62 219.703 24.02C220.191 24.412 220.435 24.96 220.435 25.664C220.435 26.12 220.319 26.52 220.087 26.864C219.855 27.208 219.539 27.456 219.139 27.608C219.627 27.744 220.007 27.996 220.279 28.364C220.551 28.724 220.687 29.164 220.687 29.684C220.687 30.436 220.415 31.032 219.871 31.472C219.327 31.904 218.579 32.12 217.627 32.12ZM224.991 32.12C223.991 32.12 223.227 31.744 222.699 30.992C222.171 30.232 221.907 29.152 221.907 27.752C221.907 26.336 222.171 25.26 222.699 24.524C223.227 23.788 223.991 23.42 224.991 23.42C225.999 23.42 226.763 23.788 227.283 24.524C227.811 25.26 228.075 26.332 228.075 27.74C228.075 29.148 227.811 30.232 227.283 30.992C226.755 31.744 225.991 32.12 224.991 32.12ZM224.991 30.86C225.535 30.86 225.935 30.608 226.191 30.104C226.455 29.6 226.587 28.812 226.587 27.74C226.587 26.668 226.455 25.892 226.191 25.412C225.935 24.924 225.535 24.68 224.991 24.68C224.455 24.68 224.055 24.924 223.791 25.412C223.527 25.892 223.395 26.668 223.395 27.74C223.395 28.812 223.527 29.6 223.791 30.104C224.055 30.608 224.455 30.86 224.991 30.86ZM232.186 32.12C231.186 32.12 230.422 31.744 229.894 30.992C229.366 30.232 229.102 29.152 229.102 27.752C229.102 26.336 229.366 25.26 229.894 24.524C230.422 23.788 231.186 23.42 232.186 23.42C233.194 23.42 233.958 23.788 234.478 24.524C235.006 25.26 235.27 26.332 235.27 27.74C235.27 29.148 235.006 30.232 234.478 30.992C233.95 31.744 233.186 32.12 232.186 32.12ZM232.186 30.86C232.73 30.86 233.13 30.608 233.386 30.104C233.65 29.6 233.782 28.812 233.782 27.74C233.782 26.668 233.65 25.892 233.386 25.412C233.13 24.924 232.73 24.68 232.186 24.68C231.65 24.68 231.25 24.924 230.986 25.412C230.722 25.892 230.59 26.668 230.59 27.74C230.59 28.812 230.722 29.6 230.986 30.104C231.25 30.608 231.65 30.86 232.186 30.86ZM239.381 32.12C238.381 32.12 237.617 31.744 237.089 30.992C236.561 30.232 236.297 29.152 236.297 27.752C236.297 26.336 236.561 25.26 237.089 24.524C237.617 23.788 238.381 23.42 239.381 23.42C240.389 23.42 241.153 23.788 241.673 24.524C242.201 25.26 242.465 26.332 242.465 27.74C242.465 29.148 242.201 30.232 241.673 30.992C241.145 31.744 240.381 32.12 239.381 32.12ZM239.381 30.86C239.925 30.86 240.325 30.608 240.581 30.104C240.845 29.6 240.977 28.812 240.977 27.74C240.977 26.668 240.845 25.892 240.581 25.412C240.325 24.924 239.925 24.68 239.381 24.68C238.845 24.68 238.445 24.924 238.181 25.412C237.917 25.892 237.785 26.668 237.785 27.74C237.785 28.812 237.917 29.6 238.181 30.104C238.445 30.608 238.845 30.86 239.381 30.86Z" fill="black"/>
<rect x="182" y="7" width="15" height="15" fill="#D57C09"/>
<path d="M367.536 13.084C367.208 13.084 367.044 12.912 367.044 12.568V4.972C367.044 4.628 367.208 4.456 367.536 4.456C367.864 4.456 368.028 4.628 368.028 4.972V12.568C368.028 12.912 367.864 13.084 367.536 13.084ZM370.474 13.084C370.154 13.084 369.994 12.916 369.994 12.58V7.576C369.994 7.248 370.15 7.084 370.462 7.084C370.782 7.084 370.942 7.248 370.942 7.576V8.164C371.134 7.796 371.406 7.52 371.758 7.336C372.11 7.152 372.506 7.06 372.946 7.06C374.33 7.06 375.022 7.828 375.022 9.364V12.58C375.022 12.916 374.862 13.084 374.542 13.084C374.214 13.084 374.05 12.916 374.05 12.58V9.424C374.05 8.88 373.942 8.484 373.726 8.236C373.518 7.98 373.182 7.852 372.718 7.852C372.182 7.852 371.754 8.02 371.434 8.356C371.122 8.684 370.966 9.124 370.966 9.676V12.58C370.966 12.916 370.802 13.084 370.474 13.084ZM378.65 13.108C378.25 13.108 377.89 13.032 377.57 12.88C377.258 12.72 377.01 12.504 376.826 12.232C376.642 11.96 376.55 11.656 376.55 11.32C376.55 10.896 376.658 10.56 376.874 10.312C377.098 10.064 377.462 9.888 377.966 9.784C378.478 9.672 379.174 9.616 380.054 9.616H380.438V9.244C380.438 8.748 380.334 8.392 380.126 8.176C379.926 7.952 379.602 7.84 379.154 7.84C378.874 7.84 378.59 7.876 378.302 7.948C378.022 8.02 377.73 8.136 377.426 8.296C377.29 8.368 377.174 8.384 377.078 8.344C376.99 8.296 376.926 8.224 376.886 8.128C376.854 8.024 376.854 7.92 376.886 7.816C376.926 7.704 377.006 7.62 377.126 7.564C377.47 7.388 377.814 7.26 378.158 7.18C378.51 7.1 378.842 7.06 379.154 7.06C379.906 7.06 380.462 7.244 380.822 7.612C381.19 7.98 381.374 8.552 381.374 9.328V12.58C381.374 12.916 381.226 13.084 380.93 13.084C380.618 13.084 380.462 12.916 380.462 12.58V11.992C380.31 12.336 380.074 12.608 379.754 12.808C379.442 13.008 379.074 13.108 378.65 13.108ZM378.806 12.376C379.286 12.376 379.678 12.212 379.982 11.884C380.286 11.548 380.438 11.124 380.438 10.612V10.252H380.066C379.418 10.252 378.906 10.284 378.53 10.348C378.162 10.404 377.902 10.508 377.75 10.66C377.606 10.804 377.534 11.004 377.534 11.26C377.534 11.588 377.646 11.856 377.87 12.064C378.102 12.272 378.414 12.376 378.806 12.376ZM385.65 13.108C385.066 13.108 384.562 12.984 384.138 12.736C383.714 12.48 383.386 12.124 383.154 11.668C382.93 11.204 382.818 10.664 382.818 10.048C382.818 9.12 383.07 8.392 383.574 7.864C384.078 7.328 384.77 7.06 385.65 7.06C385.938 7.06 386.238 7.108 386.55 7.204C386.862 7.292 387.146 7.44 387.402 7.648C387.538 7.744 387.594 7.864 387.57 8.008C387.554 8.152 387.486 8.26 387.366 8.332C387.254 8.404 387.122 8.388 386.97 8.284C386.754 8.124 386.538 8.012 386.322 7.948C386.114 7.884 385.91 7.852 385.71 7.852C385.102 7.852 384.634 8.044 384.306 8.428C383.978 8.804 383.814 9.348 383.814 10.06C383.814 10.756 383.978 11.308 384.306 11.716C384.634 12.116 385.102 12.316 385.71 12.316C385.91 12.316 386.114 12.284 386.322 12.22C386.538 12.156 386.754 12.044 386.97 11.884C387.122 11.78 387.254 11.768 387.366 11.848C387.478 11.92 387.538 12.028 387.546 12.172C387.562 12.316 387.506 12.432 387.378 12.52C387.122 12.728 386.842 12.88 386.538 12.976C386.234 13.064 385.938 13.108 385.65 13.108ZM391.072 13.108C390.384 13.108 389.868 12.928 389.524 12.568C389.18 12.2 389.008 11.672 389.008 10.984V7.924H388.204C387.924 7.924 387.784 7.796 387.784 7.54C387.784 7.292 387.924 7.168 388.204 7.168H389.008V5.788C389.008 5.46 389.172 5.296 389.5 5.296C389.82 5.296 389.98 5.46 389.98 5.788V7.168H391.492C391.772 7.168 391.912 7.292 391.912 7.54C391.912 7.796 391.772 7.924 391.492 7.924H389.98V10.888C389.98 11.344 390.076 11.692 390.268 11.932C390.46 12.164 390.772 12.28 391.204 12.28C391.356 12.28 391.484 12.264 391.588 12.232C391.692 12.2 391.784 12.184 391.864 12.184C391.936 12.176 391.996 12.2 392.044 12.256C392.092 12.312 392.116 12.408 392.116 12.544C392.116 12.64 392.096 12.728 392.056 12.808C392.024 12.888 391.964 12.944 391.876 12.976C391.78 13.008 391.652 13.036 391.492 13.06C391.34 13.092 391.2 13.108 391.072 13.108ZM393.478 5.764C393.054 5.764 392.842 5.564 392.842 5.164C392.842 4.772 393.054 4.576 393.478 4.576C393.902 4.576 394.114 4.772 394.114 5.164C394.114 5.564 393.902 5.764 393.478 5.764ZM393.478 13.06C393.158 13.06 392.998 12.884 392.998 12.532V7.624C392.998 7.28 393.158 7.108 393.478 7.108C393.806 7.108 393.97 7.28 393.97 7.624V12.532C393.97 12.884 393.806 13.06 393.478 13.06ZM397.959 13.084C397.679 13.084 397.471 12.928 397.335 12.616L395.259 7.768C395.179 7.584 395.175 7.424 395.247 7.288C395.319 7.152 395.463 7.084 395.679 7.084C395.903 7.084 396.067 7.212 396.171 7.468L397.983 11.896L399.819 7.468C399.875 7.324 399.939 7.224 400.011 7.168C400.083 7.112 400.187 7.084 400.323 7.084C400.507 7.084 400.631 7.152 400.695 7.288C400.759 7.424 400.755 7.58 400.683 7.756L398.583 12.616C398.455 12.928 398.247 13.084 397.959 13.084ZM404.509 13.108C403.589 13.108 402.861 12.84 402.325 12.304C401.789 11.76 401.521 11.024 401.521 10.096C401.521 9.496 401.641 8.968 401.881 8.512C402.121 8.048 402.449 7.692 402.865 7.444C403.289 7.188 403.777 7.06 404.329 7.06C405.121 7.06 405.741 7.316 406.189 7.828C406.637 8.332 406.861 9.028 406.861 9.916C406.861 10.164 406.721 10.288 406.441 10.288H402.469C402.501 10.952 402.693 11.46 403.045 11.812C403.397 12.156 403.885 12.328 404.509 12.328C404.773 12.328 405.041 12.296 405.313 12.232C405.585 12.16 405.849 12.036 406.105 11.86C406.289 11.74 406.441 11.716 406.561 11.788C406.689 11.86 406.753 11.972 406.753 12.124C406.761 12.268 406.681 12.396 406.513 12.508C406.249 12.7 405.933 12.848 405.565 12.952C405.205 13.056 404.853 13.108 404.509 13.108ZM404.353 7.78C403.801 7.78 403.365 7.952 403.045 8.296C402.725 8.64 402.537 9.092 402.481 9.652H406.021C405.997 9.06 405.841 8.6 405.553 8.272C405.273 7.944 404.873 7.78 404.353 7.78ZM367.872 32C367.432 32 367.212 31.784 367.212 31.352C367.212 30.936 367.432 30.728 367.872 30.728H369.216V25.292L368.196 25.904C368.004 26.016 367.828 26.044 367.668 25.988C367.516 25.932 367.4 25.832 367.32 25.688C367.24 25.544 367.216 25.388 367.248 25.22C367.28 25.044 367.392 24.9 367.584 24.788L369.24 23.792C369.4 23.696 369.56 23.616 369.72 23.552C369.88 23.48 370.028 23.444 370.164 23.444C370.332 23.444 370.472 23.492 370.584 23.588C370.696 23.676 370.752 23.824 370.752 24.032V30.728H371.976C372.416 30.728 372.636 30.936 372.636 31.352C372.636 31.784 372.416 32 371.976 32H367.872ZM376.627 32.12C376.195 32.12 375.747 32.064 375.283 31.952C374.819 31.84 374.415 31.672 374.071 31.448C373.871 31.312 373.751 31.16 373.711 30.992C373.671 30.816 373.691 30.66 373.771 30.524C373.851 30.38 373.971 30.284 374.131 30.236C374.299 30.188 374.487 30.22 374.695 30.332C375.023 30.508 375.339 30.636 375.643 30.716C375.947 30.788 376.259 30.824 376.579 30.824C377.659 30.824 378.199 30.4 378.199 29.552C378.199 29.152 378.063 28.856 377.791 28.664C377.527 28.464 377.139 28.364 376.627 28.364H375.859C375.635 28.364 375.463 28.308 375.343 28.196C375.231 28.084 375.175 27.928 375.175 27.728C375.175 27.528 375.231 27.372 375.343 27.26C375.463 27.148 375.635 27.092 375.859 27.092H376.483C376.931 27.092 377.287 26.984 377.551 26.768C377.815 26.544 377.947 26.236 377.947 25.844C377.947 25.476 377.823 25.196 377.575 25.004C377.335 24.812 376.983 24.716 376.519 24.716C376.223 24.716 375.943 24.752 375.679 24.824C375.423 24.888 375.139 25.012 374.827 25.196C374.643 25.308 374.475 25.34 374.323 25.292C374.171 25.236 374.051 25.14 373.963 25.004C373.883 24.86 373.859 24.704 373.891 24.536C373.923 24.368 374.035 24.224 374.227 24.104C374.931 23.648 375.739 23.42 376.651 23.42C377.531 23.42 378.215 23.62 378.703 24.02C379.191 24.412 379.435 24.96 379.435 25.664C379.435 26.12 379.319 26.52 379.087 26.864C378.855 27.208 378.539 27.456 378.139 27.608C378.627 27.744 379.007 27.996 379.279 28.364C379.551 28.724 379.687 29.164 379.687 29.684C379.687 30.436 379.415 31.032 378.871 31.472C378.327 31.904 377.579 32.12 376.627 32.12ZM383.991 32.12C382.991 32.12 382.227 31.744 381.699 30.992C381.171 30.232 380.907 29.152 380.907 27.752C380.907 26.336 381.171 25.26 381.699 24.524C382.227 23.788 382.991 23.42 383.991 23.42C384.999 23.42 385.763 23.788 386.283 24.524C386.811 25.26 387.075 26.332 387.075 27.74C387.075 29.148 386.811 30.232 386.283 30.992C385.755 31.744 384.991 32.12 383.991 32.12ZM383.991 30.86C384.535 30.86 384.935 30.608 385.191 30.104C385.455 29.6 385.587 28.812 385.587 27.74C385.587 26.668 385.455 25.892 385.191 25.412C384.935 24.924 384.535 24.68 383.991 24.68C383.455 24.68 383.055 24.924 382.791 25.412C382.527 25.892 382.395 26.668 382.395 27.74C382.395 28.812 382.527 29.6 382.791 30.104C383.055 30.608 383.455 30.86 383.991 30.86ZM391.186 32.12C390.186 32.12 389.422 31.744 388.894 30.992C388.366 30.232 388.102 29.152 388.102 27.752C388.102 26.336 388.366 25.26 388.894 24.524C389.422 23.788 390.186 23.42 391.186 23.42C392.194 23.42 392.958 23.788 393.478 24.524C394.006 25.26 394.27 26.332 394.27 27.74C394.27 29.148 394.006 30.232 393.478 30.992C392.95 31.744 392.186 32.12 391.186 32.12ZM391.186 30.86C391.73 30.86 392.13 30.608 392.386 30.104C392.65 29.6 392.782 28.812 392.782 27.74C392.782 26.668 392.65 25.892 392.386 25.412C392.13 24.924 391.73 24.68 391.186 24.68C390.65 24.68 390.25 24.924 389.986 25.412C389.722 25.892 389.59 26.668 389.59 27.74C389.59 28.812 389.722 29.6 389.986 30.104C390.25 30.608 390.65 30.86 391.186 30.86ZM398.381 32.12C397.381 32.12 396.617 31.744 396.089 30.992C395.561 30.232 395.297 29.152 395.297 27.752C395.297 26.336 395.561 25.26 396.089 24.524C396.617 23.788 397.381 23.42 398.381 23.42C399.389 23.42 400.153 23.788 400.673 24.524C401.201 25.26 401.465 26.332 401.465 27.74C401.465 29.148 401.201 30.232 400.673 30.992C400.145 31.744 399.381 32.12 398.381 32.12ZM398.381 30.86C398.925 30.86 399.325 30.608 399.581 30.104C399.845 29.6 399.977 28.812 399.977 27.74C399.977 26.668 399.845 25.892 399.581 25.412C399.325 24.924 398.925 24.68 398.381 24.68C397.845 24.68 397.445 24.924 397.181 25.412C396.917 25.892 396.785 26.668 396.785 27.74C396.785 28.812 396.917 29.6 397.181 30.104C397.445 30.608 397.845 30.86 398.381 30.86Z" fill="black"/>
<rect x="341" y="7" width="15" height="15" fill="#E1E1E1"/>
<defs>
<linearGradient id="paint0_linear_3_6" x1="291" y1="106" x2="291" y2="301.5" gradientUnits="userSpaceOnUse">
<stop stop-color="#336CFB" stop-opacity="0.2"/>
<stop offset="1" stop-color="#336CFB" stop-opacity="0.02"/>
</linearGradient>
<clipPath id="clip0_3_6">
<rect width="457" height="10" fill="white" transform="translate(43 305)"/>
</clipPath>
</defs>
</svg>
