<svg width="27" height="24" viewBox="0 0 27 24" fill="none" xmlns="http://www.w3.org/2000/svg">
<path d="M22.8526 2.38C21.6759 2.12857 20.4738 2.00114 19.2679 2C18.129 1.93101 16.9871 2.0775 15.9078 2.43103C14.8284 2.78456 13.833 3.33816 12.9788 4.06C11.8537 5.13333 10.7392 6.20333 9.63508 7.27C8.36678 7.14 5.35851 7.07 3.346 9.01C3.15078 9.19736 3.0412 9.45081 3.0412 9.715C3.0412 9.97918 3.15078 10.2326 3.346 10.42L15.1904 21.74C15.3868 21.9262 15.6525 22.0308 15.9294 22.0308C16.2063 22.0308 16.472 21.9262 16.6684 21.74C18.7123 19.74 18.6494 16.92 18.5236 15.74L21.8883 12.54C25.232 9.35 23.7121 3.36 23.6492 3.11C23.6009 2.92963 23.5007 2.76574 23.3599 2.63677C23.2192 2.50779 23.0435 2.41887 22.8526 2.38ZM20.3789 11.13L16.6474 14.67C16.5266 14.7864 16.4375 14.9294 16.3882 15.0863C16.3389 15.2432 16.3307 15.4093 16.3644 15.57C16.5908 16.9078 16.3938 18.2796 15.7984 19.51L5.66248 9.82C6.97255 9.24477 8.43702 9.07012 9.8552 9.32C10.023 9.34084 10.1936 9.32262 10.3524 9.2669C10.5112 9.21117 10.6535 9.1196 10.7671 9C10.7671 9 12.2346 7.55 14.4462 5.44C15.8062 4.39811 17.528 3.88389 19.2679 4C20.0863 4.00387 20.903 4.07075 21.7101 4.2C21.9617 5.63 22.36 9.24 20.3789 11.13Z" fill="white"/>
<path d="M17.4126 10.3C18.5704 10.3 19.5089 9.40456 19.5089 8.29999C19.5089 7.19542 18.5704 6.29999 17.4126 6.29999C16.2548 6.29999 15.3162 7.19542 15.3162 8.29999C15.3162 9.40456 16.2548 10.3 17.4126 10.3Z" fill="white"/>
<path d="M6.16562 16C4.06926 17 4.06926 21 4.06926 21C6.00951 20.9472 7.86697 20.2384 9.31016 19L6.16562 16Z" fill="white"/>
</svg>
