<svg width="22" height="20" viewBox="0 0 22 20" fill="none" xmlns="http://www.w3.org/2000/svg">
<path d="M8.38015 18.7867C6.86401 18.3341 5.4909 17.4966 4.39448 16.3557C4.74725 15.9373 4.96715 15.4232 5.02606 14.8791C5.08496 14.335 4.98019 13.7857 4.72514 13.3015C4.47009 12.8173 4.07637 12.4202 3.59436 12.161C3.11235 11.9019 2.56397 11.7924 2.0194 11.8466C1.89533 11.2389 1.83299 10.6203 1.83331 10C1.83331 9.04211 1.97998 8.11811 2.25315 7.25003H2.29165C2.75904 7.25018 3.21875 7.1312 3.62738 6.90433C4.03602 6.67746 4.38009 6.35018 4.6271 5.9534C4.87411 5.55661 5.01592 5.10342 5.03914 4.63661C5.06235 4.1698 4.9662 3.70477 4.75977 3.28544C5.83438 2.28482 7.13397 1.55745 8.54882 1.16473C8.77907 1.61683 9.12991 1.99642 9.56251 2.2615C9.99512 2.52658 10.4926 2.66682 11 2.66669C11.5073 2.66682 12.0048 2.52658 12.4374 2.2615C12.8701 1.99642 13.2209 1.61683 13.4511 1.16473C14.866 1.55745 16.1656 2.28482 17.2402 3.28544C17.0323 3.70771 16.9362 4.17628 16.9612 4.6463C16.9862 5.11633 17.1314 5.57207 17.3829 5.96991C17.6344 6.36775 17.9839 6.69437 18.3978 6.91851C18.8117 7.14264 19.2762 7.25679 19.7468 7.25003C20.0259 8.13998 20.1675 9.06733 20.1666 10C20.1666 10.6325 20.1025 11.2504 19.9806 11.8466C19.436 11.7924 18.8876 11.9019 18.4056 12.161C17.9236 12.4202 17.5299 12.8173 17.2748 13.3015C17.0198 13.7857 16.915 14.335 16.9739 14.8791C17.0328 15.4232 17.2527 15.9373 17.6055 16.3557C16.5091 17.4966 15.136 18.3341 13.6198 18.7867C13.4418 18.2318 13.0921 17.7478 12.6213 17.4044C12.1505 17.061 11.5827 16.8759 11 16.8759C10.4172 16.8759 9.84949 17.061 9.37866 17.4044C8.90782 17.7478 8.55819 18.2318 8.38015 18.7867Z" stroke="black" stroke-width="2" stroke-linejoin="round"/>
<path d="M11 13.2084C11.4213 13.2084 11.8385 13.1254 12.2277 12.9641C12.617 12.8029 12.9707 12.5666 13.2686 12.2687C13.5665 11.9707 13.8028 11.617 13.9641 11.2278C14.1253 10.8385 14.2083 10.4213 14.2083 10C14.2083 9.5787 14.1253 9.1615 13.9641 8.77224C13.8028 8.38299 13.5665 8.02931 13.2686 7.73139C12.9707 7.43346 12.617 7.19714 12.2277 7.03591C11.8385 6.87467 11.4213 6.79169 11 6.79169C10.1491 6.79169 9.333 7.12971 8.73133 7.73139C8.12965 8.33307 7.79163 9.14912 7.79163 10C7.79163 10.8509 8.12965 11.667 8.73133 12.2687C9.333 12.8703 10.1491 13.2084 11 13.2084V13.2084Z" stroke="black" stroke-width="2" stroke-linejoin="round"/>
</svg>
