<svg width="25" height="25" viewBox="0 0 25 25" fill="none" xmlns="http://www.w3.org/2000/svg">
<g clip-path="url(#clip0_4_243)">
<path d="M8.2478 2.07647C7.45064 1.44335 6.4493 1.12393 5.43277 1.17848C4.41625 1.23303 3.45485 1.65778 2.73002 2.37258C2.01118 3.09618 1.58544 4.06013 1.53477 5.07884C1.4841 6.09755 1.81208 7.09899 2.45558 7.89036C3.6144 5.31205 5.67383 3.24491 8.2478 2.07647Z" fill="black"/>
<path d="M13.6211 6.46036C13.6211 6.28797 13.5526 6.12264 13.4307 6.00074C13.3088 5.87885 13.1435 5.81036 12.9711 5.81036C12.7987 5.81036 12.6334 5.87885 12.5115 6.00074C12.3896 6.12264 12.3211 6.28797 12.3211 6.46036V12.9604L17.42 15.4881C17.5751 15.5638 17.754 15.5747 17.9172 15.5185C18.0804 15.4623 18.2146 15.3436 18.2903 15.1884C18.3659 15.0333 18.3769 14.8544 18.3207 14.6912C18.2644 14.528 18.1457 14.3938 17.9906 14.3181L13.6139 12.1515L13.6211 6.46036Z" fill="black"/>
<path d="M20.2222 19.6626C21.5451 18.3225 22.4642 16.6371 22.8741 14.7992C23.2841 12.9613 23.1685 11.0451 22.5406 9.26982C22.0374 9.3588 21.5236 9.37098 21.0167 9.30593C21.7778 11.1586 21.8737 13.2177 21.2881 15.1331C20.7025 17.0485 19.4715 18.7019 17.8045 19.8123C16.1376 20.9226 14.1375 21.4213 12.1443 21.2235C10.1512 21.0257 8.28812 20.1437 6.87184 18.7274C5.45557 17.3112 4.57356 15.4481 4.37579 13.4549C4.17802 11.4618 4.6767 9.46172 5.78703 7.79474C6.89736 6.12776 8.5508 4.89681 10.4662 4.31121C12.3816 3.72561 14.4407 3.82151 16.2934 4.58259C16.2659 4.36699 16.2515 4.14993 16.25 3.93259C16.2529 3.63963 16.2795 3.34738 16.3295 3.0587C14.1718 2.31687 11.8267 2.3266 9.67528 3.0863C7.52386 3.84601 5.69263 5.31104 4.47925 7.24325C3.26586 9.17546 2.74165 11.4613 2.99183 13.7291C3.242 15.997 4.25186 18.1136 5.85724 19.7348L4.01558 21.5765C3.88054 21.7144 3.80581 21.9003 3.80784 22.0933C3.80988 22.2863 3.8885 22.4706 4.02641 22.6056C4.16432 22.7407 4.35023 22.8154 4.54324 22.8134C4.73624 22.8113 4.92054 22.7327 5.05558 22.5948L6.97669 20.6737C8.73351 22.0031 10.8789 22.7177 13.082 22.7073C15.2851 22.6969 17.4236 21.962 19.1678 20.6159L21.1467 22.5948C21.2848 22.7131 21.4626 22.775 21.6443 22.7679C21.8261 22.7609 21.9985 22.6856 22.1271 22.5569C22.2558 22.4283 22.3311 22.2559 22.3381 22.0741C22.3452 21.8924 22.2833 21.7146 22.165 21.5765L20.2222 19.6626Z" fill="black"/>
<path d="M21.6667 7.54369C23.661 7.54369 25.2778 5.92694 25.2778 3.93258C25.2778 1.93822 23.661 0.321472 21.6667 0.321472C19.6723 0.321472 18.0555 1.93822 18.0555 3.93258C18.0555 5.92694 19.6723 7.54369 21.6667 7.54369Z" fill="black"/>
</g>
<defs>
<clipPath id="clip0_4_243">
<rect width="25" height="25" fill="white" transform="translate(0 -0.000366211)"/>
</clipPath>
</defs>
</svg>
