<svg width="25" height="25" viewBox="0 0 25 25" fill="none" xmlns="http://www.w3.org/2000/svg">
<g clip-path="url(#clip0_3_3)">
<path d="M8.2478 2.07683C7.45064 1.44371 6.4493 1.12429 5.43277 1.17884C4.41625 1.23339 3.45485 1.65815 2.73002 2.37294C2.01118 3.09654 1.58544 4.0605 1.53477 5.07921C1.4841 6.09792 1.81208 7.09936 2.45558 7.89072C3.6144 5.31241 5.67383 3.24528 8.2478 2.07683V2.07683Z" fill="black"/>
<path d="M13.6211 6.46072C13.6211 6.28833 13.5526 6.123 13.4307 6.0011C13.3088 5.8792 13.1435 5.81072 12.9711 5.81072C12.7987 5.81072 12.6334 5.8792 12.5115 6.0011C12.3896 6.123 12.3211 6.28833 12.3211 6.46072V12.9607L17.42 15.4885C17.5751 15.5642 17.754 15.5751 17.9172 15.5189C18.0804 15.4627 18.2146 15.3439 18.2903 15.1888C18.3659 15.0336 18.3769 14.8548 18.3207 14.6916C18.2644 14.5284 18.1457 14.3942 17.9906 14.3185L13.6139 12.1518L13.6211 6.46072Z" fill="black"/>
<path d="M20.2222 19.6629C21.5451 18.3228 22.4642 16.6374 22.8741 14.7995C23.2841 12.9616 23.1685 11.0455 22.5406 9.27016C22.0374 9.35915 21.5236 9.37133 21.0167 9.30627C21.7778 11.1589 21.8737 13.218 21.2881 15.1334C20.7025 17.0488 19.4715 18.7023 17.8045 19.8126C16.1376 20.9229 14.1375 21.4216 12.1443 21.2238C10.1512 21.0261 8.28812 20.1441 6.87184 18.7278C5.45557 17.3115 4.57356 15.4484 4.37579 13.4553C4.17802 11.4622 4.6767 9.46206 5.78703 7.79509C6.89736 6.12811 8.5508 4.89716 10.4662 4.31156C12.3816 3.72596 14.4407 3.82185 16.2934 4.58294C16.2659 4.36733 16.2515 4.15028 16.25 3.93294C16.2529 3.63998 16.2795 3.34773 16.3295 3.05905C14.1718 2.31722 11.8267 2.32694 9.67528 3.08665C7.52386 3.84636 5.69263 5.31139 4.47925 7.2436C3.26586 9.17581 2.74165 11.4616 2.99183 13.7295C3.242 15.9973 4.25186 18.1139 5.85724 19.7352L4.01558 21.5768C3.88054 21.7147 3.80581 21.9007 3.80784 22.0937C3.80988 22.2867 3.8885 22.471 4.02641 22.606C4.16432 22.741 4.35023 22.8158 4.54324 22.8137C4.73624 22.8117 4.92054 22.7331 5.05558 22.5952L6.97669 20.6741C8.73351 22.0035 10.8789 22.7181 13.082 22.7076C15.2851 22.6972 17.4236 21.9623 19.1678 20.6163L21.1467 22.5952C21.2848 22.7135 21.4626 22.7753 21.6443 22.7683C21.8261 22.7613 21.9985 22.6859 22.1271 22.5573C22.2558 22.4287 22.3311 22.2562 22.3381 22.0745C22.3452 21.8927 22.2833 21.715 22.165 21.5768L20.2222 19.6629Z" fill="black"/>
<path d="M21.6667 7.54405C23.661 7.54405 25.2778 5.9273 25.2778 3.93294C25.2778 1.93858 23.661 0.321832 21.6667 0.321832C19.6723 0.321832 18.0555 1.93858 18.0555 3.93294C18.0555 5.9273 19.6723 7.54405 21.6667 7.54405Z" fill="black"/>
</g>
<defs>
<clipPath id="clip0_3_3">
<rect width="25" height="25" fill="white"/>
</clipPath>
</defs>
</svg>
