<svg width="26" height="22" viewBox="0 0 26 22" fill="none" xmlns="http://www.w3.org/2000/svg">
<path d="M5.99992 20.3332V8.6665C5.99992 6.80999 6.73742 5.02951 8.05017 3.71676C9.36293 2.404 11.1434 1.6665 12.9999 1.6665C14.8564 1.6665 16.6369 2.404 17.9497 3.71676C19.2624 5.02951 19.9999 6.80999 19.9999 8.6665V20.3332H5.99992ZM1.33325 12.8257C1.33325 10.4305 3.66659 9.83317 5.99992 9.83317V20.3332C4.76224 20.3332 3.57526 19.8415 2.70009 18.9663C1.82492 18.0912 1.33325 16.9042 1.33325 15.6665V12.8257ZM24.6666 12.8257C24.6666 10.4305 22.3333 9.83317 19.9999 9.83317V20.3332C21.2376 20.3332 22.4246 19.8415 23.2998 18.9663C24.1749 18.0912 24.6666 16.9042 24.6666 15.6665V12.8257Z" stroke="black" stroke-width="2" stroke-linecap="round" stroke-linejoin="round"/>
</svg>
