<svg width="40" height="40" viewBox="0 0 40 40" fill="none" xmlns="http://www.w3.org/2000/svg">
<path opacity="0.05" d="M20 40C31.0457 40 40 31.0457 40 20C40 8.9543 31.0457 0 20 0C8.9543 0 0 8.9543 0 20C0 31.0457 8.9543 40 20 40Z" fill="#FE0000"/>
<path d="M23.248 22.5469C23.7207 22.293 24.2617 22.1484 24.8379 22.1484H24.8398C24.8984 22.1484 24.9258 22.0781 24.8828 22.0391C24.2836 21.5013 23.5991 21.067 22.8574 20.7539C22.8496 20.75 22.8418 20.748 22.834 20.7441C24.0469 19.8633 24.8359 18.4316 24.8359 16.8164C24.8359 14.1406 22.6719 11.9727 20.0019 11.9727C17.332 11.9727 15.1699 14.1406 15.1699 16.8164C15.1699 18.4316 15.959 19.8633 17.1738 20.7441C17.166 20.748 17.1582 20.75 17.1504 20.7539C16.2773 21.123 15.4941 21.6523 14.8203 22.3281C14.1504 22.9968 13.617 23.7896 13.25 24.6621C12.8889 25.5165 12.694 26.432 12.6758 27.3594C12.6752 27.3802 12.6789 27.401 12.6865 27.4204C12.6941 27.4398 12.7056 27.4575 12.7201 27.4724C12.7347 27.4873 12.7521 27.4992 12.7713 27.5073C12.7905 27.5154 12.8112 27.5195 12.832 27.5195H14.0019C14.0859 27.5195 14.1562 27.4512 14.1582 27.3672C14.1973 25.8594 14.8008 24.4473 15.8691 23.377C16.9726 22.2695 18.4414 21.6602 20.0039 21.6602C21.1113 21.6602 22.1738 21.9668 23.0898 22.541C23.1134 22.5558 23.1404 22.5641 23.1681 22.5652C23.1959 22.5662 23.2235 22.5599 23.248 22.5469ZM20.0039 20.1758C19.1094 20.1758 18.2676 19.8262 17.6328 19.1914C17.3205 18.8799 17.0729 18.5097 16.9043 18.1021C16.7357 17.6945 16.6494 17.2575 16.6504 16.8164C16.6504 15.9199 17 15.0762 17.6328 14.4414C18.2656 13.8066 19.1074 13.457 20.0039 13.457C20.9004 13.457 21.7402 13.8066 22.375 14.4414C22.6873 14.7529 22.9349 15.1231 23.1035 15.5307C23.2721 15.9384 23.3584 16.3753 23.3574 16.8164C23.3574 17.7129 23.0078 18.5566 22.375 19.1914C21.7402 19.8262 20.8984 20.1758 20.0039 20.1758ZM27.1875 24.8242H25.5469V23.1836C25.5469 23.0977 25.4766 23.0273 25.3906 23.0273H24.2969C24.2109 23.0273 24.1406 23.0977 24.1406 23.1836V24.8242H22.5C22.4141 24.8242 22.3437 24.8945 22.3437 24.9805V26.0742C22.3437 26.1602 22.4141 26.2305 22.5 26.2305H24.1406V27.8711C24.1406 27.957 24.2109 28.0273 24.2969 28.0273H25.3906C25.4766 28.0273 25.5469 27.957 25.5469 27.8711V26.2305H27.1875C27.2734 26.2305 27.3437 26.1602 27.3437 26.0742V24.9805C27.3437 24.8945 27.2734 24.8242 27.1875 24.8242Z" fill="#FF3636"/>
</svg>
