<svg width="40" height="40" viewBox="0 0 40 40" fill="none" xmlns="http://www.w3.org/2000/svg">
<path opacity="0.05" d="M20 40C31.0457 40 40 31.0457 40 20C40 8.9543 31.0457 0 20 0C8.9543 0 0 8.9543 0 20C0 31.0457 8.9543 40 20 40Z" fill="#FE0000"/>
<path d="M28.4369 20.3194C27.8121 18.7031 26.7273 17.3054 25.3168 16.2989C23.9062 15.2925 22.2316 14.7214 20.5 14.6562C18.7684 14.7214 17.0938 15.2925 15.6833 16.2989C14.2727 17.3054 13.188 18.7031 12.5631 20.3194C12.5209 20.4361 12.5209 20.5639 12.5631 20.6806C13.188 22.2969 14.2727 23.6946 15.6833 24.7011C17.0938 25.7075 18.7684 26.2786 20.5 26.3438C22.2316 26.2786 23.9062 25.7075 25.3168 24.7011C26.7273 23.6946 27.8121 22.2969 28.4369 20.6806C28.4791 20.5639 28.4791 20.4361 28.4369 20.3194ZM20.5 25.2812C17.6844 25.2812 14.7094 23.1934 13.631 20.5C14.7094 17.8066 17.6844 15.7188 20.5 15.7188C23.3156 15.7188 26.2906 17.8066 27.3691 20.5C26.2906 23.1934 23.3156 25.2812 20.5 25.2812Z" fill="#FF3636"/>
<path d="M20.5 17.3125C19.8696 17.3125 19.2533 17.4994 18.7291 17.8497C18.2049 18.1999 17.7964 18.6978 17.5551 19.2802C17.3139 19.8626 17.2508 20.5035 17.3737 21.1219C17.4967 21.7402 17.8003 22.3081 18.2461 22.7539C18.6919 23.1997 19.2598 23.5033 19.8782 23.6263C20.4965 23.7492 21.1374 23.6861 21.7198 23.4449C22.3022 23.2036 22.8001 22.7951 23.1503 22.2709C23.5006 21.7467 23.6875 21.1304 23.6875 20.5C23.6875 19.6546 23.3517 18.8439 22.7539 18.2461C22.1561 17.6483 21.3454 17.3125 20.5 17.3125ZM20.5 22.625C20.0797 22.625 19.6689 22.5004 19.3194 22.2669C18.97 22.0334 18.6976 21.7015 18.5368 21.3132C18.3759 20.9249 18.3338 20.4976 18.4158 20.0854C18.4978 19.6732 18.7002 19.2946 18.9974 18.9974C19.2946 18.7002 19.6732 18.4978 20.0854 18.4158C20.4976 18.3338 20.9249 18.3759 21.3132 18.5368C21.7015 18.6976 22.0334 18.97 22.2669 19.3194C22.5004 19.6689 22.625 20.0797 22.625 20.5C22.625 21.0636 22.4011 21.6041 22.0026 22.0026C21.6041 22.4011 21.0636 22.625 20.5 22.625Z" fill="#FF3636"/>
</svg>
