<svg width="40" height="40" viewBox="0 0 40 40" fill="none" xmlns="http://www.w3.org/2000/svg">
<path opacity="0.05" d="M20 40C31.0457 40 40 31.0457 40 20C40 8.9543 31.0457 0 20 0C8.9543 0 0 8.9543 0 20C0 31.0457 8.9543 40 20 40Z" fill="#FE0000"/>
<path d="M23.7792 18.1292L21.6667 19.6667L22.5 22.1375C22.5138 22.1846 22.5127 22.2347 22.4968 22.2812C22.4809 22.3276 22.4511 22.3679 22.4114 22.3967C22.3717 22.4255 22.324 22.4412 22.275 22.4418C22.2259 22.4424 22.1779 22.4278 22.1375 22.4L20 20.8958L17.8833 22.4375C17.8578 22.4555 17.8289 22.4682 17.7983 22.4748C17.7678 22.4814 17.7362 22.4818 17.7055 22.4759C17.6748 22.4701 17.6456 22.4582 17.6196 22.4408C17.5936 22.4235 17.5713 22.4011 17.5542 22.375C17.5354 22.3456 17.5228 22.3128 17.5171 22.2784C17.5113 22.244 17.5126 22.2089 17.5208 22.175L18.3333 19.7083L16.2208 18.1667C16.1809 18.1386 16.1509 18.0985 16.1354 18.0522C16.1198 18.0059 16.1194 17.9558 16.1343 17.9093C16.1492 17.8628 16.1786 17.8223 16.2181 17.7936C16.2577 17.7649 16.3053 17.7497 16.3542 17.75H18.9667L19.7792 15.2792C19.7878 15.2293 19.8128 15.1837 19.8501 15.1495C19.8875 15.1153 19.9351 15.0944 19.9855 15.0902C20.036 15.0859 20.0864 15.0984 20.129 15.1258C20.1716 15.1532 20.2039 15.194 20.2208 15.2417L21.0333 17.7083H23.6458C23.6765 17.7089 23.7067 17.7155 23.7348 17.7277C23.7629 17.7399 23.7883 17.7576 23.8096 17.7796C23.8309 17.8017 23.8476 17.8277 23.8588 17.8562C23.8701 17.8847 23.8755 17.9152 23.875 17.9458C23.8752 17.9819 23.8666 18.0175 23.8499 18.0494C23.8332 18.0814 23.8089 18.1088 23.7792 18.1292Z" stroke="#FF3636" stroke-linecap="round" stroke-linejoin="round"/>
<path d="M20 11.875C20 11.875 15.3083 12.7083 13.6458 12.7083V21.0417C13.6484 21.627 13.7615 22.2066 13.9791 22.75C14.1863 23.2874 14.4667 23.7936 14.8125 24.2542C15.1615 24.7166 15.5535 25.1449 15.9833 25.5333C16.3802 25.901 16.7975 26.246 17.2333 26.5667C17.6214 26.8451 18.0233 27.1038 18.4375 27.3417C18.8541 27.5875 19.15 27.7583 19.325 27.8375L19.7416 28.0417C19.8223 28.0802 19.9106 28.1001 20 28.1001C20.0894 28.1001 20.1776 28.0802 20.2583 28.0417L20.675 27.8375C20.85 27.7542 21.1458 27.5875 21.5625 27.3417C21.9767 27.1038 22.3786 26.8451 22.7666 26.5667C23.2024 26.246 23.6198 25.901 24.0166 25.5333C24.4465 25.1449 24.8385 24.7166 25.1875 24.2542C25.5332 23.7936 25.8137 23.2874 26.0208 22.75C26.2385 22.2066 26.3515 21.627 26.3541 21.0417V12.7083C24.6916 12.7208 20 11.875 20 11.875Z" stroke="#FF3636" stroke-linecap="round" stroke-linejoin="round"/>
</svg>
