<svg width="21" height="21" viewBox="0 0 21 21" fill="none" xmlns="http://www.w3.org/2000/svg">
<path d="M19.7745 17.134C19.2771 15.9558 18.5553 14.8857 17.6493 13.9831C16.746 13.0779 15.676 12.3563 14.4984 11.8579C14.4879 11.8526 14.4773 11.85 14.4668 11.8447C16.1094 10.6582 17.1773 8.72549 17.1773 6.54492C17.1773 2.93262 14.2506 0.00585938 10.6382 0.00585938C7.02594 0.00585938 4.09919 2.93262 4.09919 6.54492C4.09919 8.72549 5.16706 10.6582 6.80973 11.8474C6.79919 11.8526 6.78864 11.8553 6.77809 11.8605C5.59684 12.3589 4.53688 13.0734 3.62721 13.9857C2.72205 14.889 2.00037 15.959 1.50202 17.1366C1.01244 18.2895 0.748397 19.5256 0.724187 20.7779C0.723483 20.8061 0.728419 20.8341 0.738704 20.8603C0.748989 20.8865 0.764415 20.9104 0.784073 20.9305C0.803731 20.9507 0.827223 20.9667 0.853165 20.9776C0.879107 20.9885 0.906974 20.9941 0.935124 20.9941H2.51716C2.63317 20.9941 2.72546 20.9019 2.72809 20.7885C2.78083 18.7529 3.59821 16.8466 5.04313 15.4017C6.53815 13.9066 8.5236 13.084 10.6382 13.084C12.7529 13.084 14.7383 13.9066 16.2334 15.4017C17.6783 16.8466 18.4957 18.7529 18.5484 20.7885C18.551 20.9045 18.6433 20.9941 18.7593 20.9941H20.3414C20.3695 20.9941 20.3974 20.9885 20.4233 20.9776C20.4493 20.9667 20.4728 20.9507 20.4924 20.9305C20.5121 20.9104 20.5275 20.8865 20.5378 20.8603C20.5481 20.8341 20.553 20.8061 20.5523 20.7779C20.5259 19.5176 20.2649 18.2915 19.7745 17.134V17.134ZM10.6382 11.0801C9.42799 11.0801 8.28893 10.6081 7.432 9.75117C6.57506 8.89424 6.10309 7.75518 6.10309 6.54492C6.10309 5.33467 6.57506 4.19561 7.432 3.33867C8.28893 2.48174 9.42799 2.00977 10.6382 2.00977C11.8485 2.00977 12.9876 2.48174 13.8445 3.33867C14.7014 4.19561 15.1734 5.33467 15.1734 6.54492C15.1734 7.75518 14.7014 8.89424 13.8445 9.75117C12.9876 10.6081 11.8485 11.0801 10.6382 11.0801Z" fill="black"/>
</svg>
