<svg width="25" height="25" viewBox="0 0 25 25" fill="none" xmlns="http://www.w3.org/2000/svg">
<path d="M19.9145 4.09711H17.8829V3.07284C17.8829 2.80118 17.7758 2.54065 17.5853 2.34856C17.3948 2.15648 17.1364 2.04856 16.867 2.04856C16.5976 2.04856 16.3392 2.15648 16.1487 2.34856C15.9582 2.54065 15.8512 2.80118 15.8512 3.07284V4.09711H9.75614V3.07284C9.75614 2.80118 9.64912 2.54065 9.45861 2.34856C9.26811 2.15648 9.00972 2.04856 8.7403 2.04856C8.47089 2.04856 8.2125 2.15648 8.022 2.34856C7.83149 2.54065 7.72446 2.80118 7.72446 3.07284V4.09711H5.69278C4.88453 4.09711 4.10938 4.42085 3.53786 4.99712C2.96634 5.57339 2.64526 6.35497 2.64526 7.16993V19.4612C2.64526 20.2762 2.96634 21.0578 3.53786 21.634C4.10938 22.2103 4.88453 22.5341 5.69278 22.5341H19.9145C20.7228 22.5341 21.4979 22.2103 22.0695 21.634C22.641 21.0578 22.9621 20.2762 22.9621 19.4612V7.16993C22.9621 6.35497 22.641 5.57339 22.0695 4.99712C21.4979 4.42085 20.7228 4.09711 19.9145 4.09711V4.09711ZM20.9304 19.4612C20.9304 19.7329 20.8234 19.9934 20.6329 20.1855C20.4423 20.3776 20.184 20.4855 19.9145 20.4855H5.69278C5.42337 20.4855 5.16498 20.3776 4.97448 20.1855C4.78397 19.9934 4.67694 19.7329 4.67694 19.4612V12.2913H20.9304V19.4612ZM20.9304 10.2428H4.67694V7.16993C4.67694 6.89828 4.78397 6.63775 4.97448 6.44566C5.16498 6.25357 5.42337 6.14566 5.69278 6.14566H7.72446V7.16993C7.72446 7.44159 7.83149 7.70212 8.022 7.8942C8.2125 8.08629 8.47089 8.19421 8.7403 8.19421C9.00972 8.19421 9.26811 8.08629 9.45861 7.8942C9.64912 7.70212 9.75614 7.44159 9.75614 7.16993V6.14566H15.8512V7.16993C15.8512 7.44159 15.9582 7.70212 16.1487 7.8942C16.3392 8.08629 16.5976 8.19421 16.867 8.19421C17.1364 8.19421 17.3948 8.08629 17.5853 7.8942C17.7758 7.70212 17.8829 7.44159 17.8829 7.16993V6.14566H19.9145C20.184 6.14566 20.4423 6.25357 20.6329 6.44566C20.8234 6.63775 20.9304 6.89828 20.9304 7.16993V10.2428Z" fill="#EA5455"/>
</svg>
