<svg width="22" height="23" viewBox="0 0 22 23" fill="none" xmlns="http://www.w3.org/2000/svg">
<path d="M20.4615 18.6254C19.9273 17.36 19.152 16.2105 18.1789 15.2411C17.2087 14.2689 16.0595 13.4938 14.7946 12.9585C14.7833 12.9528 14.7719 12.95 14.7606 12.9443C16.525 11.6699 17.6719 9.59404 17.6719 7.25195C17.6719 3.37207 14.5284 0.228516 10.6485 0.228516C6.76862 0.228516 3.62507 3.37207 3.62507 7.25195C3.62507 9.59404 4.77204 11.6699 6.5364 12.9472C6.52507 12.9528 6.51374 12.9557 6.50241 12.9613C5.23366 13.4966 4.09519 14.2641 3.11814 15.2439C2.14593 16.2141 1.37079 17.3634 0.83552 18.6282C0.309675 19.8665 0.0260743 21.1942 7.08178e-05 22.5393C-0.000685066 22.5695 0.00461657 22.5996 0.0156635 22.6277C0.0267104 22.6558 0.043279 22.6815 0.064393 22.7031C0.0855071 22.7248 0.110739 22.742 0.138603 22.7537C0.166467 22.7655 0.196398 22.7715 0.226633 22.7715H1.92585C2.05046 22.7715 2.14958 22.6724 2.15241 22.5506C2.20905 20.3643 3.08698 18.3167 4.63894 16.7647C6.2447 15.159 8.37722 14.2754 10.6485 14.2754C12.9198 14.2754 15.0523 15.159 16.6581 16.7647C18.21 18.3167 19.088 20.3643 19.1446 22.5506C19.1474 22.6752 19.2466 22.7715 19.3712 22.7715H21.0704C21.1006 22.7715 21.1305 22.7655 21.1584 22.7537C21.1863 22.742 21.2115 22.7248 21.2326 22.7031C21.2537 22.6815 21.2703 22.6558 21.2813 22.6277C21.2924 22.5996 21.2977 22.5695 21.2969 22.5393C21.2686 21.1855 20.9883 19.8687 20.4615 18.6254V18.6254ZM10.6485 12.123C9.3486 12.123 8.12517 11.6161 7.20476 10.6957C6.28435 9.77529 5.77741 8.55186 5.77741 7.25195C5.77741 5.95205 6.28435 4.72861 7.20476 3.8082C8.12517 2.88779 9.3486 2.38086 10.6485 2.38086C11.9484 2.38086 13.1718 2.88779 14.0923 3.8082C15.0127 4.72861 15.5196 5.95205 15.5196 7.25195C15.5196 8.55186 15.0127 9.77529 14.0923 10.6957C13.1718 11.6161 11.9484 12.123 10.6485 12.123Z" fill="#02D3AF"/>
</svg>
